<svg width="200" height="200" viewBox="0 0 200 200" fill="none" xmlns="http://www.w3.org/2000/svg">
<path d="M105 71C105 95.8528 84.8528 116 60 116C35.1472 116 15 95.8528 15 71C15 46.1472 35.1472 26 60 26C84.8528 26 105 46.1472 105 71Z" fill="#EA6868"/>
<path d="M183 70C183 94.8528 162.853 115 138 115C113.147 115 93 94.8528 93 70C93 45.1472 113.147 25 138 25C162.853 25 183 45.1472 183 70Z" fill="#EA6868"/>
<path d="M98.9647 173C98.9647 173 15.0162 115.24 15 73L182.93 73C185.818 104.52 98.9647 173 98.9647 173Z" fill="#EA6868"/>
</svg>
