<svg width="200" height="200" viewBox="0 0 200 200" fill="none" xmlns="http://www.w3.org/2000/svg">
<path d="M93.3571 116.027C93.3571 88.4874 115.663 66.1622 143.179 66.1622C170.694 66.1622 193 88.4875 193 116.027C193 143.567 170.694 165.892 143.179 165.892C115.663 165.892 93.3571 143.567 93.3571 116.027Z" fill="#3E3E3E"/>
<path d="M6.99999 117.135C6.99999 89.5955 29.3058 67.2703 56.8214 67.2703C84.337 67.2703 106.643 89.5955 106.643 117.135C106.643 144.675 84.337 167 56.8214 167C29.3058 167 6.99999 144.675 6.99999 117.135Z" fill="#3E3E3E"/>
<path d="M100.039 3.00001C100.039 3.00001 192.982 67.0038 193 113.811L7.07804 113.811C3.87965 78.8836 100.039 3.00001 100.039 3.00001Z" fill="#3E3E3E"/>
<path d="M100 156L120 191H80L100 156Z" fill="#3E3E3E"/>
</svg>
