<?xml version="1.0" encoding="iso-8859-1"?>
<!-- Generator: Adobe Illustrator 19.0.0, SVG Export Plug-In . SVG Version: 6.00 Build 0)  -->
<svg version="1.1" id="Layer_1" xmlns="http://www.w3.org/2000/svg" xmlns:xlink="http://www.w3.org/1999/xlink" x="0px" y="0px"
	 viewBox="0 0 512 512" style="enable-background:new 0 0 512 512;" xml:space="preserve">
<g>
	<rect x="25.555" y="100.007" style="fill:#B36E44;" width="75.577" height="330.491"/>
	<rect x="101.136" y="100.007" style="fill:#B36E44;" width="75.577" height="330.491"/>
	<rect x="176.713" y="100.007" style="fill:#B36E44;" width="75.577" height="330.491"/>
	<rect x="252.301" y="100.007" style="fill:#B36E44;" width="75.577" height="330.491"/>
	<rect x="327.879" y="100.007" style="fill:#B36E44;" width="75.577" height="330.491"/>
	<rect x="403.456" y="100.007" style="fill:#B36E44;" width="75.577" height="330.491"/>
</g>
<g>
	<rect x="25.557" y="100.007" style="fill:#8C5635;" width="18.808" height="330.491"/>
	<rect x="101.136" y="100.007" style="fill:#8C5635;" width="18.808" height="330.491"/>
	<rect x="176.713" y="100.007" style="fill:#8C5635;" width="18.808" height="330.491"/>
	<rect x="252.301" y="100.007" style="fill:#8C5635;" width="18.808" height="330.491"/>
	<rect x="327.879" y="100.007" style="fill:#8C5635;" width="18.808" height="330.491"/>
	<rect x="403.456" y="100.007" style="fill:#8C5635;" width="18.808" height="330.491"/>
</g>
<g>
	<path style="fill:#CFBAA7;" d="M488.49,265.241H23.51c-8.656,0-15.673-7.018-15.673-15.673l0,0c0-8.656,7.018-15.673,15.673-15.673
		h464.98c8.656,0,15.673,7.018,15.673,15.673l0,0C504.163,258.224,497.146,265.241,488.49,265.241z"/>
	<path style="fill:#CFBAA7;" d="M488.49,296.588H23.51c-8.656,0-15.673-7.018-15.673-15.673l0,0c0-8.656,7.018-15.673,15.673-15.673
		h464.98c8.656,0,15.673,7.018,15.673,15.673l0,0C504.163,289.57,497.146,296.588,488.49,296.588z"/>
</g>
<path style="fill:#F7F1EB;" d="M227.37,84.783v232.291c0,1.818-1.463,3.281-3.281,3.281H70.855c-1.808,0-3.281-1.463-3.281-3.281
	V84.783c0-1.808,1.473-3.281,3.281-3.281h153.234C225.907,81.502,227.37,82.975,227.37,84.783z"/>
<path style="fill:#DBD2CA;" d="M86.382,81.502v238.853H70.855c-1.808,0-3.281-1.463-3.281-3.281V84.783
	c0-1.808,1.473-3.281,3.281-3.281H86.382z"/>
<path d="M488.49,226.053h-1.609v-20.47c0-4.328-3.508-7.837-7.837-7.837s-7.837,3.509-7.837,7.837v20.47h-59.914V107.844h59.914
	v60.27c0,4.328,3.508,7.837,7.837,7.837s7.837-3.509,7.837-7.837v-68.106c0-4.328-3.508-7.837-7.837-7.837h-75.588h-75.577h-75.577
	h-17.094v-7.387c0-6.13-4.986-11.118-11.118-11.118h-47.376c-4.329,0-7.837,3.509-7.837,7.837s3.508,7.837,7.837,7.837h42.82
	v150.727c0,0.01,0,0.022,0,0.032v72.421H75.41v-14.08c0.001-0.004,0.002-0.009,0.003-0.014c0.033-0.139,0.066-0.277,0.091-0.419
	c0.02-0.11,0.036-0.22,0.05-0.331c0.02-0.143,0.04-0.286,0.051-0.433c0.009-0.112,0.013-0.223,0.017-0.334
	c0.004-0.109,0.017-0.215,0.017-0.325c0-0.042-0.005-0.082-0.006-0.123c-0.001-0.093-0.009-0.186-0.015-0.279
	c-0.008-0.171-0.018-0.344-0.038-0.512c-0.005-0.045-0.015-0.09-0.021-0.136c-0.037-0.273-0.087-0.54-0.152-0.804V89.339h66.173
	c4.329,0,7.837-3.509,7.837-7.837s-3.508-7.837-7.837-7.837H70.855c-6.13,0-11.118,4.987-11.118,11.118v7.387H25.558
	c-4.329,0-7.837,3.509-7.837,7.837v126.789c-4.065,1.026-7.795,3.105-10.818,6.139C2.452,237.369,0,243.275,0,249.563
	c0,6.025,2.28,11.525,6.02,15.69C2.143,269.564,0,275.064,0,280.91c0,10.966,7.548,20.201,17.721,22.787v27.535
	c0,4.328,3.508,7.837,7.837,7.837s7.837-3.509,7.837-7.837v-26.812h26.342v12.654c0,6.13,4.986,11.118,11.118,11.118h22.444v94.469
	H33.395V367.02c0-4.328-3.508-7.837-7.837-7.837s-7.837,3.509-7.837,7.837v63.478c0,4.328,3.508,7.837,7.837,7.837h75.577h75.577
	h75.588h75.577h75.577h75.588c4.329,0,7.837-3.509,7.837-7.837V304.421h1.609c6.278,0,12.178-2.444,16.607-6.871
	c4.452-4.435,6.904-10.343,6.904-16.639c0-6.022-2.278-11.52-6.015-15.684c3.873-4.31,6.015-9.812,6.015-15.663
	C512,236.599,501.453,226.053,488.49,226.053z M59.737,257.4h-5.915l5.915-11.308V257.4z M59.737,107.844v118.209H33.395V107.844
	H59.737z M17.987,244.019c1.472-1.479,3.434-2.292,5.523-2.292h20.822l-8.2,15.673H23.51c-4.322,0-7.837-3.515-7.837-7.837
	C15.673,247.474,16.487,245.512,17.987,244.019z M17.987,275.366c1.472-1.479,3.434-2.293,5.523-2.293h4.422l-7.795,14.9
	c-2.635-1.264-4.464-3.951-4.464-7.064C15.673,278.821,16.487,276.859,17.987,275.366z M37.422,288.747l8.199-15.673h14.116v15.673
	H37.422z M427.284,288.747l8.199-15.673h25.63l-8.195,15.673H427.284z M383.962,288.747l8.199-15.673h25.632l-8.2,15.673H383.962z
	 M340.65,288.747l8.199-15.673h25.622l-8.199,15.673H340.65z M254.008,288.747l8.199-15.673h25.632l-8.2,15.673H254.008z
	 M260.919,241.727l-8.2,15.673h-17.512v-15.502l0.09-0.171H260.919z M408.561,241.727h25.633l-8.2,15.673h-25.632L408.561,241.727z
	 M382.672,257.4H357.05l8.199-15.673h25.622L382.672,257.4z M339.362,257.4H313.73l8.199-15.673h25.632L339.362,257.4z
	 M296.04,257.4h-25.632l8.199-15.673h25.632L296.04,257.4z M235.207,288.747v-15.673h9.312l-8.2,15.673H235.207z M305.529,273.074
	h25.632l-8.2,15.673h-25.632L305.529,273.074z M443.684,257.4l8.199-15.673h25.624l-8.193,15.673H443.684z M494.004,244.001
	c1.434,1.421,2.323,3.389,2.323,5.562c0,2.097-0.814,4.063-2.303,5.545c-1.477,1.477-3.443,2.291-5.534,2.291H487L494.004,244.001z
	 M395.619,226.053h-59.904V107.844h59.904V226.053z M320.042,226.053h-59.904V107.844h59.904V226.053z M244.464,107.844v118.209
	h-9.258V107.844H244.464z M108.972,328.192h59.904v94.469h-59.904C108.972,422.661,108.972,328.192,108.972,328.192z
	 M184.55,328.192h39.539c6.13,0,11.118-4.987,11.118-11.118v-12.654h5.692c0.051,0.001,0.103,0.009,0.155,0.009
	c0.046,0,0.09-0.008,0.136-0.009h3.276v118.241H184.55V328.192z M260.138,304.421h24.082c0.051,0.001,0.103,0.009,0.155,0.009
	c0.046,0,0.09-0.008,0.136-0.009h35.532v118.241h-59.904L260.138,304.421L260.138,304.421z M335.715,304.421h35.137
	c0.051,0.001,0.103,0.009,0.155,0.009c0.046,0,0.09-0.008,0.136-0.009h24.477v118.241h-59.904L335.715,304.421L335.715,304.421z
	 M471.207,422.661h-59.914V304.421h2.881c0.051,0.001,0.103,0.009,0.155,0.009c0.046,0,0.09-0.008,0.136-0.009h43.125
	c0.022,0,0.044,0.003,0.066,0.003c0.021,0,0.042-0.003,0.062-0.003h13.489v118.241H471.207z M494.024,286.456
	c-1.477,1.477-3.443,2.291-5.534,2.291h-17.883l8.195-15.673h9.688c4.322,0,7.837,3.515,7.837,7.837
	C496.327,283.007,495.513,284.973,494.024,286.456z"/>
<g>
</g>
<g>
</g>
<g>
</g>
<g>
</g>
<g>
</g>
<g>
</g>
<g>
</g>
<g>
</g>
<g>
</g>
<g>
</g>
<g>
</g>
<g>
</g>
<g>
</g>
<g>
</g>
<g>
</g>
</svg>
