<?xml version="1.0" encoding="iso-8859-1"?>
<!-- Generator: Adobe Illustrator 19.0.0, SVG Export Plug-In . SVG Version: 6.00 Build 0)  -->
<svg version="1.1" id="Layer_1" xmlns="http://www.w3.org/2000/svg" xmlns:xlink="http://www.w3.org/1999/xlink" x="0px" y="0px"
	 viewBox="0 0 512 512" style="enable-background:new 0 0 512 512;" xml:space="preserve">
<path style="fill:#362928;" d="M167.321,17.816h177.36c5.014,0,9.08,4.978,9.08,11.119l0,0c0,6.141-4.066,11.119-9.08,11.119
	h-177.36c-5.014,0-9.08-4.978-9.08-11.119l0,0C158.24,22.794,162.305,17.816,167.321,17.816z"/>
<path style="fill:#2E2322;" d="M177.049,28.935c0-6.141,4.066-11.12,9.08-11.12h-18.808c-5.014,0-9.08,4.978-9.08,11.12
	c0,6.141,4.066,11.119,9.08,11.119h18.808C181.113,40.054,177.049,35.076,177.049,28.935z"/>
<path style="fill:#B36E44;" d="M376.163,389.355c0,63.407-53.799,114.808-120.163,114.808s-120.163-51.402-120.163-114.808
	S234.388,210.422,256,136.075C277.612,211.105,376.163,325.949,376.163,389.355z"/>
<path style="fill:#8C5635;" d="M154.645,389.355c0-56.579,78.468-154.657,110.722-227.948c-3.857-8.824-7.054-17.308-9.366-25.333
	c-21.612,74.347-120.163,189.874-120.163,253.28S189.635,504.163,256,504.163c3.165,0,6.301-0.119,9.404-0.348
	C203.435,499.231,154.645,449.738,154.645,389.355z"/>
<path style="fill:#F7EDE3;" d="M270.603,419.518h-29.206V12.016c0-2.308,1.871-4.18,4.18-4.18h20.847c2.308,0,4.18,1.871,4.18,4.18
	V419.518z"/>
<path style="fill:#DBD2CA;" d="M260.205,419.518h-18.808V12.016c0-2.308,1.871-4.18,4.18-4.18h14.629V419.518z"/>
<rect x="241.392" y="56.759" style="fill:#B36E44;" width="29.206" height="25.56"/>
<rect x="241.392" y="56.759" style="fill:#8C5635;" width="18.808" height="25.56"/>
<rect x="241.392" y="123.298" style="fill:#B36E44;" width="29.206" height="25.56"/>
<g>
	<path style="fill:#362928;" d="M284.579,441.668h-57.157c-1.624,0-3.03-1.126-3.385-2.71l-5.479-24.434
		c-0.486-2.168,1.163-4.229,3.385-4.229h68.115c2.223,0,3.871,2.059,3.385,4.229l-5.479,24.434
		C287.608,440.543,286.202,441.668,284.579,441.668z"/>
	<path style="fill:#362928;" d="M305.436,461.007h-98.871c-1.916,0-3.469-1.553-3.469-3.469v-14.745
		c0-1.916,1.553-3.469,3.469-3.469h98.871c1.916,0,3.469,1.553,3.469,3.469v14.745C308.905,459.453,307.351,461.007,305.436,461.007
		z"/>
</g>
<g>
	<path style="fill:#2E2322;" d="M242.845,438.958l-5.479-24.433c-0.486-2.168,1.163-4.229,3.385-4.229h-18.808
		c-2.221,0-3.871,2.061-3.385,4.229l5.479,24.433c0.355,1.584,1.762,2.71,3.385,2.71h18.808
		C244.606,441.668,243.2,440.543,242.845,438.958z"/>
	<path style="fill:#2E2322;" d="M221.903,457.537v-14.743c0-1.916,1.554-3.469,3.469-3.469h-18.808
		c-1.916,0-3.469,1.554-3.469,3.469v14.743c0,1.916,1.554,3.469,3.469,3.469h18.808
		C223.457,461.007,221.903,459.453,221.903,457.537z"/>
</g>
<rect x="241.392" y="123.298" style="fill:#8C5635;" width="18.808" height="25.56"/>
<path d="M300.07,278.426c-4.284-0.532-8.211,2.51-8.748,6.805c-1.992,15.948,1.923,49.095,30.997,60.393
	c0.934,0.363,1.893,0.534,2.837,0.534c3.139,0,6.102-1.899,7.307-5c1.567-4.034-0.433-8.575-4.466-10.144
	c-24.878-9.665-21.292-42.405-21.119-43.856C307.403,282.868,304.358,278.962,300.07,278.426z"/>
<path d="M184.004,331.013c-4.033,1.568-6.033,6.11-4.466,10.144c1.206,3.101,4.168,5,7.307,5c0.944,0,1.904-0.171,2.837-0.534
	c29.074-11.298,32.988-44.445,30.997-60.393c-0.538-4.296-4.458-7.336-8.748-6.805c-4.295,0.537-7.341,4.453-6.805,8.748
	C205.169,287.513,209.082,321.271,184.004,331.013z"/>
<path d="M233.556,148.856v21.889c-11.45,23.41-26.999,49.417-42.059,74.594C158.843,299.932,128,351.496,128,389.36
	C128,456.984,185.42,512,256,512s128-55.016,128-122.64c0-30.073-20.438-69.792-40.43-104.678
	c-2.152-3.755-6.941-5.055-10.696-2.902c-3.755,2.152-5.054,6.941-2.902,10.696c18.966,33.095,38.355,70.487,38.355,96.884
	C368.327,448.342,317.936,496.327,256,496.327S143.673,448.342,143.673,389.36c0-33.535,31.15-85.613,61.274-135.976
	c9.72-16.25,19.646-32.845,28.608-48.967v112.187c0,4.329,3.508,7.837,7.837,7.837c4.329,0,7.837-3.508,7.837-7.837V156.693h13.543
	v245.77h-13.543v-51.378c0-4.329-3.508-7.837-7.837-7.837c-4.329,0-7.837,3.508-7.837,7.837v51.378h-11.609
	c-3.461,0-6.683,1.55-8.84,4.252c-2.155,2.698-2.952,6.174-2.193,9.519l3.418,15.253h-7.768c-6.235,0-11.306,5.072-11.306,11.305
	v14.745c0,6.234,5.072,11.305,11.306,11.305h98.871c6.235,0,11.306-5.072,11.306-11.305v-14.745c0-6.234-5.072-11.305-11.306-11.305
	h-7.767l3.413-15.233c0.763-3.366-0.034-6.842-2.189-9.54c-2.157-2.702-5.379-4.252-8.84-4.252h-11.608V204.723
	c9.116,16.417,19.228,33.302,29.132,49.834l4.642,7.755c1.467,2.454,4.067,3.815,6.732,3.815c1.369,0,2.755-0.358,4.016-1.112
	c3.715-2.221,4.925-7.032,2.703-10.748l-4.648-7.765c-15.251-25.46-30.999-51.76-42.578-75.514v-22.133v-25.558v-75.41h66.236
	c4.737,0,9.285-2.227,12.504-6.141c2.845-3.496,4.413-8.047,4.413-12.814c0-10.452-7.589-18.955-16.916-18.955h-66.236V7.837
	c0-4.329-3.508-7.837-7.837-7.837h-29.216c-4.329,0-7.837,3.508-7.837,7.837v2.142H167.32c-4.737,0-9.285,2.227-12.504,6.141
	c-2.845,3.496-4.413,8.047-4.413,12.815c0,10.451,7.589,18.954,16.916,18.954h10.574c4.329,0,7.837-3.508,7.837-7.837
	s-3.508-7.837-7.837-7.837l-10.488,0.014c-0.378-0.142-1.329-1.33-1.329-3.294c0-1.141,0.334-2.233,0.869-2.89
	c0.236-0.286,0.41-0.38,0.393-0.392h66.216v6.562h-20.658c-4.329,0-7.837,3.508-7.837,7.837s3.508,7.837,7.837,7.837h20.658v75.409
	v25.558H233.556z M301.069,453.169h-90.137v-6.008h90.137V453.169z M281.607,431.487h-51.214l-2.992-13.351h57.196L281.607,431.487z
	 M262.771,90.157v25.304h-13.542V90.157H262.771z M249.233,74.483v-9.887h13.532v9.887H249.233z M249.229,141.019v-9.885h13.543
	v9.885H249.229z M344.593,25.639c0.378,0.142,1.33,1.33,1.33,3.295c0,1.14-0.334,2.232-0.869,2.889
	c-0.236,0.286-0.41,0.38-0.393,0.392h-66.216V25.65L344.593,25.639z M249.229,15.673h13.543v33.25h-13.543V15.673z"/>
<g>
</g>
<g>
</g>
<g>
</g>
<g>
</g>
<g>
</g>
<g>
</g>
<g>
</g>
<g>
</g>
<g>
</g>
<g>
</g>
<g>
</g>
<g>
</g>
<g>
</g>
<g>
</g>
<g>
</g>
</svg>
