<?xml version="1.0" encoding="iso-8859-1"?>
<!-- Generator: Adobe Illustrator 19.0.0, SVG Export Plug-In . SVG Version: 6.00 Build 0)  -->
<svg version="1.1" id="Layer_1" xmlns="http://www.w3.org/2000/svg" xmlns:xlink="http://www.w3.org/1999/xlink" x="0px" y="0px"
	 viewBox="0 0 511.996 511.996" style="enable-background:new 0 0 511.996 511.996;" xml:space="preserve">
<path id="SVGCleanerId_0" style="fill:#FCB5A6;" d="M253.06,109.681l-24.691,81.553c-1.169,3.863-4.714,6.519-8.75,6.558
	l-85.187,0.81c-3.292,0.031-6.057-1.877-8.032-4.512C80.738,133.175,92.696,80.211,87.744,48.628
	c-0.979-6.248,4.47-11.596,10.701-10.517l0.009,0.001c5.196,0.901,10.09-2.726,10.739-7.959l0.01-0.087
	c0.775-6.235,7.403-9.895,13.087-7.219c28.801,13.557,83.066,16.914,128.691,77.856C252.957,103.34,254.014,106.529,253.06,109.681z
	"/>
<path id="SVGCleanerId_1" style="fill:#FCB5A6;" d="M133.33,199.776l69.932,48.684c3.313,2.306,4.744,6.497,3.533,10.348
	l-25.555,81.268c-0.987,3.141-3.657,5.182-6.773,6.245c-72.044,24.602-118.719-3.137-150.288-8.187
	c-6.245-0.999-9.648-7.835-6.695-13.427l0.004-0.008c2.462-4.663,0.526-10.438-4.251-12.674l-0.079-0.038
	c-5.691-2.663-7.123-10.098-2.822-14.678c21.792-23.202,41.755-73.774,113.813-98.333
	C127.268,197.915,130.627,197.895,133.33,199.776z"/>
<path style="fill:#FCB5A6;" d="M182.017,341.487l67.911-51.465c3.217-2.438,7.646-2.504,10.933-0.162l69.394,49.417
	c2.682,1.91,3.797,5.079,3.846,8.372c1.136,76.121-39.67,111.94-54.228,140.402c-2.88,5.631-10.432,6.755-14.839,2.218l-0.006-0.006
	c-3.674-3.783-9.765-3.725-13.367,0.126l-0.06,0.064c-4.291,4.588-11.805,3.654-14.831-1.852
	c-15.332-27.896-57.26-62.509-58.35-138.63C178.373,346.678,179.393,343.476,182.017,341.487z"/>
<g>
	<path id="SVGCleanerId_0_1_" style="fill:#FCB5A6;" d="M253.06,109.681l-24.691,81.553c-1.169,3.863-4.714,6.519-8.75,6.558
		l-85.187,0.81c-3.292,0.031-6.057-1.877-8.032-4.512C80.738,133.175,92.696,80.211,87.744,48.628
		c-0.979-6.248,4.47-11.596,10.701-10.517l0.009,0.001c5.196,0.901,10.09-2.726,10.739-7.959l0.01-0.087
		c0.775-6.235,7.403-9.895,13.087-7.219c28.801,13.557,83.066,16.914,128.691,77.856C252.957,103.34,254.014,106.529,253.06,109.681
		z"/>
</g>
<g>
	<path id="SVGCleanerId_1_1_" style="fill:#FCB5A6;" d="M133.33,199.776l69.932,48.684c3.313,2.306,4.744,6.497,3.533,10.348
		l-25.555,81.268c-0.987,3.141-3.657,5.182-6.773,6.245c-72.044,24.602-118.719-3.137-150.288-8.187
		c-6.245-0.999-9.648-7.835-6.695-13.427l0.004-0.008c2.462-4.663,0.526-10.438-4.251-12.674l-0.079-0.038
		c-5.691-2.663-7.123-10.098-2.822-14.678c21.792-23.202,41.755-73.774,113.813-98.333
		C127.268,197.915,130.627,197.895,133.33,199.776z"/>
</g>
<g>
	<path style="fill:#ED836E;" d="M145.803,194.09c-45.661-60.915-33.703-113.878-38.655-145.462
		c-0.98-6.248,4.47-11.596,10.701-10.517l0.009,0.001c5.196,0.901,10.09-2.726,10.739-7.959l0.01-0.087
		c0.185-1.491,0.713-2.831,1.475-3.976c-2.763-1.037-5.369-2.103-7.792-3.243c-5.684-2.676-12.312,0.984-13.087,7.219l-0.01,0.087
		c-0.651,5.233-5.544,8.86-10.739,7.959l-0.009-0.001c-6.232-1.08-11.681,4.268-10.701,10.517
		c4.952,31.584-7.006,84.547,38.655,145.462c1.975,2.634,4.74,4.543,8.032,4.512l17.759-0.169
		C149.622,197.936,147.438,196.271,145.803,194.09z"/>
	<path style="fill:#ED836E;" d="M43.583,338.134c-6.245-0.999-9.648-7.835-6.695-13.427l0.004-0.008
		c2.462-4.663,0.526-10.439-4.251-12.674l-0.079-0.038c-5.691-2.663-7.123-10.098-2.822-14.678
		c21.018-22.378,40.342-70.215,106.341-95.619l-2.752-1.915c-2.703-1.882-6.063-1.861-9.179-0.799
		c-72.058,24.558-92.021,75.131-113.813,98.333c-4.301,4.58-2.868,12.014,2.822,14.678l0.079,0.038
		c4.776,2.236,6.712,8.01,4.251,12.674l-0.004,0.008c-2.953,5.592,0.45,12.428,6.695,13.427
		c23.846,3.815,56.317,20.571,101.826,17.938C90.457,354.022,63.893,341.384,43.583,338.134z"/>
	<path style="fill:#ED836E;" d="M197.824,349.971c-0.047-3.292,0.972-6.494,3.597-8.484l63.918-48.439l-4.477-3.188
		c-3.288-2.342-7.716-2.276-10.933,0.162l-67.911,51.465c-2.625,1.989-3.644,5.191-3.597,8.484
		c1.089,76.121,43.017,110.734,58.35,138.63c3.026,5.506,10.54,6.441,14.831,1.852l0.06-0.064c1.16-1.241,2.58-2.081,4.093-2.534
		C240.096,460.086,198.903,425.415,197.824,349.971z"/>
</g>
<g>
	<path style="fill:#FCB5A6;" d="M331.837,338.974l-27.961-80.491c-1.325-3.813-0.019-8.045,3.225-10.448l68.443-50.727
		c2.646-1.96,6.004-2.042,9.15-1.071c72.746,22.442,94.203,72.319,116.773,94.96c4.465,4.479,3.201,12.009-2.476,14.798L498.981,306
		c-4.733,2.326-6.56,8.136-4.01,12.752l0.043,0.076c3.038,5.499-0.173,12.357-6.345,13.534
		c-31.268,5.961-77.144,35.142-149.876,12.655C335.648,344.043,332.918,342.085,331.837,338.974z"/>
	<path style="fill:#FCB5A6;" d="M375.744,195.71l-85.192,1.719c-4.035,0.082-7.657-2.468-8.94-6.296l-27.094-80.769
		c-1.047-3.121-0.087-6.341,1.809-9.033c43.824-62.25,97.89-67.244,126.397-81.713c5.639-2.862,12.41,0.668,13.309,6.928
		l0.001,0.009c0.749,5.22,5.71,8.753,10.888,7.755l0.086-0.017c6.169-1.189,11.699,3.983,10.911,10.216
		c-3.993,31.58,9.583,84.227-34.279,146.451C381.743,193.653,379.036,195.643,375.744,195.71z"/>
</g>
<g>
	<path style="fill:#ED836E;" d="M358.125,345.016c-3.146-0.973-5.876-2.931-6.957-6.042l-27.961-80.491
		c-1.325-3.813-0.019-8.045,3.225-10.448l66.291-49.132c-2.608-0.925-5.277-1.817-8.029-2.667c-3.146-0.971-6.506-0.889-9.15,1.071
		L307.1,248.034c-3.243,2.403-4.548,6.635-3.225,10.448l27.961,80.491c1.08,3.111,3.811,5.069,6.957,6.042
		c23.746,7.341,44.628,9.174,63.075,8.106C388.472,352.348,373.933,349.904,358.125,345.016z"/>
	<path style="fill:#ED836E;" d="M303.294,194.792L276.2,114.023c-1.047-3.122-0.087-6.341,1.809-9.034
		c39.885-56.654,88.249-65.884,118.113-77.993c-0.028-0.147-0.066-0.29-0.087-0.441l-0.001-0.009
		c-0.899-6.26-7.67-9.79-13.309-6.928c-28.508,14.469-82.574,19.463-126.397,81.713c-1.895,2.693-2.856,5.912-1.809,9.034
		l27.094,80.769c1.284,3.826,4.905,6.377,8.94,6.294l13.938-0.281C303.99,196.435,303.58,195.647,303.294,194.792z"/>
</g>
<path style="fill:#F78972;" d="M387.694,191.869c-13.778-6.515-46.178-20.483-76.63-23.611c-2.541-0.261-4.762-1.873-5.795-4.21
	c-12.387-27.989-35.671-54.479-46.122-65.572c-2.887-3.064-7.743-3.064-10.629,0.001c-10.446,11.091-33.715,37.572-46.099,65.554
	c-1.033,2.335-3.254,3.949-5.795,4.21c-30.459,3.127-62.872,17.107-76.654,23.626c-3.803,1.799-5.304,6.416-3.283,10.106
	c7.316,13.365,25.31,43.698,48.1,64.127c1.902,1.704,2.749,4.314,2.213,6.811c-6.431,29.93-3.152,65.062-1.212,80.179
	c0.536,4.173,4.463,7.026,8.597,6.245c14.972-2.827,49.381-10.568,75.852-25.929c2.209-1.282,4.953-1.282,7.162,0
	c26.478,15.365,60.903,23.104,75.881,25.93c4.135,0.781,8.061-2.073,8.596-6.246c1.937-15.113,5.209-50.229-1.22-80.152
	c-0.536-2.497,0.311-5.106,2.213-6.811c22.796-20.434,40.793-50.783,48.109-64.155C392.998,198.284,391.499,193.667,387.694,191.869
	z"/>
<path style="fill:#E87861;" d="M183.161,353.327c-1.885-14.684-5.069-48.807,1.178-77.877c0.521-2.425-0.303-4.96-2.149-6.615
	c-22.135-19.843-39.612-49.305-46.718-62.286c-1.962-3.585-0.506-8.069,3.189-9.817c13.386-6.332,44.868-19.911,74.452-22.948
	c2.468-0.253,4.625-1.82,5.629-4.089c12.029-27.178,34.629-52.899,44.775-63.672c0.443-0.47,0.938-0.858,1.462-1.18
	c-2.202-2.47-4.176-4.612-5.829-6.367c-2.887-3.064-7.743-3.064-10.629,0.001c-10.446,11.091-33.715,37.572-46.099,65.554
	c-1.033,2.335-3.254,3.949-5.795,4.21c-30.459,3.127-62.872,17.108-76.654,23.626c-3.803,1.799-5.304,6.416-3.283,10.106
	c7.316,13.365,25.31,43.698,48.1,64.127c1.902,1.704,2.749,4.314,2.213,6.812c-6.431,29.93-3.152,65.062-1.212,80.179
	c0.536,4.173,4.463,7.026,8.597,6.245c2.862-0.54,6.438-1.262,10.528-2.181C183.989,356.126,183.352,354.815,183.161,353.327z"/>
<path style="fill:#F7B94F;" d="M320.845,212.043c-6.666-3.171-22.345-9.974-37.093-11.522c-1.231-0.13-2.304-0.913-2.802-2.046
	c-5.968-13.571-17.218-26.43-22.268-31.814c-1.395-1.487-3.747-1.492-5.149-0.011c-5.073,5.36-16.374,18.162-22.404,31.703
	c-0.504,1.131-1.581,1.909-2.812,2.032c-14.758,1.481-30.474,8.217-37.158,11.359c-1.844,0.867-2.576,3.102-1.602,4.892
	c3.529,6.483,12.212,21.196,23.228,31.117c0.92,0.828,1.327,2.093,1.065,3.302c-3.148,14.491-1.6,31.513-0.677,38.838
	c0.255,2.022,2.154,3.408,4.158,3.035c7.256-1.353,23.931-5.064,36.772-12.475c1.071-0.619,2.4-0.615,3.469,0.008
	c12.808,7.472,29.476,11.26,36.728,12.645c2.002,0.382,3.907-0.995,4.171-3.017c0.955-7.318,2.58-24.325-0.502-38.827
	c-0.257-1.21,0.157-2.473,1.079-3.297c11.064-9.872,19.816-24.554,23.375-31.023C323.407,215.157,322.686,212.919,320.845,212.043z"
	/>
<path d="M502.35,313.071c0.029-0.014,0.061-0.028,0.09-0.043c4.94-2.424,8.427-7.109,9.328-12.531
	c0.899-5.413-0.882-10.961-4.753-14.832c-4.911-4.929-9.875-11.384-15.622-18.858c-7.598-9.882-16.213-21.082-27.424-32.259
	c-3.066-3.055-8.028-3.048-11.083,0.018c-3.056,3.066-3.048,8.028,0.018,11.084c10.481,10.449,18.761,21.215,26.065,30.713
	c5.823,7.573,11.325,14.727,16.955,20.377c0.331,0.33,0.46,0.731,0.383,1.191c-0.05,0.303-0.209,0.709-0.675,0.977
	c-0.041,0.02-0.08,0.039-0.121,0.059c-4.163,2.054-7.349,5.774-8.738,10.206c-1.391,4.431-0.901,9.305,1.344,13.37
	c0.01,0.02,0.032,0.06,0.054,0.097c0.27,0.51,0.164,0.962,0.026,1.255c-0.197,0.422-0.529,0.679-0.991,0.767
	c-7.793,1.488-16.351,4.298-25.41,7.271c-27.995,9.191-62.566,20.522-110.695,8.384c1.437-17.053,2.273-42.39-2.057-65.409
	l78.305,24.155c0.769,0.237,1.547,0.35,2.313,0.35c3.347,0,6.447-2.162,7.486-5.53c1.276-4.136-1.043-8.523-5.179-9.799
	l-73.273-22.603c17.31-18.689,30.891-41.003,37.565-52.881c11.619,4.592,22.441,10.235,32.227,16.852
	c1.346,0.91,2.872,1.346,4.382,1.346c2.514,0,4.985-1.208,6.499-3.449c2.424-3.586,1.483-8.457-2.102-10.883
	c-11.704-7.913-24.716-14.543-38.711-19.775c-0.771-1.864-1.909-3.545-3.328-4.956c29.839-46.546,29.738-87.528,29.644-117.834
	c-0.028-9.418-0.053-17.55,0.816-24.419c0.688-5.412-1.274-10.868-5.249-14.596c-3.98-3.732-9.559-5.342-14.919-4.309
	c-0.047,0.008-0.101,0.021-0.158,0.033c-0.45,0.06-0.789-0.099-1-0.249c-0.213-0.153-0.48-0.427-0.563-0.883
	c-0.003-0.021-0.006-0.041-0.009-0.062c-0.779-5.439-4.155-10.197-9.026-12.73c-4.867-2.53-10.696-2.558-15.59-0.074
	c-6.211,3.152-13.891,5.884-22.783,9.046c-28.298,10.062-66.681,23.722-100.322,66.857c-0.739-0.112-1.485-0.188-2.239-0.188
	c-0.818,0-1.627,0.087-2.427,0.218c-11.411-13.925-23.893-25.465-38.02-35.146c-3.571-2.447-8.448-1.535-10.895,2.034
	c-2.446,3.57-1.535,8.448,2.034,10.895c12.606,8.638,23.803,18.926,34.081,31.324c-9.919,10.974-26.385,30.707-38.077,52.461
	L152.327,85.81c-2.594-3.462-7.508-4.167-10.971-1.57c-3.463,2.597-4.166,7.509-1.569,10.971l49.503,66.044
	c-23.822,3.523-47.915,12.628-62.966,19.131C99.038,139.372,98.031,103.18,97.229,73.867c-0.261-9.563-0.509-18.595-1.744-26.477
	c-0.073-0.465,0.06-0.868,0.394-1.197c0.233-0.229,0.631-0.478,1.217-0.377c0.073,0.013,0.146,0.024,0.219,0.036
	c4.508,0.726,9.189-0.413,12.866-3.134c3.734-2.765,6.209-6.996,6.787-11.59c0.001-0.01,0.014-0.104,0.015-0.115
	c0.073-0.589,0.426-0.899,0.709-1.055c0.41-0.227,0.831-0.239,1.261-0.037c7.169,3.372,15.734,6.126,24.801,9.043
	c10.109,3.252,21.568,6.937,33.387,12.188c3.955,1.758,8.587-0.024,10.343-3.98c1.758-3.955-0.024-8.587-3.98-10.344
	c-12.585-5.591-24.467-9.413-34.951-12.785c-8.946-2.878-16.672-5.362-22.928-8.305c-4.933-2.322-10.727-2.137-15.499,0.493
	c-4.774,2.632-8.026,7.438-8.706,12.924c-0.063,0.499-0.341,0.799-0.562,0.963c-0.219,0.162-0.584,0.336-1.068,0.254
	c-0.066-0.011-0.132-0.022-0.197-0.031c-5.347-0.865-10.832,0.871-14.701,4.676c-3.914,3.848-5.742,9.384-4.889,14.805
	c1.08,6.885,1.303,15.036,1.561,24.474c0.805,29.423,1.914,69.183,30.854,113.457c-1.682,1.679-2.982,3.734-3.726,6.026
	c-0.311,0.959-0.519,1.944-0.632,2.935c-48.225,20.283-71.371,52.326-88.433,75.965c-5.507,7.629-10.261,14.217-14.995,19.26
	c-3.74,3.975-5.357,9.547-4.327,14.904c1.01,5.257,4.464,9.76,9.266,12.106c0.112,0.06,0.226,0.116,0.341,0.17
	c0.45,0.211,0.649,0.566,0.737,0.827c0.087,0.257,0.141,0.654-0.087,1.086c-0.056,0.107-0.11,0.214-0.161,0.323
	c-2.408,4.791-2.426,10.478-0.029,15.286c2.447,4.911,7.143,8.362,12.568,9.235c6.882,1.099,14.705,3.405,23.764,6.077
	c18.542,5.467,41.505,12.238,69.646,12.238c13.21,0,27.563-1.5,43.132-5.32c1.078,2.177,2.66,4.096,4.652,5.543
	c2.184,1.587,4.755,2.535,7.408,2.799c1.558,16.085,5.001,31.134,10.473,45.771c1.178,3.15,4.165,5.095,7.341,5.095
	c0.912,0,1.839-0.16,2.744-0.498c4.054-1.515,6.112-6.031,4.595-10.085c-5.098-13.637-8.272-27.696-9.652-42.79
	c15.99-3.625,40.326-10.37,61.306-21.316l1.14,76.613c0.064,4.288,3.56,7.721,7.834,7.721c0.039,0,0.078,0,0.118-0.001
	c4.328-0.065,7.783-3.625,7.72-7.953l-1.1-73.991c22.219,10.709,47.113,16.986,61.61,20.034
	c-3.609,45.11-22.941,73.346-38.628,96.234c-5.408,7.891-10.517,15.344-14.15,22.452c-0.213,0.418-0.556,0.666-1.018,0.735
	c-0.325,0.048-0.797,0.016-1.214-0.415c-0.11-0.114-0.224-0.224-0.341-0.33c-3.208-3.129-7.572-4.879-12.072-4.851
	c-4.599,0.042-9.039,1.973-12.209,5.303c-0.057,0.057-0.113,0.116-0.169,0.174c-0.401,0.432-0.866,0.472-1.189,0.433
	c-0.465-0.059-0.816-0.298-1.044-0.709c-3.823-6.951-9.137-14.221-14.763-21.919c-5.68-7.771-12.117-16.578-18.094-26.517
	c-2.23-3.708-7.045-4.908-10.755-2.677c-3.708,2.231-4.907,7.047-2.677,10.756c6.34,10.542,12.999,19.65,18.872,27.688
	c5.552,7.595,10.346,14.154,13.684,20.224c2.629,4.778,7.427,8.033,12.837,8.709c0.699,0.087,1.399,0.131,2.096,0.131
	c4.644,0,9.149-1.906,12.383-5.307c0.056-0.056,0.111-0.113,0.165-0.17c0.336-0.362,0.732-0.44,1.005-0.442c0.004,0,0.008,0,0.014,0
	c0.271,0,0.658,0.074,0.994,0.42c0.111,0.114,0.225,0.225,0.342,0.331c3.813,3.722,9.192,5.462,14.465,4.671
	c5.426-0.816,10.155-4.222,12.646-9.105c3.172-6.205,7.782-12.931,13.121-20.719c16.031-23.389,37.753-55.105,41.429-105.201
	c0.743-0.37,1.459-0.798,2.136-1.29c2.827-2.053,4.839-5.05,5.725-8.405c15.537,3.745,29.833,5.243,42.984,5.243
	c30.49,0,54.86-8.001,74.442-14.429c8.938-2.935,16.658-5.469,23.452-6.766c5.348-1.016,9.925-4.564,12.244-9.494
	c2.323-4.939,2.136-10.742-0.501-15.523c-0.011-0.021-0.036-0.064-0.059-0.104c-0.224-0.424-0.177-0.817-0.096-1.073
	C501.801,313.618,501.972,313.293,502.35,313.071z M361.642,36.425c9.009-3.204,17.52-6.23,24.625-9.837
	c0.424-0.214,0.849-0.213,1.267,0.004c0.281,0.146,0.631,0.435,0.73,0.987c0.004,0.026,0.007,0.052,0.011,0.078
	c0.664,4.594,3.211,8.774,6.991,11.467c3.78,2.694,8.567,3.734,13.128,2.864c0.051-0.01,0.112-0.023,0.177-0.037
	c0.543-0.08,0.918,0.153,1.144,0.364c0.34,0.319,0.483,0.718,0.422,1.19c-0.997,7.879-0.97,16.895-0.94,26.441
	c0.093,30.135,0.189,67.352-27.875,110.437c-14.949-6.456-38.813-15.47-62.467-19.04l48.445-68.82
	c2.492-3.539,1.642-8.428-1.896-10.92c-3.539-2.491-8.429-1.64-10.919,1.898l-47.144,66.973
	c-11.756-21.989-28.441-41.954-38.405-52.961C299.609,58.503,333.879,46.297,361.642,36.425z M51.132,336.918
	c-9.178-2.706-17.848-5.262-25.717-6.519c-0.467-0.075-0.811-0.328-1.021-0.75c-0.146-0.292-0.261-0.75,0.017-1.276
	c0.056-0.107,0.111-0.215,0.162-0.324c2.028-4.039,2.372-8.784,0.933-13.079c-1.444-4.314-4.598-7.911-8.676-9.912
	c-0.119-0.064-0.24-0.123-0.363-0.181c-0.531-0.248-0.715-0.676-0.775-0.992c-0.088-0.459,0.03-0.864,0.357-1.212
	c5.43-5.785,10.702-13.087,16.283-20.82c16.708-23.148,37.335-51.693,80.78-70.255c7.45,12.924,21.063,34.477,38.005,52.144
	l-71.612,24.457c-4.096,1.399-6.282,5.854-4.884,9.95c1.112,3.257,4.157,5.306,7.416,5.306c0.84,0,1.695-0.136,2.533-0.422
	l73.497-25.101c-3.953,23.619-2.762,49.16-1.238,65.438C111.703,354.758,78.244,344.912,51.132,336.918z M173.486,351.532
	c-1.767-14.007-4.987-48.302,1.173-76.978c1.125-5.24-0.654-10.717-4.645-14.293c-21.833-19.574-39.381-49.197-46.183-61.561
	c12.779-6.011,44.41-19.678,73.591-22.674c4.4-0.452,8.338-2.841,10.801-6.416c0.082-0.112,0.153-0.229,0.228-0.344
	c0.426-0.656,0.809-1.346,1.132-2.074c11.867-26.812,34.598-52.652,44.248-62.942c9.655,10.291,32.401,36.141,44.27,62.958
	c0.549,1.239,1.257,2.381,2.095,3.405c0.015,0.018,0.031,0.034,0.046,0.053c2.473,2.996,6.06,4.97,10.02,5.377
	c29.171,2.996,60.792,16.652,73.568,22.659c-6.803,12.372-24.355,42.01-46.192,61.586c-3.99,3.578-5.77,9.055-4.645,14.294
	c6.159,28.667,2.945,62.951,1.182,76.951c-13.867-2.647-47.477-10.181-72.843-24.903c-2.319-1.345-4.916-2.018-7.514-2.018
	s-5.197,0.673-7.514,2.018C220.939,341.347,187.346,348.884,173.486,351.532z"/>
<path d="M290.599,298.496c1.534,2.111,3.923,3.231,6.346,3.231c1.597,0,3.209-0.487,4.6-1.497c3.503-2.544,4.278-7.445,1.733-10.947
	l-34.605-47.633l55.992-18.194c4.116-1.337,6.37-5.759,5.031-9.875c-1.336-4.117-5.763-6.369-9.874-5.031l-55.992,18.194v-58.878
	c0-4.328-3.508-7.837-7.837-7.837c-4.328,0-7.837,3.509-7.837,7.837v58.878l-55.993-18.194c-4.116-1.339-8.537,0.915-9.874,5.032
	c-1.337,4.116,0.915,8.538,5.031,9.875l55.993,18.194l-34.605,47.633c-2.544,3.501-1.768,8.403,1.733,10.947
	c1.391,1.01,3.003,1.497,4.6,1.497c2.423,0,4.813-1.12,6.347-3.231l34.605-47.633L290.599,298.496z"/>
<g>
</g>
<g>
</g>
<g>
</g>
<g>
</g>
<g>
</g>
<g>
</g>
<g>
</g>
<g>
</g>
<g>
</g>
<g>
</g>
<g>
</g>
<g>
</g>
<g>
</g>
<g>
</g>
<g>
</g>
</svg>
