<?xml version="1.0" encoding="iso-8859-1"?>
<!-- Generator: Adobe Illustrator 19.0.0, SVG Export Plug-In . SVG Version: 6.00 Build 0)  -->
<svg version="1.1" id="Layer_1" xmlns="http://www.w3.org/2000/svg" xmlns:xlink="http://www.w3.org/1999/xlink" x="0px" y="0px"
	 viewBox="0 0 512 512" style="enable-background:new 0 0 512 512;" xml:space="preserve">
<path style="fill:#F75534;" d="M475.429,293.477c0,137.057-98.241,210.686-219.429,210.686S36.571,430.535,36.571,293.477
	S107.937,7.837,256,7.837S475.429,156.421,475.429,293.477z"/>
<path style="fill:#BD391E;" d="M55.032,293.477c0-134.173,68.407-279.37,210.199-285.421c-3.048-0.13-6.116-0.219-9.231-0.219
	c-148.063,0-219.429,148.584-219.429,285.641S134.813,504.163,256,504.163c3.093,0,6.168-0.061,9.23-0.156
	C148.325,500.35,55.032,427.036,55.032,293.477z"/>
<path style="fill:#FFE8D1;" d="M425.049,251.382c-6.384,84.031-97.646,59.611-169.044,58.765
	c-71.408,0.846-162.659,25.266-169.054-58.765c-2.904-38.162,2.679-68.362,9.64-89.963c7.609-23.612,29.733-39.508,54.541-39.508
	h209.737c24.808,0,46.932,15.895,54.541,39.508C422.37,183.019,427.953,213.22,425.049,251.382z"/>
<g>
	<path style="fill:#EBC7A4;" d="M105.237,251.382c-2.904-38.162,2.679-68.362,9.64-89.963c7.609-23.612,29.733-39.508,54.541-39.508
		h-18.286c-24.807,0-46.931,15.895-54.541,39.508c-6.961,21.6-12.544,51.801-9.64,89.963c4.286,56.318,46.688,63.922,95.685,62.557
		C141.771,312.58,108.979,300.545,105.237,251.382z"/>
	<path style="fill:#EBC7A4;" d="M274.291,310.147c-3.015,0.036-6.067,0.116-9.143,0.226c27.167,0.97,56.473,4.431,82.507,3.566
		C323.543,313.268,297.838,310.426,274.291,310.147z"/>
</g>
<g>
	<circle style="fill:#F7EDE3;" cx="170.381" cy="256.815" r="34.2"/>
	<circle style="fill:#F7EDE3;" cx="341.619" cy="256.815" r="34.2"/>
</g>
<g>
	<path style="fill:#362928;" d="M262.38,199.535c0,0,31.14-1.269,74.18-47.293c0,0,10.558-18.152,28.343-2.917
		c10.96,9.388,13.159,27.958-20.723,49.814C289.647,234.316,262.38,199.535,262.38,199.535z"/>
	<path style="fill:#362928;" d="M249.62,199.535c0,0-31.14-1.269-74.181-47.293c0,0-10.558-18.152-28.343-2.917
		c-10.96,9.388-13.159,27.958,20.723,49.814C222.353,234.316,249.62,199.535,249.62,199.535z"/>
</g>
<g>
	<path style="fill:#FFE666;" d="M243.342,481.704c0,0-24.004-27.573-30.231-118.867c0,0,2.651-30.637-20.776-27.213
		c-14.436,2.11-27.493,22.577-13.84,77.177C200.47,500.677,243.342,481.704,243.342,481.704z"/>
	<path style="fill:#FFE666;" d="M154.39,448.436c0,0-19.918-22.879-25.085-98.631c0,0,2.2-25.421-17.239-22.581
		c-11.979,1.75-22.812,18.734-11.483,64.039C118.816,464.179,154.39,448.436,154.39,448.436z"/>
	<path style="fill:#FFE666;" d="M268.658,481.704c0,0,24.004-27.573,30.231-118.867c0,0-2.651-30.637,20.776-27.213
		c14.436,2.11,27.493,22.577,13.84,77.177C311.53,500.677,268.658,481.704,268.658,481.704z"/>
	<path style="fill:#FFE666;" d="M357.61,448.436c0,0,19.918-22.879,25.085-98.631c0,0-2.2-25.421,17.239-22.581
		c11.979,1.75,22.812,18.734,11.483,64.039C393.184,464.179,357.61,448.436,357.61,448.436z"/>
</g>
<path style="fill:#362928;" d="M298.051,147.853C277.025,170.705,256,176.849,256,176.849s-21.025-6.144-42.051-28.996
	c0,0,21.473-4.618,42.051-4.618S298.051,147.853,298.051,147.853z"/>
<circle cx="384.658" cy="204.999" r="7.837"/>
<circle cx="401" cy="235.792" r="7.837"/>
<circle cx="127.342" cy="204.999" r="7.837"/>
<circle cx="111" cy="235.792" r="7.837"/>
<path d="M82,438.506c1.764,0,3.539-0.592,5.002-1.808c3.33-2.765,3.788-7.705,1.023-11.035
	c-28.943-34.858-43.617-79.331-43.617-132.186c0-70.488,19.268-139.688,52.866-189.856C124.142,63.499,173.491,15.673,256,15.673
	c57.055,0,106.871,23.62,144.067,68.308c2.768,3.327,7.71,3.778,11.037,1.009c3.327-2.768,3.778-7.709,1.01-11.036
	C371.844,25.573,317.86,0,256,0C185.218,0,125.828,32.816,84.251,94.901c-35.282,52.683-55.516,125.062-55.516,198.577
	c0,55.812,16.333,104.983,47.231,142.198C77.517,437.543,79.75,438.506,82,438.506z"/>
<path d="M483.265,293.477c0-67.695-16.668-133.358-46.935-184.896c-2.192-3.732-6.996-4.982-10.726-2.789
	c-3.732,2.192-4.981,6.994-2.789,10.726c28.874,49.168,44.776,112.012,44.776,176.959c0,123.226-83.055,202.849-211.592,202.849
	c-55.187,0-103.952-15.381-141.024-44.48c-3.401-2.672-8.33-2.079-11.003,1.326c-2.673,3.404-2.078,8.331,1.326,11.003
	C145.157,495.462,197.269,512,256,512c63.118,0,120.078-19.868,160.386-55.944C460.139,416.898,483.265,360.679,483.265,293.477z"/>
<path d="M422.868,159.016c-8.662-26.88-33.579-44.94-62-44.94H151.132c-28.421,0-53.338,18.06-62,44.94
	c-9.163,28.435-12.525,59.712-9.994,92.961c2.634,34.604,18.736,55.781,49.228,64.743c25.37,7.455,57.593,5.288,88.753,3.193
	c12.991-0.874,26.424-1.777,38.887-1.929c4.719,0.057,9.84,0.223,15.652,0.507c4.365,0.204,7.999-3.123,8.21-7.445
	c0.211-4.323-3.122-7.999-7.445-8.21c-6.045-0.295-11.385-0.467-16.323-0.526c-0.062-0.001-0.124-0.001-0.186,0
	c-12.922,0.153-26.609,1.074-39.846,1.964c-72.573,4.881-116.949,3.718-121.301-53.487c-2.375-31.214,0.748-60.473,9.285-86.965
	c6.567-20.38,25.489-34.073,47.082-34.073h209.737c21.593,0,40.514,13.693,47.082,34.074c8.537,26.491,11.66,55.749,9.285,86.965
	c-3.895,51.27-39.223,58.547-107.41,54.391c-4.332-0.255-8.035,3.026-8.299,7.347c-0.263,4.32,3.026,8.035,7.346,8.299
	c9.651,0.587,19.788,1.094,29.907,1.094c17.898,0,35.73-1.587,50.674-7.122c26.381-9.772,40.986-30.908,43.41-62.82
	C435.394,218.726,432.031,187.451,422.868,159.016z"/>
<path d="M170.38,298.846c23.179,0,42.035-18.857,42.035-42.035c0-23.178-18.857-42.035-42.035-42.035s-42.035,18.857-42.035,42.035
	C128.345,279.989,147.201,298.846,170.38,298.846z M170.38,230.448c14.536,0,26.362,11.826,26.362,26.362
	c0,14.536-11.826,26.362-26.362,26.362c-14.536,0-26.362-11.826-26.362-26.362C144.018,242.274,155.843,230.448,170.38,230.448z"/>
<path d="M341.62,214.775c-23.179,0-42.035,18.857-42.035,42.035c0,23.178,18.857,42.035,42.035,42.035
	c23.178,0,42.035-18.857,42.035-42.035S364.799,214.775,341.62,214.775z M341.62,283.173c-14.536,0-26.362-11.826-26.362-26.362
	s11.826-26.362,26.362-26.362c14.536,0,26.362,11.826,26.362,26.362S356.157,283.173,341.62,283.173z"/>
<path d="M231.525,220.003c15.5-4.887,23.41-14.547,24.261-15.633c0.078-0.1,0.14-0.211,0.213-0.315
	c0.073,0.103,0.134,0.214,0.213,0.315c0.851,1.086,8.761,10.747,24.261,15.633c4.878,1.538,10.857,2.676,17.874,2.676
	c13.184,0,30.027-4.019,50.08-16.953c19.955-12.871,30.538-26.254,31.456-39.775c0.583-8.601-2.927-16.618-9.882-22.576
	c-7.43-6.366-15.03-8.943-22.576-7.665c-9.601,1.627-15.298,9.017-17.085,11.71c-39.262,41.751-67.704,44.242-68.354,44.29
	c-2.41,0.121-4.589,1.353-5.964,3.275c-1.38-1.939-3.561-3.174-6-3.274c-0.284-0.018-28.842-2.264-68.363-44.291
	c-1.787-2.692-7.485-10.083-17.085-11.71c-7.545-1.278-15.146,1.3-22.576,7.665c-6.955,5.958-10.465,13.976-9.882,22.576
	c0.917,13.521,11.5,26.904,31.456,39.775c20.054,12.936,36.896,16.953,50.08,16.953C220.668,222.679,226.649,221.54,231.525,220.003
	z M342.285,157.595c0.402-0.429,0.755-0.904,1.051-1.413c0.024-0.043,2.818-4.361,6.708-5.021c2.745-0.466,6.03,0.92,9.762,4.115
	c3.193,2.736,4.686,5.969,4.44,9.612c-0.318,4.68-3.897,14.497-24.314,27.665c-28.838,18.601-48.654,15.799-59.973,10.475
	C294.265,197.579,316.387,185.289,342.285,157.595z M147.754,164.889c-0.247-3.643,1.247-6.876,4.44-9.612
	c3.261-2.793,6.182-4.204,8.698-4.204c0.339,0,0.671,0.025,0.995,0.077c3.971,0.628,6.775,5.032,6.777,5.031
	c0.296,0.509,0.649,0.983,1.051,1.413c25.898,27.693,48.02,39.984,62.326,45.435c-11.323,5.322-31.14,8.124-59.974-10.476
	C151.652,179.386,148.071,169.569,147.754,164.889z"/>
<path d="M211.82,333.573c-3.651-3.442-10.186-7.225-20.618-5.703c-7.424,1.086-13.774,5.278-18.361,12.125
	c-9.827,14.668-10.501,40.502-1.947,74.708c9.574,38.286,24.42,62.582,44.125,72.211c6.795,3.321,13.128,4.327,18.309,4.327
	c7.685,0,12.833-2.214,13.186-2.37c2.276-1.007,3.964-3.005,4.505-5.435c0.541-2.429-0.078-4.94-1.714-6.817
	c-0.224-0.268-22.382-27.715-28.337-113.767C221.209,358.98,221.58,342.777,211.82,333.573z M230.276,475.396
	c-2.606-0.34-5.586-1.146-8.771-2.761c-10.431-5.286-25.042-20.288-35.406-61.735c-10.279-41.102-3.591-57.178-0.238-62.182
	c2.084-3.111,4.642-4.907,7.606-5.339c0.893-0.131,1.688-0.188,2.394-0.188c2.904,0,4.332,0.968,5.19,1.771
	c4.275,4.005,4.507,14.029,4.253,17.2c-0.036,0.402-0.039,0.806-0.012,1.209C209.555,425.875,222.166,459.636,230.276,475.396z"/>
<path d="M130.302,453.957c5.902,2.885,11.355,3.766,15.816,3.766c6.352,0,10.689-1.787,11.444-2.121
	c2.276-1.007,3.938-3.035,4.478-5.464c0.54-2.429-0.106-4.971-1.74-6.848c-0.181-0.208-18.233-22.766-23.14-93.481
	c0.207-3.511,0.427-17.299-8.012-25.257c-3.243-3.058-9.028-6.421-18.216-5.081c-6.45,0.943-12.186,4.721-16.15,10.638
	c-8.491,12.672-9.097,33.887-1.803,63.056C101.025,425.332,113.58,445.786,130.302,453.957z M107.803,338.832
	c1.51-2.254,3.327-3.551,5.397-3.854c0.676-0.099,1.267-0.141,1.783-0.141c2.219,0,3.048,0.775,3.401,1.105
	c2.637,2.467,3.416,9.345,3.114,13.187c-0.036,0.402-0.039,0.806-0.011,1.209c3.339,48.968,12.885,76.87,19.682,91.033
	c-1.375-0.366-2.843-0.908-4.372-1.69c-8.383-4.286-20.153-16.495-28.611-50.319C99.787,355.775,105.121,342.836,107.803,338.832z"
	/>
<path d="M261.008,483.406c0.541,2.429,2.203,4.458,4.478,5.464c0.352,0.156,5.499,2.37,13.186,2.37
	c5.181,0,11.516-1.006,18.309-4.327c19.705-9.63,34.551-33.925,44.125-72.211c8.555-34.206,7.881-60.04-1.947-74.708
	c-4.588-6.847-10.937-11.039-18.362-12.125c-10.426-1.522-16.966,2.261-20.617,5.703c-9.76,9.203-9.389,25.407-9.148,29.279
	c-5.922,85.579-27.871,113.197-28.331,113.761C261.101,478.484,260.473,481.001,261.008,483.406z M306.707,363.372
	c0.027-0.402,0.024-0.807-0.011-1.209c-0.344-3.979,0.239-13.415,4.238-17.185c0.859-0.811,2.289-1.786,5.206-1.786
	c0.706,0,1.499,0.057,2.392,0.188c2.964,0.433,5.523,2.23,7.607,5.339c3.353,5.004,10.04,21.08-0.238,62.182
	c-10.364,41.447-24.974,56.449-35.406,61.735c-3.186,1.614-6.164,2.42-8.771,2.761C289.834,459.636,302.445,425.875,306.707,363.372
	z"/>
<path d="M349.96,450.138c0.541,2.429,2.203,4.458,4.478,5.464c0.754,0.333,5.091,2.121,11.444,2.121
	c4.461,0,9.913-0.882,15.816-3.766c16.721-8.171,29.278-28.625,37.323-60.793c7.293-29.17,6.687-50.385-1.804-63.056
	c-3.964-5.917-9.7-9.695-16.15-10.638c-9.179-1.34-14.971,2.023-18.216,5.081c-8.44,7.957-8.219,21.744-8.012,25.257
	c-4.873,70.237-22.775,93.024-23.197,93.547C350.051,445.226,349.426,447.737,349.96,450.138z M390.513,350.339
	c0.027-0.402,0.024-0.807-0.012-1.209c-0.285-3.305,0.33-10.562,3.102-13.175c0.354-0.333,1.185-1.117,3.416-1.117
	c0.515,0,1.105,0.042,1.781,0.141c2.07,0.303,3.887,1.599,5.397,3.854c2.682,4.004,8.016,16.943-0.382,50.53
	c-8.458,33.824-20.227,46.034-28.611,50.319c-1.529,0.782-2.996,1.325-4.372,1.69C377.628,427.21,387.173,399.307,390.513,350.339z"
	/>
<path d="M253.802,184.371c0.718,0.21,1.459,0.314,2.198,0.314s1.481-0.106,2.198-0.314c0.944-0.276,23.374-7.033,45.62-31.212
	c1.903-2.069,2.553-4.999,1.702-7.679c-0.852-2.679-3.073-4.698-5.821-5.289c-0.91-0.195-22.531-4.793-43.699-4.793
	c-21.168,0-42.789,4.598-43.699,4.793c-2.748,0.591-4.97,2.61-5.821,5.289c-0.851,2.679-0.201,5.61,1.702,7.679
	C230.427,177.338,252.858,184.095,253.802,184.371z M256,151.071c8.87,0,18.007,0.914,25.343,1.913
	c-11.215,9.359-21.099,13.872-25.341,15.544c-4.26-1.678-14.139-6.193-25.345-15.544C237.993,151.986,247.13,151.071,256,151.071z"
	/>
<g>
</g>
<g>
</g>
<g>
</g>
<g>
</g>
<g>
</g>
<g>
</g>
<g>
</g>
<g>
</g>
<g>
</g>
<g>
</g>
<g>
</g>
<g>
</g>
<g>
</g>
<g>
</g>
<g>
</g>
</svg>
