<?xml version="1.0" encoding="iso-8859-1"?>
<!-- Generator: Adobe Illustrator 19.0.0, SVG Export Plug-In . SVG Version: 6.00 Build 0)  -->
<svg version="1.1" id="Layer_1" xmlns="http://www.w3.org/2000/svg" xmlns:xlink="http://www.w3.org/1999/xlink" x="0px" y="0px"
	 viewBox="0 0 512 512" style="enable-background:new 0 0 512 512;" xml:space="preserve">
<path style="fill:#F75534;" d="M256,504.163L256,504.163c-9.757,0-17.667-7.91-17.667-17.667V210.371h35.334v276.125
	C273.667,496.253,265.757,504.163,256,504.163z"/>
<path style="fill:#BD391E;" d="M257.141,486.496V210.371h-18.808v276.125c0,9.757,7.91,17.667,17.667,17.667
	c3.221,0,6.233-0.877,8.834-2.382C259.558,498.725,257.141,493.032,257.141,486.496z"/>
<g>
	<circle style="fill:#F75534;" cx="148.292" cy="339.153" r="20.317"/>
	<circle style="fill:#F75534;" cx="363.708" cy="339.153" r="20.317"/>
</g>
<g>
	<path style="fill:#BD391E;" d="M146.783,339.155c0-7.825,4.43-14.606,10.913-17.999c-2.814-1.473-6.008-2.318-9.404-2.318
		c-11.221,0-20.317,9.097-20.317,20.317c0,11.221,9.097,20.317,20.317,20.317c3.396,0,6.59-0.844,9.404-2.317
		C151.212,353.761,146.783,346.979,146.783,339.155z"/>
	<path style="fill:#BD391E;" d="M362.199,339.155c0-7.825,4.43-14.606,10.913-17.999c-2.814-1.473-6.008-2.318-9.404-2.318
		c-11.221,0-20.317,9.097-20.317,20.317c0,11.221,9.096,20.317,20.317,20.317c3.396,0,6.59-0.844,9.404-2.317
		C366.63,353.761,362.199,346.979,362.199,339.155z"/>
</g>
<circle style="fill:#FFE666;" cx="256" cy="137.404" r="129.567"/>
<circle style="fill:#EDC753;" cx="256" cy="137.404" r="117.551"/>
<circle style="fill:#7FB2F0;" cx="256" cy="137.404" r="105.639"/>
<path style="fill:#5F95D4;" d="M168.024,137.404c0-55.37,42.599-100.785,96.81-105.273c-2.913-0.24-5.858-0.37-8.834-0.37
	c-58.345,0-105.643,47.298-105.643,105.643S197.655,243.047,256,243.047c2.976,0,5.92-0.13,8.834-0.37
	C210.622,238.189,168.024,192.774,168.024,137.404z"/>
<g>
	<path style="fill:#F75534;" d="M279.111,68.054c-20.677,0.618-37.365,18.518-37.365,18.518c7.202,8.783,6.712,21.763-1.492,29.968
		c-8.727,8.727-22.887,8.727-31.614,0c-3.117-3.117-5.126-6.93-6.006-10.948l-0.005-0.005c-1.598-7.208,0.406-15.056,6.011-20.661
		C227.704,65.861,255.127,60.233,279.111,68.054z"/>
	<path style="fill:#F75534;" d="M191.588,146.764c10.874,17.598,34.719,23.1,34.719,23.1c4.005-10.629,15.491-16.694,26.698-13.692
		c11.922,3.194,19.001,15.457,15.807,27.379c-1.141,4.258-3.438,7.905-6.478,10.676l-0.002,0.007
		c-5.444,4.987-13.242,7.176-20.898,5.124C215.393,192.381,196.808,171.446,191.588,146.764z"/>
	<path style="fill:#F75534;" d="M303.516,183.206c9.804-18.216,2.646-41.617,2.646-41.617c-11.208,1.846-22.204-5.068-25.207-16.275
		c-3.194-11.922,3.886-24.185,15.807-27.379c4.258-1.141,8.564-0.975,12.484,0.273l0.007-0.002
		c7.041,2.22,12.836,7.88,14.887,15.537C331.118,139.782,322.28,166.346,303.516,183.206z"/>
</g>
<path d="M321.008,44.379C301.893,30.997,279.413,23.924,256,23.924c-62.574,0-113.48,50.907-113.48,113.48
	s50.906,113.48,113.48,113.48s113.48-50.907,113.48-113.48c0-24.729-7.815-48.232-22.601-67.972
	c-2.594-3.464-7.509-4.168-10.97-1.575c-3.464,2.594-4.169,7.508-1.575,10.97c12.738,17.006,19.473,37.261,19.473,58.576
	c0,53.93-43.876,97.807-97.807,97.807s-97.807-43.876-97.807-97.807S202.07,39.597,256,39.597c20.18,0,39.553,6.094,56.02,17.622
	c3.544,2.481,8.431,1.62,10.914-1.927C325.417,51.748,324.554,46.862,321.008,44.379z"/>
<path d="M393.404,137.404C393.404,61.639,331.766,0,256,0S118.596,61.639,118.596,137.404c0,9.514,0.979,19.019,2.909,28.252
	c0.886,4.238,5.04,6.958,9.275,6.067c4.236-0.886,6.952-5.037,6.067-9.275c-1.709-8.178-2.577-16.606-2.577-25.044
	c0-67.122,54.608-121.731,121.731-121.731s121.731,54.608,121.731,121.731S323.122,259.135,256,259.135
	c-5.653,0-11.237-0.39-16.726-1.14c-0.068-0.008-0.135-0.019-0.204-0.025c-34.355-4.757-64.879-23.874-84.213-52.802
	c-0.045-0.069-0.091-0.138-0.139-0.206c-2.623-3.94-5.049-8.052-7.238-12.343c-1.965-3.855-6.684-5.387-10.542-3.421
	c-3.855,1.966-5.387,6.685-3.421,10.542c2.125,4.169,4.447,8.19,6.938,12.066v100.313c-11.722,3.403-20.317,14.232-20.317,27.037
	c0,12.804,8.595,23.631,20.317,27.036v22.569c0,4.329,3.508,7.837,7.837,7.837c4.329,0,7.837-3.508,7.837-7.837v-22.57
	c11.722-3.403,20.316-14.23,20.316-27.035c0-12.804-8.595-23.632-20.316-27.036v-80.265c19.798,21.002,45.746,35.238,74.365,40.583
	v214.056c0,6.816,2.652,13.222,7.467,18.038C242.776,509.348,249.182,512,256,512c14.064,0,25.506-11.442,25.506-25.506V386.351
	c0-4.329-3.508-7.837-7.837-7.837s-7.837,3.508-7.837,7.837v100.143c0,5.421-4.412,9.832-9.833,9.832
	c-2.631,0-5.1-1.022-6.955-2.878c-1.856-1.855-2.878-4.326-2.878-6.955V274.46c3.255,0.229,6.533,0.348,9.832,0.348
	c3.306,0,6.584-0.124,9.833-0.355v74.543c0,4.329,3.508,7.837,7.837,7.837s7.837-3.508,7.837-7.837v-76.571
	c29.025-5.471,54.855-20.094,74.365-40.753v80.448c-11.722,3.403-20.316,14.232-20.316,27.036s8.595,23.631,20.316,27.035v22.57
	c0,4.329,3.508,7.837,7.837,7.837c4.329,0,7.837-3.508,7.837-7.837v-22.569c11.722-3.403,20.317-14.232,20.317-27.036
	c0-12.805-8.595-23.632-20.317-27.037V211.686C385.371,190.255,393.404,164.751,393.404,137.404z M160.771,339.155
	c0,6.882-5.598,12.479-12.479,12.479c-6.882,0-12.48-5.598-12.48-12.479c0-6.875,5.588-12.469,12.46-12.479
	c0.007,0,0.014,0.001,0.02,0.001c0.006,0,0.014-0.001,0.02-0.001C155.184,326.686,160.771,332.28,160.771,339.155z M376.188,339.155
	c0,6.882-5.599,12.479-12.48,12.479c-6.882,0-12.479-5.598-12.479-12.479c0-6.875,5.587-12.469,12.459-12.479
	c0.007,0,0.014,0.001,0.02,0.001c0.006,0,0.014-0.001,0.02-0.001C370.6,326.686,376.188,332.28,376.188,339.155z"/>
<path d="M286.868,69.168c0.542-3.77-1.706-7.383-5.328-8.565c-27.753-9.048-57.81-1.853-78.443,18.78
	c-7.331,7.332-10.366,17.76-8.12,27.897c0.021,0.095,0.043,0.188,0.067,0.281c1.259,5.491,4.04,10.506,8.053,14.52
	c5.702,5.701,13.284,8.841,21.349,8.841c8.067,0,15.648-3.14,21.35-8.841c9.205-9.206,11.328-22.852,6.03-34.119
	c5.615-4.638,16.025-11.731,27.518-12.074C283.152,75.774,286.326,72.939,286.868,69.168z M235.687,91.539
	c4.748,5.791,4.33,14.155-0.974,19.457c-2.741,2.741-6.386,4.251-10.266,4.251c-3.879,0-7.524-1.51-10.265-4.251
	c-1.962-1.961-3.307-4.409-3.891-7.079c-0.018-0.079-0.036-0.158-0.056-0.237c-0.995-4.814,0.472-9.741,3.946-13.214
	c8.488-8.488,18.975-14.121,30.181-16.593c-5.009,3.818-8.043,7.029-8.347,7.354C233.339,84.098,233.199,88.505,235.687,91.539z"/>
<path d="M188.675,139.489c-3.537,1.416-5.542,5.17-4.754,8.897c6.04,28.559,27.3,50.991,55.485,58.542
	c2.604,0.698,5.244,1.04,7.86,1.04c7.445,0,14.694-2.765,20.36-7.955c0.07-0.066,0.141-0.132,0.209-0.199
	c4.125-3.836,7.077-8.751,8.547-14.234c4.309-16.081-5.267-32.669-21.348-36.978c-12.569-3.366-25.445,1.611-32.556,11.825
	c-6.829-2.56-18.213-8.055-24.223-17.784C196.254,139.405,192.213,138.077,188.675,139.489z M224.545,177.5
	c3.815,0.887,7.709-1.199,9.094-4.871c2.642-7.007,10.101-10.824,17.338-8.887c7.732,2.072,12.338,10.049,10.266,17.782
	c-0.719,2.679-2.166,5.069-4.187,6.91c-0.061,0.054-0.118,0.109-0.176,0.165c-3.673,3.268-8.673,4.462-13.42,3.191
	c-11.594-3.108-21.716-9.374-29.459-17.841C219.814,176.378,224.111,177.4,224.545,177.5z"/>
<path d="M298.672,189.367c1.425,1.12,3.136,1.676,4.843,1.676c1.879,0,3.754-0.674,5.239-2.007
	c21.712-19.509,30.509-49.137,22.957-77.323c-2.683-10.015-10.198-17.858-20.1-20.981c-0.087-0.027-0.173-0.053-0.26-0.077
	c-5.391-1.66-11.13-1.763-16.617-0.289c-16.081,4.309-25.657,20.897-21.348,36.978c3.37,12.573,14.126,21.235,26.533,22.282
	c1.21,7.181,2.147,19.742-3.303,29.867C294.81,182.846,295.678,187.013,298.672,189.367z M288.523,123.284
	c-2.071-7.732,2.534-15.709,10.265-17.782c2.68-0.717,5.473-0.658,8.079,0.171c0.072,0.023,0.145,0.045,0.218,0.066
	c4.674,1.543,8.211,5.279,9.485,10.029c3.106,11.594,2.741,23.493-0.721,34.434c-0.802-6.248-2.066-10.48-2.196-10.907
	c-1.022-3.336-4.096-5.545-7.488-5.545c-0.422,0-0.851,0.034-1.28,0.106C297.506,135.075,290.465,130.53,288.523,123.284z"/>
<g>
</g>
<g>
</g>
<g>
</g>
<g>
</g>
<g>
</g>
<g>
</g>
<g>
</g>
<g>
</g>
<g>
</g>
<g>
</g>
<g>
</g>
<g>
</g>
<g>
</g>
<g>
</g>
<g>
</g>
</svg>
