<?xml version="1.0" encoding="iso-8859-1"?>
<!-- Generator: Adobe Illustrator 19.0.0, SVG Export Plug-In . SVG Version: 6.00 Build 0)  -->
<svg version="1.1" id="Layer_1" xmlns="http://www.w3.org/2000/svg" xmlns:xlink="http://www.w3.org/1999/xlink" x="0px" y="0px"
	 viewBox="0 0 512 512" style="enable-background:new 0 0 512 512;" xml:space="preserve">
<path style="fill:#DBD2CA;" d="M61.008,317.492c0,0,0.265,61.519,46.549,60.738l15.365,0.007l-5.661-72.187
	C117.261,306.051,63.547,280.174,61.008,317.492z"/>
<g>
	<path style="fill:#F7EDE3;" d="M451.016,317.492c0,0-0.265,61.519-46.549,60.738l-15.365,0.007l5.661-72.187
		C394.764,306.051,448.478,280.174,451.016,317.492z"/>
	<path style="fill:#F7EDE3;" d="M408.014,343.575c-13.33,108.805-91.652,145.69-130.367,157.381
		c-14.123,4.265-29.161,4.265-43.283-0.001c-38.711-11.692-117.025-48.579-130.353-157.381
		c-17.833-145.572,12.686-206.658,151.995-206.658C395.328,136.918,425.847,198.003,408.014,343.575z"/>
</g>
<g>
	<path style="fill:#DBD2CA;" d="M257.883,500.956c-38.711-11.692-117.025-48.578-130.353-157.381
		c-17.32-141.379,10.979-203.062,140.237-206.499c-3.834-0.102-7.747-0.159-11.76-0.159c-139.309,0-169.829,61.085-151.995,206.658
		c13.328,108.802,91.642,145.689,130.353,157.381c10.871,3.283,22.282,4.029,33.402,2.258
		C264.438,502.684,261.137,501.938,257.883,500.956z"/>
	<path style="fill:#DBD2CA;" d="M224.139,317.492c0,0,17.703,1.385,18.255,32.626s0,41.691,0,41.691s-17.733-14.601-18.255-32.378
		C223.617,341.655,224.139,317.492,224.139,317.492z"/>
</g>
<g>
	<ellipse style="fill:#362928;" cx="256.007" cy="55.099" rx="89.316" ry="47.26"/>
	<ellipse style="fill:#362928;" cx="256.007" cy="55.099" rx="89.316" ry="47.26"/>
</g>
<path style="fill:#2B2121;" d="M272.272,93.305c-49.331,0-89.322-21.16-89.322-47.262c0-10.364,6.323-19.943,17.014-27.733
	c-20.286,8.664-33.273,21.921-33.273,36.789c0,26.102,39.991,47.262,89.322,47.262c29.743,0,56.074-7.699,72.308-19.529
	C312.993,89.378,293.504,93.305,272.272,93.305z"/>
<path style="fill:#362928;" d="M257.16,52.327c60.162-0.004,116.474,23.606,141.746,73.055
	c42.668,42.628,73.383,101.988,46.719,189.168c-0.535,1.751-2.166,2.942-3.997,2.942H405.14c-2.391,0-4.294-1.995-4.174-4.382
	c1.249-24.706-0.057-145.5-144.953-145.5s-146.201,120.793-144.953,145.5c0.12,2.388-1.784,4.382-4.174,4.382H70.398
	c-1.831,0-3.462-1.192-3.997-2.942c-26.664-87.181,4.052-146.54,46.719-189.168c25.273-49.449,81.584-73.059,141.746-73.055
	C254.866,52.327,257.16,52.327,257.16,52.327z"/>
<g>
	<path style="fill:#2B2121;" d="M279,167.61c-3.937,0-7.766,0.092-11.494,0.266c133.479,6.232,134.673,121.22,133.458,145.241
		c-0.12,2.383,1.789,4.376,4.174,4.376h18.495C423.635,317.492,440.402,167.61,279,167.61z"/>
	<path style="fill:#2B2121;" d="M136.107,125.38c23.817-46.602,75.204-70.245,131.399-72.811c-3.433-0.157-6.883-0.245-10.346-0.243
		h-2.294c-60.162-0.004-116.474,23.606-141.746,73.055c-42.668,42.628-73.383,101.988-46.719,189.168
		c0.535,1.751,2.166,2.942,3.997,2.942h19.909C62.037,228.701,92.961,168.487,136.107,125.38z"/>
	<path style="fill:#2B2121;" d="M382.941,130.088c0,0-21.059,22.465-45.277,33.611c0,0,24.403,4.266,42.689-12.713
		C380.353,150.985,389.994,138.186,382.941,130.088z"/>
	<path style="fill:#2B2121;" d="M140.625,130.088c0,0,21.059,22.465,45.277,33.611c0,0-24.403,4.266-42.689-12.713
		C143.213,150.985,133.572,138.186,140.625,130.088z"/>
</g>
<path d="M456.28,305.602c12.064-46.921,8.686-90.17-10.099-128.741c-1.894-3.892-6.585-5.508-10.476-3.614
	c-3.891,1.894-5.51,6.586-3.614,10.476c18.407,37.794,20.653,79.04,6.824,125.933h-28.141c-0.074,0-0.148-0.002-0.221,0h-1.592
	c0.521-19.665-1.941-68.356-35.013-105.332c-26.439-29.562-66.117-44.55-117.934-44.55c-30.505,0-57.083,5.275-78.994,15.676
	c-3.91,1.856-5.574,6.531-3.719,10.44c1.857,3.91,6.532,5.574,10.44,3.719c19.794-9.398,44.111-14.162,72.272-14.162
	c47.106,0,82.826,13.198,106.165,39.229c36.856,41.105,30.747,101.351,30.682,101.945c-0.248,2.216,0.46,4.433,1.947,6.096
	c1.487,1.662,3.611,2.612,5.841,2.612h1.506c-0.557,5.6-1.193,11.376-1.921,17.297c-1.427,11.661-3.696,22.905-6.742,33.426
	c-22.506,77.903-83.657,106.997-118.104,117.404c-12.679,3.826-26.081,3.826-38.759,0c-20.235-6.114-49.716-18.71-75.253-43.999
	c-3.075-3.046-8.036-3.022-11.082,0.054c-3.046,3.075-3.022,8.037,0.054,11.082c27.825,27.556,59.814,41.239,81.751,47.867
	c7.821,2.36,15.864,3.54,23.908,3.54c8.045,0,16.09-1.181,23.912-3.541c36.655-11.076,101.087-41.628,126.907-122.42
	c12.53-0.318,23.189-4.679,31.696-13.007c19.946-19.526,20.327-54.051,20.333-55.51c0-0.191-0.005-0.381-0.019-0.57
	C458.548,312.731,457.689,308.928,456.28,305.602z M427.559,361.832c-4.543,4.448-9.905,7.141-16.287,8.131
	c1.93-8.2,3.45-16.711,4.518-25.43c0.808-6.582,1.514-13.008,2.116-19.204h24.701C441.275,336.041,437.314,352.283,427.559,361.832z
	"/>
<path d="M118.532,376.046c-3.028-10.458-5.295-21.705-6.741-33.424c-0.726-5.919-1.364-11.694-1.92-17.294h1.506
	c2.227,0,4.348-0.952,5.834-2.61c1.487-1.657,2.197-3.874,1.955-6.089c-0.07-0.636-6.496-64.15,33.794-105.276
	c3.029-3.092,2.978-8.054-0.114-11.082c-3.092-3.029-8.054-2.978-11.082,0.114c-36.589,37.348-39.244,88.887-38.699,109.269h-1.602
	c-0.064-0.001-0.127,0-0.191,0H73.113c-20.384-69.262-5.455-127.778,45.544-178.731c0.581-0.58,1.066-1.247,1.439-1.978
	c22.014-43.072,72.385-68.785,134.753-68.785c0.004,0,0.011,0,0.016,0h2.295c0.007,0,0.007,0,0.016,0
	c62.362,0,112.74,25.715,134.752,68.785c0.373,0.73,0.859,1.398,1.439,1.978c7.021,7.014,13.422,14.227,19.024,21.438
	c2.656,3.418,7.578,4.036,10.996,1.38c3.418-2.656,4.035-7.579,1.38-10.996c-5.771-7.427-12.313-14.837-19.458-22.041
	c-6.064-11.574-13.92-22.003-23.285-31.18l46.943,10.953c0.599,0.14,1.197,0.207,1.787,0.207c3.56,0,6.781-2.442,7.625-6.057
	c0.983-4.215-1.636-8.429-5.851-9.412L351.242,66.25c1.263-3.638,1.923-7.364,1.923-11.153c0-5.651-1.434-11.077-4.1-16.174
	l83.464-19.485c4.215-0.984,6.834-5.198,5.85-9.413c-0.984-4.215-5.197-6.831-9.413-5.85l-90.726,21.181
	C321.176,10.003,291.036,0,256.012,0c-34.706,0-64.618,9.824-81.761,24.941L85.296,4.175c-4.218-0.983-8.429,1.635-9.413,5.85
	c-0.983,4.215,1.635,8.429,5.85,9.413l81.471,19.018c-2.825,5.231-4.344,10.817-4.344,16.64c0,3.952,0.709,7.838,2.083,11.625
	c-0.004,0.002-0.008,0.004-0.013,0.006l-79.2,18.488c-4.215,0.984-6.834,5.198-5.85,9.413c0.844,3.615,4.066,6.056,7.624,6.056
	c0.589,0,1.189-0.067,1.788-0.207l44.037-10.28c-9.069,9.014-16.697,19.213-22.616,30.505c-25.27,25.469-41.884,52.08-50.775,81.32
	c-9.662,31.775-9.711,66.557-0.191,103.574c-1.413,3.331-2.273,7.133-2.561,11.354c-0.014,0.19-0.019,0.379-0.019,0.569
	c0.006,1.46,0.388,35.985,20.333,55.51c8.508,8.329,19.165,12.69,31.696,13.007c5.471,17.094,13.041,32.947,22.559,47.187
	c1.511,2.261,3.994,3.483,6.522,3.483c1.497,0,3.009-0.428,4.348-1.323c3.599-2.405,4.566-7.271,2.161-10.87
	C131.129,410.066,123.642,393.76,118.532,376.046z M174.533,55.097c0-9.442,8.014-19.097,21.988-26.492
	c15.761-8.338,36.888-12.931,59.491-12.931s43.731,4.593,59.491,12.931c13.974,7.395,21.988,17.049,21.988,26.492
	c0,1.563-0.225,3.128-0.646,4.689c-23.238-9.943-50.269-15.296-79.671-15.296c-0.004,0-0.013,0-0.017,0h-2.294
	c-0.008,0-0.008,0-0.017,0c-29.4,0-56.432,5.355-79.671,15.3C174.758,58.228,174.533,56.661,174.533,55.097z M69.457,325.329H94.12
	c0.602,6.196,1.308,12.623,2.116,19.207c1.078,8.75,2.6,17.259,4.52,25.428c-6.358-0.988-11.717-3.673-16.252-8.098
	C74.168,351.781,70.653,335.125,69.457,325.329z"/>
<path d="M150.408,298.054c0.492,0.478,12.255,11.737,29.357,14.748c6.086,1.072,11.894,1.43,16.945,1.43
	c9.902,0,16.89-1.379,17.324-1.467c4.242-0.859,6.985-4.993,6.126-9.236c-0.859-4.242-4.987-6.984-9.236-6.126
	c-0.131,0.027-13.31,2.629-28.442-0.037c-12.173-2.144-21.006-10.414-21.182-10.58c-3.106-2.994-8.052-2.912-11.06,0.187
	C147.228,290.079,147.302,295.04,150.408,298.054z"/>
<path d="M313.404,314.233c5.05,0,10.859-0.358,16.945-1.43c17.102-3.011,28.865-14.271,29.357-14.748
	c3.097-3.005,3.169-7.937,0.177-11.046c-2.992-3.109-7.947-3.204-11.068-0.224c-0.088,0.085-8.948,8.428-21.184,10.583
	c-14.988,2.639-28.323,0.061-28.442,0.037c-4.241-0.859-8.377,1.885-9.236,6.126c-0.858,4.242,1.885,8.377,6.126,9.236
	C296.514,312.854,303.5,314.233,313.404,314.233z"/>
<g>
</g>
<g>
</g>
<g>
</g>
<g>
</g>
<g>
</g>
<g>
</g>
<g>
</g>
<g>
</g>
<g>
</g>
<g>
</g>
<g>
</g>
<g>
</g>
<g>
</g>
<g>
</g>
<g>
</g>
</svg>
