<?xml version="1.0" encoding="iso-8859-1"?>
<!-- Generator: Adobe Illustrator 19.0.0, SVG Export Plug-In . SVG Version: 6.00 Build 0)  -->
<svg version="1.1" id="Layer_1" xmlns="http://www.w3.org/2000/svg" xmlns:xlink="http://www.w3.org/1999/xlink" x="0px" y="0px"
	 viewBox="0 0 512 512" style="enable-background:new 0 0 512 512;" xml:space="preserve">
<path style="fill:#B36E44;" d="M268.532,392.69l-161.415,56.558L8.352,167.247c-1.666-4.755,0.839-9.961,5.593-11.628
	l144.197-50.525c4.754-1.666,9.959,0.839,11.624,5.594L268.532,392.69z"/>
<path style="fill:#8C5635;" d="M122.791,428.334l-96.97-276.876l-11.875,4.161c-4.754,1.666-7.259,6.871-5.593,11.628l98.765,282
	l20.926-7.332L122.791,428.334z"/>
<path style="fill:#A1633D;" d="M269.969,424.387l-144.197,50.525c-4.754,1.666-9.959-0.839-11.624-5.594l-7.029-20.07
	l161.415-56.558l7.029,20.07C277.227,417.516,274.723,422.721,269.969,424.387z"/>
<path style="fill:#FFE666;" d="M248.927,336.719c0,0-44.335-55.892-136.286-130.414c-11.995,54.711-18.265,99.527-21.546,131.532
	c-3.647,35.641-3.584,55.442-3.584,55.442l-23.51-67.145c-0.481-17.366,1.024-36.456,3.584-55.421
	c6.06-44.816,18.014-88.91,23.531-107.875c1.4-4.817,7.126-6.823,11.222-3.939c22.977,16.206,87.886,64.01,123.079,110.676
	L248.927,336.719z"/>
<path style="fill:#B36E44;" d="M449.001,369.211l-168.107-31.498l55.004-293.695c0.928-4.953,5.695-8.215,10.646-7.287
	L496.72,64.869c4.952,0.928,8.214,5.694,7.287,10.646L449.001,369.211z"/>
<path style="fill:#8C5635;" d="M302.876,341.832L359.56,39.17l-13.015-2.439c-4.953-0.928-9.72,2.334-10.05,4.1l-55.602,296.882
	L302.876,341.832z"/>
<path style="fill:#A1633D;" d="M434.44,397.402l-150.175-28.139c-4.952-0.928-8.214-5.694-7.287-10.646l3.915-20.904L449,369.211
	l-3.915,20.903C444.158,395.067,439.392,398.33,434.44,397.402z"/>
<path style="fill:#FFE666;" d="M473.015,240.996l-13.093,69.925c0,0-10.574-70.562-53.102-181.029
	c-37.083,40.793-64.575,76.027-83.362,102.024c-21.556,29.821-31.65,47.501-31.65,47.501l13.103-69.925
	c8.453-15.673,19.613-31.88,31.619-47.376c27.397-35.37,59.214-67.082,73.3-80.635c3.615-3.469,9.582-2.351,11.692,2.194
	C433.361,109.171,465.785,182.993,473.015,240.996z"/>
<circle style="fill:#362928;" cx="104.198" cy="182.189" r="21.107"/>
<path style="fill:#2E2322;" d="M119.868,191.115c-11.003,3.856-23.048-1.941-26.903-12.947c-1.631-4.656-1.518-9.493-0.03-13.823
	c-8.14,5.131-11.978,15.356-8.661,24.824c3.855,11.006,15.899,16.802,26.903,12.947c6.348-2.225,10.946-7.182,12.974-13.085
	C122.829,189.864,121.405,190.577,119.868,191.115z"/>
<circle style="fill:#362928;" cx="411.523" cy="104.783" r="21.107"/>
<path style="fill:#2E2322;" d="M427.193,113.706c-11.003,3.856-23.048-1.941-26.903-12.947c-1.631-4.656-1.518-9.493-0.03-13.823
	c-8.14,5.132-11.978,15.356-8.661,24.824c3.855,11.006,15.899,16.802,26.903,12.947c6.348-2.225,10.946-7.182,12.974-13.085
	C430.154,112.454,428.73,113.167,427.193,113.706z"/>
<g>
	<path style="fill:#EDBF31;" d="M87.511,393.279l-23.51-67.145c-0.481-17.366,1.024-36.456,3.584-55.421l23.51,67.124
		C87.448,373.478,87.511,393.279,87.511,393.279z"/>
	<path style="fill:#EDBF31;" d="M336.531,162.116l-13.072,69.799c-21.556,29.821-31.65,47.501-31.65,47.501l13.103-69.925
		C313.365,193.819,324.525,177.612,336.531,162.116z"/>
</g>
<path d="M16.535,163.014l70.967-24.865c4.085-1.432,6.236-5.903,4.804-9.987c-1.432-4.086-5.905-6.237-9.987-4.804l-70.967,24.865
	c-8.824,3.092-13.489,12.787-10.398,21.613l58.911,168.208l20.246,57.824c0.007,0.02,0.018,0.037,0.025,0.056l19.582,55.912
	l7.03,20.07c1.497,4.276,4.57,7.711,8.652,9.676c2.329,1.121,4.83,1.686,7.34,1.686c1.889,0,3.785-0.32,5.619-0.962l144.197-50.525
	c8.825-3.092,13.49-12.787,10.398-21.614l-7.029-20.07l-31.495-89.928l-11.62-33.187c-0.004-0.01-0.01-0.021-0.014-0.031
	l-55.636-158.853c-1.497-4.276-4.57-7.712-8.652-9.677c-4.081-1.963-8.684-2.22-12.96-0.723l-38.605,13.527
	c-4.085,1.432-6.236,5.903-4.804,9.987c1.432,4.084,5.902,6.235,9.987,4.804l38.605-13.527c0.415-0.145,0.762-0.05,0.981,0.054
	c0.218,0.106,0.51,0.319,0.655,0.735l42.217,120.539c-23.888-24.382-51.824-47.156-74.302-64.171
	c-2.83-5.916-7.543-10.663-13.537-13.548c-2.707-1.303-5.549-2.16-8.441-2.578c-5.149-3.648-8.732-6.094-9.784-6.795
	c-0.073-0.051-0.152-0.092-0.226-0.141c-0.108-0.07-0.214-0.139-0.325-0.203c-0.032-0.019-0.063-0.041-0.095-0.06
	c-0.023-0.013-0.044-0.028-0.066-0.041c-0.078-0.043-0.161-0.076-0.24-0.117c-0.092-0.047-0.184-0.091-0.278-0.134
	c-0.106-0.048-0.208-0.1-0.316-0.144c-0.06-0.024-0.121-0.044-0.182-0.067c-0.067-0.025-0.136-0.047-0.204-0.07
	c-0.161-0.056-0.322-0.111-0.487-0.157c-0.11-0.03-0.22-0.053-0.33-0.079c-0.161-0.038-0.322-0.073-0.486-0.1
	c-0.013-0.002-0.026-0.003-0.039-0.005c-0.017-0.003-0.033-0.004-0.05-0.006c-0.116-0.018-0.233-0.032-0.35-0.045
	c-0.194-0.021-0.389-0.032-0.585-0.039c-0.115-0.003-0.229-0.008-0.345-0.007c-0.211,0.003-0.423,0.019-0.635,0.039
	c-0.098,0.009-0.196,0.013-0.295,0.026c-0.309,0.041-0.618,0.097-0.925,0.176c-0.196,0.051-0.383,0.123-0.575,0.188
	c-0.016,0.005-0.032,0.008-0.048,0.015c-0.006,0.002-0.013,0.005-0.02,0.008c-0.234,0.083-0.461,0.176-0.684,0.279
	c-0.029,0.014-0.057,0.027-0.087,0.041c-0.909,0.434-1.718,1.033-2.392,1.767c-0.016,0.017-0.031,0.033-0.047,0.05
	c-0.162,0.18-0.316,0.366-0.461,0.56c-0.003,0.005-0.007,0.009-0.01,0.015c-0.435,0.585-0.789,1.232-1.049,1.93
	c-0.007,0.02-0.016,0.039-0.023,0.059c-0.04,0.108-0.09,0.21-0.124,0.321c-0.06,0.189-1.378,4.375-3.467,11.62
	c-6.42,6.876-9.294,16.683-7.096,26.251c-6.948,27.342-14.566,62.586-18.02,96.54L15.747,164.654
	C15.513,163.985,15.866,163.249,16.535,163.014z M91.668,186.577c-2.419-6.906,1.226-14.49,8.124-16.916
	c0.003-0.001,0.007-0.002,0.01-0.003c0.005-0.002,0.01-0.004,0.016-0.006c1.433-0.501,2.912-0.75,4.386-0.75
	c1.964,0,3.92,0.442,5.744,1.32c3.195,1.538,5.601,4.228,6.772,7.574c2.419,6.907-1.227,14.493-8.127,16.918
	c-0.001,0-0.002,0-0.003,0.001c-0.004,0.001-0.008,0.003-0.013,0.005c-3.346,1.17-6.945,0.97-10.14-0.566
	C95.246,192.616,92.841,189.925,91.668,186.577z M117.614,220.506c77.153,63.781,118.278,112.67,124.371,120.097l16.559,47.28
	l-127.155,44.553l-19.468,6.821l-16.565-47.296C95.489,382.264,97.142,318.411,117.614,220.506z M267.375,416.989l-144.197,50.525
	c-0.414,0.144-0.762,0.05-0.98-0.054c-0.218-0.106-0.511-0.319-0.656-0.735l-4.439-12.676l127.155-44.553l19.467-6.821l4.439,12.674
	C268.398,416.019,268.044,416.755,267.375,416.989z M218.422,273.323l9.963,28.447c-21.602-22.86-56.546-57.155-105.653-97.35
	c4.347-3.633,7.499-8.451,9.134-13.783C160.89,213.331,195.711,243.546,218.422,273.323z M71.802,324.705
	c-0.838-37.404,7.517-82.756,16.036-118.626c1.202,0.819,2.471,1.556,3.807,2.197c3.792,1.824,7.846,2.775,11.931,2.861
	c-13.291,62.055-19.197,110.648-21.816,141.997l-9.694-27.678L71.802,324.705z"/>
<path d="M498.16,57.166L347.986,29.028c-4.452-0.835-8.964,0.115-12.703,2.674s-6.257,6.421-7.091,10.873l-7.679,41
	c-0.797,4.254,2.005,8.349,6.26,9.146c4.259,0.8,8.349-2.006,9.145-6.26l7.68-41c0.08-0.434,0.336-0.688,0.537-0.824
	c0.2-0.138,0.531-0.284,0.963-0.203l150.174,28.138c0.697,0.131,1.157,0.804,1.026,1.502l-23.511,125.54
	c-8.547-33.042-21.405-66.722-32.404-92.693c0.732-9.801-3.597-19.07-10.992-24.899c-3.157-6.837-5.09-10.771-5.176-10.948
	c-0.067-0.136-0.155-0.254-0.229-0.383c-0.117-0.208-0.23-0.418-0.366-0.614c-0.108-0.155-0.231-0.293-0.348-0.438
	c-0.138-0.171-0.271-0.347-0.423-0.507c-0.135-0.141-0.284-0.264-0.428-0.394c-0.158-0.142-0.309-0.289-0.48-0.42
	c-0.167-0.127-0.348-0.234-0.523-0.348c-0.145-0.094-0.279-0.202-0.433-0.287c-0.023-0.013-0.048-0.02-0.072-0.032
	c-0.19-0.103-0.391-0.181-0.588-0.267c-0.177-0.077-0.35-0.168-0.531-0.232c-0.187-0.066-0.382-0.107-0.575-0.159
	c-0.199-0.053-0.396-0.119-0.597-0.157c-0.186-0.034-0.377-0.043-0.565-0.065c-0.214-0.024-0.426-0.059-0.641-0.065
	c-0.176-0.005-0.353,0.015-0.531,0.022c-0.232,0.008-0.465,0.01-0.695,0.04c-0.024,0.003-0.048,0.001-0.071,0.004
	c-0.157,0.022-0.304,0.07-0.459,0.1c-0.225,0.045-0.449,0.083-0.67,0.147c-0.191,0.055-0.372,0.133-0.557,0.203
	c-0.195,0.073-0.392,0.139-0.581,0.228c-0.191,0.09-0.37,0.201-0.552,0.305c-0.169,0.097-0.343,0.186-0.506,0.296
	c-0.192,0.131-0.368,0.281-0.548,0.427c-0.119,0.097-0.249,0.179-0.364,0.283c-0.145,0.134-3.364,3.091-8.758,8.305
	c-2.796,0.851-5.477,2.127-7.958,3.826c-5.488,3.757-9.43,9.163-11.333,15.439c-19.651,20.224-43.823,46.966-63.75,74.68
	l8.608-45.96c0.797-4.255-2.005-8.349-6.26-9.145c-4.255-0.797-8.349,2.006-9.146,6.26l-25.829,137.91l-3.354,17.896
	c-0.002,0.014-0.003,0.027-0.005,0.04l-10.911,58.256c0,0.001,0,0.001,0,0.002l-3.914,20.902
	c-1.722,9.191,4.355,18.069,13.546,19.791l47.712,8.94c4.26,0.797,8.35-2.005,9.146-6.259c0.797-4.254-2.005-8.349-6.259-9.146
	l-47.712-8.94c-0.697-0.131-1.158-0.805-1.027-1.502l2.472-13.2l15.914,2.982l136.789,25.63l-2.472,13.2
	c-0.081,0.434-0.337,0.688-0.538,0.825c-0.201,0.138-0.532,0.281-0.962,0.203l-58.925-11.04c-4.255-0.797-8.349,2.005-9.146,6.259
	c-0.797,4.254,2.005,8.349,6.259,9.146l58.926,11.04c1.053,0.197,2.11,0.295,3.158,0.295c3.384,0,6.689-1.016,9.544-2.97
	c3.739-2.559,6.256-6.421,7.09-10.873l3.913-20.893c0.001-0.003,0.002-0.006,0.002-0.009l10.899-58.195
	c0.006-0.032,0.017-0.064,0.023-0.097l13.093-69.925c0.001-0.005,0.001-0.01,0.002-0.016l30.986-165.463
	c0.834-4.452-0.116-8.963-2.674-12.702C506.473,60.518,502.612,58,498.16,57.166z M459.536,270.375
	c-7.329-30.593-20.513-77.739-43.029-137.077c4.025-0.702,7.891-2.25,11.362-4.627c1.22-0.836,2.364-1.754,3.426-2.745
	c13.843,34.161,28.955,77.719,33.786,114.832L459.536,270.375z M404.023,93.822c2.234-1.529,4.819-2.324,7.468-2.324
	c0.808,0,1.623,0.076,2.435,0.226c0.015,0.003,0.028,0.007,0.043,0.01c0.013,0.002,0.024,0.003,0.037,0.005
	c7.171,1.367,11.908,8.304,10.562,15.487c-0.653,3.486-2.624,6.509-5.551,8.512c-2.924,2.002-6.45,2.744-9.932,2.095
	c-0.003-0.001-0.006-0.002-0.009-0.002c-0.003,0-0.005-0.001-0.008-0.001c-7.189-1.353-11.941-8.301-10.594-15.494
	C399.125,98.849,401.097,95.825,404.023,93.822z M396.553,129.558c-42.468,47.159-71.815,86.331-89.716,112.196l5.548-29.608
	c17.946-32.865,47.798-68,73.059-94.827C387.866,122.339,391.709,126.624,396.553,129.558z M404.047,144.682
	c35.034,93.701,46.322,156.57,47.917,166.123l-9.225,49.258l-15.914-2.982l-136.789-25.63l9.225-49.259
	C304.185,273.887,337.358,219.462,404.047,144.682z"/>
<g>
</g>
<g>
</g>
<g>
</g>
<g>
</g>
<g>
</g>
<g>
</g>
<g>
</g>
<g>
</g>
<g>
</g>
<g>
</g>
<g>
</g>
<g>
</g>
<g>
</g>
<g>
</g>
<g>
</g>
</svg>
