<?xml version="1.0" encoding="iso-8859-1"?>
<!-- Generator: Adobe Illustrator 19.0.0, SVG Export Plug-In . SVG Version: 6.00 Build 0)  -->
<svg version="1.1" id="Layer_1" xmlns="http://www.w3.org/2000/svg" xmlns:xlink="http://www.w3.org/1999/xlink" x="0px" y="0px"
	 viewBox="0 0 512 512" style="enable-background:new 0 0 512 512;" xml:space="preserve">
<path style="fill:#362928;" d="M170.117,181.743l-17.751,141.577c-0.297,2.364-2.505,4.002-4.852,3.6l-112.168-19.22
	c-2.769-0.474-4.29-3.49-3.027-5.999L166.18,35.829L170.117,181.743z"/>
<path style="fill:#2E2322;" d="M166.18,77.758v-41.93L32.319,301.702c-1.263,2.509,0.259,5.524,3.027,5.999l13.78,2.361
	L166.18,77.758z"/>
<path style="fill:#362928;" d="M341.882,181.743l17.751,141.577c0.297,2.364,2.505,4.002,4.853,3.6l112.167-19.22
	c2.769-0.474,4.29-3.49,3.027-5.999L345.819,35.829L341.882,181.743z"/>
<path style="fill:#2E2322;" d="M364.716,181.743l2.775-102.869l-21.672-43.046l-3.937,145.915l17.751,141.576
	c0.297,2.364,2.505,4.002,4.853,3.6l18.044-3.092L364.716,181.743z"/>
<path style="fill:#362928;" d="M345.82,48.762v451.221c0,2.308-1.871,4.18-4.18,4.18h-171.28c-2.308,0-4.18-1.871-4.18-4.18V48.762
	H345.82z"/>
<rect x="206.012" y="48.762" style="fill:#2E2322;" width="18.808" height="455.398"/>
<path style="fill:#598BC7;" d="M345.908,35.83v17.074H166.091V35.83L179.371,9c0.352-0.713,1.078-1.163,1.872-1.163h149.602
	c0.796,0,1.523,0.452,1.876,1.168L345.908,35.83z"/>
<path style="fill:#7FB2F0;" d="M332.757,9.001l13.266,26.83v464.153c0,2.308-1.871,4.18-4.18,4.18h-35.651V7.837h24.691
	C331.678,7.837,332.404,8.288,332.757,9.001z"/>
<rect x="306.196" y="7.837" style="fill:#5F95D4;" width="18.808" height="496.327"/>
<path style="fill:#7FB2F0;" d="M179.447,9.001L166.181,35.83v464.154c0,2.308,1.871,4.18,4.18,4.18h35.651V7.837h-24.691
	C180.525,7.837,179.799,8.288,179.447,9.001z"/>
<path style="fill:#5F95D4;" d="M184.988,7.837v496.327H170.36c-2.308,0-4.18-1.871-4.18-4.18V35.83L179.449,9
	c0.352-0.713,1.078-1.163,1.874-1.163C181.323,7.837,184.988,7.837,184.988,7.837z"/>
<path d="M238.884,15.673c4.329,0,7.837-3.508,7.837-7.837S243.213,0,238.884,0h-32.872h-25.99h-0.07c-2.98,0-5.702,1.69-7.024,4.36
	l-13.855,27.993c-0.146,0.297-0.27,0.603-0.377,0.913L22.779,303.222c-1.117,2.219-1.115,4.837,0.004,7.055
	c1.118,2.218,3.224,3.773,5.673,4.194l122.043,20.912c0.441,0.075,0.883,0.112,1.324,0.112c1.67,0,3.309-0.534,4.669-1.543
	c0.737-0.546,1.356-1.217,1.853-1.966v12.433h0.001v15.156c0,4.329,3.508,7.837,7.837,7.837c4.329,0,7.837-3.508,7.837-7.837V37.661
	l10.87-21.988h13.286v480.653h-24.157V393.012c0-4.329-3.508-7.837-7.837-7.837c-4.329,0-7.837,3.508-7.837,7.837v9.399h-0.001
	v101.752c0,4.329,3.508,7.837,7.837,7.837h0.001h39.83h100.181h39.627h0.204c4.329,0,7.837-3.508,7.837-7.837V332.292
	c0.46,0.627,1.012,1.188,1.649,1.659c1.359,1.009,2.999,1.543,4.669,1.543c0.441,0,0.884-0.037,1.324-0.112l122.043-20.912
	c2.449-0.42,4.554-1.976,5.673-4.194c1.119-2.218,1.121-4.836,0.004-7.055l-72.035-143.078c-1.947-3.865-6.657-5.42-10.524-3.475
	c-3.865,1.947-5.421,6.658-3.475,10.524L470.46,300.81L366.935,318.55l-13.074-104.267V69.226l35.072,69.661
	c1.947,3.865,6.657,5.42,10.524,3.475c3.865-1.947,5.421-6.658,3.475-10.524l-49.337-97.993c-0.134-0.512-0.311-1.013-0.548-1.489
	L339.207,4.364C337.885,1.691,335.162,0,332.181,0h-0.029h-25.959h-35.961c-4.329,0-7.837,3.508-7.837,7.837
	s3.508,7.837,7.837,7.837h28.124v29.393h-84.507V15.673H238.884z M145.066,318.55L41.541,300.81L158.343,68.82v143.834
	L145.066,318.55z M327.27,15.673l10.712,21.807v15.423v160.241v283.182h-23.953V52.984c0-0.027,0.004-0.053,0.004-0.08
	s-0.004-0.053-0.004-0.08V15.673H327.27z M298.355,60.74v435.587h-84.507V60.74H298.355z"/>
<g>
</g>
<g>
</g>
<g>
</g>
<g>
</g>
<g>
</g>
<g>
</g>
<g>
</g>
<g>
</g>
<g>
</g>
<g>
</g>
<g>
</g>
<g>
</g>
<g>
</g>
<g>
</g>
<g>
</g>
</svg>
