<?xml version="1.0" encoding="iso-8859-1"?>
<!-- Generator: Adobe Illustrator 19.0.0, SVG Export Plug-In . SVG Version: 6.00 Build 0)  -->
<svg version="1.1" id="Layer_1" xmlns="http://www.w3.org/2000/svg" xmlns:xlink="http://www.w3.org/1999/xlink" x="0px" y="0px"
	 viewBox="0 0 512 512" style="enable-background:new 0 0 512 512;" xml:space="preserve">
<path style="fill:#DBD2CA;" d="M345.824,35.83v17.074H166.185V35.83L179.74,8.419c0.177-0.356,0.539-0.582,0.936-0.582h150.75
	c0.398,0,0.762,0.227,0.938,0.584L345.824,35.83z"/>
<path style="fill:#FCB5A6;" d="M345.824,52.903v447.08c0,2.308-1.871,4.18-4.18,4.18h-171.28c-2.308,0-4.18-1.871-4.18-4.18V52.903
	H345.824z"/>
<path style="fill:#F78972;" d="M184.994,52.903v451.26h-14.629c-2.308,0-4.18-1.871-4.18-4.18V52.903H184.994z"/>
<path style="fill:#FCB5A6;" d="M166.18,35.83v177.319l-27.242,110.653c-0.532,2.162-2.666,3.527-4.851,3.104l-99.686-19.262
	c-2.459-0.475-3.95-2.992-3.187-5.377l79.322-247.918c0.299-0.934,0.917-1.733,1.746-2.258l25.707-16.262H166.18z"/>
<path style="fill:#F78972;" d="M171.422,35.83L128.146,65.17L48.718,310.414l-14.317-2.77c-2.459-0.475-3.95-2.992-3.187-5.377
	l79.322-247.918c0.299-0.934,0.917-1.733,1.746-2.258l25.707-16.262H171.422z"/>
<path style="fill:#FCB5A6;" d="M480.754,302.17c0.774,2.42-0.771,4.964-3.275,5.394l-87.795,15.038l-25.188,4.319
	c-2.348,0.402-4.557-1.235-4.854-3.599l-13.823-110.173V35.83h28.202l25.696,16.262c0.829,0.525,1.447,1.324,1.746,2.258
	L480.754,302.17z"/>
<path style="fill:#F78972;" d="M364.627,213.149V35.83h-18.808v177.319l13.823,110.173c0.297,2.364,2.506,4.002,4.854,3.599
	l14.103-2.418L364.627,213.149z"/>
<g>
	<path style="fill:#7FB2F0;" d="M345.824,407.28v92.703c0,2.308-1.871,4.18-4.18,4.18h-171.28c-2.308,0-4.18-1.871-4.18-4.18V407.28
		c0.313-0.031,0.636-0.042,0.96-0.042c14.802,0,14.802,25.349,29.614,25.349c14.802,0,14.802-25.349,29.615-25.349
		c14.812,0,14.812,25.349,29.615,25.349c14.812,0,14.812-25.349,29.615-25.349c14.812,0,14.812,25.349,29.625,25.349
		c14.802,0,14.802-25.349,29.615-25.349C345.177,407.238,345.511,407.249,345.824,407.28z"/>
	<path style="fill:#7FB2F0;" d="M280.643,432.588c9.033,0,12.56-9.422,17.291-16.778c-3.029-4.707-6.551-8.571-12.331-8.571
		c-9.026,0-12.55,9.422-17.284,16.778C271.348,428.724,274.867,432.588,280.643,432.588z"/>
	<path style="fill:#7FB2F0;" d="M339.883,432.588c2.302,0,4.244-0.614,5.941-1.649V407.28c-0.313-0.031-0.647-0.042-0.981-0.042
		c-9.033,0-12.56,9.422-17.291,16.779C330.581,428.724,334.102,432.588,339.883,432.588z"/>
</g>
<path style="fill:#5F95D4;" d="M184.999,424.887v79.276H170.37c-2.308,0-4.18-1.871-4.18-4.18V407.28
	c0.303-0.031,0.627-0.042,0.951-0.042C176.524,407.238,179.962,417.426,184.999,424.887z"/>
<path style="fill:#7FB2F0;" d="M221.414,432.588c9.029,0,12.552-9.426,17.288-16.784c-3.028-4.704-6.549-8.565-12.327-8.565
	c-9.032,0-12.56,9.422-17.291,16.778C212.112,428.724,215.634,432.588,221.414,432.588z"/>
<path style="fill:#F7EDE3;" d="M318.641,175.344h-65.275L137.989,35.83l15.726-10.47l25.527-17c0.445-0.297,1.043-0.209,1.384,0.204
	L318.641,175.344z"/>
<path style="fill:#5F95D4;" d="M184.999,424.887v79.276H170.37c-2.308,0-4.18-1.871-4.18-4.18V407.28
	c0.303-0.031,0.627-0.042,0.951-0.042C176.524,407.238,179.962,417.426,184.999,424.887z"/>
<polygon style="fill:#DBD2CA;" points="277.587,175.344 253.366,175.344 137.989,35.83 153.714,25.36 "/>
<path style="fill:#F7EDE3;" d="M332.858,8.358l41.259,27.47L258.736,175.342h-65.272L331.473,8.562
	C331.815,8.15,332.413,8.062,332.858,8.358z"/>
<path style="fill:#DBD2CA;" d="M193.464,175.344h24.221L347.641,18.201L332.86,8.359c-0.445-0.297-1.043-0.209-1.385,0.204
	L193.464,175.344z"/>
<rect x="166.18" y="174.07" style="fill:#7FB2F0;" width="179.649" height="114.26"/>
<rect x="166.19" y="174.07" style="fill:#5F95D4;" width="18.808" height="114.26"/>
<rect x="166.19" y="210.745" style="fill:#F7EDE3;" width="179.639" height="36.822"/>
<rect x="166.19" y="210.745" style="fill:#DBD2CA;" width="18.808" height="36.822"/>
<path d="M436.864,139.269c-1.32-4.121-5.727-6.394-9.852-5.076c-4.122,1.32-6.395,5.729-5.076,9.852l50.073,156.505l-105.067,18.001
	l-13.286-105.893v-1.914v-36.676v-101.2l22.068-26.685l18.68,11.82l18.264,57.088c1.066,3.329,4.145,5.451,7.463,5.451
	c0.791,0,1.596-0.12,2.39-0.374c4.122-1.32,6.395-5.729,5.076-9.852l-19.133-59.8c-0.561-1.752-1.72-3.251-3.274-4.235
	l-26.198-16.576c-0.173-0.138-0.349-0.274-0.534-0.397L336.421,1.316c-1.331-0.886-2.843-1.307-4.344-1.306V0H180.025v0.007
	c-1.499-0.001-3.012,0.42-4.344,1.306l-41.969,27.949l-26.903,17.018c-1.555,0.982-2.714,2.483-3.274,4.235l-81.22,253.848
	c-0.682,2.134-0.42,4.458,0.722,6.383c1.142,1.928,3.055,3.274,5.255,3.699l108.21,20.908c0.502,0.096,1.001,0.143,1.494,0.143
	c3.538,0,6.727-2.407,7.603-5.964l12.745-51.768v49.895c0,4.329,3.509,7.837,7.837,7.837c4.328,0,7.837-3.508,7.837-7.837v-31.483
	h76.382c4.329,0,7.837-3.508,7.837-7.837s-3.508-7.837-7.837-7.837h-76.288v-25.098h163.871v25.099h-55.066
	c-4.329,0-7.837,3.508-7.837,7.837s3.508,7.837,7.837,7.837h55.066v104.462c-7.374,2.796-11.518,9.845-14.719,15.326
	c-3.489,5.973-5.42,8.787-8.034,8.787c-2.622,0-4.554-2.815-8.046-8.792c-4.083-6.988-9.676-16.557-21.578-16.557
	c-11.898,0-17.486,9.568-21.569,16.555c-3.492,5.978-5.424,8.794-8.047,8.794c-2.615,0-4.545-2.814-8.034-8.787
	c-4.082-6.989-9.674-16.563-21.58-16.563c-11.906,0-17.497,9.572-21.579,16.563c-3.489,5.973-5.42,8.787-8.034,8.787
	c-2.623,0-4.555-2.816-8.047-8.794c-3.198-5.475-7.337-12.515-14.696-15.314V361.19c0-4.329-3.509-7.837-7.837-7.837
	c-4.328,0-7.837,3.508-7.837,7.837v142.973c0,4.329,3.509,7.837,7.837,7.837h0.005h179.633h0.005c4.329,0,7.837-3.508,7.837-7.837
	v-96.884c0-0.037-0.004-0.071-0.005-0.109v-75.198c0.498,0.755,1.121,1.43,1.862,1.981c1.359,1.008,2.999,1.542,4.669,1.542
	c0.441,0,0.884-0.037,1.324-0.112l122.034-20.908c2.237-0.383,4.197-1.718,5.375-3.657c1.179-1.939,1.458-4.293,0.766-6.455
	L436.864,139.269z M174.111,202.908v-21.002h163.871v21.002H174.111z M213.251,139.14l-22.42,27.093h-16.813V91.694L213.251,139.14z
	 M288.684,151.432l12.246,14.801h-24.487L288.684,151.432z M337.982,166.233h-16.71l-22.42-27.097l39.13-47.315V166.233z
	 M333.613,18.274l28.925,19.262L256.104,166.233h-44.93l89.638-108.32c0.014-0.017,0.027-0.032,0.04-0.048L333.613,18.274z
	 M291.099,45.066h-70.095l-24.322-29.393h118.74L291.099,45.066z M278.128,60.74l-22.078,26.679L233.973,60.74H278.128z
	 M178.49,18.274l67.388,81.437l-22.455,27.135l-51.152-61.858c-0.032-0.04-0.065-0.078-0.097-0.117l-22.606-27.338L178.49,18.274z
	 M132.16,318.551l-92.228-17.819l77.662-242.729l18.752-11.862l21.997,26.6V212.2L132.16,318.551z M174.111,239.731v-21.149h163.871
	v21.149H174.111z M174.022,496.327v-74.422c0.368,0.61,0.752,1.262,1.158,1.957c4.082,6.989,9.675,16.563,21.58,16.563
	c11.898,0,17.487-9.568,21.569-16.555c3.492-5.978,5.423-8.794,8.046-8.794c2.623,0,4.555,2.816,8.047,8.794
	c4.081,6.987,9.671,16.555,21.568,16.555c11.907,0,17.498-9.572,21.58-16.563c3.489-5.973,5.42-8.787,8.034-8.787
	c2.622,0,4.554,2.815,8.046,8.792c4.082,6.988,9.676,16.557,21.578,16.557c11.898,0,17.486-9.568,21.569-16.555
	c0.417-0.714,0.81-1.379,1.186-2.003v74.46H174.022z"/>
<g>
</g>
<g>
</g>
<g>
</g>
<g>
</g>
<g>
</g>
<g>
</g>
<g>
</g>
<g>
</g>
<g>
</g>
<g>
</g>
<g>
</g>
<g>
</g>
<g>
</g>
<g>
</g>
<g>
</g>
</svg>
