<?xml version="1.0" encoding="iso-8859-1"?>
<!-- Generator: Adobe Illustrator 19.0.0, SVG Export Plug-In . SVG Version: 6.00 Build 0)  -->
<svg version="1.1" id="Layer_1" xmlns="http://www.w3.org/2000/svg" xmlns:xlink="http://www.w3.org/1999/xlink" x="0px" y="0px"
	 viewBox="0 0 512 512" style="enable-background:new 0 0 512 512;" xml:space="preserve">
<path style="fill:#F75534;" d="M47.035,11.577v488.845c0,2.069-1.672,3.741-3.741,3.741H19.419c-2.069,0-3.741-1.672-3.741-3.741
	V11.577c0-2.069,1.672-3.741,3.741-3.741h23.876C45.364,7.837,47.035,9.509,47.035,11.577z"/>
<path style="fill:#BD391E;" d="M34.486,7.837v496.327H19.419c-2.069,0-3.741-1.672-3.741-3.741V11.577
	c0-2.069,1.672-3.741,3.741-3.741H34.486z"/>
<path style="fill:#FFE666;" d="M126.508,241.957h-1.911c-6.897,0-12.541-5.643-12.541-12.541V62.838
	c0-6.897,5.643-12.541,12.541-12.541h1.911c6.897,0,12.541,5.643,12.541,12.541v166.578
	C139.049,236.313,133.406,241.957,126.508,241.957z"/>
<path style="fill:#F75534;" d="M495.728,219.397c1.694,2.79-0.376,6.301-3.721,6.301h-30.23l-50.634-79.569l50.372-79.569h30.491
	c3.345,0,5.415,3.5,3.721,6.29l-44.467,73.279L495.728,219.397z"/>
<polygon style="fill:#BD391E;" points="483.807,66.56 461.516,66.56 411.144,146.129 461.777,225.698 484.068,225.698 
	433.434,146.129 "/>
<polygon style="fill:#FFE666;" points="461.777,225.698 139.046,225.698 139.046,66.56 461.516,66.56 411.144,146.129 "/>
<g>
	<path style="fill:#A9CF54;" d="M275.722,174.362c-0.125,0.01-0.261,0.01-0.387,0.01c0.125,0,0.261,0,0.387,0.01
		c13.699,0.178,25.025,10.094,27.397,23.134c0.031,0.125,0.052,0.24,0.073,0.366c0.251,1.536,0.387,3.114,0.387,4.733
		c0,9.54-4.733,17.972-11.975,23.082H139.049V66.56h152.576c6.019,4.253,10.303,10.804,11.567,18.38
		c0.251,1.526,0.387,3.093,0.387,4.702c0,15.475-12.424,28.035-27.857,28.244c-0.125,0.01-0.261,0.01-0.387,0.01h0.387
		c13.824,0.188,25.234,10.282,27.47,23.5c0,0.01,0,0.01,0,0.021c0.251,1.536,0.387,3.114,0.387,4.712
		C303.579,161.604,291.155,174.164,275.722,174.362z"/>
	<path style="fill:#A9CF54;" d="M310.109,142.169c-2.09-0.502-4.274-0.763-6.531-0.763c2.236,0,4.378-0.251,6.447-0.731
		c0.773-0.178,1.546-0.397,2.299-0.637c0.104,0.449,0.199,0.899,0.272,1.358c0,0.01,0,0.01,0,0.021
		c0.084,0.512,0.157,1.024,0.209,1.536C311.927,142.649,311.029,142.388,310.109,142.169z"/>
</g>
<ellipse style="fill:#FFE666;" cx="194.873" cy="117.959" rx="21.953" ry="21.943"/>
<g>
	<path style="fill:#F75534;" d="M331.848,169.648c0,15.6-12.658,28.244-28.264,28.244c-0.125,0-0.261,0-0.387-0.01
		c-2.237-13.218-13.652-23.322-27.47-23.5c-0.125-0.01-0.261-0.01-0.387-0.01c0.125,0,0.261,0,0.387-0.01
		c15.428-0.199,27.857-12.758,27.857-28.233c0-1.599-0.136-3.176-0.387-4.712c0.125-0.01,0.261-0.01,0.387-0.01
		c2.248,0,4.432,0.261,6.522,0.763c11.749,2.769,20.655,12.863,21.648,25.192C331.817,168.122,331.848,168.874,331.848,169.648z"/>
	<path style="fill:#F75534;" d="M331.848,113.171c0,13.375-9.324,24.597-21.826,27.502c-2.07,0.481-4.212,0.731-6.439,0.731
		c-0.125,0-0.261,0-0.387-0.01c-2.237-13.218-13.652-23.312-27.47-23.5h-0.387c0.125,0,0.261,0,0.387-0.01
		c15.428-0.209,27.857-12.769,27.857-28.244c0-1.609-0.136-3.176-0.387-4.702c0.125-0.01,0.261-0.01,0.387-0.01
		c15.344,0,27.836,12.225,28.254,27.449C331.848,112.638,331.848,112.899,331.848,113.171z"/>
</g>
<path style="fill:#BD391E;" d="M366.527,139.878c0,15.598-12.647,28.24-28.252,28.24c-2.242,0-4.425-0.257-6.521-0.755
	c-0.988-12.334-16.382-22.427-28.128-25.201c-0.043-0.498-0.069-0.996-0.086-1.494c12.502-2.903,28.307-14.121,28.307-27.503
	c0-0.266,0-0.523-0.008-0.79c2.071-0.481,4.219-0.739,6.436-0.739C353.879,111.637,366.527,124.28,366.527,139.878z"/>
<path style="fill:#FFE666;" d="M126.508,465.149h-1.911c-6.897,0-12.541-5.643-12.541-12.541V286.03
	c0-6.897,5.643-12.541,12.541-12.541h1.911c6.897,0,12.541,5.643,12.541,12.541v166.578
	C139.049,459.505,133.406,465.149,126.508,465.149z"/>
<path style="fill:#F75534;" d="M495.728,442.589c1.694,2.79-0.376,6.301-3.721,6.301h-30.23l-50.634-79.569l50.372-79.569h30.491
	c3.345,0,5.415,3.5,3.721,6.29l-44.467,73.279L495.728,442.589z"/>
<polygon style="fill:#FFE666;" points="461.777,448.89 139.046,448.89 139.046,289.752 461.516,289.752 411.144,369.321 "/>
<g>
	<path style="fill:#F75534;" d="M331.848,392.893c0,15.6-12.658,28.244-28.264,28.244c-0.125,0-0.261,0-0.387-0.01
		c-2.237-13.218-13.652-23.322-27.47-23.5c-0.125-0.01-0.261-0.01-0.387-0.01c0.125,0,0.261,0,0.387-0.01
		c15.428-0.199,27.857-12.758,27.857-28.233c0-1.599-0.136-3.177-0.387-4.712c0.125-0.01,0.261-0.01,0.387-0.01
		c2.248,0,4.432,0.261,6.522,0.763c11.749,2.769,20.655,12.863,21.648,25.193C331.817,391.368,331.848,392.12,331.848,392.893z"/>
	<path style="fill:#F75534;" d="M331.848,336.416c0,13.375-9.324,24.597-21.826,27.502c-2.07,0.481-4.212,0.731-6.439,0.731
		c-0.125,0-0.261,0-0.387-0.01c-2.237-13.218-13.652-23.312-27.47-23.5h-0.387c0.125,0,0.261,0,0.387-0.01
		c15.428-0.209,27.857-12.769,27.857-28.244c0-1.609-0.136-3.176-0.387-4.702c0.125-0.01,0.261-0.01,0.387-0.01
		c15.344,0,27.836,12.225,28.254,27.449C331.848,335.883,331.848,336.145,331.848,336.416z"/>
</g>
<path style="fill:#D94B2E;" d="M312.325,419.749c-2.759,0.909-5.695,1.39-8.746,1.39c-0.125,0-0.261,0-0.387-0.01
	c-2.236-13.218-13.646-23.322-27.47-23.5c-0.125-0.01-0.261-0.01-0.387-0.01c0.125,0,0.261,0,0.387-0.01
	c15.433-0.199,27.857-12.758,27.857-28.233c0-1.599-0.136-3.177-0.387-4.712c0.125-0.01,0.261-0.01,0.387-0.01
	c2.257,0,4.441,0.261,6.531,0.763c0.919,0.219,1.818,0.481,2.696,0.784c0.115,1.045,0.178,2.111,0.178,3.177
	c0,15.475-12.424,28.035-27.857,28.233c-0.125,0.01-0.261,0.01-0.387,0.01c0.125,0,0.261,0,0.387,0.01
	C298.469,397.796,309.556,407.21,312.325,419.749z"/>
<path style="fill:#BD391E;" d="M366.527,363.124c0,15.598-12.647,28.24-28.252,28.24c-2.242,0-4.425-0.257-6.521-0.755
	c-0.988-12.334-16.382-22.427-28.128-25.201c-0.043-0.498-0.069-0.996-0.086-1.494c12.502-2.903,28.307-14.121,28.307-27.503
	c0-0.266,0-0.523-0.008-0.79c2.071-0.481,4.219-0.739,6.436-0.739C353.879,334.882,366.527,347.526,366.527,363.124z"/>
<path style="fill:#A9CF54;" d="M275.727,397.552c-0.125,0.01-0.261,0.01-0.387,0.01c0.125,0,0.261,0,0.387,0.01
	c13.819,0.178,25.233,10.282,27.47,23.5c0.251,1.536,0.387,3.114,0.387,4.733c0,9.54-4.736,17.972-11.979,23.082H139.046V289.75
	h152.58c6.021,4.253,10.307,10.804,11.571,18.38c0.251,1.526,0.387,3.093,0.387,4.702c0,15.475-12.428,28.035-27.857,28.244
	c-0.125,0.01-0.261,0.01-0.387,0.01h0.387c13.819,0.188,25.233,10.282,27.47,23.5c0,0.01,0,0.01,0,0.021
	c0.251,1.536,0.387,3.114,0.387,4.712C303.584,384.794,291.156,397.354,275.727,397.552z"/>
<ellipse style="fill:#FFE666;" cx="194.873" cy="341.149" rx="21.953" ry="21.943"/>
<circle cx="194.873" cy="117.959" r="7.84"/>
<circle cx="194.873" cy="341.149" r="7.84"/>
<path d="M194.876,147.732c16.425,0,29.787-13.359,29.787-29.78s-13.362-29.78-29.787-29.78c-16.426,0-29.788,13.359-29.788,29.78
	S178.451,147.732,194.876,147.732z M194.876,103.846c7.781,0,14.113,6.328,14.113,14.106s-6.332,14.106-14.113,14.106
	c-7.782,0-14.114-6.328-14.114-14.106S187.094,103.846,194.876,103.846z"/>
<path d="M194.876,370.925c16.425,0,29.787-13.359,29.787-29.78c0-16.421-13.362-29.78-29.787-29.78
	c-16.426,0-29.788,13.359-29.788,29.78C165.088,357.566,178.451,370.925,194.876,370.925z M194.876,327.039
	c7.781,0,14.113,6.328,14.113,14.106c0,7.778-6.332,14.106-14.113,14.106c-7.782,0-14.114-6.328-14.114-14.106
	C180.761,333.367,187.094,327.039,194.876,327.039z"/>
<g>
	<rect x="139.044" y="66.558" style="fill:#92B83D;" width="18.808" height="159.138"/>
	<rect x="139.044" y="289.75" style="fill:#92B83D;" width="18.808" height="159.138"/>
</g>
<polygon style="fill:#BD391E;" points="483.807,289.752 461.516,289.752 411.144,369.321 461.777,448.89 484.068,448.89 
	433.434,369.321 "/>
<path d="M124.597,249.793h1.911c9.826,0,18.049-6.99,19.959-16.259h315.312h30.23c4.411,0,8.48-2.366,10.622-6.173
	c2.108-3.744,2.029-8.355-0.203-12.032v0.001l-41.998-69.203l41.998-69.211c2.232-3.676,2.31-8.283,0.205-12.024
	c-2.142-3.807-6.213-6.171-10.625-6.171h-30.491h-54.001c-4.329,0-7.837,3.509-7.837,7.837s3.508,7.837,7.837,7.837h39.765
	l-42.757,67.54c-1.624,2.565-1.621,5.838,0.01,8.399l42.969,67.525H308.015c1.891-4.046,3.045-8.442,3.332-12.982
	c14.171-3.117,25.24-14.575,27.778-28.945c19.506-0.455,35.238-16.448,35.238-36.056c0-19.829-16.085-35.967-35.895-36.073
	c-3.613-13.698-14.96-24.042-29.145-26.265c-0.382-1.069-0.815-2.117-1.297-3.144h58.501c4.329,0,7.837-3.509,7.837-7.837
	s-3.508-7.837-7.837-7.837h-74.874c-0.008,0-0.018-0.002-0.026-0.002H146.467c-1.909-9.27-10.132-16.262-19.959-16.262h-1.911
	c-11.236,0-20.378,9.142-20.378,20.378v12.741H54.873V11.579C54.873,5.194,49.679,0,43.295,0H19.42
	C13.035,0,7.841,5.194,7.841,11.579V237.54c0,4.328,3.508,7.837,7.837,7.837s7.837-3.509,7.837-7.837V15.673H39.2v480.653H23.515
	V277.308c0-4.328-3.508-7.837-7.837-7.837s-7.837,3.509-7.837,7.837v223.114c0,6.384,5.194,11.578,11.579,11.578h23.875
	c6.384,0,11.579-5.194,11.579-11.578v-59.257h49.346v11.444c0,11.236,9.142,20.378,20.378,20.378h1.911
	c9.826,0,18.049-6.99,19.959-16.259h315.31h30.23c4.411,0,8.48-2.366,10.622-6.173c2.108-3.744,2.029-8.355-0.203-12.032v0.001
	l-41.998-69.203l41.998-69.211c2.232-3.676,2.31-8.283,0.205-12.024c-2.142-3.807-6.213-6.171-10.625-6.171h-30.491H291.652
	c-0.008,0-0.018-0.002-0.026-0.002H146.467c-1.909-9.269-10.132-16.261-19.959-16.261h-1.911c-11.236,0-20.378,9.142-20.378,20.378
	v12.739H54.873v-80.798h49.346v11.444C104.22,240.653,113.361,249.793,124.597,249.793z M444.561,142.063
	c-1.516,2.498-1.515,5.633,0.001,8.131l41.067,67.667h-19.549l-45.654-71.743l45.405-71.722h19.791L444.561,142.063z
	 M308.912,189.342c-0.037-0.093-0.082-0.181-0.119-0.274c-0.235-0.582-0.483-1.157-0.747-1.723
	c-0.041-0.089-0.078-0.179-0.121-0.267c-0.305-0.641-0.631-1.267-0.972-1.886c-0.082-0.148-0.167-0.294-0.251-0.441
	c-0.292-0.511-0.594-1.015-0.909-1.509c-0.076-0.12-0.15-0.243-0.229-0.363c-0.383-0.586-0.783-1.16-1.197-1.721
	c-0.086-0.115-0.174-0.227-0.261-0.341c-0.352-0.464-0.715-0.918-1.088-1.364c-0.109-0.13-0.215-0.26-0.326-0.389
	c-0.455-0.527-0.921-1.043-1.404-1.542c-0.068-0.07-0.139-0.136-0.207-0.206c-0.427-0.435-0.867-0.856-1.316-1.269
	c-0.135-0.123-0.27-0.247-0.405-0.369c-0.521-0.464-1.05-0.918-1.597-1.351c0.488-0.39,0.963-0.793,1.43-1.207
	c0.148-0.132,0.292-0.269,0.438-0.403c0.315-0.287,0.627-0.578,0.932-0.877c0.167-0.164,0.329-0.332,0.493-0.499
	c0.276-0.281,0.548-0.565,0.814-0.855c0.165-0.179,0.327-0.36,0.488-0.542c0.259-0.294,0.512-0.59,0.762-0.892
	c0.151-0.183,0.304-0.366,0.451-0.553c0.257-0.323,0.506-0.652,0.751-0.983c0.128-0.172,0.258-0.341,0.382-0.515
	c0.294-0.411,0.576-0.829,0.852-1.251c0.066-0.101,0.137-0.2,0.203-0.302c0.337-0.529,0.662-1.067,0.973-1.613
	c0.079-0.139,0.15-0.282,0.228-0.421c0.226-0.41,0.447-0.821,0.657-1.24c0.101-0.203,0.196-0.409,0.294-0.612
	c0.174-0.365,0.346-0.731,0.508-1.103c0.099-0.226,0.193-0.453,0.287-0.681c0.149-0.362,0.293-0.726,0.43-1.093
	c0.088-0.233,0.174-0.467,0.257-0.703c0.133-0.379,0.257-0.762,0.378-1.145c0.071-0.227,0.144-0.451,0.211-0.679
	c0.126-0.434,0.24-0.871,0.351-1.31c0.046-0.183,0.097-0.363,0.141-0.546c0.146-0.624,0.278-1.254,0.392-1.889
	c0.018-0.101,0.029-0.204,0.047-0.305c0.079-0.472,0.157-0.945,0.218-1.422c0.037,0.015,0.074,0.026,0.111,0.041
	c0.243,0.097,0.481,0.207,0.719,0.312c0.23,0.102,0.46,0.204,0.684,0.315c0.227,0.111,0.448,0.23,0.671,0.349
	c0.227,0.122,0.451,0.246,0.672,0.376c0.212,0.124,0.421,0.253,0.627,0.385c0.22,0.141,0.438,0.286,0.653,0.436
	c0.196,0.136,0.392,0.273,0.582,0.416c0.215,0.161,0.424,0.329,0.633,0.498c0.179,0.145,0.359,0.288,0.533,0.44
	c0.213,0.185,0.417,0.379,0.622,0.573c0.157,0.148,0.319,0.293,0.47,0.446c0.24,0.242,0.468,0.495,0.696,0.749
	c0.163,0.181,0.324,0.363,0.48,0.55c0.253,0.303,0.501,0.609,0.736,0.927c0.128,0.171,0.243,0.351,0.365,0.528
	c0.161,0.233,0.324,0.465,0.475,0.704c0.123,0.196,0.238,0.398,0.355,0.599c0.135,0.231,0.269,0.461,0.395,0.697
	c0.112,0.21,0.217,0.424,0.322,0.638c0.116,0.236,0.228,0.475,0.334,0.717c0.097,0.219,0.189,0.441,0.279,0.665
	c0.099,0.249,0.192,0.499,0.282,0.752c0.079,0.223,0.157,0.446,0.229,0.673c0.085,0.267,0.159,0.539,0.233,0.812
	c0.059,0.218,0.12,0.436,0.172,0.657c0.072,0.309,0.132,0.624,0.19,0.938c0.036,0.19,0.077,0.377,0.108,0.568
	c0.079,0.509,0.144,1.023,0.186,1.544c0,0,0,0.002,0,0.003s0,0.003,0,0.004c0.046,0.56,0.068,1.1,0.068,1.651
	C324.012,179.047,317.617,186.982,308.912,189.342z M358.691,139.878c0,11.19-9.058,20.304-20.231,20.403
	c-0.089-0.334-0.208-0.656-0.306-0.986c-0.141-0.472-0.278-0.946-0.437-1.411c-0.153-0.446-0.325-0.881-0.494-1.319
	c-0.174-0.45-0.347-0.902-0.538-1.344c-0.187-0.43-0.391-0.851-0.595-1.273c-0.208-0.433-0.416-0.865-0.641-1.288
	c-0.217-0.409-0.45-0.807-0.683-1.207c-0.243-0.418-0.487-0.835-0.746-1.241c-0.245-0.383-0.503-0.755-0.761-1.128
	c-0.279-0.403-0.56-0.805-0.855-1.195c-0.268-0.354-0.546-0.698-0.828-1.043c-0.317-0.389-0.635-0.773-0.968-1.148
	c-0.287-0.324-0.584-0.637-0.883-0.951c-0.353-0.37-0.709-0.737-1.078-1.092c-0.305-0.294-0.62-0.579-0.935-0.862
	c-0.388-0.348-0.779-0.69-1.183-1.021c-0.141-0.116-0.272-0.243-0.415-0.357c0.073-0.059,0.142-0.12,0.215-0.179
	c0.267-0.216,0.532-0.436,0.794-0.659c0.139-0.119,0.278-0.238,0.416-0.359c0.259-0.229,0.514-0.463,0.767-0.699
	c0.13-0.121,0.259-0.241,0.387-0.364c0.258-0.249,0.511-0.503,0.762-0.76c0.114-0.117,0.23-0.231,0.342-0.349
	c0.265-0.28,0.525-0.565,0.782-0.854c0.09-0.1,0.182-0.199,0.271-0.301c0.304-0.349,0.601-0.705,0.891-1.067
	c0.036-0.044,0.073-0.087,0.108-0.131c0.658-0.825,1.279-1.679,1.861-2.56c0.064-0.097,0.124-0.196,0.187-0.294
	c0.219-0.339,0.436-0.678,0.644-1.024c0.084-0.14,0.163-0.283,0.246-0.424c0.18-0.308,0.357-0.618,0.528-0.932
	c0.088-0.162,0.172-0.327,0.258-0.49c0.157-0.299,0.31-0.599,0.459-0.903c0.086-0.174,0.168-0.352,0.251-0.529
	c0.139-0.298,0.276-0.598,0.408-0.9c0.08-0.184,0.158-0.369,0.235-0.555c0.125-0.302,0.247-0.606,0.364-0.911
	c0.072-0.188,0.143-0.376,0.212-0.565c0.113-0.31,0.22-0.624,0.326-0.939c0.063-0.188,0.125-0.375,0.185-0.564
	c0.102-0.324,0.196-0.651,0.289-0.979c0.052-0.183,0.107-0.366,0.156-0.55c0.093-0.348,0.177-0.699,0.26-1.05
	c0.04-0.168,0.083-0.334,0.119-0.503c0.088-0.4,0.165-0.804,0.24-1.208c0.02-0.109,0.046-0.216,0.065-0.325
	C349.996,119.946,358.691,128.916,358.691,139.878z M324.003,112.591c0.001,0.041,0.002,0.082,0.004,0.121
	c0.006,0.149,0.004,0.299,0.004,0.455c0,0.591-0.025,1.178-0.074,1.758c-0.011,0.136-0.037,0.267-0.05,0.402
	c-0.046,0.441-0.094,0.881-0.168,1.313c-0.03,0.177-0.075,0.348-0.11,0.522c-0.076,0.386-0.149,0.771-0.247,1.148
	c-0.048,0.188-0.112,0.37-0.165,0.556c-0.102,0.357-0.203,0.715-0.324,1.064c-0.067,0.193-0.148,0.378-0.222,0.568
	c-0.127,0.333-0.252,0.668-0.396,0.992c-0.086,0.192-0.184,0.378-0.276,0.567c-0.15,0.312-0.299,0.626-0.464,0.929
	c-0.103,0.189-0.218,0.37-0.327,0.555c-0.172,0.294-0.343,0.587-0.53,0.87c-0.12,0.182-0.251,0.356-0.377,0.534
	c-0.193,0.274-0.386,0.549-0.591,0.813c-0.136,0.174-0.283,0.34-0.424,0.51c-0.213,0.255-0.425,0.51-0.651,0.754
	c-0.151,0.164-0.312,0.319-0.469,0.478c-0.233,0.236-0.465,0.471-0.709,0.696c-0.164,0.152-0.337,0.294-0.507,0.439
	c-0.252,0.216-0.505,0.433-0.768,0.637c-0.177,0.137-0.36,0.265-0.542,0.397c-0.271,0.196-0.542,0.392-0.824,0.575
	c-0.188,0.122-0.382,0.236-0.575,0.353c-0.289,0.174-0.58,0.348-0.879,0.509c-0.197,0.107-0.401,0.205-0.603,0.305
	c-0.307,0.153-0.616,0.302-0.933,0.44c-0.205,0.089-0.415,0.17-0.624,0.254c-0.326,0.129-0.653,0.254-0.988,0.367
	c-0.212,0.071-0.427,0.136-0.643,0.201c-0.212,0.064-0.428,0.121-0.644,0.179c-0.034-0.088-0.076-0.171-0.112-0.258
	c-0.234-0.578-0.48-1.149-0.742-1.712c-0.043-0.093-0.083-0.188-0.126-0.28c-0.305-0.641-0.631-1.269-0.973-1.887
	c-0.08-0.146-0.165-0.29-0.248-0.436c-0.292-0.512-0.595-1.016-0.91-1.511c-0.077-0.121-0.151-0.246-0.231-0.366
	c-0.385-0.588-0.785-1.163-1.201-1.725c-0.083-0.111-0.168-0.218-0.252-0.329c-0.355-0.468-0.722-0.927-1.099-1.377
	c-0.108-0.129-0.213-0.257-0.322-0.383c-0.457-0.529-0.924-1.046-1.41-1.548c-0.065-0.067-0.133-0.131-0.199-0.196
	c-0.43-0.438-0.872-0.862-1.325-1.277c-0.135-0.123-0.269-0.247-0.404-0.368c-0.521-0.465-1.051-0.92-1.6-1.353
	c0.488-0.39,0.963-0.793,1.43-1.207c0.149-0.133,0.294-0.272,0.441-0.406c0.313-0.287,0.625-0.577,0.929-0.875
	c0.168-0.165,0.331-0.334,0.496-0.502c0.275-0.28,0.545-0.563,0.811-0.852c0.166-0.181,0.329-0.363,0.492-0.546
	c0.257-0.292,0.51-0.587,0.758-0.887c0.154-0.185,0.307-0.37,0.457-0.558c0.255-0.32,0.502-0.647,0.745-0.975
	c0.13-0.174,0.261-0.347,0.388-0.523c0.289-0.405,0.568-0.819,0.842-1.237c0.069-0.107,0.143-0.209,0.212-0.316
	c0.337-0.528,0.661-1.066,0.972-1.611c0.08-0.141,0.153-0.285,0.231-0.427c0.225-0.408,0.445-0.818,0.654-1.235
	c0.102-0.204,0.197-0.411,0.296-0.616c0.174-0.364,0.345-0.729,0.507-1.1c0.099-0.227,0.194-0.456,0.288-0.684
	c0.148-0.36,0.293-0.724,0.429-1.09c0.088-0.235,0.174-0.469,0.258-0.706c0.132-0.376,0.256-0.755,0.375-1.137
	c0.072-0.23,0.146-0.458,0.214-0.69c0.123-0.423,0.235-0.852,0.343-1.281c0.049-0.193,0.103-0.383,0.148-0.578
	c0.145-0.621,0.277-1.248,0.39-1.88c0.02-0.111,0.032-0.225,0.051-0.336c0.078-0.468,0.156-0.937,0.216-1.412
	C318.531,97.077,323.772,104.138,324.003,112.591z M295.464,86.205c0.188,1.148,0.283,2.304,0.283,3.435
	c0,11.102-9.029,20.257-20.127,20.407c-0.101,0.001-0.202,0.005-0.304,0.01c-3.508,0.01-6.473,2.325-7.463,5.51
	c-0.228,0.736-0.351,1.516-0.351,2.327c0,4.328,3.508,7.837,7.837,7.837h0.328c0.07,0.001,0.138,0.01,0.208,0.013
	c0.541,0.014,1.08,0.042,1.611,0.097c0.252,0.026,0.497,0.075,0.746,0.111c0.344,0.049,0.691,0.088,1.029,0.154
	c0.277,0.054,0.545,0.131,0.818,0.196c0.303,0.072,0.61,0.134,0.909,0.219c0.273,0.078,0.537,0.179,0.806,0.269
	c0.288,0.096,0.581,0.182,0.864,0.289c0.266,0.102,0.523,0.226,0.785,0.339c0.274,0.118,0.552,0.227,0.819,0.356
	c0.258,0.125,0.505,0.271,0.757,0.406c0.258,0.139,0.522,0.269,0.773,0.418c0.247,0.146,0.48,0.312,0.719,0.468
	c0.245,0.16,0.495,0.311,0.732,0.481c0.229,0.164,0.444,0.346,0.666,0.518c0.233,0.183,0.473,0.356,0.698,0.549
	c0.211,0.181,0.408,0.377,0.611,0.565c0.219,0.204,0.446,0.4,0.656,0.612c0.193,0.195,0.371,0.406,0.557,0.609
	c0.204,0.224,0.415,0.441,0.608,0.674c0.176,0.211,0.335,0.437,0.504,0.655c0.185,0.24,0.376,0.475,0.551,0.725
	c0.158,0.226,0.298,0.465,0.447,0.698c0.164,0.257,0.336,0.51,0.49,0.775c0.138,0.239,0.258,0.491,0.387,0.737
	c0.143,0.273,0.294,0.541,0.424,0.821c0.118,0.253,0.217,0.517,0.325,0.775c0.12,0.286,0.247,0.568,0.354,0.862
	c0.097,0.266,0.173,0.543,0.26,0.815c0.094,0.297,0.196,0.59,0.278,0.893c0.075,0.281,0.13,0.572,0.192,0.858
	c0.07,0.316,0.148,0.627,0.204,0.948c0.002,0.01,0.003,0.022,0.005,0.032c0.189,1.162,0.284,2.324,0.284,3.454
	c0,11.104-9.027,20.254-20.122,20.397c-0.099,0.001-0.199,0.004-0.299,0.009c-4.322,0.006-7.823,3.513-7.823,7.837
	c0,4.321,3.496,7.824,7.814,7.837c0.103,0.005,0.206,0.008,0.309,0.01c0.615,0.008,1.226,0.043,1.829,0.104
	c9.035,0.924,16.461,7.755,18.011,16.844c0.186,1.154,0.281,2.313,0.281,3.448c0,5.846-2.527,11.394-6.855,15.245H146.886V74.397
	h142.027C292.359,77.475,294.709,81.677,295.464,86.205z M119.893,62.838c0-2.55,2.155-4.704,4.704-4.704h1.911
	c2.55,0,4.704,2.155,4.704,4.704v3.659c0,0.021-0.003,0.041-0.003,0.061v0.002v159.136v0.002c0,0.021,0.003,0.041,0.003,0.061v3.657
	c0,2.55-2.155,4.704-4.704,4.704h-1.911c-2.55,0-4.704-2.155-4.704-4.704V62.838z M304.316,334.23
	c0.13-0.174,0.261-0.347,0.388-0.523c0.289-0.405,0.568-0.819,0.842-1.237c0.069-0.107,0.143-0.209,0.212-0.316
	c0.337-0.528,0.661-1.066,0.972-1.611c0.08-0.141,0.153-0.285,0.231-0.427c0.225-0.408,0.445-0.818,0.654-1.235
	c0.102-0.204,0.197-0.411,0.296-0.616c0.174-0.364,0.345-0.729,0.507-1.1c0.099-0.227,0.194-0.456,0.288-0.684
	c0.148-0.361,0.293-0.724,0.429-1.09c0.088-0.235,0.174-0.469,0.258-0.706c0.132-0.376,0.256-0.755,0.375-1.137
	c0.072-0.23,0.146-0.458,0.214-0.69c0.123-0.423,0.235-0.852,0.343-1.281c0.049-0.193,0.103-0.383,0.148-0.578
	c0.145-0.621,0.277-1.248,0.39-1.88c0.02-0.111,0.032-0.225,0.051-0.336c0.078-0.468,0.156-0.937,0.216-1.412
	c7.398,2.899,12.639,9.96,12.87,18.413c0.001,0.041,0.002,0.082,0.004,0.121c0.006,0.149,0.004,0.299,0.004,0.455
	c0,0.591-0.025,1.178-0.074,1.756c-0.011,0.138-0.037,0.272-0.051,0.408c-0.046,0.439-0.094,0.878-0.167,1.308
	c-0.03,0.179-0.076,0.352-0.111,0.529c-0.075,0.383-0.149,0.767-0.246,1.142c-0.049,0.19-0.113,0.375-0.167,0.564
	c-0.102,0.354-0.202,0.709-0.322,1.055c-0.068,0.195-0.15,0.383-0.225,0.577c-0.126,0.33-0.25,0.662-0.393,0.984
	c-0.087,0.195-0.187,0.382-0.279,0.575c-0.149,0.309-0.296,0.621-0.46,0.922c-0.104,0.191-0.222,0.375-0.332,0.563
	c-0.17,0.29-0.34,0.581-0.524,0.862c-0.122,0.185-0.255,0.363-0.383,0.543c-0.191,0.272-0.381,0.543-0.585,0.805
	c-0.138,0.177-0.286,0.344-0.429,0.515c-0.211,0.253-0.422,0.506-0.646,0.748c-0.153,0.165-0.316,0.322-0.473,0.483
	c-0.231,0.234-0.461,0.468-0.703,0.691c-0.166,0.153-0.342,0.297-0.513,0.444c-0.251,0.215-0.501,0.429-0.762,0.632
	c-0.178,0.138-0.364,0.268-0.546,0.4c-0.27,0.195-0.54,0.39-0.82,0.572c-0.189,0.123-0.383,0.237-0.577,0.354
	c-0.288,0.174-0.579,0.347-0.877,0.508c-0.197,0.107-0.401,0.205-0.603,0.305c-0.307,0.153-0.616,0.302-0.933,0.44
	c-0.205,0.089-0.415,0.17-0.624,0.254c-0.326,0.129-0.653,0.254-0.988,0.367c-0.212,0.071-0.427,0.136-0.643,0.201
	c-0.212,0.064-0.428,0.121-0.644,0.179c-0.034-0.088-0.076-0.171-0.112-0.258c-0.234-0.578-0.48-1.149-0.742-1.712
	c-0.043-0.093-0.083-0.188-0.126-0.28c-0.305-0.641-0.631-1.268-0.973-1.887c-0.08-0.146-0.165-0.29-0.248-0.436
	c-0.292-0.512-0.595-1.016-0.91-1.511c-0.077-0.121-0.151-0.246-0.231-0.366c-0.385-0.588-0.785-1.163-1.201-1.725
	c-0.083-0.111-0.168-0.218-0.252-0.329c-0.355-0.468-0.722-0.927-1.099-1.377c-0.108-0.129-0.213-0.257-0.322-0.383
	c-0.457-0.529-0.924-1.046-1.41-1.547c-0.065-0.067-0.133-0.131-0.199-0.196c-0.43-0.438-0.872-0.862-1.325-1.277
	c-0.135-0.123-0.269-0.247-0.404-0.368c-0.521-0.465-1.051-0.92-1.6-1.353c0.488-0.39,0.963-0.793,1.43-1.207
	c0.149-0.133,0.294-0.272,0.441-0.406c0.313-0.287,0.625-0.577,0.929-0.875c0.168-0.165,0.331-0.334,0.496-0.502
	c0.275-0.28,0.545-0.563,0.811-0.852c0.166-0.181,0.329-0.363,0.492-0.547c0.257-0.292,0.51-0.587,0.758-0.887
	c0.154-0.185,0.307-0.37,0.457-0.558C303.825,334.886,304.073,334.56,304.316,334.23z M338.299,346.323
	c0.052-0.185,0.107-0.368,0.157-0.554c0.093-0.347,0.177-0.697,0.259-1.048c0.04-0.168,0.083-0.335,0.12-0.505
	c0.088-0.4,0.165-0.802,0.24-1.207c0.02-0.109,0.046-0.216,0.065-0.326c10.859,0.455,19.552,9.425,19.552,20.387
	c0,11.19-9.059,20.304-20.231,20.403c-0.089-0.333-0.207-0.654-0.305-0.983c-0.141-0.474-0.279-0.95-0.439-1.416
	c-0.152-0.443-0.323-0.876-0.491-1.31c-0.176-0.455-0.349-0.908-0.542-1.353c-0.185-0.426-0.388-0.842-0.588-1.26
	c-0.21-0.437-0.42-0.874-0.647-1.301c-0.215-0.404-0.445-0.798-0.675-1.193c-0.247-0.423-0.492-0.844-0.755-1.256
	c-0.241-0.377-0.495-0.745-0.75-1.113c-0.283-0.409-0.567-0.816-0.866-1.212c-0.263-0.349-0.539-0.688-0.815-1.027
	c-0.32-0.393-0.643-0.783-0.979-1.162c-0.284-0.32-0.577-0.63-0.872-0.939c-0.356-0.374-0.717-0.743-1.089-1.101
	c-0.303-0.292-0.614-0.574-0.928-0.855c-0.39-0.349-0.784-0.693-1.189-1.026c-0.141-0.115-0.271-0.242-0.413-0.356
	c0.073-0.059,0.142-0.12,0.215-0.179c0.268-0.216,0.532-0.436,0.794-0.659c0.139-0.119,0.278-0.238,0.416-0.359
	c0.259-0.229,0.513-0.462,0.765-0.697c0.131-0.122,0.261-0.242,0.39-0.367c0.257-0.248,0.508-0.501,0.758-0.755
	c0.115-0.118,0.232-0.234,0.346-0.353c0.264-0.278,0.521-0.562,0.777-0.848c0.091-0.102,0.185-0.202,0.275-0.305
	c0.301-0.345,0.592-0.697,0.88-1.052c0.04-0.049,0.08-0.096,0.12-0.144c0.657-0.823,1.277-1.676,1.859-2.556
	c0.068-0.101,0.131-0.207,0.197-0.309c0.216-0.333,0.429-0.669,0.634-1.009c0.087-0.143,0.167-0.289,0.252-0.434
	c0.178-0.305,0.353-0.61,0.522-0.922c0.09-0.165,0.176-0.332,0.262-0.499c0.155-0.296,0.307-0.592,0.455-0.893
	c0.087-0.178,0.17-0.357,0.255-0.537c0.138-0.295,0.273-0.591,0.403-0.891c0.082-0.186,0.16-0.373,0.238-0.561
	c0.124-0.3,0.245-0.602,0.36-0.905c0.073-0.19,0.144-0.379,0.214-0.57c0.113-0.309,0.219-0.621,0.324-0.933
	c0.063-0.189,0.126-0.379,0.187-0.569C338.112,346.975,338.207,346.649,338.299,346.323z M323.944,391.189
	c0.046,0.56,0.068,1.1,0.068,1.651c0,9.4-6.394,17.336-15.1,19.694c-0.037-0.093-0.082-0.181-0.119-0.274
	c-0.235-0.582-0.483-1.157-0.747-1.723c-0.041-0.089-0.078-0.179-0.121-0.268c-0.305-0.641-0.631-1.267-0.972-1.886
	c-0.082-0.148-0.167-0.294-0.251-0.441c-0.292-0.511-0.594-1.015-0.909-1.509c-0.076-0.12-0.15-0.243-0.229-0.363
	c-0.383-0.586-0.783-1.16-1.197-1.721c-0.086-0.115-0.174-0.227-0.261-0.341c-0.352-0.464-0.715-0.918-1.088-1.364
	c-0.109-0.13-0.215-0.26-0.326-0.389c-0.455-0.527-0.921-1.043-1.404-1.542c-0.068-0.07-0.139-0.136-0.207-0.206
	c-0.427-0.435-0.867-0.856-1.316-1.268c-0.135-0.123-0.27-0.247-0.405-0.369c-0.521-0.464-1.05-0.918-1.597-1.351
	c0.488-0.39,0.963-0.793,1.43-1.207c0.148-0.132,0.292-0.269,0.438-0.403c0.315-0.287,0.627-0.578,0.932-0.877
	c0.167-0.164,0.329-0.332,0.493-0.499c0.276-0.281,0.548-0.565,0.814-0.855c0.165-0.179,0.327-0.361,0.488-0.542
	c0.259-0.294,0.512-0.59,0.762-0.892c0.151-0.183,0.304-0.366,0.451-0.553c0.257-0.323,0.506-0.652,0.751-0.983
	c0.128-0.172,0.258-0.341,0.382-0.515c0.294-0.411,0.576-0.829,0.852-1.251c0.066-0.101,0.137-0.2,0.203-0.302
	c0.337-0.529,0.662-1.067,0.973-1.613c0.079-0.139,0.15-0.282,0.228-0.421c0.226-0.41,0.447-0.821,0.657-1.24
	c0.101-0.203,0.196-0.409,0.294-0.612c0.174-0.365,0.346-0.731,0.508-1.103c0.099-0.226,0.193-0.453,0.287-0.681
	c0.149-0.362,0.293-0.726,0.43-1.093c0.088-0.233,0.174-0.467,0.257-0.703c0.133-0.379,0.257-0.762,0.378-1.145
	c0.071-0.227,0.144-0.451,0.211-0.679c0.126-0.434,0.24-0.871,0.351-1.31c0.046-0.183,0.097-0.363,0.141-0.546
	c0.146-0.624,0.278-1.254,0.392-1.889c0.018-0.101,0.029-0.204,0.047-0.305c0.079-0.471,0.157-0.945,0.218-1.422
	c0.038,0.015,0.077,0.027,0.115,0.043c0.238,0.095,0.469,0.202,0.702,0.305c0.235,0.104,0.47,0.209,0.7,0.322
	c0.223,0.11,0.441,0.227,0.659,0.344c0.23,0.124,0.459,0.25,0.683,0.382c0.209,0.123,0.415,0.25,0.618,0.379
	c0.224,0.143,0.444,0.29,0.661,0.442c0.193,0.134,0.387,0.27,0.576,0.411c0.217,0.163,0.428,0.332,0.639,0.503
	c0.178,0.143,0.356,0.285,0.528,0.435c0.215,0.187,0.422,0.385,0.629,0.58c0.155,0.146,0.313,0.287,0.463,0.439
	c0.245,0.247,0.478,0.505,0.709,0.764c0.154,0.171,0.305,0.342,0.452,0.518c0.258,0.309,0.511,0.622,0.751,0.947
	c0.125,0.169,0.24,0.348,0.36,0.521c0.163,0.235,0.326,0.469,0.479,0.711c0.123,0.195,0.237,0.395,0.353,0.595
	c0.136,0.232,0.271,0.464,0.397,0.702c0.111,0.209,0.215,0.421,0.32,0.634c0.116,0.238,0.23,0.479,0.337,0.722
	c0.096,0.218,0.188,0.438,0.277,0.66c0.1,0.251,0.193,0.504,0.283,0.758c0.078,0.221,0.156,0.443,0.227,0.669
	c0.085,0.27,0.161,0.543,0.234,0.818c0.059,0.216,0.12,0.432,0.171,0.651c0.073,0.312,0.133,0.629,0.191,0.947
	c0.034,0.187,0.076,0.372,0.106,0.561c0.079,0.51,0.144,1.024,0.186,1.545c0,0.001,0,0.003,0.001,0.004
	C323.944,391.187,323.944,391.188,323.944,391.189z M295.464,309.397c0.188,1.148,0.283,2.304,0.283,3.435
	c0,11.102-9.029,20.257-20.127,20.407c-0.101,0.001-0.202,0.005-0.304,0.01c-3.508,0.01-6.473,2.325-7.463,5.51
	c-0.228,0.736-0.351,1.516-0.351,2.327c0,4.328,3.508,7.837,7.837,7.837h0.328c0.07,0.001,0.138,0.01,0.208,0.013
	c0.541,0.014,1.08,0.042,1.611,0.097c0.252,0.026,0.497,0.075,0.746,0.111c0.344,0.049,0.691,0.088,1.029,0.154
	c0.277,0.054,0.545,0.131,0.818,0.196c0.303,0.072,0.61,0.134,0.909,0.219c0.273,0.078,0.537,0.179,0.806,0.269
	c0.288,0.096,0.581,0.182,0.864,0.289c0.266,0.102,0.523,0.226,0.785,0.339c0.274,0.118,0.552,0.227,0.819,0.356
	c0.258,0.125,0.505,0.271,0.757,0.406c0.258,0.139,0.522,0.269,0.773,0.418c0.247,0.146,0.48,0.312,0.719,0.468
	c0.245,0.16,0.495,0.311,0.732,0.481c0.229,0.164,0.444,0.346,0.666,0.518c0.233,0.183,0.473,0.356,0.698,0.549
	c0.211,0.181,0.408,0.377,0.611,0.565c0.219,0.204,0.446,0.4,0.656,0.612c0.193,0.195,0.371,0.406,0.557,0.609
	c0.204,0.224,0.415,0.441,0.608,0.674c0.176,0.211,0.335,0.437,0.504,0.655c0.185,0.24,0.376,0.475,0.551,0.725
	c0.158,0.226,0.298,0.465,0.447,0.698c0.164,0.257,0.336,0.51,0.49,0.775c0.138,0.239,0.258,0.491,0.387,0.737
	c0.143,0.273,0.294,0.541,0.424,0.821c0.118,0.253,0.217,0.517,0.325,0.775c0.12,0.286,0.247,0.568,0.354,0.862
	c0.097,0.266,0.173,0.543,0.26,0.815c0.094,0.297,0.196,0.59,0.278,0.893c0.075,0.281,0.13,0.572,0.192,0.858
	c0.07,0.316,0.148,0.627,0.204,0.948c0.002,0.01,0.003,0.022,0.005,0.032c0.189,1.162,0.284,2.324,0.284,3.454
	c0,11.104-9.027,20.254-20.122,20.397c-0.099,0.001-0.199,0.004-0.299,0.009c-4.322,0.006-7.823,3.513-7.823,7.837
	c0,4.321,3.496,7.824,7.814,7.837c0.103,0.005,0.206,0.008,0.309,0.01c0.615,0.008,1.226,0.043,1.829,0.104
	c9.035,0.924,16.461,7.755,18.011,16.844c0.186,1.154,0.281,2.313,0.281,3.448c0,5.846-2.527,11.394-6.855,15.245H146.886V297.589
	h142.027C292.359,300.667,294.709,304.869,295.464,309.397z M444.561,365.257c-1.516,2.498-1.515,5.633,0.001,8.131l41.067,67.667
	h-19.549l-45.654-71.743l45.405-71.722h19.791L444.561,365.257z M404.522,365.129c-1.624,2.565-1.621,5.838,0.01,8.399
	l42.969,67.525H308.015c1.891-4.046,3.045-8.442,3.332-12.982c14.171-3.117,25.24-14.575,27.778-28.945
	c19.506-0.455,35.238-16.448,35.238-36.056c0-19.829-16.085-35.967-35.895-36.073c-3.613-13.698-14.96-24.042-29.145-26.265
	c-0.382-1.069-0.815-2.117-1.297-3.144h139.252L404.522,365.129z M104.22,314.443v34.539c0,4.328,3.508,7.837,7.837,7.837
	s7.837-3.509,7.837-7.837V286.03c0-2.55,2.155-4.704,4.704-4.704h1.911c2.55,0,4.704,2.155,4.704,4.704v3.659
	c0,0.021-0.003,0.041-0.003,0.061v0.002v159.136v0.002c0,0.021,0.003,0.041,0.003,0.061v3.657c0,2.55-2.155,4.704-4.704,4.704
	h-1.911c-2.55,0-4.704-2.155-4.704-4.704v-64.951c0-4.328-3.508-7.837-7.837-7.837s-7.837,3.509-7.837,7.837v37.834H54.873V314.443
	H104.22z M54.873,202.299V91.251h49.346v111.048H54.873z"/>
<g>
</g>
<g>
</g>
<g>
</g>
<g>
</g>
<g>
</g>
<g>
</g>
<g>
</g>
<g>
</g>
<g>
</g>
<g>
</g>
<g>
</g>
<g>
</g>
<g>
</g>
<g>
</g>
<g>
</g>
</svg>
