<?xml version="1.0" encoding="iso-8859-1"?>
<!-- Generator: Adobe Illustrator 19.0.0, SVG Export Plug-In . SVG Version: 6.00 Build 0)  -->
<svg version="1.1" id="Layer_1" xmlns="http://www.w3.org/2000/svg" xmlns:xlink="http://www.w3.org/1999/xlink" x="0px" y="0px"
	 viewBox="0 0 511.997 511.997" style="enable-background:new 0 0 511.997 511.997;" xml:space="preserve">
<path style="fill:#B36E44;" d="M335.279,509.279c-52.855,0-105.71,0-158.564,0c-2.182,0-3.966-1.664-3.986-3.719
	c-1.397-163.027,1.76-326.016,9.001-488.886c0.093-2.053,1.744-3.719,3.685-3.719c47.055-0.001,94.11-0.001,141.165,0
	c1.942,0,3.592,1.666,3.685,3.719c7.241,162.87,10.398,325.859,9.001,488.886C339.245,507.613,337.461,509.279,335.279,509.279z"/>
<path style="fill:#8C5635;" d="M195.131,505.559c-1.397-163.027-1.313-326.017,5.928-488.886c0.093-2.053,1.744-3.719,3.685-3.719
	c-6.444,0-12.887,0-19.331,0c-1.942,0-3.592,1.666-3.685,3.719c-7.241,162.87-10.398,325.859-9.001,488.886
	c0.02,2.054,1.805,3.719,3.986,3.719c6.444,0,15.369,0,21.813,0C196.345,509.279,195.151,507.613,195.131,505.559z"/>
<path style="fill:#F75534;" d="M314.688,51.336H197.304v-0.01l17.161-35.988c0.694-1.454,2.161-2.38,3.773-2.38h75.526
	c1.612,0,3.08,0.927,3.773,2.382L314.688,51.336z"/>
<path style="fill:#BD391E;" d="M236.927,12.957l-18.286,38.369h-21.337l17.161-35.988c0.694-1.454,2.161-2.38,3.773-2.38
	C218.239,12.957,236.927,12.957,236.927,12.957z"/>
<path style="fill:#DBD2CA;" d="M321.381,73.033H190.612c-7.213,0-13.061-5.847-13.061-13.061l0,0
	c0-7.213,5.847-13.061,13.061-13.061H321.38c7.213,0,13.061,5.847,13.061,13.061l0,0C334.441,67.186,328.594,73.033,321.381,73.033z
	"/>
<path style="fill:#B8B1AA;" d="M196.359,59.973c0-7.213,5.847-13.061,13.061-13.061h-18.808c-7.214,0-13.061,5.848-13.061,13.061
	s5.847,13.061,13.061,13.061h18.808C202.207,73.034,196.359,67.186,196.359,59.973z"/>
<g>
	<path style="fill:#DBD2CA;" d="M330.184,476.489H181.809c-7.213,0-13.061-5.847-13.061-13.061l0,0
		c0-7.213,5.847-13.061,13.061-13.061h148.376c7.213,0,13.061,5.847,13.061,13.061l0,0
		C343.245,470.642,337.398,476.489,330.184,476.489z"/>
	
		<ellipse transform="matrix(0.7071 -0.7071 0.7071 0.7071 -15.8141 263.5269)" style="fill:#DBD2CA;" cx="310.198" cy="150.853" rx="15.867" ry="15.882"/>
	
		<ellipse transform="matrix(0.7071 -0.7071 0.7071 0.7071 -90.78 249.678)" style="fill:#DBD2CA;" cx="255.998" cy="234.42" rx="15.867" ry="15.882"/>
	
		<ellipse transform="matrix(0.7071 -0.7071 0.7071 0.7071 -53.45 256.233)" style="fill:#DBD2CA;" cx="282.576" cy="192.636" rx="15.867" ry="15.882"/>
	
		<ellipse transform="matrix(0.7071 -0.7071 0.7071 0.7071 -129.8788 243.8471)" style="fill:#DBD2CA;" cx="229.41" cy="278.701" rx="15.867" ry="15.882"/>
	
		<ellipse transform="matrix(0.7071 -0.7071 0.7071 0.7071 -169.2701 237.2951)" style="fill:#DBD2CA;" cx="201.805" cy="322.975" rx="15.867" ry="15.882"/>
</g>
<g>
	<path style="fill:#B8B1AA;" d="M310.319,159.27c-5.195-5.195-5.199-13.615-0.009-18.805c2.03-2.03,4.557-3.254,7.189-3.695
		c-5.981-3.108-13.521-2.159-18.536,2.857c-6.196,6.196-6.191,16.248,0.011,22.451c5.826,5.826,15.049,6.183,21.281,1.067
		C316.676,163.284,313.051,162.003,310.319,159.27z"/>
	<path style="fill:#B8B1AA;" d="M282.728,201.081c-5.195-5.195-5.199-13.615-0.009-18.805c2.03-2.03,4.557-3.254,7.189-3.695
		c-5.981-3.108-13.521-2.159-18.536,2.857c-6.196,6.196-6.191,16.248,0.011,22.451c5.826,5.826,15.049,6.183,21.281,1.067
		C289.085,205.096,285.46,203.814,282.728,201.081z"/>
	<path style="fill:#B8B1AA;" d="M256.123,242.836c-5.195-5.195-5.199-13.615-0.009-18.805c2.03-2.03,4.557-3.254,7.189-3.695
		c-5.981-3.108-13.521-2.159-18.536,2.857c-6.196,6.196-6.191,16.248,0.012,22.451c5.826,5.826,15.049,6.183,21.281,1.067
		C262.481,246.851,258.856,245.569,256.123,242.836z"/>
	<path style="fill:#B8B1AA;" d="M229.574,287.143c-5.195-5.195-5.199-13.615-0.009-18.805c2.03-2.03,4.557-3.254,7.189-3.695
		c-5.981-3.108-13.521-2.159-18.536,2.857c-6.196,6.196-6.191,16.248,0.011,22.451c5.826,5.826,15.049,6.182,21.281,1.067
		C235.932,291.158,232.307,289.877,229.574,287.143z"/>
	<path style="fill:#B8B1AA;" d="M201.955,331.423c-5.195-5.195-5.199-13.615-0.009-18.805c2.03-2.03,4.557-3.254,7.189-3.695
		c-5.981-3.108-13.521-2.159-18.536,2.857c-6.196,6.196-6.191,16.248,0.011,22.451c5.826,5.826,15.049,6.183,21.281,1.067
		C208.314,335.437,204.689,334.155,201.955,331.423z"/>
	<path style="fill:#B8B1AA;" d="M187.556,463.428c0-7.213,5.847-13.061,13.061-13.061h-18.808c-7.214,0-13.061,5.848-13.061,13.061
		s5.847,13.061,13.061,13.061h18.808C193.403,476.489,187.556,470.642,187.556,463.428z"/>
</g>
<path d="M347.378,451.862c0.223-69.932-0.403-141.516-1.867-212.826c-0.089-4.327-3.635-7.757-7.996-7.674
	c-4.327,0.089-7.763,3.669-7.674,7.996c1.398,68.162,2.024,136.56,1.881,203.534c-0.51-0.038-1.019-0.078-1.538-0.078h-12.152
	V172.997c3.909-1.373,7.35-3.741,10.023-6.799c0.402,14.17,0.774,28.279,1.107,42.278c0.102,4.263,3.59,7.65,7.83,7.65
	c0.064,0,0.128-0.001,0.191-0.002c4.327-0.103,7.751-3.694,7.648-8.022c-1.095-46.069-2.574-93.261-4.389-140.303
	c1.169-2.606,1.835-5.485,1.835-8.521c0-3.631-0.934-7.047-2.569-10.026c-0.507-12.639-1.048-25.424-1.611-38.056
	C337.809,4.918,332.749,0,326.579,0h-30.172h-80.809h-30.184c-6.17,0-11.23,4.918-11.518,11.208
	c-0.566,12.7-1.107,25.484-1.611,38.046c-1.636,2.979-2.57,6.395-2.57,10.026c0,3.039,0.667,5.919,1.838,8.526
	c-3.934,101.823-6.233,204.138-6.827,304.142c-0.025,4.329,3.462,7.859,7.791,7.884c0.016,0,0.031,0,0.047,0
	c4.306,0,7.81-3.478,7.836-7.79c0.076-12.783,0.181-25.606,0.312-38.46c2.763,5.352,7.501,9.522,13.25,11.541v97.692h-12.152
	c-0.521,0-1.033,0.041-1.545,0.078c-0.024-11.886-0.024-23.852,0-35.713c0.008-4.328-3.493-7.844-7.821-7.852
	c-0.005,0-0.01,0-0.016,0c-4.321,0-7.827,3.499-7.837,7.821c-0.029,14.869-0.02,29.901,0.024,44.714
	c-2.329,3.37-3.702,7.449-3.702,11.847c0,4.463,1.419,8.595,3.812,11.993c0.042,8.27,0.094,16.541,0.17,24.817
	c0.065,6.329,5.366,11.476,11.818,11.476h158.574c6.451,0,11.752-5.148,11.819-11.486c0.074-8.269,0.127-16.54,0.169-24.809
	c2.393-3.398,3.812-7.531,3.812-11.994C351.082,459.313,349.709,455.233,347.378,451.862z M290.405,442.814v-228.03
	c4.929-1.728,9.117-5.036,11.954-9.317v237.348H290.405z M263.833,442.814V256.565c4.35-1.526,8.122-4.285,10.898-7.856v194.104
	H263.833z M237.261,442.814v-141.97c4.351-1.528,8.123-4.288,10.898-7.862v149.833h-10.898V442.814z M201.798,54.857
	c-4.328,0-7.837,3.508-7.837,7.837v1.809h-3.349c-2.881,0-5.224-2.344-5.224-5.224s2.344-5.224,5.224-5.224H321.38
	c2.881,0,5.224,2.344,5.224,5.224s-2.344,5.224-5.224,5.224h-3.348v-1.809c0-4.329-3.508-7.837-7.837-7.837
	s-7.837,3.508-7.837,7.837v1.809h-11.954v-1.809c0-4.329-3.508-7.837-7.837-7.837c-4.329,0-7.837,3.508-7.837,7.837v1.809h-10.898
	v-1.809c0-4.329-3.508-7.837-7.837-7.837c-4.328,0-7.837,3.508-7.837,7.837v1.809h-10.898v-1.809c0-4.329-3.509-7.837-7.837-7.837
	c-4.328,0-7.837,3.508-7.837,7.837v1.809h-11.954v-1.809C209.634,58.365,206.125,54.857,201.798,54.857z M302.358,128.261
	c-4.929,1.728-9.117,5.037-11.954,9.317V80.176h11.954V128.261z M302.358,179.362c-2.837-4.281-7.026-7.589-11.954-9.317v-6.363
	c2.837,4.282,7.026,7.59,11.954,9.318V179.362z M274.731,219.687c-2.776-3.571-6.548-6.33-10.898-7.857v-4.91
	c2.775,3.573,6.547,6.333,10.898,7.861V219.687z M248.16,263.972c-2.775-3.574-6.547-6.334-10.898-7.861v-7.401
	c2.776,3.571,6.548,6.33,10.898,7.857V263.972z M229.419,286.507c-4.437,0-8.046-3.602-8.046-8.031c0-4.415,3.589-8.007,8.008-8.028
	c0.015,0,0.028,0.002,0.043,0.002c0.013,0,0.025-0.002,0.038-0.002c4.417,0.023,8.003,3.614,8.003,8.028
	C237.465,282.905,233.856,286.507,229.419,286.507z M274.731,170.049c-4.35,1.528-8.122,4.288-10.898,7.861V80.176h10.898V170.049z
	 M248.16,211.83c-4.35,1.527-8.122,4.285-10.898,7.858V80.176h10.898V211.83z M255.996,242.227c-4.437,0-8.046-3.602-8.046-8.03
	c0-4.425,3.604-8.025,8.036-8.03c0.003,0,0.006,0,0.01,0c0.004,0,0.006,0,0.01,0c4.432,0.005,8.036,3.605,8.036,8.03
	C264.042,238.625,260.433,242.227,255.996,242.227z M282.581,200.444c-0.004,0-0.008,0-0.013,0c-0.002,0-0.005,0-0.007,0
	c-4.43-0.007-8.033-3.606-8.033-8.029c0-4.427,3.609-8.03,8.046-8.03c4.437,0,8.046,3.602,8.046,8.03
	C290.619,196.839,287.014,200.44,282.581,200.444z M221.588,80.176v175.931c-4.928,1.728-9.117,5.036-11.954,9.317V80.176H221.588z
	 M209.634,291.53c2.837,4.281,7.026,7.589,11.954,9.317v8.859c-2.837-4.281-7.025-7.589-11.954-9.317V291.53z M310.234,158.659
	c-0.013,0-0.025-0.002-0.039-0.002c-0.015,0-0.028,0.002-0.043,0.002c-4.419-0.021-8.007-3.613-8.007-8.029
	c0-4.427,3.609-8.03,8.046-8.03c4.437,0,8.046,3.602,8.046,8.03C318.237,155.045,314.651,158.635,310.234,158.659z M318.032,128.264
	V80.176h3.348c1.31,0,2.588-0.136,3.833-0.369c0.676,18.088,1.302,36.18,1.875,54.208
	C324.573,131.462,321.484,129.476,318.032,128.264z M323.579,38.499c-0.723-0.076-1.457-0.118-2.2-0.118h-1.743L308.82,15.673
	h13.786C322.941,23.259,323.264,30.884,323.579,38.499z M291.459,15.673l10.817,22.705H209.72l10.823-22.705H291.459z
	 M203.18,15.673L192.357,38.38h-1.744c-0.744,0-1.477,0.043-2.202,0.118c0.315-7.588,0.641-15.217,0.976-22.826h13.793V15.673z
	 M180.982,311.409c0.971-76.608,2.916-154.203,5.812-231.597c1.24,0.23,2.513,0.366,3.818,0.366h3.349V300.39
	C188.399,302.342,183.778,306.307,180.982,311.409z M201.801,314.726c4.437,0,8.046,3.602,8.046,8.03c0,4.421-3.6,8.019-8.028,8.029
	c-0.007,0-0.015-0.001-0.022-0.001c-0.006,0-0.013,0.001-0.019,0.001c-4.427-0.013-8.024-3.608-8.024-8.029
	C193.755,318.328,197.364,314.726,201.801,314.726z M209.634,345.125c4.929-1.728,9.117-5.037,11.954-9.317v107.007h-11.954V345.125
	z M180.53,496.327c-0.033-3.929-0.051-7.858-0.076-11.786c0.45,0.029,0.898,0.069,1.355,0.069h79.168
	c4.329,0,7.837-3.508,7.837-7.837s-3.508-7.837-7.837-7.837h-79.168c-2.881,0-5.224-2.344-5.224-5.224
	c0-2.881,2.344-5.223,5.224-5.223h12.218c0.478,3.87,3.771,6.868,7.771,6.868c4,0,7.292-2.998,7.771-6.868h12.085
	c0.478,3.87,3.771,6.868,7.771,6.868c4,0,7.292-2.998,7.771-6.868h11.03c0.478,3.87,3.771,6.868,7.771,6.868
	c4,0,7.292-2.998,7.771-6.868h11.03c0.478,3.87,3.771,6.868,7.771,6.868s7.292-2.998,7.771-6.868h12.086
	c0.478,3.87,3.771,6.868,7.771,6.868s7.292-2.998,7.771-6.868h12.217c2.881,0,5.224,2.344,5.224,5.224s-2.344,5.223-5.224,5.223
	h-34.482c-4.329,0-7.837,3.508-7.837,7.837s3.508,7.837,7.837,7.837h34.482c0.458,0,0.906-0.04,1.356-0.069
	c-0.025,3.929-0.044,7.86-0.076,11.786H180.53z"/>
<g>
</g>
<g>
</g>
<g>
</g>
<g>
</g>
<g>
</g>
<g>
</g>
<g>
</g>
<g>
</g>
<g>
</g>
<g>
</g>
<g>
</g>
<g>
</g>
<g>
</g>
<g>
</g>
<g>
</g>
</svg>
