<?xml version="1.0" encoding="iso-8859-1"?>
<!-- Generator: Adobe Illustrator 19.0.0, SVG Export Plug-In . SVG Version: 6.00 Build 0)  -->
<svg version="1.1" id="Layer_1" xmlns="http://www.w3.org/2000/svg" xmlns:xlink="http://www.w3.org/1999/xlink" x="0px" y="0px"
	 viewBox="0 0 512.001 512.001" style="enable-background:new 0 0 512.001 512.001;" xml:space="preserve">
<path style="fill:#D6D6D6;" d="M344.958,201.225l-75.316,150.058c-0.188,0.366-0.47,0.658-0.815,0.867L32.826,489.596
	l-18.233,10.616c-0.909,0.481-1.86,0.23-2.456-0.376c-0.616-0.616-0.867-1.599-0.334-2.529l148.02-254.161
	c0.209-0.345,0.502-0.627,0.867-0.815l150.058-75.316l19.707,14.503L344.958,201.225z"/>
<path style="fill:#B3B3B3;" d="M310.748,167.015l-136.613,88.973L40.808,484.944l-26.215,15.268c-0.909,0.481-1.86,0.23-2.456-0.376
	c-0.616-0.616-0.867-1.599-0.334-2.529l148.02-254.161c0.209-0.345,0.502-0.627,0.867-0.815L310.748,167.015z"/>
<path style="fill:#C9C9C9;" d="M344.958,201.225l-75.316,150.058c-0.188,0.366-0.47,0.658-0.815,0.867l-123.935,72.182
	l-129.87,75.63l-0.428,0.251c-0.909,0.481-1.86,0.23-2.456-0.376l318.318-318.318L344.958,201.225z"/>
<rect x="350.732" y="70.489" transform="matrix(-0.7071 -0.7071 0.7071 -0.7071 543.1226 499.0648)" style="fill:#F75534;" width="48.378" height="133.119"/>
<rect x="297.91" y="117.196" transform="matrix(-0.7071 0.7071 -0.7071 -0.7071 711.7079 -41.599)" style="fill:#BD391E;" width="133.119" height="18.808"/>
<path style="fill:#D6D6D6;" d="M489.009,22.963c-20.185-20.185-52.912-20.185-73.096,0c-20.185,20.184-20.185,52.91,0,73.096
	c20.185,20.184,52.912,20.184,73.096,0C509.194,75.875,509.194,43.147,489.009,22.963z M469.905,76.954
	c-9.634,9.634-25.253,9.634-34.887,0s-9.634-25.253,0-34.887s25.253-9.634,34.887,0S479.539,67.321,469.905,76.954z"/>
<path style="fill:#BDBDBD;" d="M144.892,424.331l-129.87,75.63c-1.849-0.084-2.884-0.125-2.884-0.125l47.877-47.877L144.892,424.331
	z"/>
<path d="M475.439,36.533c-12.674-12.674-33.296-12.671-45.97,0.001c-12.673,12.673-12.673,33.295,0.001,45.969
	c6.336,6.335,14.661,9.503,22.984,9.503c8.325,0,16.647-3.168,22.984-9.503l0.001-0.001
	C488.111,69.829,488.111,49.207,475.439,36.533z M464.357,71.419c-6.562,6.562-17.242,6.561-23.804,0.001
	c-6.562-6.563-6.562-17.242-0.001-23.804c3.283-3.282,7.592-4.923,11.902-4.923s8.621,1.64,11.901,4.921
	C470.919,54.178,470.919,64.857,464.357,71.419z"/>
<path d="M410.366,17.429c-14.874,14.874-20.198,35.723-16.006,54.891l-88.261,88.261l-56.094,28.155
	c-3.868,1.941-5.43,6.651-3.489,10.519c1.375,2.741,4.14,4.324,7.01,4.324c1.182,0,2.381-0.269,3.51-0.835l52.17-26.185l7.563,7.563
	L45.004,455.886l120.738-207.314l53.735-26.972c3.868-1.941,5.429-6.651,3.488-10.519c-1.942-3.869-6.652-5.431-10.52-3.489
	l-55.818,28.018c-1.359,0.682-2.491,1.746-3.256,3.061L1.058,500.198c-0.014,0.024-0.022,0.05-0.036,0.075
	c-0.195,0.345-0.366,0.699-0.506,1.063c-0.019,0.048-0.033,0.096-0.05,0.145c-0.133,0.368-0.243,0.74-0.319,1.12
	c-0.002,0.01-0.005,0.02-0.007,0.029c-0.073,0.374-0.111,0.752-0.129,1.133c-0.003,0.07-0.008,0.14-0.01,0.209
	c-0.008,0.367,0.01,0.732,0.053,1.097c0.007,0.065,0.019,0.129,0.028,0.193c0.11,0.76,0.33,1.504,0.662,2.211
	c0.024,0.051,0.046,0.103,0.072,0.155c0.167,0.337,0.362,0.664,0.58,0.978c0.039,0.056,0.082,0.11,0.121,0.165
	c0.233,0.317,0.484,0.624,0.77,0.911c0.189,0.189,0.386,0.367,0.589,0.533c1.438,1.174,3.194,1.762,4.952,1.762h0.001h0.001
	c0.002,0,0.005,0,0.007,0c0.301,0,0.602-0.023,0.902-0.059c0.087-0.01,0.173-0.024,0.261-0.038c0.233-0.034,0.465-0.08,0.695-0.137
	c0.075-0.019,0.152-0.034,0.227-0.055c0.304-0.084,0.604-0.183,0.898-0.304c0.015-0.006,0.028-0.014,0.042-0.02
	c0.278-0.117,0.549-0.254,0.814-0.403c0.031-0.018,0.066-0.029,0.097-0.048l153.722-89.529c3.74-2.178,5.006-6.976,2.827-10.715
	c-2.179-3.742-6.977-5.007-10.715-2.829L56.085,466.969L327.85,195.203l7.563,7.563l-72.012,143.467l-71.837,41.832
	c-3.74,2.179-5.006,6.976-2.827,10.716c1.456,2.499,4.081,3.893,6.779,3.893c1.34,0,2.696-0.343,3.936-1.066l73.85-43.006
	c1.314-0.765,2.377-1.897,3.06-3.257l75.028-149.474l88.203-88.203c4.15,0.914,8.405,1.397,12.706,1.397
	c4.667,0,9.383-0.549,14.066-1.671c4.209-1.008,6.804-5.237,5.797-9.446c-1.008-4.209-5.238-6.808-9.446-5.797
	c-7.682,1.84-15.477,1.577-22.719-0.568c-0.243-0.091-0.49-0.168-0.739-0.234c-6.593-2.082-12.707-5.727-17.809-10.83
	c-17.098-17.097-17.098-44.914,0-62.011c17.096-17.098,44.915-17.098,62.011,0c14.181,14.18,16.955,36.115,6.744,53.341
	c-2.207,3.722-0.978,8.531,2.745,10.737c3.721,2.206,8.531,0.978,10.736-2.746c13.865-23.389,10.106-53.168-9.142-72.416
	C471.336-5.778,433.574-5.778,410.366,17.429z M367.984,167.116l-11.859-34.395l19.961-19.961l12.623,33.629L367.984,167.116z
	 M343.796,145.05l11.859,34.395l-10.7,10.7l-11.553-11.553c-0.003-0.003-0.006-0.007-0.009-0.01
	c-0.003-0.003-0.007-0.006-0.01-0.009l-11.553-11.554L343.796,145.05z M423.535,111.564l-22.654,22.654l-12.622-33.629
	l12.174-12.174c2.625,4.729,5.925,9.182,9.935,13.191C414.348,105.587,418.787,108.909,423.535,111.564z"/>
<g>
</g>
<g>
</g>
<g>
</g>
<g>
</g>
<g>
</g>
<g>
</g>
<g>
</g>
<g>
</g>
<g>
</g>
<g>
</g>
<g>
</g>
<g>
</g>
<g>
</g>
<g>
</g>
<g>
</g>
</svg>
