<?xml version="1.0" encoding="iso-8859-1"?>
<!-- Generator: Adobe Illustrator 19.0.0, SVG Export Plug-In . SVG Version: 6.00 Build 0)  -->
<svg version="1.1" id="Layer_1" xmlns="http://www.w3.org/2000/svg" xmlns:xlink="http://www.w3.org/1999/xlink" x="0px" y="0px"
	 viewBox="0 0 512 512" style="enable-background:new 0 0 512 512;" xml:space="preserve">
<path style="fill:#362928;" d="M445.416,294.913c-11.111,101.111,5.743,209.25-189.416,209.25S77.694,396.024,66.582,294.913
	C44.36,92.693,82.391,7.837,255.991,7.837C429.608,7.837,467.639,92.693,445.416,294.913z"/>
<path style="fill:#2E2322;" d="M85.913,294.913C64.109,96.508,100.324,11.091,265.657,7.938c-3.18-0.061-6.391-0.101-9.665-0.101
	c-173.601,0-211.633,84.856-189.41,287.076c11.111,101.111-5.742,209.25,189.417,209.25c3.283,0,6.501-0.033,9.665-0.094
	C80.736,500.525,96.837,394.323,85.913,294.913z"/>
<path style="fill:#FFE8D1;" d="M373.541,222.321H138.458c-16.203,0-29.339,13.116-29.339,29.295v31.626
	c0,26.407,21.438,47.813,47.885,47.813h197.991c26.446,0,47.885-21.407,47.885-47.813v-31.626
	C402.88,235.436,389.744,222.321,373.541,222.321z"/>
<path style="fill:#EBC7A4;" d="M127.927,283.24v-31.626c0-16.179,13.135-29.295,29.339-29.295h-18.808
	c-16.203,0-29.339,13.116-29.339,29.295v31.626c0,26.407,21.438,47.814,47.885,47.814h18.808
	C149.366,331.054,127.927,309.647,127.927,283.24z"/>
<path style="fill:#F75534;" d="M457.665,189.502H54.334c-2.308,0-4.18-1.871-4.18-4.18v-59.348c0-2.308,1.871-4.18,4.18-4.18
	h403.331c2.308,0,4.18,1.871,4.18,4.18v59.348C461.844,187.63,459.973,189.502,457.665,189.502z"/>
<rect x="50.155" y="121.793" style="fill:#BD391E;" width="18.808" height="67.707"/>
<path style="fill:#D6D6D6;" d="M320.095,200.4h-128.19c-6.568,0-11.893-5.325-11.893-11.893v-65.718
	c0-6.568,5.325-11.893,11.893-11.893h128.189c6.568,0,11.893,5.325,11.893,11.893v65.718
	C331.988,195.076,326.663,200.4,320.095,200.4z"/>
<path style="fill:#B3B3B3;" d="M198.82,188.507v-65.718c0-6.568,5.325-11.893,11.893-11.893h-18.808
	c-6.568,0-11.893,5.325-11.893,11.893v65.718c0,6.568,5.325,11.893,11.893,11.893h18.808
	C204.144,200.401,198.82,195.075,198.82,188.507z"/>
<path d="M226.612,180.726c-4.328,0-7.837-3.508-7.837-7.837v-34.482c0-4.329,3.509-7.837,7.837-7.837
	c4.328,0,7.837,3.508,7.837,7.837v34.482C234.448,177.218,230.94,180.726,226.612,180.726z"/>
<path d="M285.387,180.726c-4.329,0-7.837-3.508-7.837-7.837v-34.482c0-4.329,3.508-7.837,7.837-7.837
	c4.329,0,7.837,3.508,7.837,7.837v34.482C293.224,177.218,289.716,180.726,285.387,180.726z"/>
<path d="M255.999,180.726c-4.328,0-7.837-3.508-7.837-7.837v-34.482c0-4.329,3.509-7.837,7.837-7.837
	c4.329,0,7.837,3.508,7.837,7.837v34.482C263.836,177.218,260.328,180.726,255.999,180.726z"/>
<path d="M211.884,265.595c-0.132,0.025-13.304,2.627-28.43-0.038c-12.128-2.136-20.939-10.361-21.169-10.579
	c-3.106-2.994-8.053-2.916-11.062,0.183c-3.016,3.105-2.941,8.068,0.163,11.081c0.492,0.478,12.251,11.738,29.349,14.751
	c6.084,1.071,11.89,1.429,16.939,1.429c9.899,0,16.886-1.379,17.318-1.467c4.242-0.858,6.985-4.994,6.126-9.236
	C220.261,267.479,216.127,264.734,211.884,265.595z"/>
<path d="M297.005,280.956c0.434,0.088,7.419,1.467,17.318,1.467c5.049,0,10.857-0.358,16.939-1.429
	c17.098-3.012,28.857-14.273,29.349-14.751c3.105-3.016,3.179-7.977,0.163-11.081c-3.015-3.105-7.977-3.18-11.081-0.163
	c-0.086,0.084-8.94,8.409-21.149,10.559c-14.983,2.643-28.312,0.062-28.429,0.038c-4.249-0.861-8.378,1.884-9.236,6.125
	C290.021,275.963,292.764,280.098,297.005,280.956z"/>
<path d="M457.665,113.957h-8.875c-3.176-11.426-7.155-21.994-11.871-31.472c-1.928-3.876-6.631-5.455-10.508-3.525
	c-3.876,1.929-5.453,6.633-3.525,10.507c3.697,7.429,6.905,15.639,9.589,24.49H363.14l16.002-72.474
	c7.554,4.595,14.352,9.818,20.431,15.704c3.112,3.01,8.07,2.931,11.081-0.18c3.01-3.11,2.93-8.071-0.18-11.081
	C378.11,14.593,329.023,0,255.989,0C198.397,0,155.21,9.345,123.957,28.569c-30.014,18.46-49.928,46.437-60.766,85.388h-8.857
	c-6.626,0-12.016,5.391-12.016,12.016v59.351c0,6.187,4.701,11.294,10.719,11.943c-0.307,28.211,1.58,60.531,5.754,98.503
	c1.262,11.476,2.178,23.262,3.063,34.658c1.586,20.433,3.236,41.545,6.934,61.171c0.044,0.605,0.157,1.198,0.335,1.771
	c7.582,38.631,22.661,65.421,47.415,84.245C146.967,500.753,192.586,512,255.999,512s109.033-11.247,139.461-34.384
	c24.756-18.823,39.834-45.614,47.414-84.245c0.179-0.573,0.292-1.166,0.335-1.77c3.698-19.623,5.348-40.733,6.934-61.164
	c0.886-11.4,1.801-23.187,3.065-34.669c4.176-37.983,6.059-70.303,5.745-98.5c6.022-0.646,10.728-5.755,10.728-11.945v-59.349
	C469.681,119.347,464.29,113.957,457.665,113.957z M454.008,181.666H339.824V129.63h13.492c0.025,0,0.05,0.004,0.075,0.004
	c0.016,0,0.031-0.004,0.047-0.004h89.286c0.008,0,0.016,0.002,0.024,0.002c0.011,0,0.023-0.002,0.033-0.002h11.225V181.666z
	 M187.848,188.507v-65.718c0-2.237,1.819-4.056,4.056-4.056h128.19c2.237,0,4.056,1.819,4.056,4.056v65.718
	c0,2.237-1.819,4.056-4.056,4.056h-128.19C189.668,192.563,187.848,190.744,187.848,188.507z M364.761,33.918l-17.672,80.038h-9.378
	c-3.249-6.45-9.915-10.896-17.616-10.896h-128.19c-7.701,0-14.368,4.446-17.616,10.896h-9.249l-17.662-79.989
	c27.56-12.477,63.293-18.294,108.612-18.294C301.882,15.673,337.465,21.569,364.761,33.918z M57.991,129.63h11.205
	c0.011,0,0.022,0.002,0.033,0.002c0.008,0,0.016-0.002,0.024-0.002h31.505c4.328,0,7.837-3.508,7.837-7.837
	s-3.509-7.837-7.837-7.837H79.51c9.917-32.634,27.172-56.432,53.486-72.427l15.992,72.427h-10.613c-4.328,0-7.837,3.508-7.837,7.837
	s3.509,7.837,7.837,7.837h20.314c0.016,0,0.031,0.004,0.047,0.004c0.025,0,0.05-0.004,0.074-0.004h13.364v52.037H57.991V129.63z
	 M255.999,496.327c-130.903,0-160.167-49.874-171.195-104.432c13.015-28.692,36.706-51.261,46.118-59.495
	c7.788,4.138,16.663,6.493,26.082,6.493h35.605c4.328,0,7.837-3.508,7.837-7.837s-3.509-7.837-7.837-7.837h-35.605
	c-22.082,0-40.048-17.934-40.048-39.977v-31.626c0-11.831,9.645-21.458,21.502-21.458h235.083c11.856,0,21.502,9.627,21.502,21.458
	v31.626c0,22.043-17.965,39.977-40.048,39.977H234.404c-4.328,0-7.837,3.508-7.837,7.837s3.509,7.837,7.837,7.837h120.592
	c9.421,0,18.298-2.356,26.087-6.496c9.403,8.213,33.063,30.724,46.111,59.5C416.166,446.455,386.901,496.327,255.999,496.327z
	 M437.629,294.055c-1.29,11.73-2.216,23.645-3.112,35.168c-0.996,12.817-1.964,25.197-3.373,37.182
	c-12.7-20.039-28.169-35.431-37.116-43.5c10.29-10.102,16.688-24.149,16.688-39.664v-31.626c0-20.475-16.677-37.131-37.175-37.131
	H138.458c-20.499,0-37.175,16.657-37.175,37.131v31.626c0,15.516,6.397,29.562,16.687,39.664c-8.946,8.07-24.416,23.461-37.116,43.5
	c-1.409-11.989-2.378-24.372-3.374-37.191c-0.894-11.52-1.819-23.433-3.11-35.158c-4.111-37.39-5.966-69.121-5.66-96.717h105.578
	c3.248,6.451,9.915,10.897,17.617,10.897h128.19c7.701,0,14.368-4.446,17.617-10.897h105.569
	C443.593,224.921,441.742,256.652,437.629,294.055z"/>
<g>
</g>
<g>
</g>
<g>
</g>
<g>
</g>
<g>
</g>
<g>
</g>
<g>
</g>
<g>
</g>
<g>
</g>
<g>
</g>
<g>
</g>
<g>
</g>
<g>
</g>
<g>
</g>
<g>
</g>
</svg>
