<?xml version="1.0" encoding="iso-8859-1"?>
<!-- Generator: Adobe Illustrator 19.0.0, SVG Export Plug-In . SVG Version: 6.00 Build 0)  -->
<svg version="1.1" id="Layer_1" xmlns="http://www.w3.org/2000/svg" xmlns:xlink="http://www.w3.org/1999/xlink" x="0px" y="0px"
	 viewBox="0 0 511.999 511.999" style="enable-background:new 0 0 511.999 511.999;" xml:space="preserve">
<path style="fill:#B36E44;" d="M434.417,51H81.242c-2.308,0-4.18-1.871-4.18-4.18V32.192c0-2.308,1.871-4.18,4.18-4.18h353.175
	c2.308,0,4.18,1.871,4.18,4.18v14.629C438.597,49.129,436.725,51,434.417,51z"/>
<path style="fill:#8C5635;" d="M96.393,46.821V32.192c0-2.308,1.871-4.18,4.18-4.18H81.242c-2.308,0-4.18,1.871-4.18,4.18v14.629
	c0,2.308,1.871,4.18,4.18,4.18h19.331C98.264,51,96.393,49.129,96.393,46.821z"/>
<g>
	<path style="fill:#FFE666;" d="M171.582,20.396v198.531c0,4.639-2.518,8.694-6.269,10.856c-1.849,1.076-3.992,1.682-6.269,1.682
		c-1.003,0-1.975-0.115-2.915-0.345c-2.288-0.543-4.336-1.714-5.956-3.323c-2.267-2.267-3.668-5.402-3.668-8.871V20.396
		c0-5.925,4.106-10.888,9.624-12.194c0.94-0.23,1.912-0.345,2.915-0.345c2.278,0,4.42,0.606,6.269,1.682
		c0.961,0.543,1.829,1.212,2.602,1.985C170.182,13.793,171.582,16.927,171.582,20.396z"/>
	<path style="fill:#FFE666;" d="M196.66,20.396v198.531c0,4.639-2.518,8.694-6.269,10.856c-1.849,1.076-3.992,1.682-6.269,1.682
		c-3.459,0-6.593-1.4-8.871-3.668c-0.972-0.972-1.776-2.09-2.382-3.333c-0.031-0.031-0.052-0.073-0.073-0.125
		c-0.773-1.641-1.212-3.469-1.212-5.413V20.396c0-6.04,4.274-11.086,9.958-12.278c0.836-0.167,1.693-0.261,2.581-0.261
		c2.278,0,4.42,0.606,6.269,1.682c0.961,0.543,1.829,1.212,2.602,1.985C195.26,13.793,196.66,16.927,196.66,20.396z"/>
	<path style="fill:#FFE666;" d="M221.738,20.396v198.531c0,4.639-2.518,8.694-6.269,10.856c-1.849,1.076-3.992,1.682-6.269,1.682
		c-3.459,0-6.593-1.4-8.871-3.668c-0.909-0.909-1.672-1.944-2.257-3.093c-0.909-1.735-1.411-3.688-1.411-5.778V20.396
		c0-6.071,4.315-11.139,10.041-12.298c0.805-0.157,1.641-0.24,2.497-0.24c2.278,0,4.42,0.606,6.269,1.682
		c0.961,0.543,1.829,1.212,2.602,1.985C220.337,13.793,221.738,16.927,221.738,20.396z"/>
	<path style="fill:#FFE666;" d="M146.505,20.396v198.531c0,4.639-2.518,8.694-6.269,10.856c-1.849,1.076-3.992,1.682-6.269,1.682
		c-0.825,0-1.62-0.073-2.403-0.24c-0.167-0.021-0.345-0.063-0.512-0.104c-2.288-0.543-4.336-1.714-5.956-3.323
		c-2.267-2.267-3.668-5.402-3.668-8.871V20.396c0-3.218,1.202-6.144,3.187-8.359c1.787-2.006,4.211-3.417,6.949-3.95
		c0.773-0.157,1.578-0.23,2.403-0.23c2.278,0,4.42,0.606,6.269,1.682c0.961,0.543,1.829,1.212,2.602,1.985
		C145.105,13.793,146.505,16.927,146.505,20.396z"/>
</g>
<g>
	<path style="fill:#EDBF31;" d="M140.235,9.54v220.244c-1.849,1.076-3.992,1.682-6.269,1.682c-0.825,0-1.62-0.073-2.403-0.24
		c-0.167-0.021-0.345-0.063-0.512-0.104c-2.288-0.543-4.336-1.714-5.956-3.323c-2.267-2.267-3.668-5.402-3.668-8.871V20.396
		c0-3.218,1.202-6.144,3.187-8.359c1.787-2.006,4.211-3.417,6.949-3.95c0.773-0.157,1.578-0.23,2.403-0.23
		C136.244,7.858,138.386,8.464,140.235,9.54z"/>
	<path style="fill:#EDBF31;" d="M165.313,9.54v220.244c-1.849,1.076-3.992,1.682-6.269,1.682c-1.003,0-1.975-0.115-2.915-0.345
		c-2.288-0.543-4.336-1.714-5.956-3.323c-2.267-2.267-3.668-5.402-3.668-8.871V20.396c0-5.925,4.106-10.888,9.624-12.194
		c0.94-0.23,1.912-0.345,2.915-0.345C161.322,7.858,163.464,8.464,165.313,9.54z"/>
	<path style="fill:#EDBF31;" d="M190.391,9.54v220.244c-1.849,1.076-3.992,1.682-6.269,1.682c-3.459,0-6.593-1.4-8.871-3.668
		c-0.972-0.972-1.776-2.09-2.382-3.333c-0.031-0.031-0.052-0.073-0.073-0.125c-0.773-1.641-1.212-3.469-1.212-5.413V20.396
		c0-6.04,4.274-11.086,9.958-12.278c0.836-0.167,1.693-0.261,2.581-0.261C186.399,7.858,188.541,8.464,190.391,9.54z"/>
	<path style="fill:#EDBF31;" d="M215.468,9.54v220.244c-1.849,1.076-3.992,1.682-6.269,1.682c-3.459,0-6.593-1.4-8.871-3.668
		c-0.909-0.909-1.672-1.944-2.257-3.093c-0.909-1.735-1.411-3.688-1.411-5.778V20.396c0-6.071,4.315-11.139,10.041-12.298
		c0.805-0.157,1.641-0.24,2.497-0.24C211.477,7.858,213.619,8.464,215.468,9.54z"/>
</g>
<path style="fill:#7FB2F0;" d="M304.723,212.817L281.4,500.3c-0.177,2.17-1.988,3.842-4.166,3.842H103.633
	c-2.178,0-3.989-1.672-4.166-3.842L76.144,212.817c-0.197-2.434,1.724-4.517,4.166-4.517h220.249
	C302.999,208.299,304.921,210.384,304.723,212.817z"/>
<path style="fill:#5F95D4;" d="M119.985,504.142h-16.354c-2.178,0-3.989-1.672-4.166-3.842l-3.482-42.907L76.142,212.817
	c-0.197-2.434,1.724-4.517,4.166-4.517h15.676l19.31,238.059v0.01L119.985,504.142z"/>
<polygon style="fill:#F75534;" points="298.496,289.52 293.898,346.227 86.967,346.227 82.369,289.52 "/>
<polygon style="fill:#C7452A;" points="107.175,346.227 86.967,346.227 82.369,289.52 102.577,289.52 "/>
<path style="fill:#5F95D4;" d="M119.985,504.142h-16.354c-2.178,0-3.989-1.672-4.166-3.842l-3.482-42.907
	c0.502,0.052,1.014,0.073,1.546,0.073c8.077,0,13.354-4.827,17.763-11.097L119.985,504.142z"/>
<path style="fill:#F75534;" d="M284.881,457.394l-3.482,42.907c-0.177,2.17-1.988,3.842-4.166,3.842H103.632
	c-2.178,0-3.989-1.672-4.166-3.842l-3.482-42.907c0.502,0.052,1.014,0.073,1.546,0.073c17.147,0,21.629-21.671,32.172-32.987
	c3.72-4.012,8.192-6.719,14.263-6.719c23.228,0,23.228,39.706,46.446,39.706s23.218-39.706,46.435-39.706
	c23.228,0,23.228,39.706,46.446,39.706C283.836,457.467,284.369,457.446,284.881,457.394z"/>
<path style="fill:#B36E44;" d="M426.162,113.99L76.958,61.179c-2.282-0.345-3.853-2.475-3.508-4.757l2.187-14.465
	c0.345-2.282,2.475-3.853,4.757-3.508L429.599,91.26c2.282,0.345,3.853,2.475,3.508,4.757l-2.187,14.465
	C430.575,112.764,428.445,114.335,426.162,113.99z"/>
<path style="fill:#8C5635;" d="M90.325,59.14l2.233-14.763c0.284-1.879,1.759-3.264,3.538-3.554l-15.7-2.374
	c-2.282-0.345-4.413,1.226-4.757,3.508l-2.188,14.465c-0.345,2.282,1.226,4.413,3.508,4.757l15.608,2.36
	C91.003,62.716,90.046,60.984,90.325,59.14z"/>
<circle style="fill:#FFE666;" cx="190.432" cy="317.879" r="69.475"/>
<circle style="fill:#EDBF31;" cx="190.432" cy="317.879" r="49.131"/>
<path style="fill:#C7452A;" d="M119.985,504.142h-16.354c-2.178,0-3.989-1.672-4.166-3.842l-3.482-42.907
	c0.502,0.052,1.014,0.073,1.546,0.073c8.077,0,13.354-4.827,17.763-11.097L119.985,504.142z"/>
<path d="M305.095,35.833c4.329,0,7.838-3.509,7.838-7.838s-3.509-7.838-7.838-7.838h-75.533c-0.056-5.367-2.159-10.401-5.966-14.209
	C219.741,2.113,214.627,0,209.197,0c-4.724,0-9.067,1.63-12.526,4.338C193.095,1.535,188.724,0,184.116,0
	c-4.724,0-9.067,1.63-12.526,4.338C168.015,1.535,163.644,0,159.036,0c-4.724,0-9.066,1.63-12.526,4.338
	C142.936,1.535,138.565,0,133.957,0c-11.162,0-20.247,9.024-20.366,20.158H81.227c-6.626,0-12.017,5.391-12.017,12.017v4.659
	c-0.651,1.194-1.12,2.512-1.335,3.933L65.688,55.23c-0.482,3.174,0.303,6.346,2.208,8.931c1.904,2.584,4.702,4.272,7.876,4.751
	l37.808,5.718v25.147c0,4.328,3.509,7.838,7.838,7.838s7.838-3.509,7.838-7.838V77l9.405,1.422v122.037h-9.405v-62.541
	c0-4.328-3.509-7.838-7.838-7.838s-7.838,3.509-7.838,7.838v62.541H75.762c-2.189,0-4.278,0.915-5.762,2.524
	c-1.484,1.609-2.227,3.766-2.05,5.947L88.16,458.024c0,0.006,0,0.014,0,0.02l3.794,46.752c0.289,3.561,2.928,6.405,6.317,7.061
	c0.485,0.094,0.984,0.142,1.494,0.142h181.325c4.083,0,7.481-3.135,7.812-7.204l3.793-46.752c0-0.002,0-0.003,0-0.004l4.074-50.214
	c0.35-4.314-2.863-8.096-7.178-8.446c-4.305-0.349-8.096,2.864-8.446,7.178l-3.364,41.457c-3.8-2.425-6.912-7.452-10.941-14.341
	c-6.185-10.575-13.884-23.738-29.995-23.738c-16.105,0-23.801,13.16-29.985,23.736c-5.791,9.904-9.683,15.973-16.454,15.973
	c-6.769,0-10.662-6.069-16.453-15.97c-6.185-10.576-13.884-23.739-29.996-23.739c-16.106,0-23.802,13.162-29.986,23.736
	c-4.014,6.866-7.119,11.885-10.9,14.32l-7.62-93.92h26.674c13.005,24.444,38.736,41.131,68.303,41.131s55.297-16.687,68.303-41.131
	h26.674l-0.808,9.959c-0.35,4.314,2.863,8.096,7.178,8.446c4.285,0.348,8.096-2.863,8.446-7.178l12.686-156.369
	c0.177-2.182-0.566-4.337-2.05-5.947c-1.484-1.609-3.573-2.524-5.762-2.524h-75.522V92.171l195.434,29.556
	c0.609,0.092,1.217,0.138,1.821,0.138c2.546,0,5.018-0.809,7.105-2.347c2.584-1.905,4.272-4.702,4.751-7.875l2.189-14.468
	c0.99-6.552-3.534-12.687-10.086-13.678L267.625,58.823h166.806c6.626,0,12.017-5.391,12.017-12.017v-14.63
	c0-6.627-5.392-12.017-12.017-12.017H341.69c-4.329,0-7.838,3.509-7.838,7.838s3.509,7.838,7.838,7.838h89.085v7.315H229.573v-7.315
	h75.522V35.833z M427.35,106.229L427.35,106.229l-0.019-0.002C427.338,106.227,427.344,106.229,427.35,106.229z M209.197,15.675
	c1.258,0,2.446,0.492,3.33,1.372c0.885,0.885,1.373,2.069,1.373,3.331v30.32l-9.405-1.422V20.378
	C204.494,17.784,206.603,15.675,209.197,15.675z M184.116,15.675c1.258,0,2.446,0.492,3.33,1.372
	c0.885,0.885,1.373,2.069,1.373,3.331v26.527l-9.405-1.422V20.378C179.414,17.784,181.524,15.675,184.116,15.675z M159.036,15.675
	c1.258,0,2.446,0.492,3.33,1.372c0.885,0.885,1.373,2.069,1.373,3.331v22.734l-9.405-1.422V20.378
	C154.334,17.784,156.444,15.675,159.036,15.675z M129.255,20.378c0-2.593,2.11-4.702,4.702-4.702c1.258,0,2.446,0.492,3.33,1.372
	c0.885,0.885,1.373,2.069,1.373,3.331V39.32l-9.405-1.422L129.255,20.378L129.255,20.378z M154.334,80.793l9.405,1.422v118.244
	h-9.405V80.793z M179.414,200.458V84.586l9.405,1.422v114.451H179.414z M127.504,441.585c5.791-9.904,9.683-15.973,16.454-15.973
	c6.776,0,10.672,6.072,16.464,15.978c6.184,10.573,13.879,23.732,29.984,23.732c16.106,0,23.802-13.162,29.986-23.736
	c5.79-9.904,9.683-15.973,16.453-15.973c6.776,0,10.672,6.072,16.464,15.977c5.235,8.951,11.554,19.754,23.138,22.859l-2.586,31.878
	H106.994l-2.587-31.888C115.966,461.315,122.276,450.525,127.504,441.585z M94.182,338.397l-3.327-41.036h25.037
	c-1.802,6.54-2.786,13.415-2.786,20.52c0,7.103,0.982,13.978,2.785,20.517H94.182z M190.429,379.529
	c-33.993,0-61.648-27.655-61.648-61.648c0-33.994,27.655-61.649,61.648-61.649s61.648,27.655,61.648,61.649
	C252.077,351.874,224.422,379.529,190.429,379.529z M264.967,297.361h25.036l-3.327,41.036h-21.708
	c1.802-6.539,2.785-13.413,2.785-20.517C267.752,310.777,266.77,303.9,264.967,297.361z M291.278,281.687h-32.549
	c-13.005-24.442-38.735-41.128-68.301-41.128s-55.295,16.686-68.301,41.128H89.58l-5.319-65.553h37.136
	c0.007,0,0.014,0.001,0.02,0.001c0.006,0,0.014-0.001,0.02-0.001h25.039c0.007,0,0.014,0.001,0.02,0.001s0.014-0.001,0.02-0.001
	h25.039c0.007,0,0.014,0.001,0.02,0.001c0.006,0,0.014-0.001,0.02-0.001h25.039c0.007,0,0.014,0.001,0.02,0.001
	c0.006,0,0.014-0.001,0.02-0.001h25.039c0.007,0,0.014,0.001,0.02,0.001c0.006,0,0.014-0.001,0.02-0.001h74.84L291.278,281.687z
	 M213.899,200.458h-9.405V88.379l9.405,1.422V200.458z M423.733,105.682L81.732,53.96l1.094-7.233l342.001,51.722L423.733,105.682z"
	/>
<g>
</g>
<g>
</g>
<g>
</g>
<g>
</g>
<g>
</g>
<g>
</g>
<g>
</g>
<g>
</g>
<g>
</g>
<g>
</g>
<g>
</g>
<g>
</g>
<g>
</g>
<g>
</g>
<g>
</g>
</svg>
