<?xml version="1.0" encoding="iso-8859-1"?>
<!-- Generator: Adobe Illustrator 19.0.0, SVG Export Plug-In . SVG Version: 6.00 Build 0)  -->
<svg version="1.1" id="Layer_1" xmlns="http://www.w3.org/2000/svg" xmlns:xlink="http://www.w3.org/1999/xlink" x="0px" y="0px"
	 viewBox="0 0 512 512" style="enable-background:new 0 0 512 512;" xml:space="preserve">
<path style="fill:#F75534;" d="M399.673,117.154v382.83c0,2.309-1.87,4.18-4.18,4.18H116.505c-2.309,0-4.18-1.87-4.18-4.18v-382.83
	c0-0.888,0.282-1.755,0.805-2.466L189.993,9.55c0.784-1.076,2.038-1.714,3.375-1.714H318.63c1.337,0,2.591,0.637,3.375,1.714
	l76.863,105.138C399.39,115.399,399.673,116.266,399.673,117.154z"/>
<path style="fill:#BD391E;" d="M210.546,7.837L133.14,121.051c-1.254,1.964-1.923,4.253-1.923,6.593v376.519h-14.712
	c-2.309,0-4.18-1.87-4.18-4.18v-382.83c0-0.888,0.282-1.755,0.805-2.466L189.993,9.55c0.784-1.076,2.038-1.714,3.375-1.714
	C193.368,7.837,210.546,7.837,210.546,7.837z"/>
<path style="fill:#FFE666;" d="M399.673,438.742v61.241c0,2.309-1.87,4.18-4.18,4.18H116.505c-2.309,0-4.18-1.87-4.18-4.18v-61.252
	c1.358,0.345,2.821,0.522,4.378,0.522c6.196,0,10.742-2.832,14.514-6.969c2.205-2.424,4.148-5.308,6.008-8.338
	c6.855-11.18,12.518-24.398,25.913-24.398c23.218,0,23.218,39.706,46.446,39.706c23.218,0,23.218-39.706,46.435-39.706
	s23.218,39.706,46.446,39.706c23.218,0,23.218-39.706,46.435-39.706c23.218,0,23.218,39.706,46.435,39.706
	C396.883,439.254,398.325,439.077,399.673,438.742z"/>
<g>
	<path style="fill:#362928;" d="M279.987,204.449c-20.976,0.627-37.905,18.785-37.905,18.785c7.307,8.91,6.81,22.078-1.513,30.4
		c-8.853,8.853-23.219,8.853-32.072,0c-3.162-3.162-5.2-7.03-6.093-11.106l-0.006-0.006c-1.621-7.312,0.413-15.273,6.098-20.96
		C227.836,202.224,255.655,196.515,279.987,204.449z"/>
	<path style="fill:#362928;" d="M191.199,284.297c11.031,17.853,35.221,23.434,35.221,23.434
		c4.063-10.782,15.715-16.936,27.084-13.89c12.095,3.24,19.276,15.681,16.036,27.774c-1.158,4.32-3.488,8.019-6.572,10.829
		l-0.002,0.008c-5.522,5.059-13.433,7.28-21.201,5.198C215.347,330.573,196.493,309.335,191.199,284.297z"/>
	<path style="fill:#362928;" d="M304.744,321.265c9.945-18.479,2.683-42.219,2.683-42.219c-11.37,1.872-22.525-5.142-25.571-16.51
		c-3.24-12.095,3.941-24.534,16.036-27.774c4.32-1.158,8.688-0.988,12.665,0.277l0.008-0.002c7.143,2.253,13.02,7.993,15.102,15.761
		C332.745,277.215,323.78,304.161,304.744,321.265z"/>
</g>
<g>
	<path style="fill:#F7EDE3;" d="M230.321,120.105c0,0-8.852,2.965-42.139,12.187c-43.451,12.037-66.22-12.749-46.898-38.337
		c19.701-26.089,89.788,4.43,89.788,4.43v-18.15c0,0-79.768-44.32-114.073,2.417s30.478,107.734,114.073,56.02L230.321,120.105z"/>
	<path style="fill:#F7EDE3;" d="M281.677,120.105c0,0,8.852,2.965,42.139,12.187c43.451,12.037,66.22-12.749,46.898-38.337
		c-19.701-26.089-89.788,4.43-89.788,4.43v-18.15c0,0,79.768-44.32,114.073,2.417s-30.478,107.734-114.073,56.02L281.677,120.105z"
		/>
	<path style="fill:#F7EDE3;" d="M256.198,76.685v66.267c0,6.343-5.183,11.525-11.525,11.525h-7.356
		c-6.343,0-11.525-5.183-11.525-11.525V76.685c0-6.332,5.183-11.515,11.525-11.515h7.356
		C251.015,65.17,256.198,70.353,256.198,76.685z"/>
</g>
<path style="fill:#DBD2CA;" d="M244.599,65.17v89.307h-7.283c-6.343,0-11.525-5.183-11.525-11.525V76.685
	c0-6.332,5.183-11.515,11.525-11.515H244.599z"/>
<path style="fill:#F7EDE3;" d="M286.134,76.685v66.267c0,6.343-5.183,11.525-11.525,11.525h-7.367
	c-6.332,0-11.525-5.183-11.525-11.525V76.685c0-6.332,5.193-11.515,11.525-11.515h7.367
	C280.951,65.17,286.134,70.353,286.134,76.685z"/>
<path style="fill:#EDBF31;" d="M131.217,432.285v71.879h-14.712c-2.309,0-4.18-1.87-4.18-4.18v-61.252
	c1.358,0.345,2.821,0.522,4.378,0.522C122.9,439.254,127.445,436.423,131.217,432.285z"/>
<path style="fill:#DBD2CA;" d="M274.525,65.17v89.307h-7.283c-6.343,0-11.525-5.183-11.525-11.525V76.685
	c0-6.332,5.183-11.515,11.525-11.515H274.525z"/>
<path d="M316.775,15.673l4.975,6.808c2.554,3.495,7.456,4.256,10.951,1.704c3.494-2.554,4.257-7.457,1.703-10.951l-6.065-8.299
	C326.088,1.845,322.458,0,318.63,0H193.368c-3.827,0-7.457,1.845-9.702,4.925l-36.625,50.098
	c-15.253,3.156-27.476,10.878-36.362,22.991c-12.006,16.355-14.217,35.359-6.19,52.442v129.818c0,4.329,3.509,7.837,7.837,7.837
	s7.837-3.508,7.837-7.837v-110.03c6.789,5.517,14.983,9.807,24.245,12.561c7.751,2.304,15.94,3.443,24.413,3.443
	c16.668,0,34.431-4.422,52.1-13.039c3.427,5.459,9.485,9.106,16.392,9.106h7.363c4.212,0,8.103-1.368,11.285-3.66
	c3.182,2.294,7.072,3.66,11.285,3.66h7.363c6.92,0,12.987-3.661,16.411-9.137c17.687,8.636,35.47,13.069,52.157,13.069
	c8.465,0,16.647-1.138,24.392-3.437c9.271-2.753,17.473-7.046,24.269-12.568v280.562c-4.778-1.772-8.236-7.292-12.953-15.358
	c-6.183-10.573-13.878-23.734-29.982-23.734c-6.939,0-13.158,2.58-18.485,7.667c-3.13,2.989-3.243,7.951-0.254,11.08
	c2.989,3.131,7.95,3.241,11.08,0.254c2.442-2.333,4.733-3.329,7.66-3.329c6.77,0,10.662,6.07,16.452,15.972
	c5.718,9.776,12.728,21.764,26.483,23.516v49.453H120.162v-49.448c13.783-1.731,20.801-13.735,26.525-23.522
	c5.791-9.904,9.683-15.972,16.452-15.972s10.662,6.069,16.453,15.969c6.185,10.575,13.883,23.737,29.994,23.737
	c16.104,0,23.8-13.16,29.982-23.734c5.791-9.904,9.684-15.972,16.453-15.972c6.769,0,10.662,6.069,16.453,15.969
	c6.185,10.575,13.883,23.737,29.994,23.737c8.08,0,14.915-3.335,20.894-10.197c2.843-3.263,2.503-8.213-0.761-11.056
	c-3.263-2.844-8.213-2.504-11.057,0.761c-2.943,3.377-5.658,4.819-9.076,4.819c-6.776,0-10.671-6.071-16.463-15.977
	c-6.184-10.571-13.879-23.73-29.982-23.73c-16.105,0-23.8,13.16-29.983,23.735c-5.791,9.902-9.683,15.971-16.452,15.971
	c-6.776,0-10.671-6.071-16.464-15.977c-6.183-10.571-13.878-23.73-29.981-23.73c-16.105,0-23.8,13.16-29.982,23.734
	c-4.729,8.089-8.195,13.616-12.994,15.37v-128.84c0-4.329-3.509-7.837-7.837-7.837s-7.837,3.508-7.837,7.837v136.756v61.252
	c0,6.626,5.391,12.016,12.016,12.016h278.988c6.626,0,12.016-5.391,12.016-12.016v-61.24V130.456
	c8.027-17.083,5.815-36.088-6.189-52.44c-8.888-12.116-21.112-19.838-36.363-22.993l-9.76-13.357
	c-2.554-3.495-7.46-4.257-10.951-1.704c-3.495,2.554-4.258,7.457-1.704,10.951l1.887,2.583
	c-20.388,0.832-40.395,7.744-53.264,13.211c-3.395-5.608-9.537-9.377-16.557-9.377h-7.363c-4.212,0-8.103,1.368-11.285,3.66
	c-3.182-2.294-7.072-3.66-11.285-3.66h-7.363c-7.011,0-13.145,3.758-16.543,9.353c-12.853-5.455-32.836-12.353-53.196-13.186
	l27.649-37.822H316.775z M148.873,147.781c-13.405-3.984-24.186-12.271-29.583-22.735c-6.305-12.225-4.877-25.634,4.025-37.759
	c7.083-9.657,16.718-15.345,29.46-17.389c23.709-3.817,51.018,6.292,65.174,12.65v2.545c-9.229-3.101-21.263-6.549-33.375-8.321
	c-23.98-3.506-40.654,0.685-49.55,12.463c-9.854,13.053-11.248,27.447-3.728,38.507c6.896,10.142,19.716,15.506,35.61,15.505
	c7.243-0.001,15.127-1.115,23.374-3.4c12.259-3.401,21.195-5.948,27.669-7.833v5.135
	C193.547,150.025,169.162,153.814,148.873,147.781z M217.95,115.68c-6.522,1.928-16.593,4.827-31.857,9.062
	c-22.021,6.099-36.879,1.473-41.837-5.815c-3.616-5.32-2.422-12.7,3.276-20.247c9.899-13.104,43.017-6.904,70.418,3.007
	L217.95,115.68L217.95,115.68z M293.97,101.712c27.438-9.92,60.601-16.132,70.494-3.032c5.7,7.548,6.894,14.928,3.277,20.248
	c-4.957,7.29-19.816,11.914-41.835,5.815c-15.201-4.214-25.334-7.131-31.937-9.084v-13.946H293.97z M388.684,87.289
	c8.899,12.123,10.328,25.532,4.024,37.756c-5.4,10.469-16.19,18.756-29.602,22.739c-20.308,6.03-44.714,2.228-69.137-10.678v-5.115
	c6.534,1.903,15.513,4.463,27.751,7.856c8.248,2.285,16.128,3.399,23.371,3.399c15.891,0,28.714-5.365,35.61-15.505
	c7.519-11.059,6.125-25.453-3.729-38.508c-8.904-11.787-25.6-15.975-49.625-12.45c-12.105,1.777-24.143,5.229-33.377,8.332v-2.536
	c14.167-6.368,41.513-16.502,65.257-12.681C371.964,71.942,381.599,77.63,388.684,87.289z M267.244,73.002h7.363
	c1.999,0,3.688,1.689,3.688,3.687v44.828c0,0.011,0,0.022,0,0.033v21.402c0,1.999-1.69,3.687-3.688,3.687h-7.363
	c-1.424,0-2.678-0.864-3.289-2.08c0.044-0.532,0.082-1.065,0.082-1.608V76.69c0-0.542-0.038-1.076-0.082-1.608
	C264.565,73.866,265.82,73.002,267.244,73.002z M237.311,73.002h7.363c1.424,0,2.678,0.864,3.289,2.08
	c-0.044,0.532-0.082,1.065-0.082,1.608v66.263c0,0.542,0.038,1.076,0.082,1.608c-0.61,1.216-1.865,2.08-3.289,2.08h-7.363
	c-1.999,0-3.687-1.689-3.687-3.687v-1.18c0-0.066,0.002-0.131,0-0.196v-19.911c0.002-0.084,0.001-0.166,0-0.25V96.156
	c-0.001-0.055,0.002-0.11,0-0.165v-19.3C233.624,74.69,235.312,73.002,237.311,73.002z"/>
<path d="M282.416,196.998c-28.112-9.165-58.559-1.878-79.46,19.023c-7.41,7.41-10.478,17.951-8.208,28.197
	c0.02,0.088,0.041,0.177,0.064,0.264c1.272,5.557,4.083,10.633,8.145,14.694c5.762,5.762,13.425,8.935,21.576,8.935l0,0
	c8.152,0,15.816-3.173,21.577-8.935c9.325-9.325,11.459-23.161,6.058-34.564c5.693-4.715,16.314-11.98,28.052-12.33
	c3.808-0.114,6.981-2.949,7.523-6.72C288.284,201.793,286.038,198.18,282.416,196.998z M236.022,228.204
	c4.854,5.918,4.426,14.469-0.995,19.89c-2.802,2.801-6.529,4.344-10.494,4.344c-3.965,0-7.693-1.543-10.494-4.345
	c-2.005-2.004-3.38-4.508-3.979-7.24c-0.017-0.074-0.033-0.149-0.052-0.224c-1.023-4.927,0.475-9.969,4.031-13.524
	c8.752-8.752,19.596-14.519,31.172-16.971c-5.315,4.001-8.545,7.419-8.861,7.757C233.673,220.762,233.534,225.169,236.022,228.204z"
	/>
<path d="M188.284,277.022c-3.536,1.415-5.541,5.169-4.753,8.896c6.118,28.93,27.654,51.653,56.206,59.303
	c2.632,0.705,5.3,1.05,7.944,1.05c7.524,0,14.852-2.795,20.578-8.039c0.07-0.066,0.14-0.131,0.208-0.197
	c4.171-3.877,7.156-8.846,8.642-14.389c4.354-16.252-5.326-33.018-21.578-37.373c-12.735-3.417-25.776,1.652-32.953,12.024
	c-6.934-2.59-18.575-8.184-24.713-18.117C195.863,276.937,191.82,275.606,188.284,277.022z M224.657,315.366
	c3.822,0.885,7.711-1.2,9.095-4.872c2.699-7.162,10.315-11.07,17.723-9.083c7.905,2.118,12.613,10.273,10.495,18.177
	c-0.735,2.739-2.214,5.182-4.281,7.065c-0.06,0.054-0.119,0.109-0.177,0.165c-3.755,3.345-8.868,4.562-13.721,3.265
	c-11.955-3.204-22.371-9.713-30.283-18.511C219.632,314.175,224.207,315.262,224.657,315.366z"/>
<path d="M299.9,327.426c1.425,1.12,3.135,1.676,4.842,1.676c1.879,0,3.754-0.674,5.239-2.007
	c21.994-19.763,30.905-49.776,23.255-78.327c-2.713-10.123-10.307-18.051-20.315-21.207c-0.089-0.027-0.178-0.054-0.267-0.078
	c-5.445-1.677-11.244-1.778-16.789-0.292c-16.252,4.355-25.931,21.121-21.577,37.374c3.413,12.734,14.318,21.497,26.889,22.527
	c1.225,7.3,2.202,20.179-3.332,30.46C296.037,320.905,296.906,325.072,299.9,327.426z M289.425,260.508
	c-2.118-7.905,2.59-16.06,10.494-18.178c2.739-0.73,5.595-0.673,8.258,0.176c0.075,0.023,0.151,0.047,0.228,0.068
	c4.775,1.578,8.389,5.396,9.69,10.253c3.203,11.954,2.773,24.23-0.888,35.481c-0.808-6.604-2.152-11.11-2.287-11.553
	c-1.021-3.336-4.096-5.545-7.489-5.545c-0.422,0-0.849,0.034-1.279,0.106C298.599,272.565,291.41,267.911,289.425,260.508z"/>
<g>
</g>
<g>
</g>
<g>
</g>
<g>
</g>
<g>
</g>
<g>
</g>
<g>
</g>
<g>
</g>
<g>
</g>
<g>
</g>
<g>
</g>
<g>
</g>
<g>
</g>
<g>
</g>
<g>
</g>
</svg>
