<?xml version="1.0" encoding="iso-8859-1"?>
<!-- Generator: Adobe Illustrator 19.0.0, SVG Export Plug-In . SVG Version: 6.00 Build 0)  -->
<svg version="1.1" id="Layer_1" xmlns="http://www.w3.org/2000/svg" xmlns:xlink="http://www.w3.org/1999/xlink" x="0px" y="0px"
	 viewBox="0 0 512.005 512.005" style="enable-background:new 0 0 512.005 512.005;" xml:space="preserve">
<path style="fill:#F7EDE3;" d="M256.857,477.741L36.352,383.585c-1.996-0.846-2.727-2.654-2.497-4.336
	c0.272-2.1,2.027-4.012,4.702-3.647l211.111,28.808c1.849,0.251,3.312,1.693,3.574,3.542l5.622,39.069l3.772,26.279
	C263.095,476.529,259.845,479.016,256.857,477.741z"/>
<path style="fill:#DBD2CA;" d="M256.857,477.741L36.352,383.585c-1.996-0.846-2.727-2.654-2.497-4.336l225.008,67.772l3.772,26.279
	C263.095,476.529,259.845,479.016,256.857,477.741z"/>
<path style="fill:#F7EDE3;" d="M494.561,118.348l-63.31,5.235l-2.069,252.698c-0.031,3.574-4.221,5.465-6.917,3.124l-21.368-18.557
	l-11.776-10.23l-24.106-20.94c-1.233-1.066-1.724-2.759-1.275-4.326l66.56-229.689c0.167-0.533,0.428-1.003,0.752-1.4
	c1.097-1.317,2.936-1.891,4.65-1.275l59.392,21.316C497.204,115.057,496.797,118.171,494.561,118.348z"/>
<path style="fill:#DBD2CA;" d="M431.052,94.263L389.12,350.619l-24.106-20.94c-1.233-1.066-1.724-2.759-1.275-4.326l66.56-229.689
	C430.467,95.131,430.728,94.66,431.052,94.263z"/>
<path style="fill:#F7EDE3;" d="M424.699,386.897l-84.24,29.403l-0.282,0.104c-0.481,0.167-0.93,0.418-1.317,0.752l-10.94,9.237
	l-46.582,39.351l-14.137,11.943c-1.881,1.588-4.733,1.212-6.134-0.815L155.585,324.319c-0.376-0.543-0.627-1.181-0.711-1.839
	L121.417,63.721l-2.853-22.026c-0.23-1.766,0.606-3.229,1.86-4.044c0.084-0.052,0.178-0.115,0.272-0.157
	c1.39-0.752,3.176-0.763,4.639,0.418l223.629,180.893c0.481,0.387,0.878,0.888,1.139,1.442l76.988,160.893
	C428.168,383.387,427.05,386.072,424.699,386.897z"/>
<path style="fill:#DBD2CA;" d="M281.339,465.746l-14.137,11.943c-1.881,1.588-4.733,1.212-6.134-0.815L155.585,324.319
	c-0.376-0.543-0.627-1.181-0.711-1.839l-36.31-280.785c-0.23-1.766,0.606-3.229,1.86-4.044l15.339,36.54l39.097,239.173
	c0.106,0.645,0.355,1.256,0.73,1.791L281.339,465.746z"/>
<path d="M4.761,378.616l255.854,109.243c0.066,0.028,0.132,0.047,0.197,0.073c0.139,0.054,0.278,0.108,0.419,0.155
	c0.127,0.043,0.256,0.078,0.385,0.114c0.122,0.033,0.243,0.067,0.368,0.094c0.156,0.036,0.311,0.063,0.468,0.088
	c0.069,0.01,0.136,0.029,0.205,0.039c0.029,0.004,0.059,0.002,0.087,0.005c0.316,0.039,0.631,0.065,0.946,0.065
	c0.024,0,0.047-0.005,0.071-0.005c0.307-0.003,0.613-0.028,0.916-0.067c0.082-0.01,0.162-0.019,0.242-0.032
	c0.31-0.049,0.616-0.117,0.918-0.203c0.074-0.021,0.146-0.046,0.219-0.069c0.28-0.089,0.555-0.19,0.824-0.31
	c0.04-0.018,0.081-0.031,0.121-0.05c0.282-0.132,0.554-0.286,0.819-0.451c0.083-0.051,0.165-0.103,0.247-0.158
	c0.233-0.158,0.462-0.324,0.679-0.507l0.07-0.06c0.023-0.02,0.048-0.04,0.071-0.06l74.516-62.946l88.291-30.824
	c0.078-0.027,0.153-0.065,0.23-0.094c0.124-0.048,0.247-0.097,0.368-0.15c0.124-0.055,0.246-0.114,0.366-0.174
	c0.112-0.056,0.222-0.116,0.329-0.178c0.123-0.07,0.243-0.142,0.363-0.218c0.097-0.063,0.192-0.13,0.287-0.196
	c0.12-0.086,0.239-0.171,0.354-0.263c0.086-0.068,0.167-0.14,0.25-0.212c0.115-0.099,0.229-0.199,0.337-0.304
	c0.077-0.075,0.148-0.155,0.223-0.233c0.104-0.11,0.209-0.218,0.307-0.334c0.076-0.09,0.145-0.187,0.216-0.28
	c0.086-0.112,0.174-0.219,0.254-0.335c0.145-0.211,0.28-0.429,0.404-0.655c0.024-0.045,0.044-0.092,0.067-0.137
	c0.101-0.192,0.197-0.387,0.282-0.588c0.005-0.011,0.011-0.022,0.016-0.033c0.026-0.063,0.044-0.129,0.068-0.191
	c0.068-0.174,0.134-0.351,0.189-0.532c0.028-0.093,0.049-0.187,0.074-0.281c0.043-0.162,0.086-0.325,0.118-0.491
	c0.022-0.111,0.037-0.223,0.053-0.334c0.023-0.15,0.045-0.3,0.06-0.452c0.011-0.124,0.016-0.249,0.022-0.373
	c0.004-0.098,0.017-0.195,0.018-0.295l2.082-254.61l65.783-5.437c3.676-0.304,6.641-3.129,7.123-6.786
	c0.483-3.657-1.651-7.154-5.121-8.401L434.17,84.102c-0.027-0.009-0.054-0.015-0.082-0.024c-0.245-0.085-0.495-0.159-0.751-0.219
	c-0.114-0.027-0.229-0.045-0.344-0.067c-0.115-0.022-0.228-0.049-0.345-0.067c-0.047-0.007-0.093-0.008-0.14-0.014
	c-0.128-0.017-0.255-0.028-0.383-0.038c-0.158-0.013-0.313-0.019-0.47-0.021c-0.121-0.002-0.241-0.006-0.362-0.002
	c-0.218,0.006-0.436,0.023-0.651,0.048c-0.117,0.014-0.233,0.03-0.35,0.049c-0.195,0.031-0.39,0.067-0.582,0.113
	c-0.112,0.026-0.222,0.059-0.332,0.09c-0.16,0.046-0.318,0.096-0.474,0.152c-0.108,0.038-0.214,0.075-0.32,0.118
	c-0.218,0.089-0.434,0.186-0.643,0.294c-0.084,0.043-0.164,0.09-0.247,0.136c-0.185,0.103-0.366,0.213-0.542,0.331
	c-0.037,0.025-0.076,0.044-0.114,0.069c-0.045,0.031-0.085,0.07-0.13,0.102c-0.168,0.122-0.331,0.252-0.49,0.388
	c-0.054,0.047-0.111,0.091-0.164,0.139c-0.211,0.19-0.412,0.392-0.601,0.605c-0.019,0.021-0.036,0.044-0.054,0.066
	c-0.172,0.199-0.333,0.406-0.486,0.623c-0.029,0.041-0.057,0.083-0.086,0.124c-0.15,0.223-0.292,0.453-0.42,0.693
	c-0.008,0.015-0.017,0.029-0.025,0.045c-0.242,0.461-0.446,0.949-0.597,1.466l-23.488,81.074c-1.204,4.158,1.19,8.503,5.347,9.707
	c4.155,1.204,8.503-1.188,9.708-5.347l7.661-26.443l-1.662,203.103l-26.094-54.535c-0.009-0.021-0.02-0.041-0.029-0.062l-9.5-19.855
	l19.531-67.38c1.205-4.157-1.188-8.503-5.345-9.708c-4.155-1.203-8.504,1.188-9.708,5.346l-14.64,50.506l-18.993-39.694
	c-0.005-0.009-0.01-0.019-0.016-0.028c-0.24-0.499-0.536-0.975-0.884-1.419c-0.038-0.048-0.079-0.092-0.117-0.139
	c-0.135-0.164-0.275-0.325-0.424-0.48c-0.066-0.069-0.137-0.133-0.207-0.199c-0.129-0.123-0.259-0.245-0.397-0.359
	c-0.033-0.028-0.063-0.06-0.096-0.087L250.69,129.224c-3.365-2.721-8.3-2.201-11.022,1.164c-2.722,3.366-2.201,8.3,1.164,11.022
	l98.232,79.459l-56.982,80.625L145.079,63.959l67.388,54.509c3.365,2.721,8.3,2.201,11.022-1.164
	c2.722-3.366,2.201-8.3-1.164-11.022L122.152,25.254c-0.018-0.015-0.038-0.024-0.055-0.039c-0.28-0.223-0.572-0.425-0.877-0.606
	c-0.049-0.029-0.099-0.053-0.148-0.082c-0.267-0.15-0.543-0.285-0.825-0.402c-0.061-0.025-0.12-0.054-0.182-0.078
	c-0.311-0.121-0.631-0.22-0.955-0.301c-0.075-0.019-0.152-0.032-0.227-0.049c-0.293-0.064-0.587-0.112-0.886-0.142
	c-0.049-0.005-0.097-0.014-0.146-0.018c-0.341-0.027-0.683-0.029-1.027-0.013c-0.066,0.003-0.132,0.009-0.199,0.015
	c-0.322,0.024-0.644,0.066-0.964,0.131c-0.028,0.006-0.057,0.008-0.086,0.015c-0.34,0.073-0.676,0.173-1.008,0.294
	c-0.071,0.026-0.141,0.054-0.211,0.083c-0.287,0.114-0.572,0.243-0.85,0.394c-0.034,0.019-0.072,0.03-0.107,0.049
	c-0.011,0.006-0.022,0.016-0.033,0.022c-0.019,0.01-0.039,0.019-0.059,0.03c-0.289,0.167-0.56,0.355-0.819,0.552
	c-0.062,0.046-0.119,0.095-0.18,0.143c-0.249,0.201-0.485,0.412-0.703,0.636c-0.026,0.026-0.054,0.051-0.079,0.077
	c-0.242,0.256-0.462,0.528-0.665,0.811c-0.038,0.052-0.072,0.104-0.108,0.158c-0.18,0.264-0.346,0.537-0.491,0.82
	c-0.017,0.031-0.036,0.062-0.051,0.093c-0.152,0.305-0.279,0.62-0.39,0.94c-0.026,0.075-0.048,0.149-0.072,0.226
	c-0.095,0.305-0.176,0.613-0.233,0.928c-0.005,0.027-0.013,0.053-0.018,0.08c-0.059,0.342-0.088,0.689-0.101,1.037
	c-0.002,0.071-0.004,0.142-0.005,0.213c-0.004,0.363,0.011,0.725,0.059,1.088l37.495,289.899c0,0.003,0.001,0.005,0.001,0.008
	l0.287,2.218c0.16,1.24,0.614,2.423,1.326,3.452l41.805,60.459l-27.359-3.73c-4.292-0.585-8.239,2.417-8.823,6.706
	c-0.585,4.288,2.417,8.239,6.706,8.823l41.552,5.667l39.361,56.924L64.38,387.029l59.977,8.182c4.287,0.581,8.239-2.417,8.824-6.705
	c0.585-4.288-2.417-8.239-6.705-8.824L8.897,363.644c-3.886-0.532-7.568,1.896-8.613,5.678
	C-0.761,373.104,1.153,377.075,4.761,378.616z M167.985,328.471l99.482-4.042l-46.676,80.409L167.985,328.471z M130.024,69.229
	l138.125,239.487l-106.59,4.33L130.024,69.229z M376.722,294.025l-78.346,11.569l50.018-70.772L376.722,294.025z M281.388,331.668
	l48.001,83.225l-64.165,54.202l-34.58-50.01L281.388,331.668z M439.155,115.064l0.102-12.48l28.244,10.138L439.155,115.064z
	 M342.995,407.114l-49.039-85.025l89.846-13.267l34.459,72.015L342.995,407.114z"/>
<g>
</g>
<g>
</g>
<g>
</g>
<g>
</g>
<g>
</g>
<g>
</g>
<g>
</g>
<g>
</g>
<g>
</g>
<g>
</g>
<g>
</g>
<g>
</g>
<g>
</g>
<g>
</g>
<g>
</g>
</svg>
