<?xml version="1.0" encoding="iso-8859-1"?>
<!-- Generator: Adobe Illustrator 19.0.0, SVG Export Plug-In . SVG Version: 6.00 Build 0)  -->
<svg version="1.1" id="Layer_1" xmlns="http://www.w3.org/2000/svg" xmlns:xlink="http://www.w3.org/1999/xlink" x="0px" y="0px"
	 viewBox="0 0 512 512" style="enable-background:new 0 0 512 512;" xml:space="preserve">
<rect x="132.159" y="416.496" style="fill:#7FB2F0;" width="246.136" height="87.667"/>
<g>
	<rect x="132.159" y="416.496" style="fill:#5F95D4;" width="18.808" height="87.667"/>
	<rect x="172.795" y="416.496" style="fill:#5F95D4;" width="18.808" height="87.667"/>
	<rect x="213.514" y="416.496" style="fill:#5F95D4;" width="18.808" height="87.667"/>
	<rect x="256" y="416.496" style="fill:#5F95D4;" width="18.808" height="87.667"/>
	<rect x="295.623" y="416.496" style="fill:#5F95D4;" width="18.808" height="87.667"/>
	<rect x="335.945" y="416.496" style="fill:#5F95D4;" width="18.808" height="87.667"/>
</g>
<g>
	<path style="fill:#A9CF54;" d="M417.293,428.48H94.707c-4.104,0-5.298-6.633-1.575-8.695
		c34.138-18.903,52.219-58.517,56.489-68.897c0.641-1.557,1.967-2.534,3.42-2.534h205.915c1.453,0,2.779,0.978,3.42,2.534
		c4.271,10.381,22.352,49.994,56.489,68.897C422.59,421.847,421.397,428.48,417.293,428.48z"/>
	<path style="fill:#A9CF54;" d="M399.84,348.353H112.16c-3.66,0-4.725-6.633-1.404-8.695c30.444-18.903,46.569-58.517,50.378-68.897
		c0.572-1.557,1.754-2.534,3.05-2.534h183.633c1.296,0,2.479,0.978,3.05,2.534c3.809,10.381,19.934,49.994,50.377,68.897
		C404.564,341.72,403.5,348.353,399.84,348.353z"/>
	<path style="fill:#A9CF54;" d="M386.027,268.225H125.701c-3.312,0-4.274-6.635-1.275-8.694
		c27.554-18.902,42.141-58.514,45.589-68.901c0.522-1.557,1.588-2.529,2.759-2.529h166.181c1.17,0,2.236,0.972,2.759,2.529
		c3.448,10.386,18.035,49.998,45.589,68.901C390.301,261.59,389.339,268.225,386.027,268.225z"/>
	<path style="fill:#A9CF54;" d="M363.969,188.103h-216.21c-2.759,0-3.553-6.635-1.055-8.694
		c22.873-18.902,34.994-58.525,37.857-68.901c0.428-1.557,1.317-2.539,2.299-2.539h138.01c0.972,0,1.87,0.982,2.299,2.539
		c2.863,10.376,14.973,49.998,37.857,68.901C367.522,181.467,366.717,188.103,363.969,188.103z"/>
</g>
<g>
	<path style="fill:#92B83D;" d="M115.961,419.786c34.138-18.903,52.22-58.517,56.49-68.897c0.641-1.557,1.966-2.535,3.42-2.535
		h-22.828c-1.453,0-2.779,0.978-3.42,2.535c-4.27,10.381-22.352,49.994-56.49,68.897c-3.723,2.062-2.53,8.695,1.575,8.695h22.828
		C113.431,428.48,112.238,421.847,115.961,419.786z"/>
	<path style="fill:#92B83D;" d="M133.584,339.659c30.443-18.903,46.569-58.517,50.377-68.897c0.571-1.557,1.753-2.534,3.05-2.534
		h-22.828c-1.296,0-2.478,0.978-3.05,2.534c-3.809,10.381-19.934,49.995-50.378,68.897c-3.32,2.062-2.256,8.695,1.404,8.695h22.828
		C131.328,348.353,130.264,341.72,133.584,339.659z"/>
	<path style="fill:#92B83D;" d="M147.254,259.532c27.554-18.902,42.141-58.514,45.589-68.901c0.522-1.557,1.588-2.529,2.759-2.529
		h-22.828c-1.17,0-2.236,0.972-2.759,2.529c-3.448,10.386-18.035,49.998-45.589,68.901c-2.999,2.058-2.038,8.694,1.275,8.694h22.828
		C145.217,268.225,144.255,261.59,147.254,259.532z"/>
</g>
<path style="fill:#A9CF54;" d="M169.532,179.409c22.873-18.902,34.994-58.525,37.857-68.901c0.428-1.557,1.317-2.539,2.299-2.539
	h-22.828c-0.982,0-1.87,0.982-2.299,2.539c-2.863,10.376-14.984,49.998-37.857,68.901c-2.497,2.058-1.703,8.694,1.055,8.694h22.828
	C167.828,188.103,167.034,181.467,169.532,179.409z"/>
<path style="fill:#92B83D;" d="M169.532,179.409c22.873-18.902,34.994-58.525,37.857-68.901c0.428-1.557,1.317-2.539,2.299-2.539
	h-22.828c-0.982,0-1.87,0.982-2.299,2.539c-2.863,10.376-14.984,49.998-37.857,68.901c-2.497,2.058-1.703,8.694,1.055,8.694h22.828
	C167.828,188.103,167.034,181.467,169.532,179.409z"/>
<path style="fill:#A9CF54;" d="M338.38,107.969H174.811c-4.263,0-5.789-5.642-2.1-7.784l81.784-47.689
	c1.296-0.763,2.905-0.763,4.201,0l6.499,3.793l75.285,43.896C344.168,102.327,342.643,107.969,338.38,107.969z"/>
<path style="fill:#92B83D;" d="M199.546,100.185l70.465-41.089l-4.816-2.808l-6.499-3.793c-1.296-0.763-2.905-0.763-4.201,0
	l-81.784,47.689c-3.688,2.142-2.163,7.784,2.1,7.784h26.835C197.383,107.969,195.858,102.327,199.546,100.185z"/>
<path d="M463.935,512c4.329,0,7.837-3.509,7.837-7.837s-3.508-7.837-7.837-7.837h-77.803v-60.01h31.16h3.802
	c22.758,0,41.273-18.516,41.273-41.273c0-4.328-3.508-7.837-7.837-7.837c-4.329,0-7.837,3.509-7.837,7.837
	c0,11.641-7.814,21.486-18.471,24.582c-0.972-2.807-2.892-5.219-5.56-6.696c-25.763-14.266-42.073-42.064-49.273-56.739h26.449h6.98
	c22.758,0,41.273-18.516,41.273-41.273c0-4.328-3.508-7.837-7.837-7.837s-7.837,3.509-7.837,7.837
	c0,12.824-9.478,23.474-21.797,25.316c-0.802-2.99-2.622-5.603-5.245-7.232c-23.01-14.287-37.569-42.343-43.921-56.938h24.571h3.077
	c22.758,0,41.273-18.516,41.273-41.273c0-4.328-3.508-7.837-7.837-7.837s-7.837,3.509-7.837,7.837
	c0,11.62-7.786,21.452-18.413,24.566c-0.82-2.557-2.378-4.789-4.559-6.286c-20.803-14.274-33.979-42.439-39.702-57.009h19.594
	c22.758,0,41.272-18.516,41.272-41.273c0-4.328-3.508-7.837-7.837-7.837c-4.329,0-7.837,3.509-7.837,7.837
	c0,13.309-10.21,24.274-23.207,25.485c-0.559-2.63-1.831-5.118-4-6.91c-17.404-14.378-28.407-43.108-33.073-57.554h1.436h4.186
	c22.758,0,41.273-18.516,41.273-41.273c0-4.328-3.508-7.837-7.837-7.837s-7.837,3.509-7.837,7.837
	c0,11.71-7.906,21.602-18.659,24.636c-0.976-2.349-2.713-4.382-5.073-5.759l-25.958-15.135c-3.739-2.18-8.538-0.917-10.718,2.822
	c-2.181,3.739-0.917,8.537,2.821,10.718l14.268,8.319H188.345l68.251-39.797l22.302,13.005c3.74,2.179,8.537,0.916,10.717-2.822
	c2.181-3.739,0.917-8.537-2.821-10.718l-22.36-13.038V7.837c0-4.328-3.508-7.837-7.837-7.837c-4.329,0-7.837,3.509-7.837,7.837
	v38.928L168.76,93.413c-2.361,1.377-4.099,3.411-5.074,5.759c-10.754-3.033-18.66-12.925-18.66-24.637
	c0-4.328-3.508-7.837-7.837-7.837c-4.329,0-7.837,3.509-7.837,7.837c0,22.758,18.516,41.273,41.273,41.273h4.158
	c-4.667,14.444-15.67,43.175-33.075,57.554c-2.162,1.786-3.431,4.265-3.994,6.886c-12.87-1.334-22.94-12.244-22.94-25.462
	c0-4.328-3.508-7.837-7.837-7.837s-7.837,3.509-7.837,7.837c0,22.758,18.515,41.273,41.272,41.273h19.321
	c-5.725,14.572-18.903,42.737-39.701,57.008c-2.216,1.52-3.793,3.8-4.603,6.408c-10.846-2.973-18.843-12.912-18.843-24.688
	c0-4.328-3.508-7.837-7.837-7.837s-7.837,3.509-7.837,7.837c0,22.758,18.516,41.273,41.273,41.273h3.548h24.845
	c-6.352,14.596-20.912,42.652-43.92,56.938c-2.624,1.629-4.443,4.242-5.245,7.232c-12.319-1.843-21.797-12.493-21.797-25.316
	c0-4.328-3.508-7.837-7.837-7.837s-7.837,3.509-7.837,7.837c0,22.758,18.516,41.273,41.273,41.273h6.98h26.476
	c-2.007,4.118-4.653,9.113-7.985,14.539c-2.265,3.687-1.112,8.514,2.576,10.779c3.687,2.264,8.513,1.112,10.779-2.576
	c5.753-9.366,9.672-17.632,11.885-22.742h200.22c5.575,12.883,21.416,44.559,49.445,64.453H106.44
	c6.982-4.958,13.665-10.97,19.962-17.963c2.896-3.217,2.636-8.172-0.58-11.068c-3.214-2.894-8.17-2.636-11.068,0.58
	c-7.939,8.817-16.49,15.794-25.417,20.737c-2.668,1.477-4.588,3.889-5.56,6.696c-10.657-3.095-18.471-12.94-18.471-24.581
	c0-4.328-3.508-7.837-7.837-7.837s-7.837,3.509-7.837,7.837c0,22.758,18.516,41.273,41.273,41.273h3.802h29.614v60.01H48.065
	c-4.329,0-7.837,3.509-7.837,7.837S43.736,512,48.065,512h87.907h238.508H463.935z M191.198,115.809h129.331
	c4.009,13.571,14.831,44.919,33.894,64.453H338.95H172.777h-15.474C176.365,160.73,187.188,129.384,191.198,115.809z
	 M153.043,340.517h-29.91c25.082-19.796,39.287-51.345,44.375-64.453h84.313H256h21.682c4.329,0,7.837-3.509,7.837-7.837
	c0-4.328-3.508-7.837-7.837-7.837H256h-4.18h-87.637h-28.083c22.712-19.648,35.613-50.975,40.337-64.328H335.29
	c4.721,13.351,17.621,44.678,40.336,64.328h-27.809H320h-7.124h-3.064c-4.329,0-7.837,3.509-7.837,7.837
	c0,4.328,3.508,7.837,7.837,7.837h3.064H320h24.492c5.086,13.104,19.291,44.656,44.375,64.453h-29.91H153.043z M370.458,452.493
	h-26.509v-16.176h26.509V452.493z M248.163,452.493h-26.906v-16.176h26.906V452.493z M263.837,436.317h23.939v16.176h-23.939
	V436.317z M205.584,452.493h-24.816v-16.176h24.816V452.493z M205.584,468.167v28.16h-24.816v-28.16H205.584z M221.257,468.167
	h26.906v28.16h-26.906V468.167z M263.837,468.167h23.939v28.16h-23.939V468.167z M303.449,468.167h24.827v28.16h-24.827V468.167z
	 M303.449,452.493v-16.176h24.827v16.176H303.449z M165.094,436.317v16.176h-25.098v-16.176H165.094z M139.995,468.167h25.098v28.16
	h-25.098V468.167z M343.949,496.327v-28.16h26.509v28.16H343.949z"/>
<g>
</g>
<g>
</g>
<g>
</g>
<g>
</g>
<g>
</g>
<g>
</g>
<g>
</g>
<g>
</g>
<g>
</g>
<g>
</g>
<g>
</g>
<g>
</g>
<g>
</g>
<g>
</g>
<g>
</g>
</svg>
