<?xml version="1.0" encoding="iso-8859-1"?>
<!-- Generator: Adobe Illustrator 19.0.0, SVG Export Plug-In . SVG Version: 6.00 Build 0)  -->
<svg version="1.1" id="Layer_1" xmlns="http://www.w3.org/2000/svg" xmlns:xlink="http://www.w3.org/1999/xlink" x="0px" y="0px"
	 viewBox="0 0 512 512" style="enable-background:new 0 0 512 512;" xml:space="preserve">
<g>
	<path style="fill:#362928;" d="M322.008,504.163H189.991c-2.308,0-4.18-1.871-4.18-4.18v-33.89h140.376v33.89
		C326.187,502.292,324.316,504.163,322.008,504.163z"/>
	<path style="fill:#362928;" d="M326.187,88.204H185.812v-33.89c0-2.308,1.871-4.18,4.18-4.18h132.017c2.308,0,4.18,1.871,4.18,4.18
		V88.204z"/>
</g>
<g>
	<path style="fill:#2E2322;" d="M208.799,50.134h-18.808c-2.308,0-4.18,1.871-4.18,4.18v33.89h18.808v-33.89
		C204.62,52.006,206.491,50.134,208.799,50.134z"/>
	<path style="fill:#2E2322;" d="M208.799,504.163h-18.808c-2.308,0-4.18-1.871-4.18-4.18v-33.89h18.808v33.89
		C204.62,502.292,206.491,504.163,208.799,504.163z"/>
</g>
<path style="fill:#F75534;" d="M407.51,166.149v221.686c0,49.121-40.187,89.318-89.318,89.318H193.807
	c-49.131,0-89.318-40.197-89.318-89.318V166.149c0-49.131,40.187-89.318,89.318-89.318h124.385
	C367.323,76.831,407.51,117.018,407.51,166.149z"/>
<path style="fill:#BD391E;" d="M213.065,477.153h-19.257c-49.131,0-89.318-40.197-89.318-89.318V166.149
	c0-49.131,40.187-89.318,89.318-89.318h19.257c-49.121,0-89.318,40.187-89.318,89.318v221.686
	C123.747,436.955,163.944,477.153,213.065,477.153z"/>
<path d="M270.221,0h-28.442c-18.448,0-33.458,15.009-33.458,33.457v8.841h-22.507c-4.329,0-7.837,3.509-7.837,7.837v20.155
	c-46.067,7.581-81.324,47.676-81.324,95.856v221.688c0,18.504,5.281,36.534,15.271,52.14c1.496,2.337,4.025,3.613,6.607,3.613
	c1.446,0,2.91-0.4,4.218-1.238c3.645-2.333,4.708-7.181,2.374-10.825c-7.365-11.506-11.674-24.584-12.604-38.119h286.94
	c-2.876,42.336-38.214,75.908-81.267,75.908H193.805c-16.653,0-32.695-5.051-46.395-14.607c-3.552-2.476-8.435-1.606-10.911,1.944
	c-2.476,3.549-1.606,8.435,1.944,10.911c11.949,8.335,25.399,13.783,39.535,16.118v20.486c0,4.328,3.508,7.837,7.837,7.837h140.372
	c4.329,0,7.837-3.509,7.837-7.837V483.69c46.067-7.581,81.324-47.676,81.324-95.856V166.145c0-21.738-7.092-42.327-20.508-59.54
	c-2.66-3.414-7.587-4.023-10.998-1.364c-3.415,2.66-4.025,7.585-1.364,10.999c11.25,14.433,17.196,31.691,17.196,49.904v1.909
	H112.327v-1.909c0-44.927,36.551-81.479,81.479-81.479h124.39c2.354,0,4.69,0.101,7.005,0.298c0.157,0.02,0.317,0.032,0.476,0.043
	c10.212,0.929,20.031,3.768,29.274,8.481c3.857,1.965,8.575,0.435,10.542-3.421c1.966-3.856,0.434-8.575-3.421-10.542
	c-8.938-4.558-18.326-7.64-28.048-9.24v-20.15c0-4.328-3.508-7.837-7.837-7.837H303.68v-8.841C303.678,15.009,288.669,0,270.221,0z
	 M318.349,496.327H193.65v-11.344c0.051,0,0.102,0.003,0.154,0.003h124.39c0.051,0,0.102-0.002,0.154-0.002v11.343H318.349z
	 M112.326,317.823v-14.281h287.347v14.281H112.326z M399.673,333.497v14.281H112.326v-14.281H399.673z M112.326,287.869v-14.281
	h287.347v14.281H112.326z M112.326,257.915v-14.281h287.347v14.281L112.326,257.915L112.326,257.915z M112.326,363.45h287.347
	v14.281H112.326V363.45z M399.673,227.962H112.326v-14.281h287.347V227.962z M399.673,183.728v14.281H112.326v-14.281
	L399.673,183.728L399.673,183.728z M318.349,68.996c-0.051,0-0.102-0.002-0.154-0.002h-124.39c-0.051,0-0.102,0.002-0.154,0.002
	V57.971h44.408c4.329,0,7.837-3.509,7.837-7.837s-3.508-7.837-7.837-7.837h-14.064v-8.841c0-9.805,7.978-17.783,17.784-17.783
	h28.443c9.806,0,17.784,7.978,17.784,17.783v8.841h-13.199c-4.329,0-7.837,3.509-7.837,7.837s3.508,7.837,7.837,7.837h43.541
	L318.349,68.996L318.349,68.996z"/>
<g>
</g>
<g>
</g>
<g>
</g>
<g>
</g>
<g>
</g>
<g>
</g>
<g>
</g>
<g>
</g>
<g>
</g>
<g>
</g>
<g>
</g>
<g>
</g>
<g>
</g>
<g>
</g>
<g>
</g>
</svg>
