<?xml version="1.0" encoding="iso-8859-1"?>
<!-- Generator: Adobe Illustrator 19.0.0, SVG Export Plug-In . SVG Version: 6.00 Build 0)  -->
<svg version="1.1" id="Layer_1" xmlns="http://www.w3.org/2000/svg" xmlns:xlink="http://www.w3.org/1999/xlink" x="0px" y="0px"
	 viewBox="0 0 512 512" style="enable-background:new 0 0 512 512;" xml:space="preserve">
<g>
	<path style="fill:#F7EDE3;" d="M277.044,504.163h-130.98c-1.105,0-2.161-0.432-2.943-1.213
		c-10.896-10.877-88.859-93.129-42.108-175.552c54.021-95.238,76.031-220.363,63.964-314.877c-0.318-2.489,1.637-4.684,4.145-4.684
		h84.862c2.508,0,4.463,2.196,4.145,4.684c-12.066,94.514,9.944,219.639,63.975,314.877
		c46.752,82.424-31.223,164.676-42.119,175.552C279.204,503.732,278.15,504.163,277.044,504.163z"/>
	<path style="fill:#F7EDE3;" d="M294.661,486.421c-6.75,8.411-12.298,14.158-14.67,16.53c-0.784,0.784-1.839,1.212-2.947,1.212
		H146.066c-1.108,0-2.163-0.428-2.947-1.212c-2.372-2.372-7.931-8.129-14.681-16.53c-24.263-30.187-63.99-94.553-27.429-159.023
		c54.021-95.242,76.037-220.359,63.969-314.88c-0.324-2.487,1.64-4.681,4.148-4.681h84.856c2.508,0,4.462,2.194,4.148,4.681
		c-12.069,94.521,9.947,219.638,63.979,314.88C358.682,391.868,318.924,456.244,294.661,486.421z"/>
</g>
<path style="fill:#DBD2CA;" d="M120.517,327.398c54.02-95.238,76.031-220.363,63.964-314.877c-0.318-2.489,1.637-4.684,4.145-4.684
	h-19.505c-2.508,0-4.463,2.196-4.145,4.684c12.066,94.514-9.944,219.639-63.964,314.877
	c-46.751,82.424,31.212,164.675,42.108,175.552c0.783,0.782,1.838,1.213,2.943,1.213h19.505c-1.105,0-2.161-0.432-2.943-1.213
	C151.731,492.073,73.767,409.822,120.517,327.398z"/>
<path style="fill:#82A336;" d="M362.489,504.163h-85.09c-2.307,0-4.179-1.87-4.179-4.179v-19.372c0-2.307,1.87-4.179,4.179-4.179
	h85.09c2.307,0,4.179,1.87,4.179,4.179v19.372C366.667,502.293,364.797,504.163,362.489,504.163z"/>
<path style="fill:#A9CF54;" d="M218.93,387.778h201.973c2.498,0,4.569,1.931,4.717,4.412c1.196,20.124-0.348,94.232-105.221,94.232
	c-104.797,0-107.188-73.988-106.187-94.187C214.335,389.735,216.414,387.778,218.93,387.778z"/>
<path style="fill:#92B83D;" d="M233.019,392.234c0.124-2.499,2.204-4.457,4.719-4.457H218.93c-2.516,0-4.595,1.957-4.719,4.457
	c-1.001,20.2,1.39,94.187,106.187,94.187c3.232,0,6.363-0.072,9.402-0.209C234.267,481.907,232.049,411.811,233.019,392.234z"/>
<path d="M165.469,171.191c8.321-42.584,11.748-84.686,10.209-123.711h71.773c-1.033,26.919,0.262,55.572,3.901,84.53
	c0.539,4.295,4.453,7.337,8.752,6.799c4.295-0.54,7.338-4.459,6.798-8.752c-5.152-41.01-5.497-81.31-0.999-116.544
	c0.436-3.413-0.62-6.851-2.895-9.435C260.727,1.487,257.438,0,253.985,0h-84.862c-3.453,0-6.743,1.487-9.024,4.078
	c-2.276,2.585-3.331,6.024-2.895,9.435c1.072,8.398,1.853,16.973,2.391,25.671c-0.008,0.153-0.023,0.304-0.023,0.459
	c0,0.542,0.055,1.071,0.16,1.582c5.299,93.009-19.335,200.855-65.534,282.305c-15.879,27.996-19.842,58.695-11.775,91.243
	c0.884,3.568,4.082,5.954,7.601,5.954c0.624,0,1.259-0.075,1.891-0.233c4.202-1.041,6.763-5.29,5.722-9.491
	c-7.069-28.524-3.639-55.352,10.194-79.74C134.139,284.881,154.07,229.529,165.469,171.191z M249.852,15.673
	c-0.613,5.277-1.111,10.666-1.519,16.133h-73.546c-0.413-5.447-0.912-10.835-1.53-16.133
	C173.257,15.673,249.852,15.673,249.852,15.673z"/>
<path d="M137.582,508.493c2.262,2.261,5.276,3.507,8.488,3.507h216.419c6.626,0,12.016-5.391,12.016-12.016v-14.119
	c45.275-16.505,56.09-53.634,58.439-74.925c0.018-0.139,0.031-0.28,0.042-0.421c0.67-6.227,0.828-12.545,0.459-18.787
	c-0.389-6.609-5.899-11.785-12.546-11.785h-76.2c-0.448-19.774-5.738-38.716-15.778-56.415
	c-24.618-43.393-43.571-95.231-54.812-149.912c-0.87-4.239-5.013-6.966-9.254-6.098c-4.239,0.871-6.969,5.016-6.098,9.255
	c11.567,56.266,31.115,109.687,56.532,154.488c8.678,15.297,13.283,31.641,13.734,48.682h-12.873c-4.328,0-7.837,3.508-7.837,7.837
	s3.509,7.837,7.837,7.837h101.78c0.061,2.157,0.046,4.32-0.036,6.48H222.035c-0.103-2.161-0.139-4.325-0.1-6.48h49.46
	c4.328,0,7.837-3.508,7.837-7.837s-3.509-7.837-7.837-7.837h-52.464c-6.702,0-12.215,5.224-12.55,11.906
	c-0.308,6.32-0.086,12.714,0.662,19.014c2.522,21.077,13.535,58.024,58.344,74.688v10.773H147.593
	c-5.577-5.7-20.165-21.579-32.787-43.64c-2.149-3.757-6.938-5.06-10.693-2.91c-3.756,2.149-5.059,6.937-2.91,10.694
	C115.706,485.821,132.719,503.641,137.582,508.493z M358.831,496.327H281.06v-6.127c4.434,1.01,9.04,1.839,13.795,2.464
	c7.958,1.058,16.553,1.593,25.546,1.593c2.056,0,4.082-0.037,6.091-0.093c0.608-0.017,1.208-0.043,1.811-0.065
	c1.442-0.053,2.871-0.119,4.287-0.201c0.624-0.036,1.249-0.072,1.867-0.114c1.605-0.109,3.192-0.236,4.762-0.382
	c0.34-0.031,0.685-0.055,1.023-0.089c1.889-0.186,3.749-0.404,5.586-0.646c0.485-0.064,0.96-0.138,1.442-0.206
	c1.37-0.192,2.726-0.399,4.067-0.623c0.574-0.096,1.144-0.194,1.713-0.296c1.342-0.239,2.667-0.497,3.977-0.769
	c0.437-0.091,0.88-0.174,1.313-0.269c0.163-0.036,0.331-0.065,0.493-0.1V496.327z M224.086,417.773h191.929
	c-4.314,20.715-17.19,44.371-51.672,54.993c-12.538,3.86-27.322,5.817-43.941,5.817c-8.305,0-16.205-0.49-23.492-1.459
	c-7.61-0.999-14.768-2.547-21.278-4.604C241.586,461.796,228.605,438.322,224.086,417.773z"/>
<g>
</g>
<g>
</g>
<g>
</g>
<g>
</g>
<g>
</g>
<g>
</g>
<g>
</g>
<g>
</g>
<g>
</g>
<g>
</g>
<g>
</g>
<g>
</g>
<g>
</g>
<g>
</g>
<g>
</g>
</svg>
