<?xml version="1.0" encoding="iso-8859-1"?>
<!-- Generator: Adobe Illustrator 19.0.0, SVG Export Plug-In . SVG Version: 6.00 Build 0)  -->
<svg version="1.1" id="Layer_1" xmlns="http://www.w3.org/2000/svg" xmlns:xlink="http://www.w3.org/1999/xlink" x="0px" y="0px"
	 viewBox="0 0 511.999 511.999" style="enable-background:new 0 0 511.999 511.999;" xml:space="preserve">
<path style="fill:#BD391E;" d="M362.077,441.206v53.467c0,5.245-4.253,9.488-9.488,9.488H159.409c-5.235,0-9.488-4.242-9.488-9.488
	v-53.467H362.077z"/>
<path style="fill:#8C2B17;" d="M168.729,494.673v-53.467h-18.808v53.467c0,5.245,4.253,9.488,9.488,9.488h18.808
	C172.982,504.161,168.729,499.919,168.729,494.673z"/>
<path style="fill:#F7EDE3;" d="M473.751,197.52c-0.306,0.794-1.074,1.311-1.926,1.311H255.686v0.167H39.558
	c-0.854,0-1.621-0.518-1.928-1.316c-2.359-6.133-10.116-32.205,21.855-46.296c0.777-0.343,1.284-1.111,1.254-1.959
	c-0.256-7.295,0.141-41.271,28.735-53.414c8.492-3.627,19.465-5.308,33.65-3.797c1.223,0.131,2.279-0.843,2.268-2.072
	c-0.099-10.904,2.552-55.568,53.588-43.564c0.929,0.218,1.892-0.206,2.328-1.055c4.249-8.293,27.728-48.46,73.143-24.053
	c0.746,0.401,1.661,0.311,2.314-0.228c44.817-37.004,68.865,13.169,73.273,23.705c0.433,1.034,1.61,1.513,2.656,1.11
	c53.369-20.626,60.631,28.244,61.583,39.223c0.101,1.165,1.14,2.002,2.303,1.878c61.831-6.616,55.8,51.581,54.248,61.933
	c-0.139,0.927,0.374,1.819,1.23,2.2c6.496,2.885,11.339,6.265,14.916,9.871C480.903,175.207,475.622,192.656,473.751,197.52z"/>
<g>
	<path style="fill:#DBD2CA;" d="M76.614,156.744c0,0-3.045-36.105,25.313-48.063c7.144-3.03,16.276-4.512,27.954-3.5
		c1.992,0.172,3.736-1.344,3.778-3.343c0.251-11.621,4.458-45.702,45.856-36.837c1.623,0.348,3.256-0.533,3.842-2.085
		c4.18-11.06,22.928-51.107,72.327-40.767c0.002-0.156,0.014-0.299,0.016-0.453c-0.423,0.054-0.86-0.014-1.252-0.224
		c-45.414-24.409-68.894,15.759-73.143,24.053c-0.436,0.85-1.398,1.274-2.328,1.055c-51.035-12.003-53.687,32.661-53.588,43.564
		c0.011,1.229-1.046,2.203-2.268,2.072c-14.184-1.512-25.158,0.17-33.65,3.797c-28.594,12.143-28.991,46.119-28.735,53.414
		c0.03,0.848-0.476,1.616-1.254,1.959c-31.972,14.091-24.214,40.164-21.855,46.296c0.306,0.797,1.073,1.316,1.928,1.316h17.068
		C56.625,198.999,42.977,170.645,76.614,156.744z"/>
	<rect x="248.716" y="198.852" style="fill:#DBD2CA;" width="6.966" height="0.146"/>
</g>
<path style="fill:#7FB2F0;" d="M26.673,187.708h458.527c5.673,0,10.373,4.384,10.708,10.016
	c2.716,45.69-0.789,266.153-238.878,266.153c-237.915,0-243.342-220.188-241.069-266.052
	C16.241,192.151,20.962,187.708,26.673,187.708z"/>
<path style="fill:#5F95D4;" d="M35.366,197.826c0.281-5.674,5.002-10.118,10.713-10.118H26.673c-5.711,0-10.432,4.444-10.713,10.118
	c-2.273,45.864,3.155,266.052,241.069,266.052c3.281,0,6.51-0.049,9.702-0.132C38.38,457.83,33.124,243.057,35.366,197.826z"/>
<path style="fill:#F75534;" d="M466.88,347.719c-19.78,39.821-52.454,77.228-106.015,98.346
	c-26.133,10.313-57.219,16.75-94.229,17.69c-0.01-0.01-0.01-0.01-0.021,0c-3.145,0.084-6.343,0.125-9.582,0.125
	c-42.015,0-76.779-6.865-105.535-18.432c-52.914-21.274-85.473-58.452-105.378-97.991c2.654-0.596,5.559-0.92,8.767-0.92
	c4.106,0,7.711,0.543,10.93,1.484c23.092,6.771,26.697,34.388,56.09,34.388c33.52,0,33.52-35.871,67.03-35.871
	c33.52,0,33.52,35.871,67.03,35.871c33.52,0,33.52-35.871,67.02-35.871c33.531,0,33.531,35.871,67.041,35.871
	s33.51-35.871,67.02-35.871C460.695,346.538,463.955,346.967,466.88,347.719z"/>
<path style="fill:#BD391E;" d="M266.73,463.744c-0.021,0-0.052,0-0.094,0.01c-0.01-0.01-0.01-0.01-0.021,0
	c-3.145,0.084-6.343,0.125-9.582,0.125c-42.015,0-76.779-6.865-105.535-18.432c-52.914-21.274-85.473-58.452-105.378-97.991
	c2.654-0.596,5.559-0.92,8.767-0.92c4.106,0,7.711,0.543,10.93,1.484C95.774,407.132,154.132,460.829,266.73,463.744z"/>
<path d="M27.445,179.884h-0.766c-9.909,0-18.053,7.716-18.54,17.567c-0.791,15.97-1.94,81.46,26.696,144.52l-0.218,0.049
	l4.514,8.968c1.325,2.633,2.696,5.217,4.097,7.768c0.072,0.132,0.142,0.263,0.214,0.395c0.606,1.098,1.224,2.185,1.844,3.268
	c0.144,0.252,0.285,0.505,0.432,0.757c0.626,1.084,1.262,2.156,1.902,3.224c0.143,0.238,0.284,0.478,0.428,0.716
	c0.672,1.111,1.353,2.212,2.04,3.306c0.113,0.18,0.225,0.359,0.339,0.538c0.737,1.165,1.482,2.32,2.235,3.465
	c0.063,0.095,0.125,0.19,0.188,0.286c12.477,18.9,27.34,35.128,44.503,48.607c0.031,0.024,0.063,0.049,0.094,0.073
	c4.423,3.469,8.994,6.759,13.722,9.863c0.386,0.253,0.776,0.501,1.164,0.751c1.079,0.698,2.166,1.389,3.261,2.068
	c0.569,0.354,1.142,0.704,1.717,1.053c0.93,0.564,1.867,1.12,2.809,1.671c0.649,0.38,1.297,0.762,1.951,1.136
	c0.91,0.519,1.831,1.026,2.751,1.533c1.209,0.667,2.427,1.321,3.653,1.965c0.874,0.459,1.745,0.922,2.628,1.37
	c0.9,0.457,1.811,0.899,2.719,1.345c0.676,0.331,1.352,0.665,2.033,0.99c0.94,0.448,1.888,0.889,2.838,1.326
	c0.659,0.303,1.321,0.602,1.984,0.899c0.48,0.215,0.953,0.439,1.436,0.65c-0.008,0.226-0.025,0.451-0.025,0.678v43.988
	c0,9.552,7.772,17.323,17.323,17.323h193.173c9.552,0,17.323-7.771,17.323-17.323v-43.871c0.328-0.141,0.656-0.283,0.983-0.425
	c0.19-0.083,0.38-0.164,0.57-0.247c1.504-0.659,2.995-1.332,4.474-2.022c0.085-0.04,0.169-0.077,0.254-0.117
	c27.517-12.852,50.892-30.845,69.922-53.782c0.127-0.154,0.256-0.307,0.382-0.461c0.681-0.826,1.356-1.657,2.026-2.495
	c0.302-0.378,0.603-0.759,0.903-1.139c0.542-0.689,1.085-1.378,1.62-2.076c0.525-0.682,1.042-1.373,1.559-2.064
	c0.326-0.436,0.656-0.868,0.98-1.307c8.123-11.021,15.318-23.02,21.56-35.967l3.062-6.161l-0.183-0.047
	c5.513-12.289,10.211-25.382,14.065-39.265c1.158-4.17-1.284-8.49-5.454-9.648c-4.167-1.156-8.489,1.284-9.648,5.454
	c-3.628,13.064-8.407,26.585-14.67,39.963c-1.724-0.181-3.481-0.288-5.275-0.288c-20.154,0-30.29,10.848-39.231,20.419
	c-8.063,8.632-14.433,15.451-27.79,15.451c-10.495,0-16.758-4.179-23.462-10.92c-3.052-3.068-8.014-3.081-11.082-0.03
	c-3.069,3.052-3.082,8.014-0.03,11.083c7.642,7.684,17.727,15.54,34.576,15.54c20.162,0,30.299-10.85,39.242-20.424
	c7.494-8.022,13.527-14.474,25.061-15.343c-26.104,46.016-72.031,87.427-152.537,98.604c-0.118,0.017-0.237,0.032-0.355,0.048
	c-1.774,0.245-3.566,0.472-5.374,0.686c-0.428,0.05-0.86,0.097-1.289,0.146c-1.569,0.18-3.147,0.35-4.743,0.507
	c-0.662,0.065-1.331,0.121-1.997,0.183c-1.42,0.131-2.843,0.258-4.283,0.37c-0.82,0.064-1.649,0.116-2.473,0.173
	c-1.332,0.093-2.662,0.189-4.012,0.266c-0.884,0.051-1.777,0.088-2.667,0.132c-1.328,0.066-2.651,0.137-3.996,0.188
	c-0.774,0.029-1.559,0.044-2.337,0.068c-3.686,0.115-7.42,0.187-11.231,0.187c-1.588,0-3.16-0.023-4.732-0.044
	c-0.705-0.009-1.418-0.007-2.121-0.021c-1.158-0.022-2.3-0.064-3.45-0.096c-1.174-0.033-2.354-0.06-3.52-0.104
	c-0.972-0.038-1.931-0.091-2.896-0.136c-1.336-0.063-2.676-0.122-4.002-0.201c-0.855-0.05-1.699-0.114-2.55-0.17
	c-1.423-0.095-2.846-0.191-4.257-0.303c-0.782-0.063-1.556-0.135-2.333-0.203c-1.46-0.127-2.917-0.259-4.363-0.405
	c-0.746-0.075-1.486-0.16-2.228-0.24c-1.451-0.158-2.899-0.322-4.335-0.499c-0.749-0.093-1.494-0.191-2.239-0.289
	c-1.396-0.184-2.786-0.374-4.167-0.576c-0.791-0.116-1.579-0.236-2.366-0.358c-1.295-0.201-2.583-0.41-3.865-0.626
	c-0.87-0.147-1.739-0.299-2.604-0.453c-1.149-0.206-2.292-0.421-3.432-0.641c-0.985-0.19-1.97-0.382-2.948-0.583
	c-0.959-0.196-1.912-0.401-2.864-0.607c-1.144-0.248-2.288-0.497-3.421-0.76c-0.708-0.163-1.411-0.334-2.115-0.504
	c-1.356-0.326-2.709-0.654-4.049-1.001c-0.389-0.1-0.773-0.206-1.161-0.308c-22.382-5.903-42.541-14.655-60.392-26.236
	c-0.162-0.106-0.322-0.211-0.484-0.316c-1.291-0.843-2.57-1.703-3.837-2.577c-0.177-0.122-0.355-0.241-0.532-0.364
	c-1.362-0.946-2.709-1.909-4.043-2.889c-0.271-0.199-0.536-0.402-0.805-0.603c-0.999-0.742-1.988-1.494-2.971-2.256
	c-0.471-0.366-0.941-0.733-1.409-1.104c-0.815-0.645-1.622-1.298-2.424-1.956c-0.46-0.377-0.925-0.749-1.38-1.131
	c-1.109-0.926-2.206-1.866-3.292-2.818c-0.538-0.472-1.068-0.953-1.601-1.431c-0.638-0.573-1.275-1.149-1.906-1.731
	c-0.567-0.523-1.133-1.05-1.693-1.581c-0.632-0.598-1.258-1.205-1.882-1.812c-0.585-0.569-1.171-1.138-1.75-1.716
	c-0.933-0.933-1.859-1.877-2.773-2.831c-0.603-0.628-1.197-1.265-1.792-1.903c-0.353-0.379-0.708-0.758-1.058-1.139
	c-0.579-0.631-1.151-1.27-1.723-1.909c-0.368-0.412-0.735-0.824-1.097-1.238c-0.559-0.637-1.115-1.28-1.667-1.927
	c-0.351-0.412-0.7-0.826-1.048-1.238c-0.561-0.67-1.12-1.342-1.674-2.02c-0.305-0.373-0.606-0.748-0.907-1.123
	c-0.589-0.734-1.178-1.469-1.759-2.213c-0.224-0.286-0.443-0.575-0.665-0.862c-0.65-0.842-1.298-1.688-1.936-2.543
	c-0.093-0.125-0.184-0.251-0.277-0.376c-4.788-6.451-9.247-13.274-13.373-20.472c10.737,1.228,16.601,7.502,23.823,15.234
	c8.942,9.571,19.077,20.419,39.231,20.419c20.162,0,30.299-10.85,39.243-20.424c8.062-8.63,14.431-15.447,27.779-15.447
	c13.363,0,19.735,6.819,27.802,15.452c8.942,9.57,19.078,20.417,39.23,20.417c20.162,0,30.299-10.85,39.242-20.424
	c8.062-8.63,14.43-15.447,27.779-15.447c4.328,0,7.837-3.508,7.837-7.837c0-4.328-3.509-7.837-7.837-7.837
	c-20.154,0-30.289,10.848-39.231,20.419c-8.063,8.632-14.433,15.451-27.79,15.451c-13.348,0-19.715-6.816-27.778-15.445
	c-8.946-9.574-19.085-20.426-39.254-20.426c-20.154,0-30.29,10.848-39.231,20.419c-8.065,8.632-14.434,15.451-27.79,15.451
	c-13.349,0-19.716-6.816-27.779-15.447c-8.943-9.573-19.081-20.424-39.242-20.424c-1.445,0-2.859,0.075-4.252,0.189
	C21.885,278.253,23.03,213.706,23.796,198.227c0.074-1.497,1.343-2.67,2.887-2.67h79.902c4.328,0,7.837-3.508,7.837-7.837
	c0-4.328-3.509-7.837-7.837-7.837H43.234c1.412-8.828,7.579-15.808,18.392-20.829c1.392-0.261,2.716-0.894,3.808-1.885
	c1.304-0.902,2.291-2.104,2.82-3.51c4.279-5.668,6.631-8.004,10.981-8.004c4.56,0,6.92,2.553,11.603,8.819
	c4.763,6.376,11.286,15.108,24.148,15.108c12.864,0,19.387-8.733,24.15-15.11c4.679-6.265,7.038-8.817,11.593-8.817
	c4.556,0,6.914,2.551,11.593,8.815c0.405,0.543,0.812,1.088,1.22,1.627c2.617,3.449,7.534,4.12,10.98,1.506
	c3.448-2.615,4.122-7.532,1.507-10.979c-0.386-0.508-0.768-1.021-1.151-1.533c-4.763-6.376-11.286-15.108-24.15-15.108
	c-12.864,0-19.387,8.733-24.15,15.11c-4.679,6.265-7.038,8.817-11.593,8.817c-4.554,0-6.912-2.551-11.592-8.815
	c-4.764-6.378-11.289-15.112-24.158-15.112c-3.321,0-6.212,0.589-8.766,1.563c1.798-7.374,5.24-15.54,11.777-21.666
	c9.351-8.763,23.558-11.991,42.23-9.598c2.33,0.293,4.682-0.467,6.391-2.09c0.113-0.108,0.213-0.226,0.319-0.339
	c0.333-0.313,0.648-0.654,0.931-1.034c0.4-0.539,0.798-1.081,1.195-1.625c4.555-6.222,6.842-8.757,11.192-8.757
	c4.354,0,6.642,2.535,11.199,8.758c4.687,6.402,11.105,15.169,23.837,15.169c12.732,0,19.151-8.769,23.837-15.172
	c4.555-6.222,6.842-8.756,11.192-8.756s6.637,2.534,11.192,8.755c0.397,0.543,0.795,1.087,1.196,1.627
	c2.583,3.473,7.491,4.194,10.964,1.612c3.473-2.583,4.195-7.492,1.612-10.965c-0.377-0.507-0.752-1.02-1.127-1.532
	c-4.686-6.402-11.105-15.17-23.838-15.17c-12.733,0-19.151,8.769-23.838,15.172c-4.555,6.222-6.842,8.756-11.191,8.756
	c-4.349,0-6.636-2.534-11.191-8.755c-4.687-6.403-11.108-15.173-23.845-15.173c-3.297,0-6.164,0.597-8.694,1.579
	c1.662-5.197,4.376-10.39,8.8-14.108c7.45-6.26,18.911-7.487,34.063-3.645c3.684,0.934,7.516-0.931,9.079-4.394
	c0.093-0.207,9.552-20.762,28.133-26.895c10.738-3.545,22.845-1.625,35.978,5.709c2.857,1.596,6.406,1.249,8.898-0.872
	c12.132-10.323,23.247-14.247,33.031-11.67c19.177,5.052,29.518,32.77,29.617,33.037c0.726,2.007,2.239,3.631,4.19,4.497
	c1.952,0.866,4.17,0.899,6.146,0.09c15.823-6.475,28.251-6.902,36.935-1.274c14.92,9.672,15.889,34.597,15.896,34.83
	c0.061,2.213,1.055,4.298,2.738,5.738c1.682,1.441,3.895,2.097,6.092,1.82c17.603-2.256,30.525,0.851,38.403,9.233
	c7.181,7.639,9.478,18.629,9.966,27.806c-3.128-1.79-6.859-2.962-11.428-2.962c-12.577,0-18.871,8.812-23.465,15.245
	c-4.406,6.17-6.609,8.682-10.712,8.682c-4.103,0-6.306-2.512-10.712-8.68c-4.596-6.434-10.891-15.247-23.473-15.247
	c-12.578,0-18.871,8.812-23.466,15.246c-0.366,0.512-0.731,1.023-1.099,1.532c-2.541,3.503-1.761,8.403,1.742,10.944
	c3.505,2.542,8.404,1.761,10.944-1.743c0.391-0.539,0.78-1.081,1.167-1.625c4.406-6.169,6.608-8.682,10.712-8.682
	c4.108,0,6.312,2.513,10.72,8.684c4.595,6.433,10.889,15.243,23.465,15.243c12.577,0,18.871-8.812,23.466-15.246
	c4.406-6.169,6.608-8.681,10.711-8.681c4.09,0,6.285,2.506,10.677,8.658c0.395,0.554,0.791,1.109,1.19,1.658
	c0.033,0.046,0.072,0.087,0.107,0.133c0.06,0.078,0.122,0.154,0.185,0.229c0.093,0.114,0.185,0.228,0.283,0.335
	c0.027,0.03,0.059,0.057,0.086,0.087c0.281,0.298,0.58,0.571,0.897,0.815c0.002,0.002,0.005,0.004,0.007,0.006
	c0.148,0.114,0.301,0.218,0.456,0.321c0.043,0.028,0.084,0.057,0.126,0.086c0.15,0.095,0.304,0.183,0.46,0.267
	c0.052,0.028,0.104,0.057,0.158,0.086c0.155,0.079,0.31,0.152,0.469,0.219c0.033,0.015,0.065,0.032,0.099,0.046
	c12.267,5.111,19.174,12.489,20.624,21.986H149.922c-4.328,0-7.837,3.508-7.837,7.837c0,4.328,3.509,7.837,7.837,7.837h335.266
	c1.53,0,2.797,1.162,2.885,2.646c0.512,8.617,1.254,31.84-2.911,61.298c-0.606,4.285,2.377,8.251,6.662,8.855
	c0.372,0.053,0.741,0.078,1.107,0.078c3.842,0,7.196-2.827,7.75-6.741c4.363-30.861,3.578-55.333,3.038-64.422
	c-0.58-9.751-8.72-17.388-18.53-17.388h-1.246c-0.985-10.709-6.379-24.323-24.846-33.885c1.121-11.405,1.409-35.979-13.811-52.234
	c-10.14-10.831-24.886-15.799-43.916-14.829c-1.733-10.766-6.879-29.309-22.088-39.22c-11.708-7.628-26.581-8.556-44.294-2.775
	c-5.307-10.802-17.386-30.37-37.135-35.611c-13.774-3.653-28.252,0.223-43.094,11.523c-15.452-7.481-30.205-8.96-43.928-4.386
	c-18.174,6.057-29.344,21.224-34.333,29.6c-17.506-3.282-31.605-0.541-41.97,8.171c-12.656,10.635-15.974,27.378-16.755,37.72
	c-19.426-0.946-34.955,3.909-46.243,14.488c-16.061,15.052-18.495,36.939-18.66,47.422
	C34.003,155.398,28.482,169.122,27.445,179.884z M352.582,496.325H159.41c-0.91,0-1.651-0.741-1.651-1.651v-38.498
	c0.855,0.302,1.709,0.603,2.57,0.895c0.336,0.114,0.677,0.223,1.015,0.335c1.696,0.568,3.401,1.123,5.122,1.658
	c0.313,0.097,0.629,0.19,0.944,0.286c1.772,0.543,3.557,1.07,5.356,1.578c0.256,0.072,0.514,0.141,0.77,0.212
	c1.874,0.522,3.761,1.025,5.663,1.509c0.197,0.05,0.396,0.099,0.595,0.148c1.973,0.496,3.961,0.972,5.965,1.426
	c0.144,0.032,0.289,0.065,0.434,0.097c2.061,0.464,4.137,0.906,6.23,1.326c0.108,0.022,0.215,0.043,0.323,0.065
	c2.121,0.423,4.259,0.824,6.414,1.203c0.1,0.018,0.2,0.036,0.3,0.053c2.147,0.375,4.311,0.727,6.492,1.058
	c0.123,0.019,0.246,0.038,0.37,0.056c2.138,0.322,4.291,0.621,6.462,0.9c0.179,0.023,0.355,0.047,0.534,0.07
	c2.089,0.264,4.193,0.508,6.311,0.732c0.27,0.029,0.536,0.06,0.807,0.088c1.994,0.207,4.002,0.393,6.022,0.564
	c0.402,0.034,0.801,0.073,1.204,0.107c1.847,0.15,3.71,0.28,5.58,0.401c0.578,0.038,1.151,0.083,1.731,0.117
	c1.651,0.098,3.316,0.177,4.983,0.253c0.797,0.037,1.588,0.083,2.389,0.114c1.373,0.053,2.76,0.087,4.144,0.124
	c1.091,0.03,2.174,0.071,3.272,0.092c0.754,0.015,1.521,0.013,2.279,0.022c1.661,0.022,3.319,0.049,4.995,0.049
	c0.761,0,1.509-0.018,2.266-0.022c1.523-0.009,3.047-0.018,4.558-0.044c0.98-0.018,1.951-0.049,2.926-0.074
	c1.358-0.034,2.717-0.071,4.065-0.12c0.932-0.034,1.857-0.077,2.784-0.119c1.412-0.063,2.819-0.132,4.219-0.21
	c0.838-0.048,1.674-0.098,2.508-0.153c1.529-0.097,3.05-0.206,4.565-0.323c0.695-0.054,1.392-0.107,2.084-0.164
	c1.758-0.146,3.504-0.309,5.241-0.483c0.447-0.045,0.898-0.085,1.344-0.131c6.772-0.704,13.396-1.61,19.87-2.718
	c0.387-0.066,0.769-0.138,1.154-0.205c1.703-0.299,3.398-0.609,5.081-0.936c0.587-0.114,1.171-0.232,1.756-0.35
	c1.459-0.294,2.911-0.596,4.354-0.91c0.699-0.153,1.398-0.305,2.093-0.463c1.3-0.294,2.591-0.599,3.879-0.911
	c0.782-0.189,1.564-0.375,2.341-0.57c1.154-0.29,2.298-0.595,3.441-0.9c0.868-0.231,1.742-0.456,2.604-0.695
	c0.875-0.242,1.737-0.502,2.605-0.752c2.412-0.698,4.8-1.425,7.161-2.187c0.385-0.124,0.774-0.241,1.157-0.368
	c1.057-0.347,2.102-0.709,3.149-1.07v37.834C354.233,495.584,353.492,496.325,352.582,496.325z"/>
<path d="M268.557,96.585c0.373-0.539,0.743-1.081,1.113-1.625c4.134-6.069,6.178-8.54,9.821-8.54c3.648,0,5.695,2.472,9.83,8.542
	c4.424,6.494,10.482,15.387,22.775,15.387c12.293,0,18.352-8.895,22.776-15.39c4.134-6.068,6.178-8.539,9.821-8.539
	c3.644,0,5.689,2.471,9.823,8.539c0.37,0.543,0.74,1.087,1.113,1.626c2.463,3.559,7.344,4.448,10.904,1.985
	c3.559-2.463,4.448-7.345,1.985-10.905c-0.351-0.507-0.7-1.02-1.048-1.532c-4.424-6.494-10.482-15.388-22.777-15.388
	c-12.293,0-18.352,8.895-22.776,15.39c-4.134,6.068-6.178,8.539-9.821,8.539c-3.643,0-5.688-2.471-9.821-8.538
	c-4.425-6.495-10.486-15.39-22.783-15.39c-12.293,0-18.352,8.895-22.776,15.39c-0.348,0.511-0.697,1.023-1.048,1.532
	c-2.462,3.559-1.573,8.441,1.986,10.904C261.213,101.033,266.094,100.144,268.557,96.585z"/>
<g>
</g>
<g>
</g>
<g>
</g>
<g>
</g>
<g>
</g>
<g>
</g>
<g>
</g>
<g>
</g>
<g>
</g>
<g>
</g>
<g>
</g>
<g>
</g>
<g>
</g>
<g>
</g>
<g>
</g>
</svg>
