<?xml version="1.0" encoding="iso-8859-1"?>
<!-- Generator: Adobe Illustrator 19.0.0, SVG Export Plug-In . SVG Version: 6.00 Build 0)  -->
<svg version="1.1" id="Layer_1" xmlns="http://www.w3.org/2000/svg" xmlns:xlink="http://www.w3.org/1999/xlink" x="0px" y="0px"
	 viewBox="0 0 511.996 511.996" style="enable-background:new 0 0 511.996 511.996;" xml:space="preserve">
<path style="fill:#FFE666;" d="M272.716,487.04h-33.437c-2.308,0-4.18-1.871-4.18-4.18V377.326c0-2.308,1.871-4.18,4.18-4.18h33.437
	c2.308,0,4.18,1.871,4.18,4.18V482.86C276.895,485.168,275.024,487.04,272.716,487.04z"/>
<path style="fill:#EDBF31;" d="M253.908,487.04h-14.629c-2.308,0-4.18-1.871-4.18-4.18V377.326c0-2.308,1.871-4.18,4.18-4.18h14.629
	V487.04z"/>
<path style="fill:#F75534;" d="M322.685,288.301c2.392,0.422,3.896,2.78,3.329,5.142c-1.634,6.797-4.236,13.214-7.647,19.106
	c-4.211,7.293-9.665,13.772-16.081,19.163c-6.374,5.35-13.688,9.624-21.65,12.518c-4.556,1.661-9.32,2.873-14.242,3.584
	c-3.396,0.491-6.865,0.742-10.397,0.742c-8.652,0-16.948-1.526-24.639-4.326c-7.962-2.894-15.276-7.168-21.65-12.518
	c-6.416-5.392-11.87-11.87-16.081-19.163c-3.412-5.892-6.012-12.309-7.647-19.105c-0.567-2.361,0.938-4.72,3.33-5.142l14.619-2.576
	l52.067-9.185L322.685,288.301z"/>
<path style="fill:#BD391E;" d="M286.31,341.012c-2.696,1.39-5.475,2.623-8.349,3.668c-3.72,1.358-7.586,2.403-11.567,3.135
	c-3.396,0.491-6.865,0.742-10.397,0.742c-8.652,0-16.948-1.526-24.639-4.326c-7.962-2.894-15.276-7.168-21.65-12.518
	c-6.416-5.392-11.87-11.87-16.081-19.163c-3.412-5.892-6.012-12.309-7.647-19.105c-0.567-2.361,0.938-4.72,3.33-5.142l14.619-2.576
	c1.609,7.231,4.305,14.075,7.92,20.302c4.211,7.293,9.676,13.772,16.081,19.163c6.374,5.35,13.688,9.624,21.661,12.518
	c7.68,2.8,15.976,4.326,24.628,4.326C278.337,342.036,282.381,341.681,286.31,341.012z"/>
<path id="SVGCleanerId_0" style="fill:#F7EDE3;" d="M221.223,182.115c-7.116,2.539-13.876,5.841-20.167,9.791
	c-3.699,2.33-7.231,4.88-10.595,7.638L96.306,87.29c-0.01-0.01-0.01-0.01-0.01-0.021c-1.494-1.776-1.264-4.43,0.533-5.893
	c4.817-3.918,9.791-7.659,14.911-11.212c16.603-11.588,34.67-21.222,53.875-28.578c2.121-0.815,4.504,0.261,5.339,2.351
	c0,0.01,0.01,0.021,0.01,0.031c0.01,0.031,0.021,0.052,0.031,0.084L221.223,182.115z"/>
<path id="SVGCleanerId_1" style="fill:#DBD2CA;" d="M255.997,29.131v146.986c-7.293,0-14.399,0.752-21.264,2.194
	c-4.629,0.961-9.132,2.236-13.511,3.803L170.995,44.052c-0.01-0.031-0.021-0.052-0.031-0.084c0-0.01-0.01-0.021-0.01-0.031
	c-0.7-2.142,0.428-4.493,2.57-5.235c6.154-2.121,12.403-4.012,18.756-5.663c19.048-4.953,38.985-7.743,59.507-8.077
	C254.106,24.92,255.997,26.811,255.997,29.131z"/>
<path id="SVGCleanerId_2" style="fill:#F7EDE3;" d="M471.194,153.39c0,0.01-0.01,0.01-0.01,0.01L344.73,226.429
	c-3.835-6.395-8.328-12.33-13.396-17.721c-3.062-3.26-6.343-6.322-9.801-9.164L415.7,87.269c1.505-1.766,4.169-1.985,5.914-0.47
	c6.165,5.35,12.069,11.003,17.68,16.927c12.664,13.343,23.886,28.076,33.416,43.948C473.9,149.66,473.2,152.231,471.194,153.39z"/>
<path id="SVGCleanerId_3" style="fill:#DBD2CA;" d="M500.702,234.516l-143.214,25.266c-1.63-8.485-4.305-16.593-7.889-24.189
	c-1.473-3.145-3.093-6.196-4.869-9.153v-0.01l126.454-73.028c0,0,0.01,0,0.01-0.01c2.006-1.149,4.598-0.46,5.716,1.567
	c2.759,4.963,5.36,10.031,7.795,15.193c8.798,18.693,15.37,38.64,19.383,59.507C504.526,231.925,502.98,234.109,500.702,234.516z"/>
<path id="SVGCleanerId_4" style="fill:#DBD2CA;" d="M190.461,199.544c-5.904,4.848-11.264,10.334-15.956,16.353
	c-2.623,3.354-5.047,6.875-7.241,10.533L40.811,153.401c0,0-0.01,0-0.01-0.01c-2.006-1.16-2.706-3.73-1.515-5.716
	c3.908-6.51,8.108-12.831,12.581-18.944c11.222-15.391,24.158-29.456,38.515-41.932c1.745-1.515,4.409-1.296,5.914,0.47
	c0,0.01,0,0.01,0.01,0.021L190.461,199.544z"/>
<path id="SVGCleanerId_5" style="fill:#F7EDE3;" d="M167.265,226.429v0.01c-4.399,7.325-7.899,15.235-10.365,23.594
	c-0.951,3.187-1.755,6.437-2.393,9.749L11.293,234.516c-2.278-0.408-3.824-2.591-3.385-4.859c1.076-5.622,2.351-11.18,3.793-16.656
	c5.402-20.48,13.312-39.946,23.385-58.044c1.118-2.027,3.709-2.717,5.716-1.567c0,0.01,0.01,0.01,0.01,0.01L167.265,226.429z"/>
<path id="SVGCleanerId_6" style="fill:#DBD2CA;" d="M415.7,87.269l-94.166,112.274c-6.625-5.444-13.939-10.073-21.797-13.74
	c-2.915-1.369-5.914-2.591-8.965-3.688L341,44.052c0.01-0.031,0.021-0.052,0.031-0.084c0.825-2.111,3.218-3.208,5.35-2.382
	c7.68,2.936,15.172,6.238,22.455,9.895c16.562,8.276,32.089,18.328,46.331,29.895C416.964,82.839,417.194,85.493,415.7,87.269z"/>
<path id="SVGCleanerId_7" style="fill:#F7EDE3;" d="M341.031,43.969c-0.01,0.031-0.021,0.052-0.031,0.084l-50.228,138.062
	c-6.896-2.466-14.117-4.211-21.598-5.162c-4.315-0.554-8.714-0.836-13.176-0.836V29.131c0-2.32,1.891-4.211,4.211-4.169
	c6.363,0.104,12.675,0.439,18.923,1.014c20.595,1.87,40.479,6.207,59.34,12.727C340.624,39.444,341.752,41.816,341.031,43.969z"/>
<g>
	<path id="SVGCleanerId_0_1_" style="fill:#F7EDE3;" d="M221.223,182.115c-7.116,2.539-13.876,5.841-20.167,9.791
		c-3.699,2.33-7.231,4.88-10.595,7.638L96.306,87.29c-0.01-0.01-0.01-0.01-0.01-0.021c-1.494-1.776-1.264-4.43,0.533-5.893
		c4.817-3.918,9.791-7.659,14.911-11.212c16.603-11.588,34.67-21.222,53.875-28.578c2.121-0.815,4.504,0.261,5.339,2.351
		c0,0.01,0.01,0.021,0.01,0.031c0.01,0.031,0.021,0.052,0.031,0.084L221.223,182.115z"/>
</g>
<g>
	<path id="SVGCleanerId_1_1_" style="fill:#DBD2CA;" d="M255.997,29.131v146.986c-7.293,0-14.399,0.752-21.264,2.194
		c-4.629,0.961-9.132,2.236-13.511,3.803L170.995,44.052c-0.01-0.031-0.021-0.052-0.031-0.084c0-0.01-0.01-0.021-0.01-0.031
		c-0.7-2.142,0.428-4.493,2.57-5.235c6.154-2.121,12.403-4.012,18.756-5.663c19.048-4.953,38.985-7.743,59.507-8.077
		C254.106,24.92,255.997,26.811,255.997,29.131z"/>
</g>
<g>
	<path id="SVGCleanerId_2_1_" style="fill:#F7EDE3;" d="M471.194,153.39c0,0.01-0.01,0.01-0.01,0.01L344.73,226.429
		c-3.835-6.395-8.328-12.33-13.396-17.721c-3.062-3.26-6.343-6.322-9.801-9.164L415.7,87.269c1.505-1.766,4.169-1.985,5.914-0.47
		c6.165,5.35,12.069,11.003,17.68,16.927c12.664,13.343,23.886,28.076,33.416,43.948C473.9,149.66,473.2,152.231,471.194,153.39z"/>
</g>
<g>
	<path id="SVGCleanerId_3_1_" style="fill:#DBD2CA;" d="M500.702,234.516l-143.214,25.266c-1.63-8.485-4.305-16.593-7.889-24.189
		c-1.473-3.145-3.093-6.196-4.869-9.153v-0.01l126.454-73.028c0,0,0.01,0,0.01-0.01c2.006-1.149,4.598-0.46,5.716,1.567
		c2.759,4.963,5.36,10.031,7.795,15.193c8.798,18.693,15.37,38.64,19.383,59.507C504.526,231.925,502.98,234.109,500.702,234.516z"
		/>
</g>
<g>
	<path id="SVGCleanerId_4_1_" style="fill:#DBD2CA;" d="M190.461,199.544c-5.904,4.848-11.264,10.334-15.956,16.353
		c-2.623,3.354-5.047,6.875-7.241,10.533L40.811,153.401c0,0-0.01,0-0.01-0.01c-2.006-1.16-2.706-3.73-1.515-5.716
		c3.908-6.51,8.108-12.831,12.581-18.944c11.222-15.391,24.158-29.456,38.515-41.932c1.745-1.515,4.409-1.296,5.914,0.47
		c0,0.01,0,0.01,0.01,0.021L190.461,199.544z"/>
</g>
<g>
	<path id="SVGCleanerId_5_1_" style="fill:#F7EDE3;" d="M167.265,226.429v0.01c-4.399,7.325-7.899,15.235-10.365,23.594
		c-0.951,3.187-1.755,6.437-2.393,9.749L11.293,234.516c-2.278-0.408-3.824-2.591-3.385-4.859c1.076-5.622,2.351-11.18,3.793-16.656
		c5.402-20.48,13.312-39.946,23.385-58.044c1.118-2.027,3.709-2.717,5.716-1.567c0,0.01,0.01,0.01,0.01,0.01L167.265,226.429z"/>
</g>
<g>
	<path id="SVGCleanerId_6_1_" style="fill:#DBD2CA;" d="M415.7,87.269l-94.166,112.274c-6.625-5.444-13.939-10.073-21.797-13.74
		c-2.915-1.369-5.914-2.591-8.965-3.688L341,44.052c0.01-0.031,0.021-0.052,0.031-0.084c0.825-2.111,3.218-3.208,5.35-2.382
		c7.68,2.936,15.172,6.238,22.455,9.895c16.562,8.276,32.089,18.328,46.331,29.895C416.964,82.839,417.194,85.493,415.7,87.269z"/>
</g>
<g>
	<path id="SVGCleanerId_7_1_" style="fill:#F7EDE3;" d="M341.031,43.969c-0.01,0.031-0.021,0.052-0.031,0.084l-50.228,138.062
		c-6.896-2.466-14.117-4.211-21.598-5.162c-4.315-0.554-8.714-0.836-13.176-0.836V29.131c0-2.32,1.891-4.211,4.211-4.169
		c6.363,0.104,12.675,0.439,18.923,1.014c20.595,1.87,40.479,6.207,59.34,12.727C340.624,39.444,341.752,41.816,341.031,43.969z"/>
</g>
<g>
	<path style="fill:#F75534;" d="M240.805,259.571l-50.343-60.029c9.091-7.461,19.466-13.396,30.762-17.429l26.666,73.289
		c0,0.01,0.01,0.021,0.01,0.031C249.488,259.79,243.824,263.071,240.805,259.571z"/>
	<path style="fill:#F75534;" d="M344.73,226.427v0.01l-68.274,39.424c-0.01,0.01-0.021,0.01-0.031,0.021
		c-4.023,2.247-8.223-2.759-5.235-6.311c0.01-0.01,0.021-0.031,0.031-0.042l50.312-59.988
		C330.729,207.086,338.586,216.176,344.73,226.427z"/>
</g>
<g>
	<path style="fill:#A8331B;" d="M357.488,259.78l-78.211,13.793c-4.598,0.815-6.855-5.339-2.853-7.69
		c0.01-0.01,0.021-0.01,0.031-0.021l68.274-39.424C350.801,236.552,355.179,247.795,357.488,259.78z"/>
	<path style="fill:#A8331B;" d="M235.57,265.882c-0.01-0.01-0.021-0.01-0.031-0.021l-68.274-39.424v-0.01
		c6.144-10.25,14.002-19.341,23.197-26.885l50.343,60.029C243.793,263.123,239.593,268.129,235.57,265.882z"/>
</g>
<path style="fill:#F75534;" d="M232.717,273.572l-78.211-13.793c2.309-11.985,6.687-23.228,12.758-33.343l68.274,39.424
	c0.01,0.01,0.021,0.01,0.031,0.021C239.572,268.233,237.315,274.387,232.717,273.572z"/>
<path style="fill:#A8331B;" d="M321.533,199.541l-50.312,59.988c-0.01,0.01-0.021,0.031-0.031,0.042
	c-3.02,3.5-8.683,0.219-7.095-4.138c0-0.01,0.01-0.021,0.01-0.031l26.666-73.289C302.067,186.146,312.443,192.081,321.533,199.541z"
	/>
<path style="fill:#F75534;" d="M290.772,182.113l-26.666,73.289c0,0.01-0.01,0.021-0.01,0.031c-1.62,4.347-8.098,3.208-8.098-1.452
	v-77.866C268.202,176.115,279.905,178.225,290.772,182.113z"/>
<path style="fill:#A8331B;" d="M255.997,176.115v77.866c0,4.66-6.478,5.799-8.098,1.452c0-0.01-0.01-0.021-0.01-0.031
	l-26.666-73.289C232.09,178.225,243.793,176.115,255.997,176.115z"/>
<circle style="fill:#FFE666;" cx="255.997" cy="276.542" r="24.252"/>
<path style="fill:#EDBF31;" d="M266.083,290.709c-13.391,0-24.248-10.857-24.248-24.248c0-4.1,1.022-7.959,2.818-11.345
	c-7.674,4.071-12.903,12.139-12.903,21.431c0,13.391,10.856,24.248,24.248,24.248c9.292,0,17.36-5.229,21.431-12.903
	C274.043,289.687,270.183,290.709,266.083,290.709z"/>
<path d="M9.935,242.232l135.372,23.882l-0.001,0.003l62.342,10.993l-31.644,5.58l1.347,7.707c1.606,9.195,4.801,17.969,9.491,26.069
	c4.661,8.073,10.659,15.221,17.829,21.247c7.184,6.03,15.263,10.7,24.007,13.879c6.294,2.291,12.822,3.756,19.483,4.405v9.309H235.1
	c-4.328,0-7.837,3.509-7.837,7.837v31.229c0,4.328,3.509,7.837,7.837,7.837c4.328,0,7.837-3.509,7.837-7.837v-23.392h26.122V479.2
	h-26.122v-30.594c0-4.328-3.509-7.837-7.837-7.837c-4.328,0-7.837,3.509-7.837,7.837v38.43c0,4.328,3.509,7.837,7.837,7.837h41.795
	c4.329,0,7.837-3.509,7.837-7.837V373.144c0-4.328-3.508-7.837-7.837-7.837h-13.061v-9.309c6.661-0.649,13.189-2.114,19.479-4.404
	c8.749-3.181,16.826-7.85,24.014-13.884c7.168-6.025,13.166-13.173,17.821-21.235c4.694-8.108,7.889-16.882,9.495-26.078
	l1.347-7.708l-31.644-5.58l62.342-10.993l-0.001-0.003l53.386-9.419c4.262-0.751,7.108-4.817,6.356-9.079
	c-0.751-4.262-4.817-7.112-9.078-6.355l-53.892,9.508c-0.131-0.489-0.272-0.974-0.409-1.46c-0.065-0.23-0.127-0.46-0.193-0.689
	c-0.39-1.354-0.806-2.699-1.247-4.035c-0.079-0.239-0.161-0.478-0.241-0.717c-0.464-1.374-0.947-2.741-1.465-4.094
	c-0.014-0.036-0.028-0.07-0.042-0.106c-0.515-1.342-1.062-2.672-1.629-3.993c-0.087-0.201-0.17-0.402-0.257-0.603
	c-0.568-1.302-1.163-2.592-1.783-3.873c-0.103-0.214-0.209-0.426-0.313-0.639c-0.194-0.395-0.382-0.793-0.582-1.187l54.784-31.64
	l61.774-35.676c11.036,20.56,19.027,42.522,23.791,65.389l-37.198,6.563c-4.262,0.751-7.108,4.817-6.356,9.079
	c0.751,4.262,4.819,7.109,9.078,6.355l40.904-7.216c3.156-0.564,6.004-2.403,7.817-5.046c1.825-2.659,2.494-5.862,1.886-9.008
	c-5.204-27.057-14.634-52.973-28.011-77.004c-0.73-1.324-1.691-2.465-2.818-3.403c-0.247-1.44-0.75-2.837-1.526-4.128
	c-14.152-23.573-31.874-44.688-52.674-62.758c-1.136-0.986-2.425-1.726-3.799-2.221c-0.723-1.271-1.675-2.415-2.846-3.369
	c-21.447-17.415-45.308-31.217-70.893-41.012c-1.435-0.556-2.912-0.802-4.367-0.793c-1.098-0.937-2.376-1.695-3.815-2.191
	c-25.897-8.947-53.045-13.714-80.68-14.168c-0.073-0.001-0.147-0.002-0.222-0.002c-1.43,0-2.819,0.262-4.125,0.744
	c-1.371-0.507-2.835-0.769-4.345-0.743c-7.933,0.131-15.936,0.624-23.786,1.467c-4.304,0.462-7.417,4.326-6.955,8.629
	c0.462,4.304,4.339,7.421,8.629,6.955c6.143-0.66,12.385-1.092,18.615-1.289v135.393v0.27c-0.464,0.032-0.927,0.076-1.391,0.114
	c-0.207,0.017-0.414,0.032-0.621,0.051c-1.425,0.125-2.846,0.276-4.262,0.456c-0.186,0.023-0.371,0.05-0.556,0.074
	c-2.924,0.385-5.825,0.886-8.702,1.502c-0.179,0.039-0.358,0.075-0.537,0.114c-1.393,0.305-2.779,0.639-4.161,0.999
	c-0.195,0.051-0.39,0.103-0.584,0.156c-0.443,0.118-0.887,0.23-1.329,0.353l-16.757-46.061l-29.612-81.398
	c5.648-1.853,11.401-3.51,17.151-4.938c4.199-1.044,6.759-5.294,5.716-9.495c-1.044-4.199-5.298-6.759-9.495-5.716
	c-7.414,1.842-14.833,4.041-22.059,6.537c-1.436,0.497-2.717,1.252-3.814,2.191c-1.445-0.011-2.912,0.233-4.332,0.779
	c-25.614,9.806-49.475,23.608-70.93,41.03c-1.168,0.951-2.118,2.094-2.84,3.364c-1.374,0.495-2.663,1.235-3.798,2.221
	c-20.799,18.068-38.521,39.184-52.674,62.759c-0.774,1.289-1.278,2.686-1.523,4.124c-1.125,0.934-2.081,2.069-2.805,3.379
	C14.851,175.202,5.422,201.118,0.22,228.164c-0.61,3.155,0.059,6.357,1.883,9.016C3.914,239.825,6.763,241.664,9.935,242.232z
	 M180.765,220.607c0.069-0.089,0.134-0.181,0.204-0.269c0.884-1.12,1.793-2.22,2.725-3.3c0.08-0.093,0.166-0.182,0.248-0.275
	c0.843-0.969,1.703-1.923,2.586-2.857c0.259-0.274,0.531-0.536,0.792-0.807c0.718-0.742,1.439-1.483,2.182-2.203
	c0.047-0.045,0.095-0.088,0.142-0.133l31.783,37.899L178.367,223.8c0.022-0.03,0.042-0.063,0.064-0.093
	C179.187,222.657,179.968,221.624,180.765,220.607z M205.164,198.588c0.063-0.04,0.123-0.083,0.187-0.122
	c2.397-1.503,4.857-2.894,7.375-4.174c0.232-0.118,0.47-0.225,0.704-0.341c1.018-0.507,2.04-1.005,3.075-1.475
	c0.043-0.02,0.087-0.037,0.13-0.055l16.803,46.175l-31.671-37.765c0.027-0.019,0.053-0.04,0.08-0.057
	C202.94,200.02,204.046,199.293,205.164,198.588z M235.363,186.189c0.057-0.013,0.114-0.028,0.171-0.041
	c2.744-0.599,5.516-1.075,8.311-1.429c0.305-0.039,0.613-0.063,0.918-0.098c1.08-0.126,2.162-0.247,3.248-0.335
	c0.049-0.004,0.099-0.005,0.148-0.009v48.946l-16.764-46.069c0.027-0.007,0.053-0.016,0.079-0.023
	C232.764,186.788,234.061,186.476,235.363,186.189z M267.247,184.622c0.3,0.036,0.601,0.059,0.901,0.096
	c2.796,0.354,5.57,0.831,8.316,1.43c0.04,0.008,0.079,0.02,0.12,0.028c1.318,0.289,2.63,0.607,3.934,0.953
	c0.027,0.007,0.054,0.016,0.08,0.023l-16.764,46.07v-48.947c0.049,0.004,0.099,0.005,0.148,0.009
	C265.074,184.376,266.161,184.496,267.247,184.622z M298.536,193.938c0.243,0.121,0.492,0.232,0.734,0.355
	c2.517,1.28,4.977,2.672,7.373,4.173c0.066,0.042,0.131,0.087,0.196,0.129c1.115,0.703,2.218,1.427,3.306,2.178
	c0.027,0.019,0.054,0.04,0.082,0.059l-31.667,37.762l16.802-46.172c0.044,0.02,0.09,0.038,0.134,0.057
	C296.519,192.943,297.53,193.436,298.536,193.938z M325.47,213.91c0.883,0.935,1.744,1.89,2.588,2.86
	c0.079,0.091,0.163,0.177,0.241,0.269c0.934,1.08,1.843,2.181,2.728,3.303c0.055,0.07,0.107,0.143,0.161,0.213
	c0.813,1.037,1.607,2.089,2.378,3.159c0.021,0.029,0.04,0.059,0.061,0.088l-28.634,16.534l-14.427,8.331l22.349-26.65l9.434-11.25
	c0.049,0.047,0.1,0.092,0.149,0.139c0.728,0.705,1.435,1.432,2.139,2.16C324.914,213.348,325.199,213.622,325.47,213.91z
	 M164.08,253.368c0.331-1.169,0.692-2.327,1.067-3.481c0.063-0.193,0.116-0.391,0.181-0.584c0.451-1.357,0.933-2.704,1.445-4.039
	c0.088-0.23,0.189-0.455,0.279-0.683c0.428-1.09,0.867-2.175,1.336-3.25c0.184-0.422,0.387-0.836,0.578-1.255
	c0.396-0.872,0.792-1.746,1.216-2.607c0.038-0.077,0.08-0.153,0.118-0.23l43.301,25.004l-49.555-8.738
	C164.057,253.46,164.067,253.414,164.08,253.368z M255.997,260.134c9.049,0,16.411,7.362,16.411,16.411
	c0,9.05-7.362,16.411-16.411,16.411c-9.049,0-16.411-7.362-16.411-16.411S246.949,260.134,255.997,260.134z M308.634,256.332
	l33.063-19.091c0.037,0.075,0.078,0.148,0.115,0.223c0.423,0.861,0.819,1.733,1.215,2.606c0.192,0.423,0.397,0.841,0.583,1.267
	c0.447,1.024,0.863,2.059,1.274,3.097c0.111,0.282,0.235,0.559,0.344,0.842c0.509,1.327,0.988,2.667,1.438,4.017
	c0.094,0.281,0.172,0.568,0.262,0.851c0.343,1.065,0.678,2.132,0.983,3.209c0.015,0.051,0.026,0.103,0.041,0.155l-49.557,8.738
	L308.634,256.332z M311.579,308.631c-3.745,6.487-8.568,12.234-14.333,17.079c-5.776,4.849-12.266,8.603-19.293,11.156
	c-7.022,2.557-14.408,3.853-21.956,3.853s-14.936-1.297-21.961-3.855c-7.022-2.553-13.512-6.306-19.286-11.152
	c-5.766-4.846-10.589-10.593-14.34-17.09c-2.447-4.227-4.386-8.678-5.798-13.298l32.115-5.662
	c5.025,11.169,16.25,18.968,29.27,18.968c13.019,0,24.245-7.8,29.27-18.968l32.116,5.662
	C315.969,299.946,314.029,304.398,311.579,308.631z M464.009,148.472l-0.656,0.376v0.021l-89.347,51.6l-26.749,15.449
	c-0.168-0.241-0.352-0.47-0.522-0.709c-0.648-0.914-1.316-1.812-1.991-2.705c-0.389-0.515-0.77-1.037-1.167-1.544
	c-0.903-1.153-1.832-2.282-2.778-3.398c-0.191-0.225-0.371-0.459-0.563-0.682c-1.128-1.308-2.293-2.585-3.482-3.84
	c-0.43-0.455-0.879-0.893-1.318-1.342c-0.794-0.811-1.593-1.616-2.414-2.403c-0.194-0.187-0.377-0.385-0.573-0.571l0.177-0.211l0,0
	l15.441-18.411l71.212-84.907C436.681,110.777,451.704,128.671,464.009,148.472z M407.282,85.106l-86.944,103.664
	c-0.41-0.292-0.825-0.572-1.238-0.857c-0.15-0.103-0.3-0.209-0.45-0.311c-1.195-0.817-2.404-1.61-3.629-2.378
	c-0.147-0.093-0.297-0.183-0.444-0.275c-2.529-1.57-5.117-3.036-7.762-4.397c-0.141-0.073-0.281-0.147-0.423-0.219
	c-1.285-0.654-2.584-1.281-3.895-1.885c-0.179-0.083-0.357-0.163-0.537-0.245c-0.408-0.185-0.813-0.376-1.224-0.557l0.093-0.257
	l-0.001-0.001l46.245-127.115C368.661,58.924,388.887,70.626,407.282,85.106z M288.253,166.112l-2.276,6.256
	c-0.443-0.123-0.888-0.236-1.332-0.354c-0.193-0.051-0.387-0.103-0.58-0.155c-1.382-0.359-2.77-0.694-4.165-1
	c-0.177-0.039-0.354-0.074-0.531-0.113c-2.879-0.616-5.784-1.117-8.709-1.503c-0.184-0.024-0.368-0.05-0.553-0.073
	c-1.417-0.18-2.838-0.33-4.264-0.456c-0.206-0.018-0.413-0.034-0.62-0.051c-0.464-0.038-0.927-0.082-1.392-0.114v-0.27V32.889
	c23.426,0.739,46.436,4.775,68.513,12.022L288.253,166.112z M164.921,50.275l27.616,75.907l18.631,51.209h-0.001l0.093,0.257
	c-0.406,0.179-0.809,0.368-1.213,0.552c-0.185,0.085-0.371,0.167-0.556,0.253c-1.305,0.601-2.598,1.226-3.877,1.876
	c-0.152,0.077-0.301,0.157-0.451,0.234c-2.63,1.353-5.204,2.812-7.719,4.373c-0.162,0.1-0.324,0.2-0.485,0.3
	c-1.215,0.763-2.416,1.55-3.602,2.36c-0.158,0.108-0.314,0.218-0.472,0.327c-0.409,0.282-0.821,0.56-1.227,0.848L104.711,85.11
	C123.107,70.627,143.329,58.927,164.921,50.275z M92.711,95.196l18.718,22.316l67.94,80.999l0,0l0.178,0.211
	c-0.192,0.182-0.371,0.376-0.562,0.559c-0.833,0.799-1.646,1.619-2.453,2.442c-0.427,0.436-0.863,0.863-1.283,1.306
	c-1.192,1.258-2.359,2.538-3.491,3.849c-0.186,0.215-0.359,0.441-0.543,0.658c-0.954,1.123-1.889,2.261-2.798,3.422
	c-0.393,0.503-0.769,1.018-1.154,1.527c-0.682,0.903-1.357,1.811-2.012,2.735c-0.166,0.235-0.347,0.459-0.511,0.695L48.642,148.87
	l-0.665-0.386C60.284,128.68,75.31,110.782,92.711,95.196z M40.137,162.059l70.968,40.985l45.591,26.329
	c-0.197,0.39-0.383,0.784-0.576,1.176c-0.108,0.218-0.215,0.437-0.322,0.656c-0.619,1.28-1.214,2.57-1.782,3.871
	c-0.086,0.195-0.167,0.393-0.251,0.588c-0.573,1.334-1.125,2.677-1.645,4.032c-0.008,0.023-0.018,0.045-0.027,0.068
	c-0.52,1.36-1.006,2.735-1.472,4.116c-0.078,0.232-0.158,0.464-0.235,0.696c-0.442,1.339-0.859,2.686-1.249,4.043
	c-0.066,0.23-0.13,0.462-0.194,0.693c-0.136,0.486-0.278,0.97-0.408,1.458L16.346,227.448
	C21.105,204.595,29.094,182.638,40.137,162.059z"/>
<g>
</g>
<g>
</g>
<g>
</g>
<g>
</g>
<g>
</g>
<g>
</g>
<g>
</g>
<g>
</g>
<g>
</g>
<g>
</g>
<g>
</g>
<g>
</g>
<g>
</g>
<g>
</g>
<g>
</g>
</svg>
