<?xml version="1.0" encoding="iso-8859-1"?>
<!-- Generator: Adobe Illustrator 19.0.0, SVG Export Plug-In . SVG Version: 6.00 Build 0)  -->
<svg version="1.1" id="Layer_1" xmlns="http://www.w3.org/2000/svg" xmlns:xlink="http://www.w3.org/1999/xlink" x="0px" y="0px"
	 viewBox="0 0 511.999 511.999" style="enable-background:new 0 0 511.999 511.999;" xml:space="preserve">
<path style="fill:#F75534;" d="M244.134,39.638h-74.077c-5.014,0-9.08,5.245-9.08,11.716c0,6.47,4.066,11.716,9.08,11.716h74.077
	V39.638z"/>
<path style="fill:#BD391E;" d="M179.785,51.355c0-6.471,4.066-11.716,9.08-11.716h-18.808c-5.014,0-9.08,5.246-9.08,11.716
	s4.066,11.715,9.08,11.715h18.808C183.85,63.071,179.785,57.825,179.785,51.355z"/>
<g>
	<path style="fill:#F75534;" d="M349.967,29.529c0,6.478-4.065,11.724-9.08,11.724h-74.073V17.816h74.073
		C345.902,17.816,349.967,23.061,349.967,29.529z"/>
	<path style="fill:#F75534;" d="M349.967,74.783c0,6.478-4.065,11.724-9.08,11.724h-74.073V63.07h74.073
		C345.902,63.07,349.967,68.315,349.967,74.783z"/>
</g>
<path style="fill:#F7EDE3;" d="M345.882,492.896H166.117c-8.068,0-14.608-6.54-14.608-14.608V298.523
	c0-8.068,6.54-14.608,14.608-14.608h179.764c8.068,0,14.608,6.54,14.608,14.608v179.765
	C360.489,486.356,353.949,492.896,345.882,492.896z"/>
<path style="fill:#DBD2CA;" d="M170.381,478.288V298.523c0-8.068,6.54-14.607,14.608-14.607h-18.871
	c-8.068,0-14.608,6.54-14.608,14.607v179.765c0,8.068,6.54,14.607,14.608,14.607h18.871
	C176.921,492.896,170.381,486.356,170.381,478.288z"/>
<path style="fill:#F75534;" d="M281.223,504.163h-50.448c-2.228,0-4.033-1.806-4.033-4.033v-20.146c0-2.228,1.806-4.033,4.033-4.033
	h50.449c2.228,0,4.033,1.806,4.033,4.033v20.147C285.257,502.358,283.451,504.163,281.223,504.163z"/>
<g>
	<path style="fill:#BD391E;" d="M245.55,500.131v-20.147c0-2.227,1.806-4.032,4.033-4.032h-18.808c-2.228,0-4.033,1.806-4.033,4.032
		v20.147c0,2.227,1.806,4.032,4.033,4.032h18.808C247.356,504.163,245.55,502.358,245.55,500.131z"/>
	<rect x="266.814" y="17.816" style="fill:#BD391E;" width="22.601" height="23.437"/>
	<rect x="266.814" y="63.07" style="fill:#BD391E;" width="22.601" height="23.437"/>
</g>
<path style="fill:#B36E44;" d="M270.603,439.205h-29.206V12.016c0-2.308,1.871-4.18,4.18-4.18h20.847c2.308,0,4.18,1.871,4.18,4.18
	V439.205z"/>
<path style="fill:#8C5635;" d="M258.437,439.205h-17.041V12.016c0-2.308,1.871-4.18,4.18-4.18h12.862V439.205z"/>
<rect x="241.392" y="97.217" style="fill:#F7EDE3;" width="29.206" height="25.56"/>
<rect x="241.392" y="97.217" style="fill:#DBD2CA;" width="18.808" height="25.56"/>
<path style="fill:#B36E44;" d="M298.331,450.047h-84.664c-1.777,0-3.219-1.441-3.219-3.219v-15.244c0-1.777,1.441-3.219,3.219-3.219
	h84.664c1.777,0,3.219,1.441,3.219,3.219v15.244C301.551,448.605,300.11,450.047,298.331,450.047z"/>
<path style="fill:#8C5635;" d="M229.256,446.828v-15.244c0-1.777,1.441-3.219,3.219-3.219h-18.808c-1.777,0-3.219,1.441-3.219,3.219
	v15.244c0,1.778,1.441,3.219,3.219,3.219h18.808C230.698,450.046,229.256,448.606,229.256,446.828z"/>
<path d="M345.882,276.083h-67.438v-70.238c0-4.329-3.509-7.837-7.837-7.837s-7.837,3.508-7.837,7.837v214.683h-13.542V130.611
	h13.542v39.446c0,4.329,3.509,7.837,7.837,7.837s7.837-3.508,7.837-7.837V94.344h62.443c9.487,0,16.917-8.592,16.917-19.56
	c0-10.779-7.589-19.55-16.917-19.55h-62.443v-6.144h62.443c9.487,0,16.917-8.592,16.917-19.562c0-10.779-7.589-19.55-16.917-19.55
	h-62.443V7.837c0-4.329-3.509-7.837-7.837-7.837h-29.215c-4.328,0-7.837,3.508-7.837,7.837v23.97h-63.498
	c-9.328,0-16.917,8.771-16.917,19.55s7.589,19.55,16.917,19.55h17.763c4.328,0,7.837-3.508,7.837-7.837s-3.509-7.837-7.837-7.837
	h-17.608c-0.464-0.31-1.399-1.7-1.399-3.877c0-2.178,0.935-3.566,1.399-3.877h63.343v7.753h-9.55c-4.328,0-7.837,3.508-7.837,7.837
	s3.509,7.837,7.837,7.837h9.55v205.176h-67.438c-12.376,0-22.444,10.069-22.444,22.444v58.828c0,4.329,3.509,7.837,7.837,7.837
	c4.328,0,7.837-3.508,7.837-7.837v-58.828c0-3.733,3.038-6.771,6.771-6.771h67.438v128.771h-19.888
	c-6.096,0-11.056,4.96-11.056,11.056v15.244c0,6.096,4.96,11.056,11.056,11.056h84.664c6.096,0,11.056-4.96,11.056-11.056v-15.244
	c0-6.096-4.96-11.056-11.056-11.056h-19.888V291.756h67.438c3.733,0,6.771,3.038,6.771,6.771v179.764c0,3.733-3.038,6.77-6.771,6.77
	h-52.788v-5.078c0-6.545-5.325-11.869-11.869-11.869h-50.449c-6.545,0-11.869,5.325-11.869,11.869v5.078h-52.788
	c-3.733,0-6.771-3.036-6.771-6.77v-84.365c0-4.329-3.509-7.837-7.837-7.837c-4.328,0-7.837,3.508-7.837,7.837v84.365
	c0,12.376,10.069,22.443,22.444,22.443h52.819c0.318,6.263,5.498,11.264,11.839,11.264h50.449c6.34,0,11.521-5.002,11.839-11.264
	h52.819c12.376,0,22.444-10.069,22.444-22.443V298.527C368.326,286.151,358.257,276.083,345.882,276.083z M262.766,114.938h-13.532
	v-9.887h13.532V114.938z M340.731,70.907c0.464,0.31,1.399,1.699,1.399,3.877c0,2.183-0.935,3.576-1.4,3.887h-62.286v-7.764H340.731
	z M340.731,25.652c0.464,0.31,1.399,1.7,1.399,3.877c0,2.183-0.935,3.577-1.4,3.888h-62.286v-7.765H340.731z M249.229,15.673h13.542
	v73.704h-13.542V15.673z M293.714,442.21h-75.429v-6.009h23.066c0.014,0,0.027,0.002,0.041,0.002s0.027-0.002,0.041-0.002h29.135
	c0.014,0,0.027,0.002,0.041,0.002s0.027-0.002,0.041-0.002h23.066v6.009H293.714z M277.42,496.327h-42.841v-12.539h42.841V496.327z"
	/>
<g>
</g>
<g>
</g>
<g>
</g>
<g>
</g>
<g>
</g>
<g>
</g>
<g>
</g>
<g>
</g>
<g>
</g>
<g>
</g>
<g>
</g>
<g>
</g>
<g>
</g>
<g>
</g>
<g>
</g>
</svg>
