<?xml version="1.0" encoding="iso-8859-1"?>
<!-- Generator: Adobe Illustrator 19.0.0, SVG Export Plug-In . SVG Version: 6.00 Build 0)  -->
<svg version="1.1" id="Layer_1" xmlns="http://www.w3.org/2000/svg" xmlns:xlink="http://www.w3.org/1999/xlink" x="0px" y="0px"
	 viewBox="0 0 511.999 511.999" style="enable-background:new 0 0 511.999 511.999;" xml:space="preserve">
<rect x="215.447" y="290.994" style="fill:#B3B3B3;" width="90.143" height="32.943"/>
<rect x="215.447" y="290.994" style="fill:#9C9C9C;" width="90.143" height="17.078"/>
<path style="fill:#6D9FDE;" d="M353.63,102.96l-15.366,188.906c-0.177,2.17-1.988,3.841-4.166,3.841H186.794
	c-2.177,0-3.989-1.671-4.166-3.84L167.251,102.96H353.63z"/>
<path style="fill:#598BC7;" d="M167.251,102.96l15.377,188.906c0.177,2.169,1.989,3.84,4.166,3.84h15.851l-15.69-192.746H167.251z"
	/>
<path style="fill:#F75534;" d="M306.134,155.272l-7.795,102.421c-0.167,2.184-1.985,3.866-4.169,3.866h-67.448
	c-2.184,0-4.002-1.682-4.169-3.866l-7.795-102.421c-0.188-2.424,1.735-4.493,4.169-4.493h83.038
	C304.399,150.779,306.322,152.848,306.134,155.272z"/>
<path style="fill:#BD391E;" d="M242.343,261.559h-15.621c-2.184,0-4.002-1.682-4.169-3.866l-7.795-102.421
	c-0.188-2.424,1.735-4.493,4.169-4.493h15.256L242.343,261.559z"/>
<path id="SVGCleanerId_0" style="fill:#7FB2F0;" d="M375.435,110.603H145.447c-3.937,0-5.691-4.948-2.632-7.426L257.808,9.971
	c1.534-1.243,3.729-1.243,5.263,0l114.993,93.206C381.125,105.656,379.372,110.603,375.435,110.603z"/>
<g>
	<path id="SVGCleanerId_0_1_" style="fill:#7FB2F0;" d="M375.435,110.603H145.447c-3.937,0-5.691-4.948-2.632-7.426L257.808,9.971
		c1.534-1.243,3.729-1.243,5.263,0l114.993,93.206C381.125,105.656,379.372,110.603,375.435,110.603z"/>
</g>
<path style="fill:#5F95D4;" d="M173.77,103.177l102.148-82.795L263.073,9.97c-1.534-1.243-3.729-1.243-5.263,0l-114.994,93.207
	c-3.058,2.48-1.306,7.426,2.632,7.426h30.955C172.464,110.603,170.712,105.656,173.77,103.177z"/>
<path style="fill:#6D9FDE;" d="M372.514,504.164h-50.038c-2.258,0-4.112-1.791-4.171-4.049
	c-1.417-53.491-30.14-116.088-34.576-125.452c-0.346-0.73-1.08-1.195-1.889-1.195h-42.799c-0.809,0-1.543,0.465-1.889,1.195
	c-4.435,9.363-33.158,71.96-34.576,125.452c-0.06,2.257-1.913,4.049-4.171,4.049h-49.139c-2.338,0-4.216-1.922-4.182-4.26
	c1.669-114.804,70.363-175.964,70.363-175.964h90.885c0,0,68.695,61.159,70.363,175.964
	C376.73,502.242,374.854,504.164,372.514,504.164z"/>
<path style="fill:#598BC7;" d="M239.02,323.94h-23.573c0,0-68.695,61.159-70.363,175.964c-0.035,2.338,1.843,4.26,4.182,4.26h19.36
	C168.625,386.612,239.02,323.94,239.02,323.94z"/>
<path d="M222.846,269.401h75.197c4.097,0,7.503-3.157,7.815-7.242l8.431-110.788c0.165-2.175-0.583-4.322-2.067-5.921
	c-1.484-1.6-3.566-2.51-5.748-2.51h-92.066c-2.182,0-4.265,0.91-5.748,2.51c-1.483,1.601-2.232,3.746-2.067,5.921l8.438,110.788
	C215.343,266.244,218.749,269.401,222.846,269.401z M298.019,158.613l-7.239,95.115h-60.671l-7.244-95.115H298.019z"/>
<path d="M462.106,504.164c0-4.328-3.509-7.837-7.837-7.837h-69.822c-1.559-58.573-20.298-102.96-36.138-130.286
	c-14.88-25.673-29.728-41.173-34.881-46.179v-16.318h24.523c4.081,0,7.48-3.134,7.811-7.201l14.471-177.902h26.996
	c3.319,0,6.278-2.091,7.386-5.219c1.109-3.128,0.126-6.616-2.452-8.706l-73.885-59.886c-3.362-2.725-8.297-2.209-11.023,1.154
	c-2.725,3.362-2.209,8.298,1.154,11.023l8.707,7.057H203.765l56.675-45.937l24.093,19.528c3.364,2.725,8.298,2.21,11.023-1.154
	c2.725-3.362,2.209-8.298-1.154-11.023L265.375,1.748c-2.877-2.331-6.992-2.331-9.869,0L128.719,104.514
	c-2.578,2.09-3.561,5.578-2.452,8.706c1.109,3.128,4.068,5.219,7.386,5.219h26.996l4.758,58.455
	c0.351,4.314,4.129,7.531,8.446,7.175c4.313-0.351,7.526-4.133,7.175-8.446l-4.655-57.184h168.135l-13.781,169.43h-25.134h-90.144
	h-25.282l-6.527-80.189c-0.351-4.314-4.139-7.534-8.446-7.175c-4.313,0.351-7.526,4.133-7.175,8.446l7.114,87.39
	c0.331,4.069,3.729,7.201,7.811,7.201h24.67v17.043c-5.729,5.675-19.921,20.92-34.141,45.453
	c-15.839,27.326-34.579,71.714-36.138,130.286H57.73c-4.328,0-7.837,3.509-7.837,7.837c0,4.328,3.509,7.837,7.837,7.837h79.485
	h73.143h100.164h74.041h69.705C458.597,512,462.106,508.491,462.106,504.164z M167.873,102.766h-12.106l28.661-23.23h152.025
	l28.662,23.23h-12.106H167.873z M297.756,303.543V316.1h-74.471v-12.557H297.756z M326.006,496.327
	c-0.806-16.976-4.174-36.191-10.04-57.253c-1.162-4.169-5.478-6.61-9.653-5.447c-4.169,1.161-6.608,5.483-5.446,9.652
	c5.471,19.639,8.63,37.434,9.44,53.048h-99.734c2.42-46.448,25.133-99.607,32.144-115.022h35.455
	c2.91,6.379,8.52,19.228,14.244,35.365c1.446,4.079,5.926,6.213,10.005,4.767c4.079-1.446,6.213-5.926,4.767-10.005
	c-8.522-24.028-16.649-40.709-16.991-41.408l-2.149-4.392h-55.211l-2.149,4.392c-1.406,2.873-33.074,68.199-35.812,126.304h-41.875
	c1.54-54.783,18.969-96.278,33.698-121.849c13.352-23.182,26.861-37.677,31.901-42.702h84.584
	c11.064,11.045,62.908,67.86,65.6,164.551H326.006z"/>
<g>
</g>
<g>
</g>
<g>
</g>
<g>
</g>
<g>
</g>
<g>
</g>
<g>
</g>
<g>
</g>
<g>
</g>
<g>
</g>
<g>
</g>
<g>
</g>
<g>
</g>
<g>
</g>
<g>
</g>
</svg>
