<?xml version="1.0" encoding="iso-8859-1"?>
<!-- Generator: Adobe Illustrator 19.0.0, SVG Export Plug-In . SVG Version: 6.00 Build 0)  -->
<svg version="1.1" id="Layer_1" xmlns="http://www.w3.org/2000/svg" xmlns:xlink="http://www.w3.org/1999/xlink" x="0px" y="0px"
	 viewBox="0 0 512 512" style="enable-background:new 0 0 512 512;" xml:space="preserve">
<path style="fill:#CFBAA7;" d="M504.164,436.831c-0.439,9.425-7.764,18.328-17.283,25.496c-9.509,7.168-21.201,12.612-30.354,15.141
	c-65.181,15.935-134.583,23.771-203.922,23.51h-1.39c-0.543,0-1.076,0-1.609-0.01c-66.079-0.481-132.023-8.307-194.132-23.5
	c-18.307-5.057-46.77-21.776-47.637-40.636c0.439-9.425,7.764-18.328,17.283-25.495c9.509-7.168,21.201-12.612,30.354-15.141
	c62.098-15.193,128.052-23.019,194.132-23.5c0.554-0.01,1.108-0.01,1.672-0.01h1.39c69.308-0.261,138.7,7.576,203.86,23.51
	C474.833,401.253,503.297,417.971,504.164,436.831z"/>
<path style="fill:#B5A292;" d="M72.684,477.467c60.656,14.838,124.97,22.643,189.482,23.437c-3.427,0.042-6.865,0.073-10.292,0.073
	h-0.658c-0.543,0-1.076,0-1.609-0.01c-66.079-0.481-132.023-8.307-194.132-23.5c-18.307-5.057-46.77-21.776-47.637-40.636
	c0.439-9.425,7.764-18.328,17.283-25.495c9.509-7.168,21.201-12.612,30.354-15.141c62.098-15.193,128.052-23.019,194.132-23.5
	c0.554-0.01,1.108-0.01,1.672-0.01h0.658c3.406,0,6.823,0.031,10.23,0.073c-64.512,0.805-128.836,8.61-189.482,23.437
	c-9.153,2.529-20.846,7.973-30.354,15.141c-9.519,7.168-16.844,16.071-17.283,25.495C25.914,455.691,54.377,472.41,72.684,477.467z"
	/>
<path style="fill:#362928;" d="M388.747,358.686c-82.38,20.82-175.278,20.82-257.657,0c-11.76-3.357-30.046-14.458-30.605-26.978
	l0,0c0.559-12.52,18.846-23.621,30.605-26.978c82.378-20.82,175.278-20.82,257.657,0c11.76,3.357,30.046,14.458,30.605,26.978l0,0
	C418.794,344.228,400.508,355.328,388.747,358.686z"/>
<path style="fill:#2E2322;" d="M148.078,358.686c-11.76-3.357-30.046-14.458-30.605-26.978l0,0
	c0.559-12.52,18.846-23.621,30.605-26.978c38.527-9.737,79.357-14.919,120.336-15.548c-46.64-0.717-93.472,4.465-137.324,15.548
	c-11.76,3.357-30.046,14.458-30.605,26.978l0,0c0.559,12.52,18.846,23.621,30.605,26.978c43.85,11.082,90.683,16.264,137.323,15.548
	C227.435,373.604,186.606,368.423,148.078,358.686z"/>
<path style="fill:#CFBAA7;" d="M385.568,246.523c-0.209,6.259-3.647,12.163-8.108,16.917c-4.462,4.765-9.947,8.38-14.242,10.062
	c-60.165,20.814-128,20.814-188.165,0c-8.589-3.365-21.943-14.461-22.35-26.979c0.209-6.259,3.647-12.173,8.108-16.927
	c4.462-4.765,9.947-8.37,14.242-10.052c6.865-2.382,13.834-4.483,20.888-6.322c47.616-12.392,98.774-12.392,146.39,0
	c7.053,1.839,14.023,3.939,20.887,6.322C371.807,222.898,385.16,233.995,385.568,246.523z"/>
<path style="fill:#B5A292;" d="M190.597,273.504c-8.589-3.365-21.943-14.461-22.35-26.979c0.209-6.259,3.647-12.173,8.108-16.927
	c4.462-4.765,9.947-8.37,14.242-10.052c6.865-2.382,13.834-4.483,20.888-6.322c21.31-5.546,43.329-8.603,65.423-9.184
	c-27.274-0.719-54.661,2.337-80.967,9.184c-7.053,1.839-14.023,3.939-20.888,6.322c-4.295,1.682-9.78,5.287-14.242,10.052
	c-4.462,4.754-7.899,10.668-8.108,16.927c0.408,12.518,13.761,23.615,22.35,26.979c32.518,11.249,67.277,16.407,101.855,15.496
	C247.51,288.224,218.243,283.068,190.597,273.504z"/>
<path style="fill:#362928;" d="M338.732,99.316c-44.503,26.45-94.69,26.45-139.192,0c-6.353-4.265-16.231-18.368-16.533-34.274l0,0
	c0.302-15.905,10.18-30.008,16.533-34.274c44.502-26.45,94.689-26.451,139.192,0c6.353,4.265,16.231,18.368,16.533,34.274l0,0
	C354.964,80.948,345.085,95.051,338.732,99.316z"/>
<path style="fill:#2E2322;" d="M217.695,99.316c-6.353-4.265-16.231-18.368-16.533-34.274l0,0
	c0.302-15.905,10.18-30.008,16.533-34.274c19.406-11.534,39.893-18.035,60.519-19.51c-26.673-1.907-53.577,4.594-78.673,19.51
	c-6.353,4.265-16.231,18.368-16.533,34.274l0,0c0.302,15.905,10.18,30.008,16.533,34.274c25.096,14.916,52,21.416,78.672,19.509
	C257.588,117.351,237.1,110.85,217.695,99.316z"/>
<path style="fill:#CFBAA7;" d="M450.937,161.333c-0.334,6.259-6.06,12.163-13.49,16.927c-7.429,4.765-16.562,8.38-23.709,10.052
	c-100.112,20.814-213.023,20.814-313.135,0c-14.294-3.354-36.519-14.461-37.198-26.979c0.334-6.259,6.06-12.163,13.49-16.927
	c3.668-2.351,7.753-4.42,11.807-6.123c4.159-1.735,8.286-3.082,11.901-3.929c71.962-14.963,150.549-19.174,226.231-12.622
	c29.602,2.56,58.765,6.771,86.904,12.622C428.033,137.708,450.258,148.815,450.937,161.333z"/>
<path style="fill:#B5A292;" d="M118.628,188.313c-14.294-3.354-36.519-14.461-37.198-26.979c0.334-6.259,6.06-12.163,13.49-16.927
	c3.668-2.351,7.753-4.42,11.807-6.123c4.159-1.735,8.286-3.082,11.901-3.929c47.137-9.801,97.118-14.988,147.263-15.56
	c-56.153-0.599-112.502,4.584-165.287,15.56c-3.615,0.846-7.743,2.194-11.901,3.929c-4.054,1.703-8.14,3.772-11.807,6.123
	c-7.429,4.765-13.155,10.668-13.49,16.927c0.679,12.518,22.904,23.625,37.198,26.979c52.879,10.994,109.331,16.176,165.58,15.555
	C215.941,203.315,165.86,198.133,118.628,188.313z"/>
<path d="M0.009,437.195c1.067,23.111,31.858,41.882,53.38,47.827c0.074,0.021,0.149,0.041,0.225,0.059
	c64.421,15.755,132.513,23.743,202.385,23.743s137.966-7.988,202.387-23.743c0.075-0.019,0.15-0.038,0.226-0.059
	c21.523-5.947,52.312-24.717,53.38-47.827c0.011-0.24,0.011-0.482,0-0.723c-1.067-23.111-31.858-41.882-53.38-47.827
	c-4.172-1.154-8.489,1.295-9.64,5.467c-1.153,4.171,1.295,8.488,5.467,9.64c16.917,4.674,40.838,19.457,41.874,33.081
	c-1.034,13.594-24.855,28.344-41.767,33.051c-126.189,30.839-270.909,30.838-397.095,0c-16.911-4.707-40.73-19.456-41.765-33.051
	c1.034-13.596,24.856-28.345,41.767-33.051c54.04-13.206,111.133-20.803,168.756-22.754c11.203,0.669,22.456,1.005,33.708,1.005
	c10.208,0,20.413-0.288,30.583-0.839c42.082,1.65,83.948,6.317,124.617,14.041c4.253,0.81,8.354-1.984,9.162-6.237
	s-1.984-8.354-6.237-9.162c-17.006-3.23-34.221-5.917-51.57-8.102c8.162-1.626,16.235-3.441,24.194-5.453l0.231-0.063
	c13.611-3.886,35.498-16.598,36.283-34.164l0.016-0.35l-0.016-0.35c-0.785-17.567-22.672-30.278-36.283-34.164l-0.231-0.063
	c-15.405-3.893-31.232-7.061-47.321-9.511c7.586-1.936,15.076-4.169,22.433-6.716l0.29-0.108
	c11.028-4.311,26.797-17.717,27.329-34.022l0.008-0.256l-0.008-0.256c-0.532-16.305-16.302-29.711-27.329-34.022l-0.29-0.108
	c-5.811-2.011-11.702-3.83-17.659-5.461c22.864-2.583,45.36-6.146,67.215-10.691c0.066-0.014,0.132-0.028,0.196-0.044
	c16.202-3.807,42.266-16.453,43.23-34.183c0.016-0.283,0.016-0.566,0-0.85c-0.962-17.731-27.026-30.376-43.23-34.183
	c-0.066-0.016-0.131-0.03-0.196-0.044c-28.321-5.889-57.814-10.119-87.821-12.689c5.14-2.336,10.221-4.97,15.22-7.941
	c0.123-0.073,0.245-0.15,0.365-0.23c8.087-5.43,19.64-21.626,20-40.632c0.002-0.099,0.002-0.199,0-0.298
	c-0.046-2.417-0.281-4.888-0.698-7.342c-0.726-4.266-4.77-7.135-9.04-6.411c-4.266,0.726-7.138,4.773-6.411,9.04
	c0.279,1.635,0.438,3.271,0.476,4.863c-0.303,12.712-8.344,24.457-12.912,27.663c-18.934,11.212-38.722,17.374-58.597,18.519
	c-5.495-0.123-10.993-0.19-16.494-0.205c-18.89-1.559-37.665-7.653-55.669-18.314c-4.569-3.206-12.609-14.951-12.912-27.664
	c0.303-12.712,8.344-24.457,12.912-27.664c42.241-25.015,88.743-24.972,130.971,0.126c3.721,2.212,8.53,0.987,10.741-2.732
	c2.211-3.721,0.987-8.53-2.732-10.741c-46.775-27.8-100.426-27.8-147.2,0c-0.123,0.073-0.245,0.15-0.365,0.231
	c-8.088,5.43-19.64,21.626-20,40.632c-0.002,0.099-0.002,0.199,0,0.298c0.36,19.005,11.913,35.201,20,40.631
	c0.119,0.079,0.24,0.157,0.365,0.23c3.954,2.35,7.961,4.485,12.006,6.438c-37.134,2.225-73.723,6.953-108.537,14.192
	c-0.066,0.014-0.132,0.028-0.196,0.044c-16.202,3.807-42.266,16.453-43.228,34.183c-0.016,0.283-0.016,0.566,0,0.85
	c0.962,17.73,27.026,30.376,43.228,34.183c4.215,0.988,8.431-1.624,9.422-5.837c0.99-4.213-1.624-8.431-5.837-9.422
	c-14.475-3.4-30.101-13.185-31.116-19.349c1.013-6.151,16.574-15.906,31.021-19.327c50.731-10.541,105.304-15.634,159.759-15.309
	c2.359,0.122,4.719,0.205,7.079,0.205c1.286,0,2.573-0.03,3.86-0.067c47.521,0.92,94.75,5.966,139.049,15.171
	c14.448,3.421,30.008,13.175,31.021,19.327c-1.012,6.151-16.573,15.906-31.021,19.327c-87.79,18.243-186.082,20.38-276.796,6.019
	c-4.274-0.678-8.289,2.24-8.966,6.515c-0.677,4.275,2.24,8.289,6.515,8.966c16.809,2.661,33.876,4.758,51.084,6.311
	c-3.827,1.143-7.626,2.364-11.389,3.665l-0.29,0.107c-11.028,4.311-26.797,17.717-27.329,34.022l-0.008,0.256l0.008,0.256
	c0.532,16.305,16.303,29.711,27.329,34.022l0.29,0.107c5.308,1.837,10.688,3.505,16.12,5.024
	c-20.266,2.611-40.185,6.335-59.442,11.202l-0.231,0.063c-13.611,3.886-35.498,16.598-36.283,34.164l-0.016,0.35l0.016,0.35
	c0.785,17.567,22.672,30.278,36.283,34.164l0.231,0.063c7.004,1.77,14.102,3.378,21.265,4.849
	c-32.965,3.958-65.401,9.769-96.82,17.453c-0.075,0.019-0.15,0.038-0.225,0.059c-21.523,5.945-52.313,24.715-53.38,47.827
	C-0.003,436.714-0.003,436.955,0.009,437.195z M160.549,246.52c0.464-8.01,10.398-16.893,17.227-19.627
	c58.069-20.055,124.649-20.055,182.719,0c6.83,2.734,16.763,11.618,17.227,19.627c-0.464,8.01-10.398,16.893-17.227,19.627
	c-58.069,20.054-124.648,20.055-182.718,0C170.948,263.414,161.013,254.531,160.549,246.52z M133.131,351.119
	c-10.831-3.129-24.06-12.364-24.791-19.411c0.731-7.048,13.962-16.283,24.793-19.412c80.585-20.344,172.988-20.343,253.574,0
	c10.831,3.128,24.061,12.363,24.792,19.411c-0.731,7.048-13.96,16.282-24.791,19.411c-30.791,7.773-63.31,12.566-96.234,14.399
	c-21.335-0.82-42.722-0.871-64.042-0.168C194.51,363.4,163.008,358.661,133.131,351.119z"/>
<path d="M43.623,442.528c-4.207-1.029-8.446,1.545-9.474,5.75c-1.028,4.204,1.546,8.446,5.75,9.474
	c64.421,15.755,132.514,23.743,202.386,23.744c0.004,0-0.003,0,0.001,0c69.868,0,137.968-7.989,202.386-23.744
	c4.204-1.028,6.779-5.269,5.75-9.474c-1.028-4.205-5.266-6.776-9.474-5.75C314.697,473.404,169.876,473.404,43.623,442.528z"/>
<path d="M329.893,345.731c-0.651-4.279-4.645-7.222-8.926-6.571c-57.265,8.701-118.675,5.53-172.921-8.927
	c-4.18-1.114-8.476,1.372-9.59,5.555c-1.114,4.182,1.372,8.476,5.555,9.59c35.854,9.555,73.635,14.375,111.699,14.375
	c22.553,0,45.211-1.694,67.612-5.096C327.601,354.006,330.543,350.01,329.893,345.731z"/>
<path d="M315.999,273.743c4.272-0.697,7.17-4.724,6.473-8.996s-4.722-7.169-8.996-6.473c-40.706,6.639-82.441,3.296-120.694-9.665
	c-4.098-1.388-8.548,0.808-9.937,4.908c-1.389,4.099,0.808,8.548,4.908,9.937c27.075,9.174,55.78,13.818,84.698,13.818
	C286.972,277.27,301.549,276.098,315.999,273.743z"/>
<path d="M93.92,161.587c-0.913,4.231,1.777,8.401,6.008,9.313c44.581,9.618,91.684,14.896,140.002,15.688
	c0.044,0,0.088,0.001,0.131,0.001c4.268,0,7.763-3.424,7.834-7.708c0.071-4.328-3.379-7.893-7.707-7.964
	c-47.295-0.775-93.373-5.935-136.954-15.338C99.005,154.669,94.833,157.355,93.92,161.587z"/>
<path d="M292.509,185.633c0.139,0,0.28-0.003,0.421-0.01c29.569-1.566,58.826-4.864,86.956-9.801
	c4.263-0.748,7.113-4.811,6.365-9.074c-0.748-4.263-4.81-7.107-9.074-6.364c-27.512,4.83-56.136,8.054-85.076,9.587
	c-4.323,0.229-7.64,3.918-7.411,8.24C284.912,182.392,288.371,185.633,292.509,185.633z"/>
<circle cx="211.718" cy="68.12" r="7.837"/>
<circle cx="385.568" cy="419.498" r="7.837"/>
<circle cx="370.699" cy="329.971" r="7.837"/>
<circle cx="227.391" cy="232.817" r="7.837"/>
<circle cx="187.016" cy="147.135" r="7.837"/>
<g>
</g>
<g>
</g>
<g>
</g>
<g>
</g>
<g>
</g>
<g>
</g>
<g>
</g>
<g>
</g>
<g>
</g>
<g>
</g>
<g>
</g>
<g>
</g>
<g>
</g>
<g>
</g>
<g>
</g>
</svg>
