<?xml version="1.0" encoding="iso-8859-1"?>
<!-- Generator: Adobe Illustrator 19.0.0, SVG Export Plug-In . SVG Version: 6.00 Build 0)  -->
<svg version="1.1" id="Layer_1" xmlns="http://www.w3.org/2000/svg" xmlns:xlink="http://www.w3.org/1999/xlink" x="0px" y="0px"
	 viewBox="0 0 512 512" style="enable-background:new 0 0 512 512;" xml:space="preserve">
<path style="fill:#EBC7A4;" d="M61.069,327.445c0,0,0.264,61.52,46.531,60.739l15.359,0.007l-5.659-72.188
	C117.3,316.003,63.607,290.126,61.069,327.445z"/>
<g>
	<path style="fill:#FFE8D1;" d="M450.931,327.445c0,0-0.264,61.52-46.531,60.739l-15.359,0.007l5.659-72.188
		C394.7,316.003,448.393,290.126,450.931,327.445z"/>
	<path style="fill:#FFE8D1;" d="M407.949,353.531c-4.347,35.579-3.354,72.37-19.487,100.676
		c-16.854,29.612-52.443,49.957-132.462,49.957c-156.547,0-143.036-77.845-151.949-150.632
		c-9.467-77.302-5.298-130.769,21.525-163.934c23.709-29.288,65.097-42.726,130.414-42.726
		C395.264,146.871,425.775,207.956,407.949,353.531z"/>
</g>
<g>
	<path style="fill:#EBC7A4;" d="M123.73,353.531c-9.467-77.302-5.298-130.769,21.525-163.934
		c22.487-27.78,60.895-41.29,120.523-42.61c-3.208-0.07-6.456-0.116-9.788-0.116c-65.317,0-106.705,13.437-130.414,42.726
		c-26.823,33.165-30.992,86.632-21.525,163.934c8.913,72.788-4.598,150.632,151.949,150.632c3.355,0,6.626-0.039,9.826-0.11
		C119.709,500.817,132.451,424.754,123.73,353.531z"/>
	<path style="fill:#EBC7A4;" d="M224.653,327.445c0,0,17.704,1.386,18.255,32.627s0,41.691,0,41.691s-17.733-14.601-18.255-32.378
		C224.131,351.608,224.653,327.445,224.653,327.445z"/>
</g>
<path style="fill:#362928;" d="M320.376,56.111c0,4.984-1.003,9.791-2.873,14.315c-8.14,19.675-32.601,33.97-61.503,33.97
	s-53.363-14.294-61.503-33.97c-1.87-4.524-2.873-9.331-2.873-14.315c0-26.655,28.829-48.274,64.376-48.274
	S320.376,29.456,320.376,56.111z"/>
<path style="fill:#2E2322;" d="M213.305,70.426c-1.87-4.524-2.873-9.331-2.873-14.315c0-24.259,23.882-44.341,54.972-47.756
	c-3.071-0.338-6.209-0.518-9.404-0.518c-35.547,0-64.376,21.619-64.376,48.274c0,4.984,1.003,9.791,2.873,14.315
	c8.14,19.675,32.601,33.97,61.503,33.97c3.195,0,6.333-0.185,9.404-0.522C240.701,101.16,220.546,87.926,213.305,70.426z"/>
<path style="fill:#362928;" d="M408.267,327.44h-4.44c-2.213,0-4.046-1.722-4.172-3.932
	c-1.456-25.463-14.398-164.476-122.443-115.782c-5.475,2.466-11.348,3.762-17.23,3.845c-5.611,0.094-11.233-0.92-16.541-3.051
	c-117.532-47.246-129.857,89.623-131.127,114.96c-0.112,2.223-1.949,3.96-4.173,3.96h-8.686
	c3.448-66.539-76.633-157.821-29.926-184.56c9.258-5.308,23.521-8.067,44.408-7.597c25.266-49.413,81.92-74.637,142.023-74.637H256
	c60.123-0.01,116.788,25.213,142.064,74.637c123.982-2.813,14.31,108.437,14.374,187.955
	C412.44,325.556,410.584,327.44,408.267,327.44z"/>
<g>
	<path style="fill:#2E2322;" d="M387.125,142.879c0,0-57.783,8.84-82.547,36.843c0,0,32.392-8.359,56.424-16.196
		S387.125,142.879,387.125,142.879z"/>
	<path style="fill:#2E2322;" d="M125.236,142.879c0,0,57.783,8.84,82.547,36.843c0,0-32.392-8.359-56.424-16.196
		S125.236,142.879,125.236,142.879z"/>
	<path style="fill:#2E2322;" d="M88.336,142.879c9.258-5.308,23.521-8.067,44.408-7.597c23.949-46.838,76.103-71.926,132.661-74.414
		c-3.124-0.138-6.258-0.223-9.405-0.222h-0.042c-60.103,0-116.757,25.224-142.023,74.637c-20.888-0.47-35.15,2.288-44.408,7.597
		c-46.707,26.739,33.374,118.021,29.926,184.56h8.686c2.225,0,4.063-1.738,4.173-3.96c0.254-5.06,0.95-14.573,2.836-26.178
		C101.2,235.859,48.38,165.753,88.336,142.879z"/>
	<path style="fill:#2E2322;" d="M328.127,198.096c61.541,8.684,70.343,104.681,71.527,125.412c0.126,2.21,1.959,3.932,4.172,3.932
		h4.44c2.318,0,4.173-1.884,4.171-4.202c-0.006-8.297,1.185-16.94,3.178-25.762C409.203,256.877,389.333,190.271,328.127,198.096z"
		/>
</g>
<path d="M447.881,304.943c-6.161-4.484-14.462-6.228-24.755-5.237c4.3-19.365,12.834-40.004,21.185-60.184
	c15.676-37.882,29.213-70.596,14.263-92.423c-9.041-13.2-27.337-19.664-55.849-19.704c-12.972-23.066-33.314-42.007-59.107-54.968
	c-5.262-2.644-10.734-5.016-16.37-7.14c0.634-3.02,0.964-6.085,0.964-9.175C328.213,25.172,295.818,0,256,0
	s-72.213,25.172-72.213,56.111c0,3.091,0.33,6.158,0.964,9.178c-6.212,2.343-12.227,4.986-17.986,7.961
	c-3.845,1.985-5.353,6.713-3.367,10.559c1.986,3.845,6.713,5.354,10.559,3.366c23.678-12.231,52.041-18.695,82.028-18.695
	c0.013-0.001,0.018,0,0.027,0c61.114,0,112.875,26.967,135.075,70.372c1.369,2.678,4.17,4.328,7.154,4.266
	c25.226-0.576,41.172,3.748,47.4,12.839c10.152,14.822-2.461,45.302-15.815,77.573c-9.581,23.153-19.384,46.88-23.366,69.651
	c-0.284,0.087-0.573,0.172-0.852,0.259c-2.087-15.833-6.269-37.301-14.638-57.331c-1.669-3.994-6.262-5.883-10.253-4.209
	c-3.994,1.669-5.879,6.258-4.21,10.253c14.377,34.408,15.478,75.065,15.487,75.469c0.095,4.259,3.575,7.662,7.835,7.662h2.258
	c-0.557,5.605-1.194,11.38-1.921,17.291c-1.042,8.455-1.783,17.016-2.5,25.296c-0.278,3.208-0.555,6.408-0.848,9.597
	c-0.62,6.77-1.214,12.266-1.869,17.298c-0.559,4.291,2.467,8.224,6.758,8.783c0.344,0.045,0.684,0.066,1.022,0.066
	c3.878,0,7.247-2.878,7.762-6.825c0.448-3.441,0.867-7.087,1.283-11.153c10.407-1.234,19.382-5.49,26.738-12.725
	c19.865-19.534,20.239-53.969,20.245-55.426c0-0.188-0.005-0.375-0.018-0.563C458.079,317.099,454.424,309.705,447.881,304.943z
	 M255.985,52.806c-19.573,0-38.546,2.586-56.209,7.554c-0.21-1.407-0.316-2.825-0.316-4.249c0-22.297,25.363-40.438,56.539-40.438
	c31.177,0,56.539,18.14,56.539,40.438c0,1.421-0.106,2.838-0.315,4.243c-17.671-4.968-36.658-7.548-56.209-7.548
	C256.005,52.807,255.996,52.806,255.985,52.806z M427.492,371.769c-4.044,3.963-8.749,6.521-14.23,7.74
	c0.008-0.096,0.017-0.192,0.025-0.288c0.705-8.141,1.434-16.558,2.441-24.735c0.907-7.384,1.684-14.577,2.331-21.479
	c0.057-0.056,0.119-0.108,0.174-0.166c1.48-1.559,2.255-3.656,2.143-5.802c-0.189-3.641-0.098-7.376,0.217-11.181
	c8.199-1.412,14.517-0.824,18.065,1.759c0.96,0.7,3.858,2.808,4.425,10.05C443.01,330.612,441.928,357.616,427.492,371.769z"/>
<path d="M211.884,307.357c-0.132,0.026-13.305,2.629-28.43-0.038c-12.128-2.136-20.94-10.361-21.169-10.579
	c-3.106-2.994-8.054-2.915-11.062,0.183c-3.016,3.105-2.941,8.068,0.163,11.081c0.492,0.478,12.251,11.738,29.349,14.751
	c6.084,1.071,11.89,1.429,16.939,1.429c9.899,0,16.886-1.379,17.318-1.467c4.242-0.858,6.985-4.994,6.126-9.236
	C220.261,309.242,216.126,306.499,211.884,307.357z"/>
<path d="M349.694,296.76c-0.086,0.084-8.94,8.409-21.149,10.559c-14.983,2.64-28.313,0.062-28.43,0.038
	c-4.242-0.861-8.377,1.884-9.236,6.125c-0.859,4.241,1.884,8.378,6.126,9.236c0.434,0.088,7.418,1.467,17.318,1.467
	c5.049,0,10.855-0.358,16.939-1.429c17.097-3.012,28.856-14.273,29.348-14.751c3.105-3.015,3.179-7.977,0.163-11.081
	C357.762,293.819,352.8,293.745,349.694,296.76z"/>
<path d="M397.007,434.912c-4.034-1.575-8.577,0.418-10.15,4.45c-10.354,26.522-34.584,56.965-130.857,56.965
	c-57.43,0-95.342-10.691-115.899-32.685c-18.369-19.652-22.275-47.248-24.933-76.18c-0.297-3.224-0.578-6.465-0.859-9.714
	c-0.713-8.238-1.45-16.755-2.48-25.171c-0.726-5.913-1.363-11.689-1.921-17.294h2.258c4.289,0,7.782-3.453,7.837-7.743
	c0.01-0.821,1.532-82.541,44.46-111.16c19.348-12.898,44.938-13.096,76.058-0.586c12.72,5.113,27.266,4.776,39.908-0.922
	c32.601-14.694,57.628-12.618,76.517,6.344c3.054,3.066,8.016,3.075,11.082,0.022c3.066-3.053,3.076-8.016,0.022-11.082
	c-11.047-11.09-24.129-17.761-38.883-19.831c-16.404-2.302-34.971,1.151-55.179,10.258c-8.773,3.955-18.842,4.199-27.623,0.669
	c-36.225-14.562-66.719-13.85-90.631,2.112c-34.14,22.787-45.607,70.867-49.457,100.043c-0.242-0.075-0.495-0.149-0.742-0.224
	c-3.982-22.77-13.784-46.498-23.365-69.65c-13.354-32.272-25.967-62.752-15.815-77.573c6.227-9.092,22.174-13.429,47.4-12.839
	c2.988,0.047,5.786-1.589,7.154-4.266c6.214-12.149,14.659-23.085,25.101-32.502c3.214-2.899,3.469-7.854,0.571-11.069
	c-2.899-3.213-7.853-3.467-11.068-0.571c-10.617,9.575-19.428,20.554-26.242,32.684c-28.508,0.041-46.806,6.504-55.847,19.704
	c-14.95,21.827-1.413,54.542,14.263,92.423c8.352,20.181,16.887,40.822,21.186,60.189c-10.288-0.996-18.589,0.746-24.751,5.229
	c-6.547,4.762-10.203,12.156-10.868,21.98c-0.013,0.188-0.019,0.375-0.018,0.563c0.006,1.457,0.38,35.894,20.245,55.429
	c7.355,7.233,16.324,11.489,26.728,12.722c2.982,29.293,8.23,57.088,28.44,78.71C152.664,500.035,193.131,512,256,512
	c82.525,0,127.385-20.645,145.457-66.939C403.031,441.029,401.038,436.484,397.007,434.912z M68.916,327.667
	c0.566-7.246,3.465-9.353,4.426-10.052c3.547-2.58,9.854-3.168,18.065-1.751c0.315,3.804,0.405,7.536,0.216,11.174
	c-0.112,2.146,0.662,4.243,2.143,5.802c0.055,0.059,0.117,0.109,0.174,0.166c0.647,6.902,1.424,14.094,2.331,21.475
	c0.995,8.136,1.72,16.514,2.421,24.616c0.011,0.131,0.023,0.261,0.034,0.393c-5.473-1.219-10.181-3.758-14.22-7.718
	C70.058,357.606,68.988,330.561,68.916,327.667z"/>
<g>
</g>
<g>
</g>
<g>
</g>
<g>
</g>
<g>
</g>
<g>
</g>
<g>
</g>
<g>
</g>
<g>
</g>
<g>
</g>
<g>
</g>
<g>
</g>
<g>
</g>
<g>
</g>
<g>
</g>
</svg>
