<?xml version="1.0" encoding="iso-8859-1"?>
<!-- Generator: Adobe Illustrator 19.0.0, SVG Export Plug-In . SVG Version: 6.00 Build 0)  -->
<svg version="1.1" id="Layer_1" xmlns="http://www.w3.org/2000/svg" xmlns:xlink="http://www.w3.org/1999/xlink" x="0px" y="0px"
	 viewBox="0 0 512 512" style="enable-background:new 0 0 512 512;" xml:space="preserve">
<path style="fill:#B36E44;" d="M504.163,356.541v43.886c0,2.299-1.87,4.18-4.18,4.18H12.016c-2.309,0-4.18-1.881-4.18-4.18v-43.886
	c0-2.309,1.87-4.18,4.18-4.18h487.967C502.293,352.361,504.163,354.231,504.163,356.541z"/>
<path style="fill:#8C5635;" d="M26.645,400.426v-43.886c0-2.309,1.87-4.18,4.18-4.18H12.016c-2.309,0-4.18,1.87-4.18,4.18v43.886
	c0,2.299,1.87,4.18,4.18,4.18h18.808C28.515,404.606,26.645,402.725,26.645,400.426z"/>
<path style="fill:#B36E44;" d="M132.869,396.362v72.641c0,2.309-1.87,4.18-4.18,4.18H68.472c-2.309,0-4.18-1.87-4.18-4.18v-72.641
	H132.869z"/>
<path style="fill:#8C5635;" d="M83.101,396.372v76.81H68.472c-2.309,0-4.18-1.87-4.18-4.18v-72.464c0-0.094,0.052-0.167,0.115-0.167
	H83.101z"/>
<path style="fill:#B36E44;" d="M447.707,396.372v72.631c0,2.309-1.87,4.18-4.18,4.18H383.31c-2.309,0-4.18-1.87-4.18-4.18v-72.631
	H447.707z"/>
<path style="fill:#8C5635;" d="M397.939,396.372v76.81H383.31c-2.309,0-4.18-1.87-4.18-4.18v-72.464
	c0-0.094,0.052-0.167,0.115-0.167H397.939z"/>
<circle style="fill:#362928;" cx="256" cy="195.584" r="156.766"/>
<circle style="fill:#F7EDE3;" cx="256" cy="195.584" r="130.09"/>
<path style="fill:#DBD2CA;" d="M274.808,320.983c-71.845,0-130.087-58.242-130.087-130.086c0-57.553,37.377-106.369,89.179-123.515
	c-61.318,10.495-107.987,63.898-107.987,128.208c0,71.844,58.242,130.086,130.087,130.086c14.292,0,28.043-2.312,40.908-6.57
	C289.724,320.334,282.342,320.983,274.808,320.983z"/>
<path style="fill:#A9CF54;" d="M294.17,211.404c-2.205,5.329,0.94,14.618-3.396,18.954c-4.336,4.336-13.625,1.191-18.965,3.406
	c-5.527,2.288-9.916,10.992-15.809,10.992c-3.835,0-7.022-3.678-10.313-6.875c-1.766-1.735-3.563-3.312-5.496-4.117
	c-5.339-2.215-14.629,0.93-18.965-3.406s-1.191-13.625-3.396-18.954c-2.288-5.538-11.003-9.927-11.003-15.82
	c0-5.893,8.714-10.282,11.003-15.809c2.205-5.339-0.94-14.618,3.396-18.954s13.625-1.191,18.965-3.406
	c0.073-0.031,0.136-0.063,0.209-0.094c3.521-1.567,6.593-5.684,9.895-8.391c1.797-1.473,3.657-2.518,5.705-2.518
	c5.893,0,10.282,8.714,15.809,11.003c5.339,2.215,14.629-0.93,18.965,3.406c4.336,4.336,1.191,13.615,3.396,18.954
	c2.288,5.527,11.003,9.916,11.003,15.809C305.173,201.478,296.458,205.866,294.17,211.404z"/>
<path style="fill:#92B83D;" d="M239.24,163.506c-4.002,4.002-1.108,12.57-3.145,17.492c-2.111,5.099-10.146,9.153-10.146,14.587
	c0,5.444,8.035,9.488,10.146,14.597c2.038,4.921-0.042,12.81,3.145,17.492c2.633,3.877,4.754,7.252,6.447,10.209
	c-1.766-1.735-3.563-3.312-5.496-4.117c-5.339-2.215-14.629,0.93-18.965-3.406s-1.191-13.625-3.396-18.954
	c-2.288-5.538-11.003-9.927-11.003-15.82c0-5.893,8.714-10.282,11.003-15.809c2.205-5.339-0.94-14.618,3.396-18.954
	s13.625-1.191,18.965-3.406c0.073-0.031,0.136-0.063,0.209-0.094c3.521-1.567,6.593-5.684,9.895-8.391
	c-0.366,0.815-0.805,1.588-1.348,2.32C245.75,155.513,243.242,159.504,239.24,163.506z"/>
<circle cx="331.87" cy="137.551" r="7.837"/>
<circle cx="310.941" cy="259.334" r="7.837"/>
<circle cx="250.441" cy="109.036" r="7.837"/>
<circle cx="190.568" cy="232.856" r="7.837"/>
<circle cx="295.121" cy="103.477" r="7.837"/>
<circle cx="344.252" cy="229.899" r="7.837"/>
<circle cx="242.604" cy="267.17" r="7.837"/>
<circle cx="198.405" cy="269.825" r="7.837"/>
<circle cx="176.849" cy="152.284" r="7.837"/>
<circle cx="161.176" cy="195.125" r="7.837"/>
<circle cx="206.169" cy="109.036" r="7.837"/>
<circle cx="287.284" cy="285.362" r="7.837"/>
<circle cx="352.089" cy="186.222" r="7.837"/>
<path d="M499.984,344.518H326.052c55.827-26.365,94.552-83.206,94.552-148.93c0-35.744-11.264-69.742-32.574-98.314
	c-2.588-3.47-7.498-4.184-10.967-1.597c-3.469,2.588-4.184,7.498-1.597,10.967c19.276,25.846,29.465,56.602,29.465,88.945
	c0,82.121-66.81,148.93-148.93,148.93s-148.93-66.81-148.93-148.93S173.879,46.656,256,46.656c36.431,0,71.494,13.291,98.73,37.426
	c3.24,2.871,8.192,2.57,11.062-0.668c2.87-3.239,2.571-8.192-0.668-11.062C335.02,45.675,296.265,30.983,256,30.983
	c-90.763,0-164.604,73.841-164.604,164.604c0,65.724,38.725,122.566,94.552,148.93H95.783c-4.328,0-7.837,3.509-7.837,7.837
	c0,4.328,3.509,7.837,7.837,7.837h400.544v36.571h-52.801h-60.22H15.673V360.19h35.59c4.328,0,7.837-3.509,7.837-7.837
	c0-4.328-3.509-7.837-7.837-7.837H12.016C5.391,344.517,0,349.908,0,356.533v43.886c0,6.626,5.391,12.016,12.016,12.016h44.44
	v56.566c0,6.626,5.391,12.016,12.016,12.016h60.217c6.626,0,12.016-5.391,12.016-12.016v-56.566H371.29v7.873
	c0,4.328,3.509,7.837,7.837,7.837c4.328,0,7.837-3.509,7.837-7.837v-7.873h52.905v52.905h-52.905v-6.11
	c0-4.328-3.509-7.837-7.837-7.837c-4.328,0-7.837,3.509-7.837,7.837v9.767c0,6.626,5.391,12.016,12.016,12.016h60.22
	c6.626,0,12.016-5.391,12.016-12.016v-56.562h44.442c6.626,0,12.016-5.391,12.016-12.016v-43.886
	C512,349.909,506.609,344.518,499.984,344.518z M125.032,465.345H72.129v-52.903h52.903V465.345z"/>
<path d="M256,57.664c-76.051,0-137.923,61.872-137.923,137.923S179.949,333.51,256,333.51s137.923-61.872,137.923-137.923
	S332.051,57.664,256,57.664z M256,317.836c-67.408,0-122.25-54.84-122.25-122.25S188.592,73.338,256,73.338
	s122.25,54.84,122.25,122.25S323.408,317.836,256,317.836z"/>
<path d="M304.97,210.285c3.582-3.599,8.04-8.076,8.04-14.698c0-6.62-4.459-11.1-8.04-14.698c-1.341-1.347-3.177-3.191-3.558-4.112
	c-0.32-0.787-0.31-3.362-0.305-5.066c0.018-4.896,0.041-11.603-4.795-16.437c-4.835-4.836-11.539-4.811-16.437-4.795
	c-1.704,0.005-4.279,0.015-5.066-0.305c-0.92-0.38-2.765-2.217-4.111-3.557c-3.599-3.583-8.077-8.04-14.699-8.04
	s-11.1,4.459-14.698,8.04c-1.347,1.341-3.191,3.176-4.111,3.557c-0.787,0.32-3.36,0.312-5.067,0.305
	c-4.895-0.015-11.603-0.041-16.437,4.795c-4.836,4.836-4.813,11.541-4.795,16.437c0.005,1.703,0.015,4.279-0.305,5.066
	c-0.38,0.92-2.217,2.765-3.558,4.111c-3.582,3.599-8.04,8.076-8.04,14.698c0,6.622,4.459,11.1,8.04,14.699
	c1.341,1.347,3.176,3.191,3.557,4.111c0.32,0.787,0.31,3.362,0.305,5.067c-0.018,4.896-0.041,11.603,4.795,16.437
	c4.835,4.836,11.541,4.812,16.437,4.795c1.698-0.01,4.279-0.016,5.066,0.305c0.92,0.38,2.765,2.217,4.112,3.557
	c3.599,3.583,8.076,8.04,14.699,8.042c6.622,0,11.1-4.459,14.698-8.04c1.347-1.341,3.191-3.178,4.111-3.558
	c0.787-0.321,3.362-0.311,5.067-0.305c4.885,0.009,11.601,0.04,16.436-4.795c4.836-4.836,4.813-11.541,4.795-16.437
	c-0.005-1.704-0.015-4.28,0.305-5.067C301.794,213.476,303.63,211.632,304.97,210.285z M293.863,199.227
	c-2.515,2.527-5.366,5.39-6.933,9.177c-1.521,3.677-1.508,7.627-1.495,11.112c0.005,1.58,0.015,4.115-0.282,5.223
	c-1.109,0.297-3.639,0.29-5.223,0.282c-3.484-0.008-7.437-0.025-11.112,1.496c-3.788,1.567-6.651,4.418-9.177,6.933
	c-1.032,1.028-2.658,2.647-3.639,3.295c-0.981-0.648-2.608-2.267-3.64-3.296c-2.526-2.515-5.39-5.366-9.176-6.932
	c-3.347-1.384-6.92-1.498-10.164-1.498c-0.32,0-0.636,0.001-0.949,0.002c-1.578,0.003-4.114,0.015-5.223-0.282
	c-0.297-1.109-0.287-3.644-0.282-5.223c0.013-3.485,0.026-7.435-1.495-11.112c-1.566-3.788-4.418-6.651-6.932-9.177
	c-1.028-1.032-2.648-2.659-3.296-3.64c0.648-0.98,2.266-2.607,3.295-3.639c2.515-2.527,5.366-5.39,6.933-9.177
	c1.521-3.677,1.508-7.627,1.495-11.112c-0.005-1.58-0.014-4.115,0.282-5.223c1.109-0.296,3.645-0.285,5.223-0.282
	c3.486,0.009,7.437,0.025,11.114-1.495c3.787-1.567,6.65-4.418,9.176-6.932c1.033-1.028,2.659-2.648,3.64-3.296
	c0.981,0.648,2.608,2.266,3.64,3.296c2.527,2.515,5.391,5.366,9.176,6.932c3.677,1.521,7.632,1.508,11.112,1.495
	c1.579-0.003,4.115-0.015,5.223,0.282c0.296,1.11,0.287,3.644,0.282,5.223c-0.013,3.486-0.026,7.435,1.495,11.111
	c1.567,3.788,4.418,6.652,6.933,9.178c1.028,1.032,2.647,2.658,3.295,3.639C296.51,196.569,294.891,198.195,293.863,199.227z"/>
<g>
</g>
<g>
</g>
<g>
</g>
<g>
</g>
<g>
</g>
<g>
</g>
<g>
</g>
<g>
</g>
<g>
</g>
<g>
</g>
<g>
</g>
<g>
</g>
<g>
</g>
<g>
</g>
<g>
</g>
</svg>
