<?xml version="1.0" encoding="iso-8859-1"?>
<!-- Generator: Adobe Illustrator 19.0.0, SVG Export Plug-In . SVG Version: 6.00 Build 0)  -->
<svg version="1.1" id="Layer_1" xmlns="http://www.w3.org/2000/svg" xmlns:xlink="http://www.w3.org/1999/xlink" x="0px" y="0px"
	 viewBox="0 0 511.998 511.998" style="enable-background:new 0 0 511.998 511.998;" xml:space="preserve">
<g>
	<path style="fill:#B36E44;" d="M106.286,175.145c0.063,0.084,0.136,0.167,0.219,0.24h-0.01
		C106.422,175.312,106.349,175.229,106.286,175.145z"/>
	<path style="fill:#B36E44;" d="M106.506,175.385l10.658,10.648c-0.01-0.01-0.021-0.021-0.031-0.021L106.506,175.385z"/>
	<path style="fill:#B36E44;" d="M411.846,151.593c-12.539,16.321-25.59,32.141-39.152,47.459
		c-31.169,35.203-65.024,67.751-101.533,97.573c-1.609,1.327-3.229,2.644-4.848,3.95c-1.87,1.505-3.751,3.009-5.642,4.504
		c-3.772,2.999-7.576,5.966-11.41,8.892c-1.285,0.993-3.124,0.867-4.284-0.282l-80.374-80.269l-47.438-47.386
		c6.51-7.899,13.093-15.726,19.759-23.479l-13.343-13.333c29.863-36.456,62.433-70.269,97.677-101.376
		c8.725,2.027,18.902-1.473,27.909-1.034c10.825-9.77,21.849-19.32,33.081-28.651l129.317,129.16
		c0.073,0.073,0.146,0.157,0.209,0.239C412.723,148.72,412.765,150.391,411.846,151.593z"/>
</g>
<g>
	<path style="fill:#8C5635;" d="M117.165,186.032c50.144-60.781,104.467-117.537,165.08-167.87
		c-2.723-2.721-6.439-6.436-9.162-9.155c-1.154-1.153-2.987-1.276-4.282-0.283c-61.299,46.964-115.562,101.16-162.585,162.383
		c-0.993,1.293-0.869,3.124,0.284,4.277C109.342,178.221,114.324,183.195,117.165,186.032z"/>
	<path style="fill:#8C5635;" d="M382.442,118.237c-56.435,61.311-129.709,129.379-168.83,164.122
		c-4.504-4.493-10.36-10.347-14.864-14.84c56.884-50.082,130.079-123.005,169.785-163.182
		C372.691,108.496,378.294,114.088,382.442,118.237z"/>
	<path style="fill:#8C5635;" d="M333.839,69.783c-51.44,45.202-122.817,118.032-167.926,165.031
		c-4.357-4.357-8.725-8.714-13.082-13.061c61.712-68.608,139.64-140.466,167.372-165.595
		C324.748,60.703,329.294,65.237,333.839,69.783z"/>
</g>
<path style="fill:#BD391E;" d="M409.427,219.618L125.486,503.214c-1.275,1.264-3.323,1.264-4.598,0l-10.125-10.115l-10.543-10.533
	c-1.275-1.264-1.275-3.323,0-4.587l283.941-283.596c1.264-1.264,3.323-1.264,4.587,0l10.522,10.512l10.156,10.136
	C410.691,216.305,410.691,218.354,409.427,219.618z"/>
<path style="fill:#8C2B17;" d="M399.662,205.287L111.155,493.491l-10.935-10.924c-1.275-1.264-1.275-3.323,0-4.587l283.941-283.596
	c1.264-1.264,3.323-1.264,4.587,0L399.662,205.287z"/>
<path style="fill:#F75534;" d="M409.422,482.564l-9.718,9.707l-10.93,10.919c-0.24,0.24-0.522,0.439-0.815,0.606
	c-1.223,0.637-2.779,0.439-3.803-0.585l-0.272-0.272L100.215,219.616c-1.233-1.223-1.275-3.166-0.125-4.441
	c0.031-0.052,0.084-0.104,0.125-0.146l10.951-10.94l9.718-9.707c1.275-1.264,3.323-1.264,4.598,0l283.941,283.596
	C410.686,479.242,410.686,481.3,409.422,482.564z"/>
<path style="fill:#BD391E;" d="M399.704,492.271l-10.93,10.919c-0.24,0.24-0.522,0.439-0.815,0.606
	c-1.223,0.606-2.748,0.418-3.772-0.606l-0.303-0.251L100.215,219.616c-1.233-1.223-1.275-3.166-0.125-4.441
	c0.031-0.052,0.084-0.104,0.125-0.146l10.951-10.94L399.704,492.271z"/>
<g>
	<path style="fill:#FFE8D1;" d="M379.756,203.613c-1.402,2.045-4.497,1.816-5.6-0.403c-6.824-13.737,6.293-32.79-5.608-44.677
		c-13.333-13.316-32.269,8.155-46.028-5.587c-13.766-13.749,6.024-34.368-7.309-47.684c-13.333-13.316-33.976,6.45-47.736-7.292
		c-13.765-13.749,7.732-32.661-5.601-45.978c-11.911-11.896-31.017,1.244-44.772-5.619c-2.217-1.107-2.444-4.191-0.399-5.59
		c17.571-12.019,34.98-22.863,52.25-32.602c1.205-0.681,2.974-0.321,4.128,0.832l138.475,138.304
		c1.155,1.153,1.515,2.92,0.833,4.123C402.642,168.683,391.788,186.067,379.756,203.613z"/>
	<path style="fill:#FFE8D1;" d="M277.702,13.625l-3.354-3.354C275.413,11.326,276.552,12.465,277.702,13.625z"/>
	<path style="fill:#FFE8D1;" d="M271.171,296.635c-1.609,1.317-3.229,2.633-4.859,3.939c-1.87,1.505-3.751,3.009-5.642,4.504
		c-3.772,2.999-7.576,5.966-11.41,8.892c-1.285,0.993-3.124,0.867-4.284-0.282l-80.374-80.269l-47.438-47.386
		c6.51-7.899,13.093-15.726,19.759-23.479l134.238,134.071L271.171,296.635z"/>
</g>
<g>
	<path style="fill:#EBC7A4;" d="M136.923,162.554c-6.666,7.753-13.249,15.579-19.759,23.479l-10.658-10.648
		c-0.084-0.073-0.157-0.157-0.219-0.24c-0.01-0.01-0.01-0.01-0.01-0.01c-0.115-0.146-0.209-0.282-0.293-0.439
		c-0.648-1.108-0.585-2.539,0.23-3.594c5.684-7.387,11.473-14.681,17.366-21.88L136.923,162.554z"/>
	<path style="fill:#EBC7A4;" d="M282.247,18.16c-11.233,9.331-22.256,18.881-33.081,28.651c-9.007-0.439-19.184,3.062-27.909,1.034
		c-1.421-0.324-2.811-0.805-4.148-1.473c-2.226-1.108-2.445-4.19-0.408-5.59c17.575-12.016,34.983-22.862,52.255-32.601
		c1.003-0.564,2.414-0.418,3.511,0.324c0.031,0.021,0.073,0.052,0.104,0.084c0.052,0.042,0.104,0.073,0.157,0.115
		c0.031,0.031,0.073,0.063,0.104,0.084c0.115,0.094,0.199,0.167,0.251,0.219c0.366,0.366,0.742,0.742,1.139,1.139
		c0.042,0.042,0.084,0.084,0.125,0.125l3.354,3.354c0.01,0,0.021,0.01,0.031,0.021c1.149,1.149,2.299,2.299,3.448,3.448
		C281.547,17.47,281.902,17.825,282.247,18.16z"/>
</g>
<path style="fill:#8C5635;" d="M277.702,13.625l-3.354-3.354C275.413,11.326,276.552,12.465,277.702,13.625z"/>
<path d="M417.206,141.899c-0.041-0.042-0.074-0.087-0.115-0.129L278.626,3.472c-0.082-0.082-0.171-0.148-0.255-0.227
	c-0.2-0.189-0.403-0.372-0.612-0.544c-0.011-0.009-0.022-0.022-0.034-0.03c-0.05-0.041-0.103-0.078-0.155-0.118
	c-3.628-2.87-8.577-3.395-12.468-1.193c-3.104,1.75-6.217,3.552-9.334,5.376l-1.366-1.365c-3.062-3.059-8.024-3.056-11.082,0.007
	c-2.587,2.59-2.975,6.538-1.181,9.545c-9.978,6.148-19.962,12.623-29.862,19.396c-3.274,2.24-5.066,5.941-4.794,9.899
	c0.106,1.537,0.542,3.006,1.234,4.337c-9.358,8.457-18.614,17.171-27.594,26.011c-3.085,3.035-3.124,7.998-0.088,11.081
	c1.534,1.559,3.558,2.34,5.585,2.34c1.984,0,3.972-0.749,5.497-2.252c10.26-10.098,20.883-20.025,31.608-29.582
	c5.064,0.464,10.108-0.163,14.78-0.751c8.638-1.087,14.118-1.566,17.829,2.14c3.172,3.169,2.656,6.881,0.612,15.221
	c-1.89,7.713-4.391,17.941,1.967,27.146c-29.214,28.222-58.16,57.527-86.227,87.297l-38.519-38.471
	c12.08-14.501,24.594-28.595,37.426-42.116c2.98-3.14,2.85-8.1-0.288-11.079c-3.14-2.981-8.1-2.852-11.079,0.288
	c-12.743,13.426-25.176,27.407-37.192,41.785l-0.044-0.044l-5.48,6.692c-0.973,1.188-1.942,2.388-2.912,3.585
	c-0.107,0.132-0.213,0.262-0.32,0.394c-2.254,2.785-4.495,5.585-6.718,8.399c-0.353,0.446-0.703,0.893-1.055,1.341
	c-2.115,2.686-4.215,5.377-6.282,8.066c-0.075,0.098-0.153,0.194-0.228,0.293c-0.162,0.212-0.308,0.432-0.452,0.651
	c-0.042,0.064-0.091,0.124-0.132,0.189c-0.017,0.027-0.03,0.055-0.047,0.084c-2.507,4.054-2.122,9.32,0.964,12.976
	c0.2,0.239,0.408,0.473,0.63,0.698l11.155,11.142l-17.439,17.416c-2.096,2.094-3.249,4.878-3.249,7.838
	c0,2.961,1.154,5.745,3.25,7.84l123.787,123.633L94.696,472.422c-2.111,2.094-3.274,4.885-3.274,7.858
	c0,2.973,1.163,5.764,3.254,7.838l20.688,20.666c2.154,2.136,4.98,3.204,7.811,3.204c2.837,0,5.677-1.073,7.845-3.222
	l123.796-123.647l44.269,44.215c3.062,3.059,8.024,3.056,11.082-0.007c3.058-3.063,3.055-8.025-0.007-11.082l-49.757-49.695
	c-0.015-0.016-0.027-0.031-0.042-0.046c-0.016-0.016-0.032-0.028-0.048-0.044l-25.169-25.139c-0.017-0.017-0.03-0.036-0.047-0.052
	c-0.018-0.018-0.038-0.032-0.055-0.05L109.005,217.335l14.177-14.16l126.081,125.925c0.002,0.002,0.004,0.005,0.006,0.007
	c0.002,0.002,0.005,0.004,0.007,0.007l151.351,151.162l-14.177,14.16l-52.761-52.697c-3.062-3.057-8.024-3.056-11.082,0.007
	c-3.058,3.063-3.055,8.025,0.007,11.082l56.003,55.934c2.159,2.156,4.996,3.235,7.834,3.235c2.837-0.001,5.675-1.078,7.835-3.236
	l20.674-20.649c2.096-2.094,3.25-4.879,3.249-7.841c0-2.961-1.155-5.744-3.25-7.836L291.175,348.804l61.792-61.717
	c3.063-3.058,3.066-8.021,0.007-11.082c-3.059-3.064-8.022-3.065-11.082-0.007l-61.807,61.73l-14.179-14.161L376.758,212.85
	c0.116,0.003,0.232,0.013,0.347,0.013c3.657,0,7.02-1.762,9.112-4.812c0.695-1.014,1.377-2.031,2.066-3.047l12.343,12.324
	l-38.174,38.126c-3.063,3.058-3.066,8.021-0.007,11.082c1.531,1.533,3.538,2.299,5.545,2.299c2.004,0,4.008-0.764,5.538-2.291
	l41.434-41.382c4.302-4.303,4.312-11.323-0.005-15.675l-17.835-17.808c2.905-4.483,5.745-8.968,8.516-13.455
	c1.234,0.74,2.625,1.117,4.019,1.117c2.007,0,4.014-0.766,5.545-2.299c3.058-3.063,3.055-8.025-0.007-11.082l-1.355-1.353
	c1.821-3.104,3.621-6.207,5.369-9.299C421.613,151.061,420.785,145.572,417.206,141.899z M243.727,374.04L123.183,494.439
	l-14.174-14.16l120.542-120.395L243.727,374.04z M271.526,109.517c7.5,2.503,15.34,1.075,21.582-0.064
	c8.935-1.63,13.202-1.994,16.562,1.359c3.352,3.348,2.987,7.605,1.358,16.522c-1.138,6.223-2.563,14.036-0.08,21.517
	c-28.833,29.829-58.689,59.266-88.899,87.658l-38.268-38.221C212.328,167.996,241.794,138.185,271.526,109.517z M256.536,298.354
	c-0.473,0.376-0.946,0.752-1.42,1.127c-2.472,1.956-4.952,3.901-7.445,5.828L114.89,172.695c0.05-0.065,0.102-0.131,0.153-0.195
	c1.968-2.535,3.953-5.057,5.95-7.572c0.441-0.555,0.882-1.11,1.324-1.663c0.623-0.782,1.255-1.555,1.88-2.333l135.254,135.086
	C258.479,296.796,257.511,297.58,256.536,298.354z M365.146,181.875c-0.587,4.646-1.212,9.662-0.759,14.7
	c-28.525,31.95-59.6,61.948-92.722,89.489l-38.522-38.474c29.684-27.908,59.023-56.817,87.395-86.114
	c9.222,6.387,19.478,3.886,27.206,1.995c8.361-2.045,12.082-2.562,15.262,0.613C366.715,167.787,366.235,173.257,365.146,181.875z
	 M380.095,189.085c0.153-1.695,0.374-3.455,0.601-5.245c1.211-9.59,2.72-21.524-6.614-30.846
	c-5.272-5.264-11.133-6.835-16.764-6.835c-4.766,0-9.364,1.124-13.297,2.087c-8.634,2.112-12.496,2.628-15.967-0.839
	c-3.646-3.641-3.289-8.054-1.608-17.254c1.704-9.319,3.824-20.918-5.7-30.43c-9.519-9.508-21.126-7.388-30.45-5.687
	c-9.217,1.68-13.637,2.039-17.286-1.605c-3.468-3.464-2.953-7.318-0.842-15.936c2.101-8.573,4.979-20.316-4.759-30.042
	c-9.326-9.314-21.268-7.81-30.864-6.601c-1.81,0.229-3.591,0.453-5.305,0.605c7.346-4.85,14.719-9.524,22.084-14.012l140.784,140.61
	C389.621,174.4,384.947,181.755,380.095,189.085z M402.373,153.158L267.238,18.191c0.832-0.48,1.665-0.964,2.495-1.439
	l134.079,133.914C403.338,151.496,402.853,152.328,402.373,153.158z"/>
<g>
</g>
<g>
</g>
<g>
</g>
<g>
</g>
<g>
</g>
<g>
</g>
<g>
</g>
<g>
</g>
<g>
</g>
<g>
</g>
<g>
</g>
<g>
</g>
<g>
</g>
<g>
</g>
<g>
</g>
</svg>
