<?xml version="1.0" encoding="iso-8859-1"?>
<!-- Generator: Adobe Illustrator 19.0.0, SVG Export Plug-In . SVG Version: 6.00 Build 0)  -->
<svg version="1.1" id="Layer_1" xmlns="http://www.w3.org/2000/svg" xmlns:xlink="http://www.w3.org/1999/xlink" x="0px" y="0px"
	 viewBox="0 0 512 512" style="enable-background:new 0 0 512 512;" xml:space="preserve">
<g>
	<ellipse style="fill:#B36E44;" cx="302.101" cy="148.522" rx="21.928" ry="22.249"/>
	<ellipse style="fill:#B36E44;" cx="302.101" cy="148.522" rx="21.928" ry="22.249"/>
</g>
<path style="fill:#8C5635;" d="M298.288,145.386c0-7.608,3.769-14.317,9.511-18.33c-1.818-0.495-3.721-0.785-5.694-0.785
	c-12.11,0-21.928,9.961-21.928,22.249s9.818,22.249,21.928,22.249c4.612,0,8.887-1.451,12.418-3.919
	C305.177,164.303,298.288,155.672,298.288,145.386z"/>
<path style="fill:#A9CF54;" d="M98.637,319.22c-8.422-7.586-15.92-19.417-20.781-37.572c-5.693-21.264-15.113-36.673-25.569-47.845
	c-0.784-0.838-1.888-1.299-3.035-1.299H20.288c-3.827,0-5.647,4.721-2.797,7.277c19.992,17.935,33.445,50.618,32.154,111.953
	c-1.47,69.866,31.973,75.794,59.801,81.886c0,0,15.991-7.377,10.65-61.58C116.675,337.343,98.637,319.22,98.637,319.22z"/>
<path style="fill:#C9C9C9;" d="M301.169,31.357c-83.163,0-150.58,68.012-150.58,151.907s67.417,151.897,150.58,151.897
	s150.58-68.002,150.58-151.897S384.332,31.357,301.169,31.357z M301.169,310.47c-69.642,0-126.098-56.957-126.098-127.206
	c0-70.259,56.456-127.216,126.098-127.216s126.098,56.957,126.098,127.216C427.267,253.513,370.811,310.47,301.169,310.47z"/>
<g>
	<path style="fill:#B8B8B8;" d="M309.975,40.637v15.725c65.533,4.562,117.292,59.63,117.292,126.903
		c0,67.262-51.759,122.33-117.292,126.891v15.725c74.134-4.588,132.856-66.676,132.856-142.617S384.11,45.225,309.975,40.637z"/>
	<path style="fill:#B8B8B8;" d="M294.672,316.724c-70.14-3.418-125.967-61.857-125.967-133.461s55.827-130.052,125.967-133.47
		V31.507c-80.148,3.434-144.083,70.059-144.083,151.758c0,81.697,63.935,148.314,144.083,151.747V316.724z"/>
</g>
<path style="fill:#A9CF54;" d="M504.163,349.361c0,79.726-15.391,144.353-205.291,144.353
	c-193.787,0-205.281-64.627-205.281-144.353c0-49.319,35.171-92.86,88.827-118.899h0.01c4.117-1.996,8.338-3.887,12.664-5.674
	c29.508-12.184,63.707-19.32,100.237-19.759c1.181-0.021,2.361-0.021,3.542-0.021c38.828,0,75.149,7.576,106.12,20.773
	c3.375,1.421,6.687,2.926,9.927,4.493C468.814,256.282,504.163,299.917,504.163,349.361z"/>
<g>
	<path style="fill:#92B83D;" d="M112.4,349.361c0-49.319,35.171-92.86,88.827-118.899h0.01
		c30.677-14.889,67.395-24.033,107.036-25.29c-3.118-0.099-6.249-0.164-9.401-0.164c-43.238,0-83.352,9.394-116.443,25.454h-0.01
		c-53.656,26.039-88.827,69.58-88.827,118.899c0,79.726,11.494,144.353,205.281,144.353c3.152,0,6.254-0.019,9.311-0.054
		C123.518,491.563,112.4,427.763,112.4,349.361z"/>
	<path style="fill:#92B83D;" d="M404.992,225.781c-2.967,0.94-6.175,1.808-9.676,2.539c-28.902,6.102-146.631,7.69-186.243-0.606
		c-4.786-1.003-9.697-2.027-13.981-2.926c29.508-12.184,63.707-19.32,100.237-19.759c1.181-0.021,2.361-0.021,3.542-0.021
		C337.7,205.009,374.021,212.584,404.992,225.781z"/>
</g>
<path style="fill:#A3643E;" d="M387.116,223.539H217.093c-6.025,0-10.909-4.884-10.909-10.909v-5.972
	c0-6.025,4.884-10.909,10.909-10.909h170.024c6.025,0,10.909,4.884,10.909,10.909v5.972
	C398.026,218.655,393.141,223.539,387.116,223.539z"/>
<path style="fill:#7D4D2F;" d="M224.991,212.63v-5.972c0-6.025,4.884-10.909,10.909-10.909h-18.808
	c-6.025,0-10.909,4.884-10.909,10.909v5.972c0,6.025,4.884,10.909,10.909,10.909H235.9
	C229.876,223.539,224.991,218.655,224.991,212.63z"/>
<path style="fill:#B36E44;" d="M386.173,195.751H218.028c0,0,18.996-18.15,55.672-24.395c0-0.011,0.01,0,0.01,0
	c7.607-1.296,15.987-2.082,25.109-2.082C351.911,169.273,386.173,195.751,386.173,195.751z"/>
<path style="fill:#8C5635;" d="M298.82,169.273c-9.122,0-17.502,0.787-25.109,2.082c0,0-0.01-0.011-0.01,0
	c-36.676,6.245-55.672,24.395-55.672,24.395h18.808c0,0,29.503-22.324,73.811-26.021
	C306.814,169.445,302.879,169.273,298.82,169.273z"/>
<path style="fill:#A3643E;" d="M400.352,62.433L389.402,76.1l-2.539,3.166l-7.586,9.467c-2.56,3.208-7.053,3.981-10.533,1.849
	c-11.452-7.022-37.961-21.096-66.644-21.096c-28.672,0-55.192,14.075-66.633,21.096c-3.48,2.132-7.973,1.358-10.533-1.849
	l-7.596-9.477l-13.479-16.823c-2.884-3.594-2.309-8.913,1.317-11.724c4.859-3.783,9.906-7.158,15.036-10.177
	c2.184-1.296,4.378-2.518,6.583-3.678c47.031-24.754,103.591-24.754,150.622,0c7.367,3.887,14.681,8.464,21.619,13.855
	C402.651,53.52,403.226,58.838,400.352,62.433z"/>
<path style="fill:#92B83D;" d="M68.192,351.733c1.555-57.856-16.647-103.392-41.808-119.23h-6.095c-3.827,0-5.647,4.721-2.797,7.277
	c19.992,17.935,33.445,50.618,32.154,111.953c-1.47,69.866,31.973,75.794,59.801,81.886c0,0,1.623-0.751,3.66-3.522
	C89.543,423.501,66.642,409.383,68.192,351.733z"/>
<path d="M167.019,247.904c6.596-4.105,13.629-7.93,20.89-11.36c6.218-2.928,12.69-5.601,19.278-8.002
	c2.879,1.801,6.267,2.86,9.906,2.86h170.023c2.552,0,4.984-0.516,7.204-1.444c7.143,2.742,14.107,5.797,20.729,9.148
	c7.201,3.631,14.114,7.646,20.554,11.94c8.325,5.539,16.006,11.622,22.832,18.081c1.514,1.434,3.451,2.144,5.384,2.144
	c2.077,0,4.152-0.821,5.694-2.451c2.975-3.144,2.837-8.103-0.307-11.079c-5.989-5.666-12.573-11.053-19.614-16.076
	c7.245-18.562,10.928-38.165,10.928-58.375c0-45.486-18.983-88.292-52.314-118.598c1.487-2.852,2.087-6.083,1.701-9.359
	c-0.507-4.311-2.66-8.141-6.059-10.783c-6.876-5.351-14.542-10.264-22.784-14.605C331.621,3.917,272.585,3.916,223.146,29.947
	c-8.244,4.339-15.91,9.253-22.784,14.602c-3.4,2.645-5.552,6.474-6.059,10.784c-0.386,3.276,0.214,6.506,1.699,9.355
	c-16.277,14.838-29.501,33.078-38.453,53.168c-1.762,3.953,0.016,8.587,3.969,10.348c1.037,0.462,2.119,0.68,3.186,0.68
	c2.999,0,5.862-1.732,7.162-4.649c7.898-17.725,19.477-33.862,33.722-47.085l5.587,6.975
	c-27.424,25.549-43.008,61.265-43.008,99.165c0,14.48,2.252,28.648,6.687,42.218c-2.677,1.368-5.304,2.794-7.897,4.253
	c-5.04-14.896-7.6-30.486-7.6-46.472c0-8.43,0.727-16.891,2.163-25.145c0.741-4.263-2.115-8.322-6.379-9.062
	c-4.262-0.749-8.322,2.114-9.062,6.378c-1.589,9.139-2.395,18.502-2.395,27.83c0,18.901,3.232,37.313,9.595,54.831
	c-27.086,18.037-46.776,40.375-57.729,65.395c-4.212-6.473-7.605-14.45-10.125-23.864c-5.63-21.034-15.301-38.725-28.747-52.582
	c-1.476-1.521-3.505-2.379-5.625-2.379H7.838c-3.491,0-6.561,2.309-7.53,5.664c-0.969,3.354,0.4,6.943,3.354,8.804
	c26.909,16.942,39.386,53.719,38.147,112.436c-1.551,73.525,35.07,82.946,62.738,89.005c8.659,13.471,20.548,24.327,36.252,33.114
	c1.211,0.677,2.523,0.999,3.819,0.999c2.745,0,5.41-1.445,6.846-4.011c2.113-3.776,0.765-8.552-3.012-10.665
	c-14.363-8.036-24.912-17.976-32.259-30.399c-13.623-22.95-14.763-52.228-14.763-80.251c0-9.518,1.435-19.026,4.264-28.256
	C114.254,293.194,136.034,267.189,167.019,247.904z M302.104,162.958c-7.77,0-14.09-6.465-14.09-14.412
	c0-7.946,6.322-14.412,14.09-14.412c7.771,0,14.091,6.465,14.091,14.412C316.196,156.493,309.875,162.958,302.104,162.958z
	 M298.822,178.631c21.487,0,39.811,4.352,53.71,9.308H247.514C259.949,183.009,277.103,178.631,298.822,178.631z M214.021,212.656
	v-5.972c0-1.694,1.378-3.071,3.072-3.071h0.939h168.144h0.939c1.694,0,3.072,1.377,3.072,3.071v5.972
	c0,1.694-1.378,3.072-3.072,3.072H217.093C215.399,215.728,214.021,214.35,214.021,212.656z M444.845,183.29
	c0,17.129-2.927,33.766-8.689,49.591c-2.552-1.533-5.14-3.033-7.786-4.476c5.087-14.457,7.666-29.6,7.666-45.115
	c0-37.903-15.584-73.616-43.008-99.156l5.593-6.982C428.092,104.436,444.845,142.681,444.845,183.29z M209.986,56.919
	c6.149-4.784,13.034-9.193,20.462-13.104c22.437-11.814,47.042-17.717,71.657-17.717c24.608,0,49.224,5.907,71.656,17.716
	c7.426,3.911,14.311,8.321,20.463,13.107c0.023,0.019,0.096,0.074,0.115,0.243c0.013,0.104,0.004,0.256-0.103,0.391
	c-0.001,0-0.001,0-0.001,0.001l-18.019,22.496c-0.003,0.004-0.006,0.007-0.009,0.01c-0.006,0.008-0.011,0.017-0.018,0.024
	l-3.025,3.776c-0.089,0.112-0.202,0.136-0.323,0.064c-13.545-8.309-40.745-22.248-70.735-22.248
	c-29.99,0-57.189,13.939-70.735,22.248c-0.117,0.072-0.234,0.049-0.323-0.063l-3.001-3.746c-0.018-0.022-0.032-0.045-0.05-0.067
	c-0.008-0.01-0.019-0.019-0.027-0.029l-17.995-22.465c-0.108-0.135-0.115-0.286-0.103-0.391
	C209.89,56.994,209.962,56.938,209.986,56.919z M221.301,96.126c5.141,4.11,12.459,4.722,18.265,1.158
	c9.771-5.992,35.422-19.934,62.538-19.934c27.117,0,52.769,13.941,62.538,19.934c2.576,1.581,5.449,2.342,8.299,2.342
	c3.573,0,7.104-1.204,9.963-3.488c23.891,22.542,37.456,53.889,37.456,87.151c0,13.064-2.065,25.825-6.139,38.044
	c-2.955-1.357-5.958-2.658-9-3.908c0.402-1.526,0.638-3.119,0.638-4.769v-5.972c0-9.798-7.561-17.851-17.152-18.664
	c-6.706-4.395-28.931-17.538-61.831-22.822c3.15-4.772,4.99-10.498,4.99-16.653c0-16.59-13.353-30.086-29.765-30.086
	c-16.412,0-29.764,13.496-29.764,30.086c0,5.812,1.644,11.24,4.477,15.845c-34.218,4.509-55.029,18.494-61.702,23.655
	c-9.41,0.992-16.769,8.97-16.769,18.638v5.972c0,0.81,0.069,1.603,0.169,2.387c-3.151,1.2-6.268,2.463-9.349,3.779
	c-3.538-11.444-5.328-23.361-5.328-35.533C183.84,150.028,197.408,118.677,221.301,96.126z M57.479,351.925
	c0.732-34.644-3.015-61.877-11.452-83.254c-4.39-11.12-9.986-20.503-16.916-28.308h18.546
	c10.416,11.559,18.021,26.122,22.629,43.341c4.182,15.617,10.61,28.171,19.132,37.41c-2.425,9.277-3.662,18.763-3.662,28.272
	c0,24.507,0.863,49.994,9.547,72.815C73.799,415.918,56.399,403.073,57.479,351.925z"/>
<path d="M483.652,285.994c-3.698,2.248-4.873,7.069-2.625,10.767c10.151,16.7,15.299,34.406,15.299,52.627
	c0,42.558-4.849,73.525-28.984,96.382c-28.516,27.005-83.622,40.132-168.465,40.132c-50.678,0-89.88-4.354-119.849-13.311
	c-4.142-1.241-8.513,1.117-9.752,5.264c-1.24,4.147,1.117,8.513,5.264,9.752c31.446,9.399,72.116,13.968,124.337,13.968
	c90.281,0,147.237-14.117,179.243-44.427C509.381,427.545,512,386.002,512,349.388c0-21.135-5.915-41.581-17.58-60.769
	C492.172,284.921,487.353,283.746,483.652,285.994z"/>
<g>
</g>
<g>
</g>
<g>
</g>
<g>
</g>
<g>
</g>
<g>
</g>
<g>
</g>
<g>
</g>
<g>
</g>
<g>
</g>
<g>
</g>
<g>
</g>
<g>
</g>
<g>
</g>
<g>
</g>
</svg>
