<?xml version="1.0" encoding="iso-8859-1"?>
<!-- Generator: Adobe Illustrator 19.0.0, SVG Export Plug-In . SVG Version: 6.00 Build 0)  -->
<svg version="1.1" id="Layer_1" xmlns="http://www.w3.org/2000/svg" xmlns:xlink="http://www.w3.org/1999/xlink" x="0px" y="0px"
	 viewBox="0 0 512 512" style="enable-background:new 0 0 512 512;" xml:space="preserve">
<path style="fill:#DBD2CA;" d="M415.34,238.432c-30.297,0-54.857,22.868-54.857,51.078s24.56,51.078,54.857,51.078
	c30.297,0,54.857-22.869,54.857-51.078C470.197,261.301,445.636,238.432,415.34,238.432z M415.34,316.182
	c-15.821,0-28.646-11.941-28.646-26.672c0-14.731,12.825-26.672,28.646-26.672c15.821,0,28.646,11.941,28.646,26.672
	C443.986,304.241,431.16,316.182,415.34,316.182z"/>
<path style="fill:#F7F1EB;" d="M94.736,243.87h293.058c3.626,0,6.63,2.802,6.844,6.404c1.736,29.21-0.505,148.397-152.674,148.397
	c-152.059,0-155.528-119.012-154.074-148.333C88.068,246.711,91.086,243.87,94.736,243.87z"/>
<path style="fill:#DBD2CA;" d="M262.531,393.059c-152.059,0-155.528-119.012-154.075-148.333c0.015-0.293,0.054-0.577,0.103-0.858
	H94.735c-3.651,0-6.667,2.841-6.847,6.469c-1.452,29.321,2.017,148.333,154.075,148.333c27.007,0,49.272-3.768,67.65-10.108
	C295.775,391.441,280.173,393.059,262.531,393.059z"/>
<path style="fill:#F7F1EB;" d="M341.337,48.88c0,19.069-15.444,34.523-34.482,34.523h-38.661c9.519,0,18.139,3.856,24.377,10.104
	c6.238,6.248,10.104,14.869,10.104,24.409c0,13.218-7.419,24.701-18.317,30.501c-4.817,2.56-10.324,4.012-16.165,4.012H247.39
	c12.1,0,22.371,7.858,25.987,18.756c0.92,2.727,1.411,5.642,1.411,8.673v14.179c0,6.05-1.964,11.651-5.287,16.185
	c-4.974,6.813-13.03,11.243-22.11,11.243h-32.893c-15.12,0-27.387-12.278-27.387-27.429v-14.179c0-8.182,3.584-15.527,9.258-20.543
	c4.827-4.284,11.17-6.886,18.129-6.886h11.024c-2.968,0-5.841-0.376-8.589-1.087c-0.01,0-0.01,0-0.021,0
	c-6.06-1.557-11.483-4.723-15.768-9.017c-6.238-6.248-10.104-14.869-10.104-24.409c0-19.069,15.444-34.513,34.482-34.513h14.461
	c-4.618,0-9.007-0.909-13.03-2.56c-4.284-1.735-8.14-4.326-11.358-7.544c-2.623-2.633-4.817-5.674-6.478-9.028
	c-2.32-4.629-3.615-9.853-3.615-15.391c0-18.766,14.952-34.032,33.593-34.503c0.293-0.01,0.596-0.01,0.888-0.01h66.873
	c9.519,0,18.139,3.856,24.377,10.104C337.471,30.73,341.337,39.34,341.337,48.88z"/>
<path style="fill:#DBD2CA;" d="M206.008,194.038v-14.179c0-8.182,3.584-15.527,9.258-20.543c4.827-4.284,11.17-6.886,18.129-6.886
	h11.024c-2.967,0-5.841-0.376-8.589-1.087c-0.01,0-0.01,0-0.021,0c-6.06-1.557-11.483-4.723-15.768-9.017
	c-6.238-6.248-10.104-14.869-10.104-24.409c0-19.069,15.444-34.513,34.482-34.513h14.461c-4.618,0-9.007-0.909-13.03-2.56
	c-4.284-1.735-8.14-4.326-11.358-7.544c-2.623-2.633-4.817-5.674-6.478-9.028c-2.32-4.629-3.615-9.853-3.615-15.391
	c0-18.766,14.952-34.032,33.593-34.503c0.293-0.01,0.596-0.01,0.888-0.01h-18.898c-0.293,0-0.596,0-0.888,0.01
	C220.453,14.848,205.5,30.114,205.5,48.88c0,5.538,1.296,10.762,3.615,15.391c1.661,3.354,3.856,6.395,6.478,9.028
	c3.218,3.218,7.074,5.81,11.358,7.544c4.023,1.651,8.411,2.56,13.03,2.56H225.52c-19.038,0-34.482,15.444-34.482,34.513
	c0,9.54,3.866,18.16,10.104,24.409c4.284,4.295,9.707,7.461,15.768,9.017c0.01,0,0.01,0,0.021,0
	c2.748,0.711,5.622,1.087,8.589,1.087h-11.024c-6.959,0-13.302,2.602-18.129,6.886c-5.674,5.016-9.258,12.361-9.258,20.543v14.179
	c0,15.151,12.267,27.429,27.387,27.429h18.898C218.275,221.466,206.008,209.189,206.008,194.038z"/>
<path style="fill:#A9CF54;" d="M227.485,350.929c-18.704,95.096-157.571,44.993-157.571,44.993
	C165.982,293.407,227.485,350.929,227.485,350.929z"/>
<path style="fill:#92B83D;" d="M91.509,385.791c19.582-20.897,37.727-35.14,54.208-44.58c-21.741,7.905-47.245,24.235-75.803,54.711
	c0,0,84.85,30.612,130.832-1.441C153.964,408.321,91.509,385.791,91.509,385.791z"/>
<path style="fill:#362928;" d="M441.438,465.922H70.562c-34.643,0-62.725-28.083-62.725-62.725v-0.033
	c0-2.309,1.872-4.182,4.182-4.182h487.963c2.309,0,4.182,1.872,4.182,4.182v0.033C504.163,437.839,476.081,465.922,441.438,465.922z
	"/>
<g>
	<path style="fill:#2E2322;" d="M27.167,403.197v-0.033c0-2.309,1.872-4.182,4.182-4.182H12.018c-2.309,0-4.182,1.872-4.182,4.182
		v0.033c0,34.643,28.083,62.725,62.725,62.725h19.331C55.25,465.922,27.167,437.839,27.167,403.197z"/>
	<path style="fill:#2E2322;" d="M438.575,465.92v26.258c0,3.009-2.435,5.454-5.454,5.454H78.879c-3.02,0-5.454-2.445-5.454-5.454
		V465.92H438.575z"/>
</g>
<path style="fill:#291F1E;" d="M92.233,492.178V465.92H73.425v26.258c0,3.009,2.435,5.454,5.454,5.454h18.808
	C94.668,497.633,92.233,495.188,92.233,492.178z"/>
<path d="M349.177,48.883c0-11.3-4.401-21.936-12.397-29.951c-7.989-7.998-18.615-12.403-29.922-12.403h-12.894
	c-4.329,0-7.837,3.509-7.837,7.837s3.508,7.837,7.837,7.837h12.894c7.117,0,13.805,2.772,18.83,7.801
	c5.04,5.053,7.815,11.757,7.815,18.878c0,14.711-11.953,26.68-26.645,26.68h-38.661c-4.329,0-7.837,3.509-7.837,7.837
	s3.508,7.837,7.837,7.837c7.117,0,13.805,2.772,18.829,7.801c5.041,5.053,7.816,11.758,7.816,18.878
	c0,14.711-11.953,26.68-26.645,26.68h-20.803c-4.329,0-7.837,3.509-7.837,7.837c0,4.328,3.508,7.837,7.837,7.837
	c10.785,0,19.561,8.788,19.561,19.589v14.183c0,10.801-8.774,19.589-19.561,19.589h-32.893c-10.779,0-19.55-8.788-19.55-19.589
	v-14.183c0-10.801,8.771-19.589,19.55-19.589h11.024c4.329,0,7.837-3.509,7.837-7.837c0-4.328-3.508-7.837-7.837-7.837
	c-7.116,0-13.804-2.772-18.829-7.801c-5.041-5.053-7.816-11.758-7.816-18.878c0-14.711,11.953-26.679,26.645-26.679h14.461
	c4.329,0,7.837-3.509,7.837-7.837s-3.508-7.837-7.837-7.837c-7.115,0-13.808-2.774-18.838-7.801
	c-5.033-5.047-7.806-11.752-7.806-18.878c0-14.711,11.953-26.679,26.645-26.679h16.193c4.329,0,7.837-3.509,7.837-7.837
	s-3.508-7.837-7.837-7.837h-16.193c-23.335,0-42.318,18.999-42.318,42.353c0,11.189,4.306,21.72,12.144,29.706
	c-15.577,6.256-26.605,21.526-26.605,39.327c0,11.298,4.401,21.934,12.397,29.952c0.47,0.471,0.949,0.929,1.437,1.374
	c-10.603,6.084-17.762,17.529-17.762,30.617v14.183c0,19.443,15.801,35.262,35.224,35.262h32.893
	c19.428,0,35.234-15.819,35.234-35.262v-14.186c0-7.569-2.396-14.589-6.467-20.34c19.541-3.74,34.355-20.971,34.355-41.602
	c0-9.823-3.327-19.145-9.449-26.679h5.792C330.193,91.237,349.177,72.237,349.177,48.883z"/>
<path d="M499.982,391.144h-51.72c-4.329,0-7.837,3.509-7.837,7.837s3.508,7.837,7.837,7.837h47.947
	c-1.871,28.583-25.722,51.267-54.77,51.267H70.562c-29.039,0-52.883-22.667-54.768-51.267h397.594c4.329,0,7.837-3.509,7.837-7.837
	s-3.508-7.837-7.837-7.837h-88.947c4.955-2.202,9.701-4.626,14.212-7.295c18.463-10.929,33.204-25.75,43.921-44.126
	c9.806,5.645,21.151,8.699,32.763,8.699c34.569,0,62.694-26.428,62.694-58.911c0-32.484-28.124-58.911-62.694-58.911
	c-9.114,0-18.171,1.902-26.379,5.48c-0.387-0.03-0.775-0.047-1.165-0.047h-46.456c-4.329,0-7.837,3.509-7.837,7.837
	c0,4.328,3.508,7.837,7.837,7.837h45.53c0.313,6.093,0.254,12.629-0.176,18.983c-0.652,9.892-2.185,19.582-4.553,28.796
	c-2.334,9.041-5.482,17.578-9.356,25.383c-0.001,0.002-0.002,0.005-0.003,0.007c-0.007,0.015-0.015,0.03-0.022,0.045
	c-21.685,43.737-65.689,65.914-130.79,65.914c-8.386,0-16.473-0.39-24.212-1.138c7.497-8.579,12.876-19.096,16.081-31.445
	l21.943-6.312c4.159-1.196,6.561-5.538,5.366-9.698c-1.197-4.159-5.541-6.559-9.698-5.365l-21.287,6.123
	c-4.511-3.438-14.588-10.022-29.423-13.566c-17.271-4.127-44.572-4.804-78.513,14c-25.78-33.024-27.302-74.073-26.554-91.727
	h208.573c4.329,0,7.837-3.509,7.837-7.837c0-4.328-3.508-7.837-7.837-7.837H94.73c-7.845,0-14.289,6.115-14.671,13.918
	c-0.92,18.639,0.273,64.212,28.733,101.745c-14.789,9.992-29.756,23.026-44.596,38.869c-0.172,0.184-0.326,0.381-0.479,0.58H12.018
	C5.392,391.144,0,396.536,0,403.197c0,37.233,28.993,67.802,65.585,70.368v18.616c0,7.328,5.962,13.29,13.29,13.29h354.251
	c7.328,0,13.29-5.962,13.29-13.29v-18.616C483.007,470.998,512,440.428,512,403.162C512,396.536,506.608,391.144,499.982,391.144z
	 M402.075,275.035c3.709-2.787,8.401-4.365,13.262-4.365c11.476,0,20.814,8.451,20.814,18.84c0,10.388-9.338,18.84-20.814,18.84
	c-7.018,0-13.378-3.109-17.213-8.264C400.031,291.974,401.354,283.574,402.075,275.035z M462.357,289.51
	c0,23.841-21.093,43.238-47.02,43.238c-9.158,0-18.077-2.464-25.677-7.023c1.25-2.866,2.411-5.806,3.49-8.811
	c6.238,4.53,13.967,7.107,22.187,7.107c20.12,0,36.488-15.482,36.488-34.513s-16.368-34.513-36.488-34.513
	c-4.391,0-8.65,0.722-12.632,2.108c-0.036-2.451-0.104-4.889-0.245-7.289c-0.037-0.616-0.119-1.219-0.228-1.814
	c4.241-1.128,8.659-1.729,13.105-1.729C441.265,246.272,462.357,265.668,462.357,289.51z M124.396,360.287
	c0.009-0.005,0.018-0.01,0.026-0.017c0.018-0.01,0.036-0.022,0.052-0.032c40.308-24.501,69.7-18.454,85.202-11.347l-78.842,22.678
	c-4.159,1.196-6.561,5.538-5.366,9.698c0.988,3.436,4.122,5.673,7.527,5.673c0.718,0,1.447-0.099,2.17-0.307l80.49-23.153
	c-4.349,10.68-11.035,18.983-20.255,25.159c-1.309,0.877-2.713,1.706-4.15,2.506H85.558
	C98.616,378.4,111.64,368.049,124.396,360.287z M430.741,489.796H81.259v-16.037h349.484v16.037H430.741z"/>
<g>
</g>
<g>
</g>
<g>
</g>
<g>
</g>
<g>
</g>
<g>
</g>
<g>
</g>
<g>
</g>
<g>
</g>
<g>
</g>
<g>
</g>
<g>
</g>
<g>
</g>
<g>
</g>
<g>
</g>
</svg>
