<?xml version="1.0" encoding="iso-8859-1"?>
<!-- Generator: Adobe Illustrator 19.0.0, SVG Export Plug-In . SVG Version: 6.00 Build 0)  -->
<svg version="1.1" id="Layer_1" xmlns="http://www.w3.org/2000/svg" xmlns:xlink="http://www.w3.org/1999/xlink" x="0px" y="0px"
	 viewBox="0 0 512 512" style="enable-background:new 0 0 512 512;" xml:space="preserve">
<path style="fill:#F75534;" d="M273.533,160.36h-35.056c0,0-1.055,212.428-123.183,343.803h70.04
	c61.335-65.975,61.868-172.648,61.868-172.648h17.596c0,0,0,0.125,0,0.355c0.104,6.802,2.602,108.544,61.868,172.293h70.039
	C274.578,372.788,273.533,160.36,273.533,160.36z"/>
<g>
	<path style="fill:#BD391E;" d="M238.477,160.357c0,0-1.06,212.434-123.188,343.806h22.483
		c122.13-131.372,113.004-343.806,113.004-343.806H238.477z"/>
	<path style="fill:#BD391E;" d="M346.405,504.163h-19.738c-59.267-63.749-61.764-165.491-61.868-172.293h20.052
		C284.85,331.87,285.383,438.178,346.405,504.163z"/>
</g>
<path style="fill:#F7EDE3;" d="M283.346,176.757h-54.691c-2.308,0-4.18-1.871-4.18-4.18V128h63.05v44.577
	C287.526,174.886,285.654,176.757,283.346,176.757z"/>
<path style="fill:#DBD2CA;" d="M224.474,128v44.577c0,2.308,1.871,4.18,4.18,4.18h14.629V128H224.474z"/>
<path style="fill:#F75534;" d="M296.114,95.044V127.3c0,2.299-1.881,4.18-4.18,4.18h-71.868c-2.299,0-4.18-1.881-4.18-4.18V95.044
	c0-2.299,1.881-4.18,4.18-4.18h71.868C294.233,90.864,296.114,92.745,296.114,95.044z"/>
<path style="fill:#BD391E;" d="M240.588,131.48h-20.522c-2.299,0-4.18-1.881-4.18-4.18V95.044c0-2.299,1.881-4.18,4.18-4.18h20.522
	c-2.382,0-4.326,1.954-4.326,4.326v31.963C236.262,129.536,238.205,131.48,240.588,131.48z"/>
<path style="fill:#F75534;" d="M267.4,19.237v71.628h-22.8V19.237c0-5.611,4.054-10.271,9.394-11.222
	c0.648-0.115,1.327-0.178,2.006-0.178c3.145,0,5.998,1.275,8.056,3.333C266.125,13.239,267.4,16.091,267.4,19.237z"/>
<path style="fill:#BD391E;" d="M263.377,19.237v71.628H244.6V19.237c0-5.611,4.054-10.271,9.394-11.222
	c2.341,0.418,4.441,1.546,6.05,3.156C262.102,13.239,263.377,16.091,263.377,19.237z"/>
<path style="fill:#7FB2F0;" d="M337.479,298.032l-3.818,63.732c-0.133,2.207-1.961,3.93-4.172,3.93H182.773
	c-2.211,0-4.04-1.722-4.172-3.93l-3.818-63.732c-0.144-2.402,1.766-4.429,4.172-4.429h154.353
	C335.714,293.603,337.623,295.63,337.479,298.032z"/>
<path d="M115.294,512h70.04h141.333h70.039h83.947c4.329,0,7.837-3.508,7.837-7.837s-3.508-7.837-7.837-7.837h-80.498
	c-7.159-7.867-14.082-16.239-20.629-24.941c-0.392-0.765-0.909-1.472-1.552-2.086c-13.04-17.617-25.015-37.159-35.622-58.124
	c-0.257-0.841-0.66-1.631-1.183-2.344c-5.606-11.219-10.919-23.048-15.862-35.302h8.119c4.146,0,7.574-3.23,7.822-7.369
	l4.319-72.092c0.13-2.156-0.636-4.269-2.117-5.842c-1.482-1.572-3.545-2.463-5.705-2.463h-6.12c-4.329,0-7.837,3.508-7.837,7.837
	c0,3.571,2.389,6.585,5.655,7.53l-1.239,20.68H302.83l0.815-20.372h1.335c4.329,0,7.837-3.508,7.837-7.837s-3.508-7.837-7.837-7.837
	h-6.977c-4.894-21.198-8.847-43.088-11.743-65.181c-0.014-0.118-0.027-0.235-0.046-0.352c-1.839-14.143-2.969-26.353-3.656-35.638
	h4.967c4.329,0,7.837-3.508,7.837-7.837v-37.98c4.969-1.529,8.591-6.161,8.591-11.623V95.192c0-6.705-5.455-12.161-12.161-12.161
	h-16.56V67.57c0-4.329-3.508-7.837-7.837-7.837c-4.329,0-7.837,3.508-7.837,7.837v15.461h-7.12V19.233c0-1.963,1.597-3.56,3.56-3.56
	c1.963,0,3.56,1.597,3.56,3.56v18.731c0,4.329,3.508,7.837,7.837,7.837c4.329,0,7.837-3.508,7.837-7.837V19.233
	C275.233,8.629,266.605,0,256,0s-19.233,8.629-19.233,19.233v63.798h-16.56c-6.705,0-12.161,5.455-12.161,12.161v31.962
	c0,5.464,3.623,10.095,8.592,11.623v37.979c0,4.329,3.509,7.837,7.837,7.837h4.972c-0.03,0.401-0.059,0.804-0.09,1.205
	c-0.331,4.315,2.899,8.082,7.214,8.414c0.204,0.017,0.408,0.023,0.608,0.023c4.056,0,7.49-3.125,7.805-7.237
	c0.062-0.801,0.121-1.603,0.179-2.405h21.681c0.645,8.935,1.695,20.666,3.401,34.314l-14.405,15.899l-14.058-16.135
	c0.044-0.351,0.093-0.702,0.137-1.053c0.531-4.295-2.521-8.207-6.817-8.737c-4.305-0.538-8.208,2.522-8.738,6.817
	c-2.726,22.078-6.546,44.181-11.354,65.697c-0.316,1.41-0.648,2.867-0.995,4.37h-39.498c-2.16,0-4.223,0.892-5.704,2.463
	c-1.481,1.573-2.248,3.685-2.118,5.842l4.319,72.092c0.248,4.139,3.677,7.369,7.822,7.369h7.857
	c-5.092,12.626-10.587,24.838-16.408,36.419c-10.97,21.842-23.412,42.142-36.979,60.335c-6.798,9.115-14.008,17.858-21.459,26.043
	H31.347c-4.328,0-7.837,3.508-7.837,7.837c0,4.329,3.509,7.837,7.837,7.837h83.947V512z M232.312,168.92v-29.606h47.377v29.606
	H232.312z M244.603,98.705h22.793h20.882v24.717c-0.249-0.024-0.499-0.038-0.754-0.038h-63.049c-0.255,0-0.507,0.015-0.755,0.038
	V98.705H244.603z M224.539,357.857l-0.815-20.372h24.57v20.372H224.539z M222.283,301.438h26.011v20.372h-25.197L222.283,301.438z
	 M230.821,285.765l24.79-27.362l23.84,27.362H230.821z M263.967,357.857v-20.372h22.549l-0.815,20.372H263.967z M293.135,433.608
	l19.722,12.577l-6.577,15.919C301.142,452.712,296.805,443.103,293.135,433.608z M205.827,462.014l-6.54-15.829l19.651-12.533
	C215.05,443.71,210.67,453.181,205.827,462.014z M211.115,483.708c12.378-19.003,22.432-41.277,29.886-66.204
	c0.02-0.059,0.037-0.118,0.054-0.178c0.006-0.021,0.013-0.041,0.019-0.061c4.18-13.988,7.505-28.671,9.915-43.735h10.023
	c5.838,36.618,19.058,84.161,48.79,122.796H202.179C205.288,492.279,208.276,488.07,211.115,483.708z M330.129,496.327
	c-5.007-5.621-9.562-11.55-13.73-17.669l9.879-23.913l40.59,25.886c4.028,5.361,8.19,10.609,12.464,15.695L330.129,496.327
	L330.129,496.327z M335.654,432.053c2.985,5.428,6.061,10.751,9.223,15.963l-12.519-7.984L335.654,432.053z M326.193,413.906
	l-7.257,17.567l-33.759-21.529c-3.872-13.39-6.501-25.89-8.277-36.413h31.547C313.914,387.559,319.868,401.1,326.193,413.906z
	 M327.265,337.484l-1.22,20.372h-24.656l0.815-20.372H327.265z M263.967,321.811v-20.372h23.991l-0.815,20.372H263.967z
	 M273.087,239.115c0.996,6.431,2.073,12.838,3.239,19.204l-10.118-11.612L273.087,239.115z M245.243,246.504l-9.285,10.248
	c1.052-5.825,2.032-11.67,2.94-17.53L245.243,246.504z M206.597,301.438l0.815,20.372h-23.355l-1.22-20.372H206.597z
	 M184.996,337.484h23.042l0.815,20.372h-22.637L184.996,337.484z M235.096,373.53c-2.098,12.531-4.859,24.756-8.242,36.486
	l-33.644,21.456l-7.322-17.721c6.308-12.798,12.236-26.286,17.666-40.219h31.541V373.53z M176.43,431.904l3.358,8.128l-12.754,8.133
	C170.257,442.86,173.389,437.436,176.43,431.904z M144.993,480.812l40.873-26.067l9.839,23.815
	c-4.315,6.323-8.95,12.278-13.838,17.766H132.67C136.892,491.301,141.006,486.114,144.993,480.812z"/>
<g>
</g>
<g>
</g>
<g>
</g>
<g>
</g>
<g>
</g>
<g>
</g>
<g>
</g>
<g>
</g>
<g>
</g>
<g>
</g>
<g>
</g>
<g>
</g>
<g>
</g>
<g>
</g>
<g>
</g>
</svg>
