<?xml version="1.0" encoding="iso-8859-1"?>
<!-- Generator: Adobe Illustrator 19.0.0, SVG Export Plug-In . SVG Version: 6.00 Build 0)  -->
<svg version="1.1" id="Layer_1" xmlns="http://www.w3.org/2000/svg" xmlns:xlink="http://www.w3.org/1999/xlink" x="0px" y="0px"
	 viewBox="0 0 512 512" style="enable-background:new 0 0 512 512;" xml:space="preserve">
<g>
	<rect x="76.622" y="101.93" style="fill:#F75534;" width="43.886" height="318.13"/>
	<rect x="391.576" y="101.93" style="fill:#F75534;" width="43.886" height="318.13"/>
</g>
<path style="fill:#FFE666;" d="M504.163,41.796v26.708c0,2.299-1.87,4.18-4.18,4.18H12.016c-2.309,0-4.18-1.881-4.18-4.18V41.796
	c0-2.476,2.121-4.409,4.587-4.159c2.832,0.282,6.959,0.679,12.34,1.149C57.699,41.671,137.686,47.355,256,47.355
	c137.655,0,223.431-7.701,243.576-9.718C502.042,37.387,504.163,39.32,504.163,41.796z"/>
<path style="fill:#EDBF31;" d="M26.645,72.683H12.016c-2.309,0-4.18-1.881-4.18-4.18V41.796c0-2.476,2.121-4.409,4.587-4.159
	c2.832,0.282,6.959,0.679,12.34,1.149c-0.408,0.857-0.867,1.985-0.867,3.009v26.708C23.897,70.802,25.13,72.683,26.645,72.683z"/>
<path style="fill:#F75534;" d="M475.429,72.683c0,5.329-1.421,10.324-3.929,14.618c-1.264,2.226-2.842,4.263-4.639,6.06
	c-4.963,4.963-11.703,8.15-19.184,8.526c-0.502,0.031-1.003,0.042-1.505,0.042H65.829c-10.825,0-20.292-5.883-25.328-14.629
	c-2.508-4.295-3.929-9.289-3.929-14.618H475.429z"/>
<path style="fill:#BD391E;" d="M85.117,101.93H65.829c-10.825,0-20.292-5.883-25.328-14.629c-2.508-4.295-3.929-9.289-3.929-14.618
	h17.894c0,5.329,1.432,10.324,3.918,14.618C63.389,96.047,74.355,101.93,85.117,101.93z"/>
<rect x="234.057" y="101.93" style="fill:#F75534;" width="43.886" height="47.532"/>
<g>
	<rect x="234.057" y="101.93" style="fill:#BD391E;" width="18.808" height="47.532"/>
	<rect x="76.622" y="101.93" style="fill:#BD391E;" width="18.808" height="318.13"/>
	<rect x="391.576" y="101.93" style="fill:#BD391E;" width="18.808" height="318.13"/>
</g>
<path style="fill:#362928;" d="M116.245,474.384H80.718c-2.308,0-4.18-1.871-4.18-4.18v-50.148h43.886v50.148
	C120.424,472.512,118.553,474.384,116.245,474.384z"/>
<path style="fill:#2E2322;" d="M95.435,470.204v-50.148H76.539v50.148c0,2.308,1.871,4.18,4.18,4.18h18.896
	C97.306,474.384,95.435,472.512,95.435,470.204z"/>
<path style="fill:#362928;" d="M431.194,474.384h-35.528c-2.308,0-4.18-1.871-4.18-4.18v-50.148h43.886v50.148
	C435.373,472.512,433.502,474.384,431.194,474.384z"/>
<path style="fill:#F75534;" d="M475.429,153.642v20.898c0,2.309-1.787,4.18-3.992,4.18H40.563c-2.205,0-3.992-1.87-3.992-4.18
	v-20.898c0-2.299,1.787-4.18,3.992-4.18h430.874C473.642,149.462,475.429,151.343,475.429,153.642z"/>
<path style="fill:#2E2322;" d="M410.471,470.204v-50.148h-18.896v50.148c0,2.308,1.871,4.18,4.18,4.18h18.896
	C412.343,474.384,410.471,472.512,410.471,470.204z"/>
<path style="fill:#BD391E;" d="M55.38,178.719H40.563c-2.205,0-3.992-1.87-3.992-4.18v-20.898c0-2.299,1.787-4.18,3.992-4.18H55.38
	c-1.432,0-2.581,1.881-2.581,4.18v20.898C52.799,176.849,53.948,178.719,55.38,178.719z"/>
<path d="M12.016,80.516h17.56c3.607,16.699,18.488,29.253,36.253,29.253h2.957v31.862H40.561c-6.521,0-11.826,5.391-11.826,12.016
	v20.895c0,6.626,5.306,12.016,11.826,12.016h28.225v225.663h-0.084v57.982c0,6.626,5.391,12.016,12.016,12.016h35.528
	c6.626,0,12.016-5.391,12.016-12.016v-49.06c0.049-0.355,0.084-0.716,0.084-1.085V291.38c0-4.328-3.509-7.837-7.837-7.837
	s-7.837,3.509-7.837,7.837V412.22H84.46V186.557h28.212v67.384c0,4.328,3.509,7.837,7.837,7.837s7.837-3.509,7.837-7.837v-67.384
	h189.303c4.328,0,7.837-3.509,7.837-7.837c0-4.328-3.509-7.837-7.837-7.837H120.528c-0.007,0-0.014-0.001-0.02-0.001
	s-0.014,0.001-0.02,0.001H76.642c-0.007,0-0.014-0.001-0.02-0.001c-0.006,0-0.014,0.001-0.02,0.001H44.408v-13.579H226.22h59.559
	h181.812v13.579H354.498c-4.328,0-7.837,3.509-7.837,7.837c0,4.328,3.509,7.837,7.837,7.837h29.24v225.663h-0.088v57.983
	c0,6.626,5.391,12.016,12.016,12.016h35.527c6.626,0,12.016-5.391,12.016-12.016v-42.308h0.088V186.557h28.141
	c6.521,0,11.826-5.391,11.826-12.016v-20.895c0-6.626-5.306-12.016-11.826-12.016h-28.141v-31.862h2.873
	c17.764,0,32.646-12.553,36.253-29.253h17.559c6.626,0,12.016-5.391,12.016-12.016V41.797c0-3.393-1.441-6.641-3.955-8.915
	c-2.51-2.271-5.883-3.382-9.252-3.042C476.158,32.111,391.752,39.519,256,39.519c-13.92,0-27.893-0.08-41.531-0.238
	c-4.282-0.054-7.876,3.418-7.927,7.746s3.418,7.877,7.746,7.927c13.698,0.159,27.733,0.239,41.712,0.239
	c129.433,0,212.617-6.717,240.326-9.363v19.012h-13.061H28.736H15.673V45.828c19.939,1.895,75.512,6.519,160.36,8.467
	c4.299,0.113,7.915-3.328,8.014-7.655c0.099-4.327-3.328-7.915-7.655-8.014C85.448,36.539,28.495,31.374,13.206,29.84
	c-3.371-0.342-6.741,0.77-9.252,3.042C1.441,35.155,0,38.404,0,41.797v26.702C0,75.125,5.391,80.516,12.016,80.516z M84.376,466.547
	v-38.651h28.212v38.651H84.376z M427.537,466.547h-28.212v-38.651h28.212V466.547z M427.624,412.221h-28.212V186.557h28.212V412.221
	z M84.459,109.769h28.212v31.862H84.459V109.769z M128.345,141.631v-31.862h97.876v31.862H128.345z M241.894,141.631v-31.862h28.212
	v31.862H241.894z M285.78,109.769h97.959v31.862H285.78V109.769z M427.624,141.631h-28.212v-31.862h28.212V141.631z M466.107,80.516
	c-3.135,7.944-10.89,13.579-19.936,13.579h-2.873v-0.002h-59.559v0.001H285.78H226.22H120.538c-0.01,0-0.02-0.001-0.03-0.001H76.622
	c-0.01,0-0.02,0.001-0.03,0.001H65.829c-9.046,0-16.801-5.636-19.936-13.579h420.214V80.516z"/>
<g>
</g>
<g>
</g>
<g>
</g>
<g>
</g>
<g>
</g>
<g>
</g>
<g>
</g>
<g>
</g>
<g>
</g>
<g>
</g>
<g>
</g>
<g>
</g>
<g>
</g>
<g>
</g>
<g>
</g>
</svg>
