<?xml version="1.0" encoding="iso-8859-1"?>
<!-- Generator: Adobe Illustrator 19.0.0, SVG Export Plug-In . SVG Version: 6.00 Build 0)  -->
<svg version="1.1" id="Layer_1" xmlns="http://www.w3.org/2000/svg" xmlns:xlink="http://www.w3.org/1999/xlink" x="0px" y="0px"
	 viewBox="0 0 512.002 512.002" style="enable-background:new 0 0 512.002 512.002;" xml:space="preserve">
<path style="fill:#F7EDE3;" d="M504.158,120.165v217.997c0,2.309-1.87,4.18-4.18,4.18H97.222c-95.075,0-89.328-50.845-89.328-50.845
	v-7.314c0-52.955,50.479-103.131,99.349-129.943c10.679-5.862,21.661-11.055,32.904-15.579
	c37.23-15.015,77.155-22.674,117.52-22.674h242.312C502.287,115.985,504.158,117.855,504.158,120.165z"/>
<path style="fill:#DBD2CA;" d="M205.328,120.327c-22.315,3.733-44.177,9.862-65.182,18.333
	c-11.243,4.524-22.225,9.718-32.904,15.579c-48.87,26.812-99.349,76.988-99.349,129.943v7.314c0,0-5.747,50.845,89.328,50.845
	h18.808c-95.075,0-89.328-50.845-89.328-50.845v-7.314c0-52.955,50.479-103.131,99.349-129.943
	c10.679-5.862,21.661-11.055,32.904-15.579c15.064-6.076,30.576-10.925,46.374-14.572V120.327z"/>
<path style="fill:#7FB2F0;" d="M205.818,120.248v17.962c0,14.148-9.571,26.551-23.291,30.03
	c-29.999,7.607-51.911,23.259-65.787,36.153c-14.137,13.124-32.82,20.25-52.109,20.25H27.883
	c19.184-29.038,49.57-54.063,79.36-70.405C138.036,137.343,171.389,125.943,205.818,120.248z"/>
<path style="fill:#362928;" d="M499.908,396.018H18.318c-2.308,0-4.179-1.871-4.179-4.179v-45.315c0-2.308,1.871-4.179,4.179-4.179
	h481.59c2.308,0,4.179,1.871,4.179,4.179v45.315C504.087,394.146,502.216,396.018,499.908,396.018z"/>
<g>
	<circle style="fill:#7FB2F0;" cx="298.329" cy="192.879" r="39.215"/>
	<circle style="fill:#7FB2F0;" cx="409.81" cy="192.879" r="39.215"/>
</g>
<g>
	<path style="fill:#5F95D4;" d="M277.921,189.948c0-16.235,9.866-30.165,23.929-36.123c-1.161-0.103-2.334-0.165-3.521-0.165
		c-21.658,0-39.215,17.557-39.215,39.215s17.557,39.215,39.215,39.215c5.423,0,10.589-1.101,15.286-3.092
		C293.607,227.215,277.921,210.418,277.921,189.948z"/>
	<path style="fill:#5F95D4;" d="M389.406,189.948c0-16.235,9.866-30.165,23.929-36.123c-1.161-0.103-2.334-0.165-3.521-0.165
		c-21.658,0-39.215,17.557-39.215,39.215s17.557,39.215,39.215,39.215c5.423,0,10.589-1.101,15.286-3.092
		C405.092,227.215,389.406,210.418,389.406,189.948z"/>
	<path style="fill:#5F95D4;" d="M205.818,120.248v3.699c-15.966,3.668-31.64,8.579-46.864,14.712
		c-11.243,4.524-22.225,9.718-32.904,15.579c-29.79,16.342-60.176,41.368-79.36,70.405H27.883
		c19.184-29.038,49.57-54.063,79.36-70.405C138.036,137.343,171.389,125.943,205.818,120.248z"/>
</g>
<path d="M499.984,108.145H374.071c-4.328,0-7.837,3.508-7.837,7.837s3.509,7.837,7.837,7.837h122.256v158.949h-369.07
	c-72.085,0-100.299-13.936-108.71-19.523c2.775-10.51,7.489-20.837,13.648-30.764h32.433c21.521,0,41.921-7.936,57.442-22.345
	c0,0,0.002-0.001,0.003-0.002c12.478-11.594,33.428-26.956,62.38-34.299c17.194-4.36,29.202-19.833,29.202-37.628v-11.23
	c14.519-2.092,29.231-3.159,44.007-3.159h79.885c4.328,0,7.837-3.508,7.837-7.837s-3.509-7.837-7.837-7.837h-79.885
	c-17.729,0-35.371,1.465-52.727,4.325c-0.133,0.015-0.264,0.022-0.397,0.044c-0.669,0.111-1.332,0.237-2,0.352
	c-0.179,0.031-0.357,0.064-0.535,0.094c-24.718,4.29-48.62,11.386-71.393,21.18c-0.126,0.054-0.253,0.109-0.379,0.163
	c-1.422,0.613-2.841,1.234-4.254,1.868c-0.301,0.135-0.6,0.274-0.901,0.411c-1.963,0.889-3.919,1.798-5.865,2.729
	c-0.998,0.476-1.996,0.953-2.989,1.44c-0.728,0.357-1.453,0.721-2.179,1.085c-1.198,0.599-2.393,1.206-3.583,1.82
	c-0.56,0.289-1.121,0.577-1.679,0.869c-1.778,0.931-3.551,1.875-5.31,2.84c-0.068,0.038-0.134,0.076-0.202,0.114
	c-1.439,0.791-2.868,1.601-4.291,2.42c-0.323,0.186-0.646,0.371-0.969,0.559c-1.483,0.862-2.958,1.738-4.423,2.63
	c-0.159,0.097-0.318,0.196-0.476,0.294c-1.503,0.92-2.997,1.853-4.478,2.801c-0.062,0.04-0.124,0.078-0.186,0.118
	c-1.568,1.005-3.123,2.029-4.667,3.067c-0.1,0.068-0.201,0.136-0.301,0.203c-3.148,2.123-6.244,4.309-9.28,6.556
	c-0.024,0.018-0.047,0.034-0.071,0.052c-1.542,1.142-3.069,2.298-4.579,3.468c-0.002,0.001-0.004,0.003-0.006,0.005
	c-2.948,2.286-5.831,4.626-8.645,7.012c-0.188,0.159-0.375,0.319-0.562,0.479c-1.316,1.122-2.62,2.253-3.903,3.396
	c-0.147,0.131-0.292,0.263-0.439,0.395c-1.092,0.976-2.169,1.96-3.237,2.951c-0.325,0.302-0.652,0.602-0.976,0.905
	c-1.074,1.007-2.135,2.022-3.183,3.042c-0.436,0.423-0.864,0.85-1.296,1.275c-0.741,0.734-1.474,1.469-2.202,2.209
	c-0.645,0.654-1.282,1.311-1.915,1.971c-0.662,0.69-1.32,1.381-1.97,2.076c-0.515,0.55-1.026,1.1-1.533,1.654
	c-0.831,0.906-1.652,1.816-2.461,2.729c-0.481,0.543-0.951,1.089-1.423,1.634c-0.581,0.671-1.156,1.344-1.725,2.018
	c-0.282,0.334-0.577,0.666-0.856,1.002c-0.817,0.982-1.615,1.968-2.403,2.954c-0.076,0.096-0.152,0.192-0.228,0.287
	c-0.548,0.688-1.09,1.375-1.623,2.065c-0.312,0.403-0.619,0.808-0.926,1.212c-0.28,0.369-0.561,0.736-0.837,1.104
	c-0.509,0.678-1.007,1.358-1.503,2.039c-0.061,0.084-0.122,0.167-0.183,0.251c-1.448,1.998-2.846,4.004-4.176,6.018
	c-0.057,0.087-0.098,0.18-0.153,0.269C7.312,241.722,0.055,263.42,0.055,284.187v7.018c-0.21,3.166-0.446,18.179,12.205,32.342
	c3.693,4.134,8.096,7.785,13.178,10.962h-7.127c-6.626,0-12.016,5.391-12.016,12.016v45.316c0,6.626,5.391,12.015,12.016,12.015
	h72.237c4.328,0,7.837-3.508,7.837-7.837s-3.509-7.837-7.837-7.837H21.971v-11.164h474.286v11.164H126.424
	c-4.328,0-7.837,3.508-7.837,7.837s3.509,7.837,7.837,7.837h373.49c6.626,0,12.016-5.39,12.016-12.015v-45.316
	c0-1.436-0.266-2.807-0.729-4.083c0.509-1.33,0.8-2.768,0.8-4.275V120.159C512,113.535,506.61,108.145,499.984,108.145z
	 M197.98,138.207c0,10.613-7.147,19.839-17.381,22.435c-32.16,8.154-55.38,25.171-69.196,38.009
	c-12.613,11.708-29.224,18.155-46.776,18.155H43.343c14.814-18.449,34.117-34.902,54.18-47.703c0.918-0.584,1.839-1.165,2.766-1.738
	c0.506-0.312,1.01-0.624,1.517-0.932c1.26-0.766,2.528-1.523,3.802-2.266c0.224-0.131,0.448-0.263,0.672-0.393
	c1.566-0.906,3.142-1.798,4.728-2.669c1.561-0.857,3.132-1.696,4.706-2.523c0.545-0.286,1.095-0.567,1.643-0.851
	c0.984-0.51,1.97-1.016,2.959-1.514c0.771-0.388,1.544-0.772,2.319-1.154c0.706-0.349,1.416-0.693,2.125-1.035
	c0.975-0.471,1.951-0.94,2.932-1.401c0.326-0.153,0.653-0.302,0.98-0.455c22.032-10.24,45.335-17.796,69.308-22.522V138.207z
	 M24.26,313.448c-9.413-10.282-8.609-20.719-8.581-21.067c0.033-0.292,0.049-0.586,0.049-0.88v-7.313
	c0-1.428,0.045-2.856,0.125-4.283c15.193,7.987,47.376,18.536,111.403,18.536h369.07v36.068H97.221
	C52.855,334.51,33.057,323.056,24.26,313.448z M21.971,361.347v-11.164h75.25h399.035v11.164H21.971z"/>
<path d="M298.329,224.252c-2.721,0-5.418-0.347-8.015-1.031c-4.187-1.098-8.473,1.397-9.574,5.583
	c-1.102,4.185,1.396,8.472,5.582,9.574c3.901,1.026,7.941,1.548,12.008,1.548c25.945,0,47.053-21.108,47.053-47.053
	s-21.108-47.053-47.053-47.053s-47.053,21.108-47.053,47.053c0,5.959,1.101,11.771,3.273,17.272
	c1.59,4.027,6.144,6.003,10.167,4.412c4.026-1.589,6.001-6.141,4.412-10.167c-1.445-3.661-2.179-7.536-2.179-11.517
	c0-17.302,14.077-31.379,31.379-31.379c17.302,0,31.379,14.077,31.379,31.379S315.632,224.252,298.329,224.252z"/>
<path d="M456.87,192.873c0-25.946-21.108-47.053-47.053-47.053c-25.945,0-47.053,21.108-47.053,47.053s21.108,47.053,47.053,47.053
	C435.761,239.926,456.87,218.818,456.87,192.873z M378.436,192.873c0-17.302,14.077-31.379,31.379-31.379
	c17.302,0,31.379,14.077,31.379,31.379s-14.077,31.379-31.379,31.379S378.436,210.175,378.436,192.873z"/>
<g>
</g>
<g>
</g>
<g>
</g>
<g>
</g>
<g>
</g>
<g>
</g>
<g>
</g>
<g>
</g>
<g>
</g>
<g>
</g>
<g>
</g>
<g>
</g>
<g>
</g>
<g>
</g>
<g>
</g>
</svg>
