<?xml version="1.0" encoding="iso-8859-1"?>
<!-- Generator: Adobe Illustrator 19.0.0, SVG Export Plug-In . SVG Version: 6.00 Build 0)  -->
<svg version="1.1" id="Layer_1" xmlns="http://www.w3.org/2000/svg" xmlns:xlink="http://www.w3.org/1999/xlink" x="0px" y="0px"
	 viewBox="0 0 511.998 511.998" style="enable-background:new 0 0 511.998 511.998;" xml:space="preserve">
<path style="fill:#7FB2F0;" d="M397.712,185.296c-5.214,39.155-25.913,80.026-61.704,105.077c0.052-0.665,0.073-1.33,0.073-2.005
	c0-26.34-35.864-47.704-80.088-47.704s-80.088,21.365-80.088,47.704c0,0.675,0.021,1.34,0.073,2.005
	c-35.791-25.051-56.49-65.922-61.704-105.077C97.644,60.298,126.103,7.837,255.982,7.837
	C385.883,7.837,414.341,60.298,397.712,185.296z"/>
<g>
	<path style="fill:#5F95D4;" d="M178.31,276.75c-25.717-24.879-40.875-58.76-45.229-91.454
		C116.863,63.379,143.552,10.476,265.387,7.942c-3.08-0.065-6.203-0.106-9.405-0.106c-129.88,0-158.338,52.461-141.71,177.459
		c5.214,39.156,25.913,80.026,61.704,105.078c-0.052-0.665-0.073-1.329-0.073-2.004C175.904,284.361,176.746,280.469,178.31,276.75z
		"/>
	<path style="fill:#5F95D4;" d="M352.484,276.75c-8.714-20.726-40.188-36.086-77.683-36.086c-3.184,0-6.317,0.123-9.404,0.339
		c39.792,2.775,70.684,22.923,70.684,47.366c0,0.675-0.021,1.34-0.073,2.004C341.915,286.239,347.4,281.667,352.484,276.75z"/>
</g>
<path style="fill:#FFE666;" d="M398.553,178.68c-0.26,2.181-0.54,4.382-0.841,6.616c-5.214,39.155-25.913,80.026-61.704,105.077
	c0.052-0.665,0.073-1.33,0.073-2.005c0-26.34-35.864-47.704-80.088-47.704s-80.088,21.365-80.088,47.704
	c0,0.675,0.021,1.34,0.073,2.005c-35.791-25.051-56.49-65.922-61.704-105.077c-0.29-2.213-0.572-4.404-0.831-6.564
	c7.426-8.537,14.489-17.491,29.32-17.491c28.313,0,28.313,32.654,56.636,32.654c28.313,0,28.313-32.654,56.616-32.654
	c28.313,0,28.313,32.654,56.636,32.654c28.313,0,28.313-32.654,56.626-32.654C384.075,161.241,391.138,170.163,398.553,178.68z"/>
<path style="fill:#EDBF31;" d="M175.901,288.371c0,0.669,0.021,1.337,0.073,2.006c-35.788-25.057-56.487-65.923-61.701-105.085
	c-0.293-2.205-0.575-4.389-0.836-6.552c0-0.01,0-0.01,0-0.01c5.036-5.789,9.916-11.776,17.168-15.015
	c0.658,6.938,1.484,14.127,2.476,21.577c4.357,32.695,19.508,66.581,45.234,91.46C176.748,280.472,175.901,284.359,175.901,288.371z
	"/>
<path style="fill:#F75534;" d="M269.117,314.64v176.4c0,5.204-3.041,9.718-7.44,11.828c-1.724,0.836-3.647,1.296-5.684,1.296
	c-6.802,0-12.382-5.172-13.061-11.786c0-0.042,0-0.084-0.01-0.115c-0.01-0.178-0.021-0.366-0.031-0.554
	c-0.01-0.251-0.021-0.47-0.021-0.669v-176.4H269.117z"/>
<path style="fill:#BD391E;" d="M261.677,314.64v188.228c-1.724,0.836-3.647,1.296-5.684,1.296c-6.802,0-12.382-5.172-13.061-11.786
	c0-0.042,0-0.084-0.01-0.115c-0.01-0.178-0.021-0.366-0.031-0.554c-0.01-0.251-0.021-0.47-0.021-0.669v-176.4H261.677z"/>
<path d="M401.914,142.881c-4.322-0.288-8.05,2.988-8.333,7.308c-0.236,3.602-0.536,7.346-0.889,11.201
	c-5.794-4.537-13.123-7.986-23.259-7.986c-17.734,0-26.883,10.552-34.234,19.03c-6.6,7.612-11.813,13.624-22.392,13.624
	c-10.586,0-15.801-6.013-22.404-13.627c-7.352-8.477-16.501-19.028-34.233-19.028c-17.728,0-26.874,10.551-34.224,19.029
	c-6.6,7.612-11.813,13.625-22.392,13.625c-2.806,0-5.284-0.4-7.578-1.223c-4.075-1.459-8.562,0.658-10.023,4.731
	c-1.461,4.073,0.657,8.561,4.732,10.022c3.964,1.422,8.294,2.143,12.868,2.143c17.736,0,26.884-10.553,34.235-19.033
	c6.597-7.61,11.808-13.621,22.381-13.621c10.579,0,15.792,6.011,22.391,13.622c7.354,8.478,16.504,19.032,34.244,19.032
	c17.734,0,26.883-10.552,34.234-19.03c6.6-7.612,11.813-13.624,22.392-13.624c9.864,0,15.062,5.225,21.068,12.101
	c-0.132,1.024-0.261,2.046-0.399,3.082c-0.299,2.249-0.649,4.487-1.048,6.713c-5.985,33.392-23.045,64.022-47.108,84.944
	c-0.111-0.318-0.245-0.63-0.364-0.946c-0.123-0.325-0.243-0.651-0.375-0.974c-0.229-0.56-0.479-1.114-0.733-1.667
	c-0.126-0.274-0.243-0.55-0.376-0.822c-0.392-0.802-0.806-1.598-1.252-2.383c-0.028-0.05-0.059-0.099-0.088-0.149
	c-0.436-0.762-0.9-1.514-1.386-2.259c-0.176-0.269-0.366-0.532-0.548-0.798c-0.348-0.511-0.7-1.02-1.072-1.521
	c-0.224-0.303-0.458-0.601-0.69-0.9c-0.356-0.46-0.72-0.917-1.096-1.37c-0.253-0.304-0.511-0.607-0.772-0.908
	c-0.386-0.443-0.782-0.882-1.186-1.317c-0.27-0.29-0.538-0.582-0.816-0.869c-0.438-0.452-0.891-0.898-1.349-1.342
	c-0.264-0.256-0.521-0.514-0.791-0.767c-0.589-0.551-1.2-1.091-1.819-1.628c-0.156-0.134-0.302-0.273-0.459-0.405
	c-0.777-0.659-1.58-1.306-2.402-1.941c-0.269-0.208-0.55-0.408-0.822-0.612c-0.574-0.429-1.149-0.857-1.743-1.275
	c-0.343-0.241-0.696-0.478-1.046-0.716c-0.546-0.371-1.097-0.74-1.659-1.1c-0.378-0.242-0.761-0.482-1.146-0.72
	c-0.562-0.348-1.133-0.691-1.709-1.028c-0.393-0.23-0.786-0.46-1.185-0.685c-0.608-0.343-1.228-0.677-1.851-1.009
	c-0.382-0.204-0.761-0.411-1.148-0.61c-0.738-0.379-1.491-0.746-2.249-1.111c-0.287-0.138-0.567-0.282-0.858-0.418
	c-1.047-0.49-2.113-0.965-3.196-1.425c-0.299-0.127-0.606-0.246-0.907-0.37c-0.802-0.331-1.609-0.659-2.43-0.975
	c-0.424-0.163-0.856-0.318-1.285-0.476c-0.717-0.264-1.437-0.527-2.167-0.778c-0.468-0.162-0.941-0.319-1.415-0.474
	c-0.716-0.237-1.437-0.467-2.165-0.692c-0.483-0.148-0.966-0.296-1.453-0.439c-0.752-0.22-1.512-0.433-2.277-0.641
	c-0.471-0.129-0.939-0.259-1.415-0.381c-0.862-0.223-1.735-0.433-2.61-0.638c-0.386-0.091-0.766-0.188-1.155-0.276
	c-1.265-0.285-2.543-0.555-3.837-0.805c-0.227-0.044-0.458-0.08-0.685-0.122c-1.075-0.202-2.157-0.394-3.249-0.571
	c-0.464-0.075-0.934-0.14-1.401-0.211c-0.87-0.131-1.744-0.259-2.626-0.373c-0.526-0.069-1.055-0.131-1.585-0.194
	c-0.841-0.099-1.686-0.193-2.536-0.279c-0.547-0.054-1.095-0.107-1.646-0.156c-0.862-0.076-1.729-0.142-2.6-0.203
	c-0.536-0.038-1.071-0.076-1.61-0.109c-0.948-0.055-1.904-0.096-2.861-0.133c-0.465-0.018-0.927-0.043-1.393-0.056
	c-1.425-0.042-2.858-0.066-4.301-0.066c-1.443,0-2.877,0.025-4.301,0.066c-0.467,0.014-0.929,0.039-1.393,0.056
	c-0.957,0.037-1.913,0.077-2.861,0.133c-0.539,0.031-1.074,0.071-1.61,0.109c-0.87,0.061-1.738,0.126-2.6,0.203
	c-0.551,0.049-1.098,0.101-1.645,0.156c-0.851,0.086-1.696,0.179-2.537,0.279c-0.53,0.063-1.058,0.124-1.584,0.193
	c-0.882,0.115-1.755,0.242-2.627,0.374c-0.467,0.07-0.936,0.135-1.4,0.21c-1.093,0.177-2.174,0.369-3.25,0.571
	c-0.227,0.043-0.459,0.078-0.684,0.122c-1.294,0.25-2.572,0.519-3.837,0.805c-0.388,0.087-0.768,0.184-1.154,0.275
	c-0.877,0.207-1.75,0.416-2.612,0.639c-0.474,0.123-0.942,0.253-1.413,0.381c-0.765,0.208-1.527,0.42-2.279,0.641
	c-0.487,0.143-0.97,0.29-1.451,0.439c-0.728,0.224-1.45,0.455-2.166,0.692c-0.473,0.156-0.947,0.312-1.415,0.474
	c-0.73,0.253-1.451,0.514-2.168,0.779c-0.428,0.158-0.86,0.312-1.284,0.475c-0.823,0.317-1.631,0.645-2.436,0.978
	c-0.3,0.124-0.606,0.241-0.903,0.368c-1.084,0.461-2.149,0.936-3.196,1.426c-0.29,0.136-0.571,0.28-0.858,0.418
	c-0.759,0.364-1.512,0.731-2.25,1.111c-0.388,0.2-0.765,0.406-1.147,0.609c-0.624,0.332-1.244,0.668-1.853,1.011
	c-0.399,0.225-0.791,0.455-1.184,0.683c-0.578,0.339-1.148,0.681-1.71,1.029c-0.385,0.238-0.767,0.478-1.144,0.719
	c-0.563,0.363-1.115,0.73-1.662,1.102c-0.349,0.237-0.701,0.472-1.043,0.714c-0.595,0.419-1.173,0.847-1.747,1.278
	c-0.272,0.204-0.552,0.402-0.818,0.609c-0.823,0.635-1.626,1.283-2.404,1.942c-0.155,0.131-0.299,0.268-0.451,0.399
	c-0.623,0.538-1.235,1.081-1.826,1.634c-0.27,0.252-0.526,0.509-0.788,0.763c-0.459,0.445-0.913,0.891-1.352,1.345
	c-0.277,0.286-0.544,0.577-0.814,0.867c-0.404,0.436-0.801,0.876-1.188,1.32c-0.261,0.3-0.518,0.602-0.77,0.905
	c-0.377,0.453-0.742,0.912-1.099,1.373c-0.231,0.298-0.464,0.595-0.686,0.895c-0.372,0.503-0.725,1.013-1.074,1.525
	c-0.181,0.265-0.371,0.528-0.545,0.796c-0.488,0.748-0.954,1.504-1.391,2.268c-0.025,0.044-0.051,0.086-0.076,0.13
	c-0.448,0.789-0.864,1.588-1.257,2.394c-0.133,0.272-0.25,0.548-0.376,0.822c-0.255,0.553-0.505,1.107-0.734,1.667
	c-0.132,0.323-0.252,0.649-0.375,0.974c-0.119,0.316-0.253,0.628-0.364,0.946c-1.604-1.395-3.178-2.833-4.718-4.311
	c-23.11-22.186-38.946-53.617-43.438-87.344c-0.136-1.024-0.258-2.023-0.388-3.035c6.02-6.901,11.22-12.148,21.11-12.148
	c5.517,0,9.883,1.564,14.151,5.073c3.345,2.748,8.282,2.265,11.03-1.079c2.748-3.344,2.264-8.283-1.079-11.031
	c-7.073-5.812-14.957-8.637-24.103-8.637c-10.157,0-17.496,3.462-23.295,8.011c-4.981-54.914,1.599-89.82,20.689-111.618
	c20.387-23.28,57.191-34.123,115.824-34.123c49.359,0,83.749,7.903,105.133,24.159c20.484,15.572,30.891,39.841,32.751,76.372
	c0.22,4.324,3.903,7.651,8.225,7.428c4.323-0.22,7.648-3.902,7.428-8.224c-2.112-41.494-14.479-69.473-38.919-88.054
	C346.208,8.693,309.787,0,256.139,0c-63.482,0-104.033,12.543-127.617,39.471c-13.253,15.133-21.278,34.865-24.533,60.322
	c-2.915,22.8-2.041,51.106,2.672,86.536c5.976,44.871,30.267,86.166,64.979,110.463c0.003,0.002,0.006,0.003,0.009,0.005
	c18.843,13.19,40.149,21.321,63.534,24.332v169.902c0,11.561,9.405,20.966,20.966,20.966c11.561,0,20.966-9.405,20.966-20.966
	v-78.784c0-4.329-3.509-7.837-7.837-7.837s-7.837,3.508-7.837,7.837v78.784c0,2.918-2.374,5.292-5.292,5.292
	s-5.292-2.374-5.292-5.292v-168.56h5.257c0.013,0,0.024,0.002,0.037,0.002c0.013,0,0.024-0.002,0.037-0.002h5.256v53.426
	c0,4.329,3.509,7.837,7.837,7.837c4.328,0,7.837-3.508,7.837-7.837v-54.767c23.385-3.009,44.691-11.142,63.534-24.331
	c0.003-0.002,0.006-0.003,0.009-0.005c3.255-2.278,6.417-4.705,9.481-7.27c28.605-23.948,48.663-59.947,54.883-98.995
	c0.223-1.396,0.427-2.796,0.614-4.199c1.699-12.773,2.871-24.258,3.583-35.115C409.504,146.896,406.232,143.166,401.914,142.881z
	 M184.211,284.838c0.028-0.166,0.042-0.333,0.073-0.499c0.125-0.653,0.279-1.302,0.464-1.946c0.009-0.034,0.024-0.068,0.034-0.102
	c0.177-0.607,0.376-1.21,0.604-1.808c0.071-0.186,0.16-0.369,0.235-0.554c0.182-0.444,0.363-0.888,0.572-1.328
	c0.107-0.223,0.231-0.442,0.345-0.664c0.203-0.397,0.402-0.794,0.627-1.186c0.135-0.236,0.288-0.468,0.432-0.702
	c0.228-0.372,0.451-0.745,0.698-1.112c0.163-0.242,0.343-0.48,0.514-0.72c0.252-0.353,0.501-0.707,0.77-1.056
	c0.188-0.243,0.393-0.483,0.59-0.724c0.277-0.339,0.552-0.678,0.845-1.012c0.212-0.241,0.439-0.479,0.659-0.718
	c0.302-0.327,0.603-0.654,0.921-0.977c0.235-0.238,0.483-0.472,0.726-0.707c0.326-0.316,0.653-0.631,0.994-0.941
	c0.258-0.234,0.528-0.464,0.793-0.696c0.349-0.303,0.699-0.606,1.062-0.904c0.28-0.23,0.569-0.456,0.858-0.681
	c0.371-0.292,0.745-0.583,1.13-0.869c0.3-0.223,0.608-0.442,0.916-0.662c0.394-0.281,0.791-0.561,1.197-0.836
	c0.32-0.216,0.646-0.428,0.973-0.641c0.415-0.27,0.834-0.537,1.261-0.8c0.181-0.111,0.367-0.219,0.55-0.33l35.821,44.13
	c-20.138-2.353-38.527-8.886-54.865-19.551C184.058,285.771,184.133,285.304,184.211,284.838z M219.524,254.204
	c0.539-0.18,1.086-0.353,1.633-0.525c0.451-0.142,0.903-0.284,1.36-0.421c0.555-0.165,1.117-0.324,1.68-0.482
	c0.464-0.131,0.927-0.261,1.396-0.387c0.568-0.152,1.144-0.294,1.721-0.437c0.476-0.118,0.951-0.238,1.433-0.35
	c0.583-0.137,1.173-0.264,1.764-0.392c0.486-0.106,0.97-0.214,1.461-0.313c0.598-0.121,1.204-0.233,1.808-0.346
	c0.493-0.092,0.984-0.187,1.483-0.274c0.616-0.107,1.241-0.202,1.864-0.3c0.495-0.077,0.987-0.159,1.487-0.231
	c0.639-0.092,1.287-0.171,1.934-0.254c0.492-0.063,0.981-0.131,1.476-0.187c0.667-0.076,1.341-0.139,2.012-0.205
	c0.485-0.047,0.965-0.101,1.452-0.143c0.704-0.061,1.417-0.106,2.127-0.154c0.233-0.016,0.465-0.034,0.699-0.049v43.794
	l-30.611-37.711c0.167-0.06,0.332-0.12,0.501-0.179C218.641,254.505,219.08,254.351,219.524,254.204z M266.814,248.957
	c0.488,0.042,0.969,0.096,1.453,0.143c0.672,0.066,1.345,0.129,2.011,0.204c0.496,0.057,0.985,0.125,1.477,0.187
	c0.646,0.083,1.293,0.162,1.932,0.254c0.499,0.071,0.992,0.153,1.487,0.231c0.623,0.098,1.248,0.193,1.865,0.3
	c0.498,0.087,0.99,0.182,1.483,0.274c0.604,0.113,1.21,0.224,1.808,0.346c0.49,0.099,0.975,0.208,1.461,0.313
	c0.59,0.127,1.181,0.255,1.764,0.392c0.482,0.112,0.956,0.233,1.433,0.351c0.576,0.143,1.151,0.285,1.72,0.437
	c0.469,0.125,0.932,0.256,1.396,0.387c0.563,0.158,1.125,0.317,1.68,0.482c0.458,0.137,0.909,0.279,1.36,0.421
	c0.548,0.172,1.094,0.345,1.633,0.525c0.445,0.148,0.884,0.301,1.323,0.455c0.167,0.059,0.332,0.119,0.498,0.179l-30.611,37.711
	v-43.794c0.234,0.015,0.466,0.033,0.699,0.049C265.396,248.852,266.108,248.898,266.814,248.957z M273.424,305.791l35.821-44.13
	c0.184,0.111,0.37,0.219,0.552,0.331c0.425,0.261,0.841,0.528,1.254,0.796c0.33,0.214,0.659,0.428,0.981,0.646
	c0.404,0.274,0.798,0.552,1.19,0.831c0.31,0.222,0.621,0.442,0.923,0.667c0.383,0.284,0.754,0.575,1.124,0.865
	c0.289,0.228,0.581,0.455,0.863,0.685c0.361,0.296,0.708,0.597,1.055,0.899c0.269,0.233,0.54,0.466,0.8,0.702
	c0.339,0.307,0.661,0.62,0.985,0.933c0.247,0.238,0.497,0.475,0.736,0.716c0.315,0.32,0.612,0.644,0.912,0.968
	c0.224,0.241,0.453,0.483,0.668,0.727c0.29,0.33,0.562,0.667,0.836,1.001c0.201,0.245,0.409,0.488,0.6,0.737
	c0.265,0.343,0.51,0.691,0.758,1.038c0.176,0.247,0.36,0.491,0.528,0.74c0.24,0.358,0.459,0.721,0.68,1.084
	c0.149,0.243,0.308,0.485,0.449,0.73c0.217,0.379,0.41,0.764,0.606,1.147c0.12,0.234,0.252,0.466,0.365,0.702
	c0.199,0.417,0.369,0.839,0.542,1.261c0.086,0.208,0.185,0.413,0.263,0.621c0.202,0.531,0.374,1.067,0.536,1.605
	c0.031,0.102,0.072,0.204,0.101,0.307c0.183,0.641,0.336,1.285,0.461,1.935c0.04,0.208,0.059,0.417,0.092,0.626
	c0.069,0.426,0.14,0.852,0.183,1.281C311.951,296.906,293.562,303.438,273.424,305.791z"/>
<g>
</g>
<g>
</g>
<g>
</g>
<g>
</g>
<g>
</g>
<g>
</g>
<g>
</g>
<g>
</g>
<g>
</g>
<g>
</g>
<g>
</g>
<g>
</g>
<g>
</g>
<g>
</g>
<g>
</g>
</svg>
