<?xml version="1.0" encoding="iso-8859-1"?>
<!-- Generator: Adobe Illustrator 19.0.0, SVG Export Plug-In . SVG Version: 6.00 Build 0)  -->
<svg version="1.1" id="Layer_1" xmlns="http://www.w3.org/2000/svg" xmlns:xlink="http://www.w3.org/1999/xlink" x="0px" y="0px"
	 viewBox="0 0 512.001 512.001" style="enable-background:new 0 0 512.001 512.001;" xml:space="preserve">
<path style="fill:#B36E44;" d="M268.539,96.246v404.846c0,1.693-1.379,3.072-3.072,3.072h-18.934c-1.693,0-3.072-1.379-3.072-3.072
	V96.246c0-1.693,1.379-3.072,3.072-3.072h18.934C267.16,93.174,268.539,94.554,268.539,96.246z"/>
<path style="fill:#8C5635;" d="M262.27,93.174v410.99h-15.736c-1.693,0-3.072-1.379-3.072-3.072V96.246
	c0-1.693,1.379-3.072,3.072-3.072H262.27z"/>
<rect x="243.462" y="286.303" style="fill:#F75534;" width="25.078" height="68.963"/>
<rect x="243.462" y="286.303" style="fill:#BD391E;" width="18.808" height="68.963"/>
<path style="fill:#F75534;" d="M488.56,174.008H23.441c-4.277,0-5.793-5.662-2.089-7.799L256,30.784l234.649,135.425
	C494.353,168.345,492.837,174.008,488.56,174.008z"/>
<g>
	<path style="fill:#E64524;" d="M256,30.784L51.284,174.008H23.441c-4.277,0-5.793-5.662-2.089-7.799L256,30.784z"/>
	<polygon style="fill:#E64524;" points="256,30.784 136.454,174.008 104.574,174.008 	"/>
	<polygon style="fill:#E64524;" points="177.736,174.012 207.935,174.012 256,30.784 	"/>
	<polygon style="fill:#E64524;" points="256,30.784 408.994,174.008 452.441,174.008 	"/>
	<polygon style="fill:#E64524;" points="256,30.784 335.925,174.008 367.804,174.008 	"/>
	<polygon style="fill:#E64524;" points="286.199,174.012 256,174.012 256,30.784 	"/>
</g>
<path d="M508.081,167.224L263.837,26.255V7.838c0-4.329-3.508-7.837-7.837-7.837s-7.837,3.508-7.837,7.837v18.424L127.998,95.613
	c-3.749,2.164-5.033,6.956-2.87,10.705c2.163,3.748,6.955,5.03,10.705,2.87l63.839-36.844
	c-33.993,31.823-66.863,63.205-98.283,93.831H37.093l71.398-41.207c3.749-2.164,5.033-6.956,2.87-10.705
	c-2.164-3.749-6.957-5.032-10.705-2.87L3.92,167.224c-3.072,1.773-4.57,5.389-3.652,8.816c0.917,3.426,4.023,5.81,7.569,5.81h77.527
	c-0.018,0.018-0.037,0.036-0.054,0.053c-3.089,3.032-3.133,7.993-0.1,11.081c1.534,1.562,3.562,2.346,5.591,2.346
	c1.982,0,3.965-0.747,5.491-2.245c3.799-3.731,7.629-7.479,11.474-11.235h8.858l119.001,147.859v25.557v30.824
	c0,4.329,3.508,7.837,7.837,7.837c4.329,0,7.837-3.508,7.837-7.837v-22.988h9.404v133.224h-9.404v-73.843
	c0-4.329-3.508-7.837-7.837-7.837c-4.329,0-7.837,3.508-7.837,7.837v78.607c0,6.015,4.894,10.909,10.909,10.909h18.932
	c6.016,0,10.909-4.894,10.909-10.909V355.266v-25.557L395.376,181.85h8.858c3.845,3.755,7.675,7.503,11.474,11.235
	c1.526,1.499,3.508,2.245,5.491,2.245c2.028,0,4.057-0.784,5.591-2.346c3.032-3.088,2.988-8.049-0.1-11.081
	c-0.018-0.018-0.037-0.036-0.054-0.053h9.261c4.329,0,7.837-3.508,7.837-7.837c0-4.329-3.508-7.837-7.837-7.837h-25.285
	c-31.423-30.63-64.298-62.016-98.296-93.843l162.592,93.843H470.9c-4.329,0-7.837,3.508-7.837,7.837
	c0,4.329,3.508,7.837,7.837,7.837h33.263c3.547,0,6.652-2.382,7.569-5.81C512.651,172.613,511.153,168.997,508.081,167.224z
	 M229.524,95.534c6.497-11.812,12.639-22.988,18.64-33.957v104.6h-4.622c-0.027,0-0.053-0.004-0.08-0.004
	c-0.027,0-0.053,0.004-0.08,0.004h-52.516c1.781-3.291,3.604-6.657,5.49-10.126c10.086-18.559,20.444-37.386,30.462-55.594
	L229.524,95.534z M235.625,181.849v91.937l-32.628-91.937H235.625z M251.298,181.849h9.404v96.618h-9.404V181.849z M276.376,181.849
	h32.628l-32.628,91.937V181.849z M268.62,166.175c-0.027,0-0.053-0.004-0.08-0.004c-0.027,0-0.053,0.004-0.08,0.004h-4.622V61.576
	c6.001,10.97,12.143,22.147,18.64,33.958l2.707,4.92c10.017,18.207,20.376,37.034,30.462,55.594c1.886,3.47,3.709,6.835,5.49,10.126
	H268.62V166.175z M226.22,69.005c-3.396,6.185-6.855,12.477-10.428,18.974l-2.707,4.92c-10.027,18.224-20.394,37.07-30.501,55.665
	c-3.339,6.145-6.5,11.988-9.529,17.611h-49.182C156.604,134.435,190.843,101.93,226.22,69.005z M164.653,181.849
	c-0.222,0.416-0.447,0.838-0.668,1.252c-2.034,3.819-0.588,8.566,3.232,10.602c1.173,0.626,2.435,0.923,3.678,0.923
	c2.803,0,5.514-1.508,6.924-4.155c1.506-2.826,3.041-5.699,4.607-8.621h3.939l39.141,110.289l-88.763-110.289L164.653,181.849
	L164.653,181.849z M251.298,347.429v-53.29h9.404v53.29H251.298z M286.495,292.138l39.141-110.289h3.939
	c1.566,2.923,3.102,5.795,4.607,8.621c1.411,2.646,4.12,4.155,6.924,4.155c1.242,0,2.504-0.297,3.678-0.923
	c3.82-2.034,5.266-6.781,3.232-10.602c-0.22-0.414-0.446-0.836-0.668-1.252h27.91L286.495,292.138z M338.946,166.175
	c-3.028-5.623-6.19-11.465-9.529-17.611c-10.107-18.596-20.475-37.441-30.501-55.665l-2.707-4.919
	c-3.574-6.498-7.033-12.79-10.428-18.975c35.377,32.925,69.615,65.43,102.348,97.17H338.946z"/>
<g>
</g>
<g>
</g>
<g>
</g>
<g>
</g>
<g>
</g>
<g>
</g>
<g>
</g>
<g>
</g>
<g>
</g>
<g>
</g>
<g>
</g>
<g>
</g>
<g>
</g>
<g>
</g>
<g>
</g>
</svg>
