<?xml version="1.0" encoding="iso-8859-1"?>
<!-- Generator: Adobe Illustrator 19.0.0, SVG Export Plug-In . SVG Version: 6.00 Build 0)  -->
<svg version="1.1" id="Layer_1" xmlns="http://www.w3.org/2000/svg" xmlns:xlink="http://www.w3.org/1999/xlink" x="0px" y="0px"
	 viewBox="0 0 512 512" style="enable-background:new 0 0 512 512;" xml:space="preserve">
<path style="fill:#7A4B2E;" d="M11.602,500.398L11.602,500.398c-5.02-5.02-5.02-13.158,0-18.178L482.22,11.601
	c5.02-5.02,13.158-5.02,18.178,0l0,0c5.02,5.02,5.02,13.158,0,18.178L29.78,500.398C24.76,505.418,16.621,505.418,11.602,500.398z"
	/>
<circle style="fill:#B36E44;" cx="179.325" cy="332.675" r="94.023"/>
<path style="fill:#A9CF54;" d="M287.05,307.431l-82.481-82.481c-11.868-11.868-11.868-31.111,0-42.98l65.755-65.755
	c11.868-11.868,31.111-11.868,42.98,0l82.481,82.481c11.868,11.869,11.868,31.111,0,42.98l-65.755,65.755
	C318.161,319.299,298.918,319.299,287.05,307.431z"/>
<path style="fill:#FFE666;" d="M407.801,210.711L301.289,104.199c-14.451-14.451-7.521-39.148,12.338-43.971l140.683-34.17
	c8.88-2.157,18.241,0.47,24.702,6.931l0,0c6.462,6.462,9.089,15.823,6.931,24.702l-34.17,140.683
	C446.949,218.233,422.253,225.163,407.801,210.711z"/>
<path style="fill:#8C5635;" d="M131.65,399.158c-36.719-36.719-36.719-96.25,0-132.968c15.964-15.964,36.241-24.978,57.08-27.061
	c-27.092-2.707-55.134,6.307-75.888,27.061c-36.719,36.719-36.719,96.25,0,132.968c20.754,20.754,48.796,29.769,75.888,27.062
	C167.891,424.138,147.614,415.123,131.65,399.158z"/>
<path style="fill:#92B83D;" d="M305.858,307.431l-82.481-82.481c-11.868-11.869-11.868-31.111,0-42.98l65.755-65.755
	c3.51-3.51,7.667-5.974,12.085-7.407c-10.522-3.415-22.535-0.952-30.893,7.407l-65.755,65.755c-11.868,11.868-11.868,31.111,0,42.98
	l82.481,82.481c8.358,8.359,20.372,10.822,30.893,7.407C313.526,313.405,309.368,310.941,305.858,307.431z"/>
<path style="fill:#EDBF31;" d="M426.609,210.711L320.097,104.199c-14.451-14.451-7.521-39.148,12.338-43.972l137.082-33.296
	c-4.797-1.762-10.081-2.12-15.207-0.875l-140.683,34.17c-19.859,4.824-26.789,29.52-12.338,43.972l106.513,106.513
	c7.869,7.869,18.771,9.386,27.853,5.941C432.41,215.391,429.328,213.43,426.609,210.711z"/>
<path d="M476.678,6.046l-11.751,11.753c-4.116-0.55-8.346-0.369-12.469,0.632L311.777,52.603
	c-12.117,2.943-21.361,11.868-24.731,23.875c-2.221,7.916-1.546,16.013,1.688,23.142c-8.738,0.7-17.281,4.376-23.951,11.046
	l-65.755,65.759c-14.905,14.905-14.905,39.16,0,54.065l2.937,2.937c-24.194-5.509-50.229-2.23-72.834,10.586
	c-3.766,2.134-5.088,6.916-2.953,10.682c2.135,3.766,6.916,5.09,10.682,2.953c33.556-19.019,76.064-13.24,103.383,14.059
	l0.045,0.044c33.584,33.607,33.578,88.272-0.02,121.871c-33.605,33.605-88.282,33.604-121.885,0.001
	c-2.845-2.846-5.448-5.846-7.818-8.971c-0.059-0.075-0.115-0.15-0.176-0.223c-23.398-31.059-23.31-74.519,1.639-105.61
	c2.709-3.376,2.168-8.309-1.207-11.017c-3.377-2.711-8.309-2.167-11.017,1.207c-28.109,35.03-29.506,83.329-5.636,119.563
	L6.055,476.69C2.151,480.596,0,485.792,0,491.32s2.151,10.725,6.062,14.639c4.036,4.027,9.333,6.041,14.631,6.041
	c5.299,0,10.598-2.016,14.629-6.046l39.476-39.478c3.061-3.062,3.061-8.023,0-11.084c-3.062-3.059-8.023-3.059-11.083,0
	L24.238,494.87c-1.954,1.957-5.143,1.951-7.097,0.002c-0.946-0.947-1.467-2.208-1.467-3.552c0-1.343,0.521-2.604,1.466-3.549
	l86.698-86.702c1.119,1.233,2.271,2.447,3.461,3.637c1.19,1.19,2.405,2.34,3.639,3.459l-25.626,25.627
	c-3.061,3.062-3.061,8.023,0,11.084c1.531,1.53,3.537,2.295,5.542,2.295s4.011-0.765,5.542-2.295l27.034-27.035
	c16.898,11.098,36.396,16.651,55.897,16.651c26.084,0,52.169-9.929,72.027-29.787c25.638-25.64,34.699-61.655,27.234-94.654
	l2.922,2.922c7.454,7.453,17.241,11.179,27.031,11.179c9.788,0,19.579-3.728,27.031-11.179l65.756-65.758
	c6.668-6.667,10.343-15.206,11.046-23.943c4.32,1.959,8.993,2.981,13.77,2.981c3.105,0,6.253-0.428,9.372-1.303
	c12.006-3.37,20.93-12.615,23.874-24.732l14.871-61.231c1.022-4.207-1.56-8.444-5.766-9.466c-4.205-1.021-8.444,1.561-9.466,5.766
	l-14.871,61.231c-1.588,6.536-6.401,11.523-12.876,13.34c-6.477,1.817-13.183,0.062-17.938-4.694l-12.015-12.016l-82.482-82.485
	l-12.015-12.016c-4.756-4.756-6.511-11.461-4.694-17.939c1.817-6.476,6.804-11.289,13.34-12.877l140.683-34.172
	c6.182-1.503,12.814,0.359,17.31,4.859c4.498,4.497,6.359,11.131,4.858,17.311L467.187,101.7c-1.022,4.207,1.56,8.444,5.766,9.466
	c4.206,1.024,8.444-1.56,9.466-5.766l11.14-45.868c1.001-4.123,1.184-8.353,0.633-12.47l11.753-11.753
	c3.904-3.906,6.055-9.102,6.055-14.631s-2.151-10.725-6.063-14.639C497.864-2.016,484.739-2.013,476.678,6.046z M390.244,204.235
	c4.26,4.259,6.606,9.923,6.606,15.948s-2.346,11.689-6.606,15.948l-65.756,65.758c-4.259,4.26-9.923,6.607-15.948,6.607
	s-11.689-2.346-15.948-6.607l-32.106-32.107c-0.014-0.014-0.024-0.028-0.038-0.042c-0.014-0.014-0.029-0.025-0.044-0.04
	l-18.108-18.109c-0.014-0.015-0.025-0.029-0.039-0.044c-0.014-0.014-0.028-0.024-0.042-0.038l-32.106-32.107
	c-4.26-4.259-6.606-9.923-6.606-15.948s2.346-11.689,6.606-15.948l65.755-65.759c4.259-4.26,9.923-6.607,15.948-6.607
	s11.689,2.346,15.948,6.607L390.244,204.235z M494.862,24.227l-7.037,7.037c-0.992-1.345-2.074-2.631-3.271-3.827
	c-1.196-1.196-2.483-2.28-3.827-3.271l7.036-7.037c1.954-1.957,5.143-1.951,7.097-0.002c0.946,0.947,1.467,2.208,1.467,3.552
	C496.327,22.021,495.805,23.282,494.862,24.227z"/>
<circle cx="234.841" cy="356.948" r="7.837"/>
<circle cx="127.478" cy="338.171" r="7.837"/>
<circle cx="171.489" cy="273.92" r="7.837"/>
<circle cx="240.839" cy="187.162" r="7.837"/>
<circle cx="362.381" cy="211.822" r="7.837"/>
<circle cx="301.432" cy="243.012" r="7.837"/>
<circle cx="346.708" cy="87.845" r="7.837"/>
<circle cx="425.796" cy="147.811" r="7.837"/>
<circle cx="433.633" cy="83.78" r="7.837"/>
<g>
</g>
<g>
</g>
<g>
</g>
<g>
</g>
<g>
</g>
<g>
</g>
<g>
</g>
<g>
</g>
<g>
</g>
<g>
</g>
<g>
</g>
<g>
</g>
<g>
</g>
<g>
</g>
<g>
</g>
</svg>
