<?xml version="1.0" encoding="iso-8859-1"?>
<!-- Generator: Adobe Illustrator 19.0.0, SVG Export Plug-In . SVG Version: 6.00 Build 0)  -->
<svg version="1.1" id="Layer_1" xmlns="http://www.w3.org/2000/svg" xmlns:xlink="http://www.w3.org/1999/xlink" x="0px" y="0px"
	 viewBox="0 0 512 512" style="enable-background:new 0 0 512 512;" xml:space="preserve">
<path style="fill:#ED9F31;" d="M256,7.837C118.943,7.837,7.837,118.943,7.837,256c0,137.056,111.106,248.163,248.163,248.163
	S504.163,393.056,504.163,256C504.163,118.943,393.057,7.837,256,7.837z M319.441,317.351c0,1.154-0.935,2.09-2.09,2.09H194.649
	c-1.155,0-2.09-0.936-2.09-2.09V194.649c0-1.155,0.935-2.09,2.09-2.09h122.703c1.155,0,2.09,0.935,2.09,2.09v122.702H319.441z"/>
<path style="fill:#FFE666;" d="M256,38.747C136.014,38.747,38.747,136.014,38.747,256S136.014,473.253,256,473.253
	S473.253,375.986,473.253,256S375.986,38.747,256,38.747z M319.441,317.351c0,1.154-0.935,2.09-2.09,2.09H194.649
	c-1.155,0-2.09-0.936-2.09-2.09V194.649c0-1.155,0.935-2.09,2.09-2.09h122.703c1.155,0,2.09,0.935,2.09,2.09v122.702H319.441z"/>
<g>
	<path style="fill:#EDC649;" d="M57.555,256c0-116.833,92.228-212.112,207.849-217.038c-3.119-0.133-6.252-0.215-9.404-0.215
		C136.014,38.747,38.747,136.014,38.747,256S136.014,473.253,256,473.253c3.152,0,6.285-0.083,9.404-0.215
		C149.783,468.112,57.555,372.833,57.555,256z"/>
	<path style="fill:#EDC649;" d="M317.351,319.441h18.808c1.155,0,2.09-0.936,2.09-2.09V194.649c0-1.155-0.935-2.09-2.09-2.09
		h-18.808c1.155,0,2.09,0.935,2.09,2.09v122.703C319.441,318.506,318.506,319.441,317.351,319.441z"/>
</g>
<path style="fill:#ED9F31;" d="M340.452,167.369H171.548c-2.308,0-4.18,1.871-4.18,4.18v168.904c0,2.308,1.871,4.18,4.18,4.18
	h168.904c2.308,0,4.18-1.871,4.18-4.18V171.548C344.631,169.24,342.76,167.369,340.452,167.369z M319.441,317.351
	c0,1.154-0.935,2.09-2.09,2.09H194.649c-1.155,0-2.09-0.936-2.09-2.09V194.649c0-1.155,0.935-2.09,2.09-2.09h122.703
	c1.155,0,2.09,0.935,2.09,2.09v122.702H319.441z"/>
<path d="M127.873,431.642c-2.426,3.584-1.488,8.456,2.097,10.883c37.268,25.23,80.849,38.565,126.03,38.565
	c60.123,0,116.649-23.413,159.162-65.928C457.677,372.648,481.09,316.123,481.09,256s-23.413-116.649-65.928-159.162
	C372.649,54.323,316.123,30.91,256,30.91S139.351,54.323,96.838,96.838C54.323,139.351,30.91,195.877,30.91,256
	c0,61.372,24.252,118.724,68.288,161.49c3.106,3.018,8.068,2.942,11.081-0.161c3.016-3.105,2.942-8.067-0.161-11.081
	C69.147,366.457,46.584,313.099,46.584,256c0-115.473,93.944-209.416,209.416-209.416S465.416,140.527,465.416,256
	S371.473,465.416,256,465.416c-42.037,0-82.579-12.404-117.245-35.871C135.172,427.121,130.3,428.058,127.873,431.642z"/>
<path d="M187.211,159.532h-15.663c-6.626,0-12.016,5.391-12.016,12.016v168.904c0,6.626,5.391,12.016,12.016,12.016h168.904
	c6.626,0,12.016-5.391,12.016-12.016V171.548c0-6.626-5.391-12.016-12.016-12.016H222.911c-4.329,0-7.837,3.508-7.837,7.837
	c0,4.329,3.508,7.837,7.837,7.837h113.883v161.589H175.205V175.205h12.006c4.329,0,7.837-3.508,7.837-7.837
	C195.048,163.04,191.54,159.532,187.211,159.532z"/>
<path d="M410.305,51.713c-3.449-2.61-8.365-1.93-10.978,1.522c-2.611,3.451-1.93,8.366,1.522,10.978
	c60.676,45.901,95.477,115.805,95.477,191.787c0,132.516-107.81,240.327-240.327,240.327S15.673,388.516,15.673,256
	S123.484,15.673,256,15.673c40.683,0,80.878,10.349,116.241,29.93c3.788,2.098,8.556,0.725,10.652-3.061
	c2.096-3.787,0.726-8.556-3.06-10.652C342.153,11.028,299.333,0,256,0C187.62,0,123.332,26.628,74.981,74.981S0,187.62,0,256
	s26.628,132.668,74.981,181.019S187.62,512,256,512s132.668-26.628,181.019-74.981S512,324.38,512,256
	c0-40.799-9.315-79.798-27.686-115.914C466.795,105.646,441.204,75.087,410.305,51.713z"/>
<path d="M184.722,194.649v122.702c0,5.473,4.453,9.927,9.927,9.927h122.702c5.473,0,9.927-4.453,9.927-9.927V194.649
	c0-5.473-4.453-9.927-9.927-9.927H194.649C189.176,184.722,184.722,189.176,184.722,194.649z M200.396,200.396h111.208v111.208
	H200.396V200.396z"/>
<g>
</g>
<g>
</g>
<g>
</g>
<g>
</g>
<g>
</g>
<g>
</g>
<g>
</g>
<g>
</g>
<g>
</g>
<g>
</g>
<g>
</g>
<g>
</g>
<g>
</g>
<g>
</g>
<g>
</g>
</svg>
