<?xml version="1.0" encoding="UTF-8"?>
<svg width="264px" height="264px" viewBox="0 0 264 264" version="1.1" xmlns="http://www.w3.org/2000/svg" xmlns:xlink="http://www.w3.org/1999/xlink">
    <!-- Generator: Sketch 55.2 (78181) - https://sketchapp.com -->
    <title>Small Scarlet Tashax</title>
    <desc>Created with Sketch.</desc>
    <g id="Small-Scarlet-Tashax" stroke="none" stroke-width="1" fill="none" fill-rule="evenodd">
        <g id="Scarlet-Small" transform="translate(84.000000, 40.000000)">
            <polygon id="Path-3" fill="#F71576" points="36.9639125 -6.03961325e-14 0 41.2839506 38.5 54.5352556 75.5474059 28.1481481"></polygon>
            <polygon id="Path-4" fill="#F71576" points="-2.20268248e-13 41 18.4819562 125.716049 38.5 164.388673 54.4419573 139.596291 29.3629466 102.694336 38.5 70.5903524 38.5 54.2513049"></polygon>
            <polygon id="Path-5" fill="#C4195E" points="75.5474059 28.1481481 95.5088166 102.978287 95.5088166 141.808069 54.4419573 139.880242 48 102.978287 54.4419573 76.1318437 38.5 54.5352556"></polygon>
            <polygon id="Path-6" fill="#680848" points="37.773703 164.672623 69.5462931 183.113218 95.5088166 141.808069 54.4419573 139.880242"></polygon>
            <polygon id="Path-2" fill="#680848" points="38.5 53.5352556 54.4419573 76.4181681 48 102.694336 54.4419573 138.880242 29.3629466 102.694336 38.5 70.5903524"></polygon>
        </g>
    </g>
</svg>