<?xml version="1.0" encoding="UTF-8"?>
<svg width="264px" height="264px" viewBox="0 0 264 264" version="1.1" xmlns="http://www.w3.org/2000/svg" xmlns:xlink="http://www.w3.org/1999/xlink">
    <!-- Generator: Sketch 55.2 (78181) - https://sketchapp.com -->
    <title>Large Violet Tashax</title>
    <desc>Created with Sketch.</desc>
    <g id="Large-Violet-Tashax" stroke="none" stroke-width="1" fill="none" fill-rule="evenodd">
        <g id="Violet-Large" transform="translate(68.000000, 50.000000)">
            <polygon id="Path-8" fill="#E563DA" points="59.9758731 0 45.3629466 35.0750086 13.0000743 20.9370728"></polygon>
            <polygon id="Path-9" fill="#BE21D6" points="45.3629466 35.0750086 36.4879737 78.3749896 0 86.7252761 13.0000743 20.9370728"></polygon>
            <polygon id="Path-10" fill="#BE21D6" points="36.4879737 78.3749896 33.1440124 128.144684 0 141.398039 0 86.7252761"></polygon>
            <polygon id="Path-11" fill="#8B1D9C" points="33.1440124 128.144684 58.1966594 142.795518 37.5195938 163.386329 0 141.398039"></polygon>
            <polygon id="Path-13" fill="#A129F2" points="88.5919017 33.5570422 98.2491106 82 118.284723 78.3749896 105.460865 20.9370728"></polygon>
            <polygon id="Path-14" fill="#A129F2" points="98.2491106 82 98.2491106 120.824389 127.606064 116.565337 118.284723 78.3749896"></polygon>
            <polygon id="Path-15" fill="#530E81" points="98.2491106 120.824389 85.0159303 141.398039 100.820862 154.080499 127.606064 116.565337"></polygon>
            <polygon id="Path-16" fill="#5E0797" points="58.1966594 142.795518 85.0159303 141.398039 100.820862 154.080499 37.5195938 163.386329"></polygon>
            <polygon id="Path-17" fill="#A129F2" points="45.3629466 35.0750086 88.5919017 33.5570422 98.2491106 82 98.2491106 120.824389 85.0159303 141.398039 58.1966594 142.795518 33.1440124 128.144684 36.4879737 78.3749896"></polygon>
            <polygon id="Path-7" fill="#A129F2" points="59.9758731 -1.13686838e-13 88.5919017 33.5570422 105.460865 20.9370728"></polygon>
            <polygon id="Path-18" fill="#BE21D6" points="59.9758731 0 45.3629466 35.0750086 88.5919017 33.5570422"></polygon>
        </g>
    </g>
</svg>